<svg width="17" height="17" viewBox="0 0 17 17" fill="none" xmlns="http://www.w3.org/2000/svg">
<path fill-rule="evenodd" clip-rule="evenodd" d="M10.2145 8.49621L15.8655 2.84521C15.977 2.73379 16.0654 2.60149 16.1258 2.45588C16.1861 2.31027 16.2172 2.15419 16.2173 1.99657C16.2173 1.83894 16.1863 1.68285 16.126 1.5372C16.0658 1.39155 15.9774 1.2592 15.866 1.14771C15.7545 1.03622 15.6222 0.947766 15.4766 0.887402C15.331 0.827038 15.1749 0.795945 15.0173 0.795898C14.8597 0.795852 14.7036 0.826853 14.558 0.887131C14.4123 0.94741 14.28 1.03579 14.1685 1.14721L8.51747 6.79921L2.86547 1.14721C2.63783 0.934588 2.33648 0.818728 2.02503 0.824084C1.71358 0.829441 1.41639 0.955596 1.19619 1.17592C0.975998 1.39625 0.850019 1.69351 0.844846 2.00496C0.839672 2.31641 0.95571 2.61769 1.16847 2.84521L6.82047 8.49621L1.16847 14.1472C1.00143 14.3154 0.887848 14.5292 0.842016 14.7618C0.796185 14.9944 0.820146 15.2353 0.910887 15.4543C1.00163 15.6733 1.1551 15.8606 1.35199 15.9926C1.54889 16.1246 1.78042 16.1954 2.01747 16.1962C2.32447 16.1962 2.63147 16.0792 2.86547 15.8452L8.51747 10.1932L14.1685 15.8452C14.2798 15.9569 14.412 16.0455 14.5576 16.1059C14.7032 16.1664 14.8593 16.1975 15.017 16.1975C15.1746 16.1975 15.3307 16.1664 15.4763 16.1059C15.6219 16.0455 15.7542 15.9569 15.8655 15.8452C15.977 15.7338 16.0655 15.6014 16.1259 15.4557C16.1863 15.3101 16.2174 15.1539 16.2174 14.9962C16.2174 14.8385 16.1863 14.6824 16.1259 14.5367C16.0655 14.391 15.977 14.2587 15.8655 14.1472L10.2145 8.49621Z" fill="#8B95A1"/>
</svg>
