<?xml version="1.0" encoding="UTF-8"?><svg xmlns="http://www.w3.org/2000/svg" viewBox="0 0 235.28 235.28"><defs><style>.cls-1{fill:#fff;}.cls-2{fill:#fc86d2;}.cls-3{isolation:isolate;}.cls-4{fill:#fd5fa9;}.cls-5{stroke-linecap:round;stroke-width:1.33px;}.cls-5,.cls-6{stroke:#fff;}.cls-5,.cls-6,.cls-7{fill:none;stroke-miterlimit:10;}.cls-8{fill:#ff0072;}.cls-6,.cls-7{stroke-width:.99px;}.cls-7{stroke:#000;}.cls-9{fill:#ff307b;}.cls-10{fill:#121212;}.cls-11{mix-blend-mode:multiply;opacity:.38;}</style></defs><g class="cls-3"><g id="Layer_1"><g><g><g><rect class="cls-4" x="69.27" y="48.08" width="96.69" height="136.91"/><polygon class="cls-10" points="165.96 184.99 128.91 184.99 149.31 48.08 165.96 48.08 165.96 184.99"/></g><g><line class="cls-5" x1="81.69" y1="79.26" x2="153.54" y2="79.26"/><line class="cls-5" x1="81.69" y1="94.17" x2="153.54" y2="94.17"/><line class="cls-5" x1="81.69" y1="109.08" x2="153.54" y2="109.08"/><line class="cls-5" x1="81.69" y1="123.99" x2="153.54" y2="123.99"/><line class="cls-5" x1="81.69" y1="138.9" x2="153.54" y2="138.9"/><line class="cls-5" x1="81.69" y1="153.81" x2="153.54" y2="153.81"/></g></g><g><rect class="cls-9" x="174.24" y="87.74" width="12.21" height="94.06" transform="translate(83.31 -68.38) rotate(27.7)"/><polygon class="cls-2" points="158.49 176.41 163.9 179.25 158.98 182.76 152.83 187.2 152.99 179.63 153.08 173.57 158.49 176.41"/><polygon class="cls-10" points="154.47 184.07 156.04 184.89 154.61 185.91 152.83 187.2 152.88 184.99 152.9 183.25 154.47 184.07"/><rect class="cls-10" x="196.94" y="88.62" width="12.21" height="5.82" transform="translate(65.81 -83.89) rotate(27.7)"/><rect class="cls-10" x="177.68" y="88.78" width="4.83" height="92.96" transform="translate(83.5 -68.21) rotate(27.7)"/></g><g><g><g class="cls-11"><polygon points="74.3 181.72 66.43 179.44 63.49 187.08 57.1 181.96 51.46 187.89 47.51 180.72 40.03 184.04 39.13 175.9 30.95 176.1 33.23 168.24 25.59 165.3 30.71 158.91 24.78 153.26 31.95 149.32 28.63 141.83 36.76 140.94 36.57 132.75 44.43 135.03 47.37 127.39 53.76 132.51 59.4 126.58 63.35 133.76 70.83 130.43 71.73 138.57 79.91 138.37 77.64 146.23 85.28 149.18 80.15 155.56 86.08 161.21 78.91 165.16 82.24 172.64 74.1 173.54 74.3 181.72"/><polygon class="cls-7" points="74.3 181.72 66.43 179.44 63.49 187.08 57.1 181.96 51.46 187.89 47.51 180.72 40.03 184.04 39.13 175.9 30.95 176.1 33.23 168.24 25.59 165.3 30.71 158.91 24.78 153.26 31.95 149.32 28.63 141.83 36.76 140.94 36.57 132.75 44.43 135.03 47.37 127.39 53.76 132.51 59.4 126.58 63.35 133.76 70.83 130.43 71.73 138.57 79.91 138.37 77.64 146.23 85.28 149.18 80.15 155.56 86.08 161.21 78.91 165.16 82.24 172.64 74.1 173.54 74.3 181.72"/></g><g><polygon points="72.18 179.6 64.31 177.32 61.37 184.96 54.98 179.84 49.34 185.77 45.39 178.6 37.91 181.92 37.01 173.78 28.83 173.98 31.11 166.12 23.47 163.18 28.59 156.79 22.66 151.14 29.83 147.2 26.51 139.71 34.64 138.82 34.45 130.63 42.31 132.91 45.25 125.27 51.64 130.39 57.28 124.47 61.23 131.64 68.71 128.31 69.61 136.45 77.79 136.25 75.52 144.11 83.16 147.06 78.03 153.44 83.96 159.09 76.79 163.04 80.12 170.52 71.98 171.42 72.18 179.6"/><polygon class="cls-6" points="72.18 179.6 64.31 177.32 61.37 184.96 54.98 179.84 49.34 185.77 45.39 178.6 37.91 181.92 37.01 173.78 28.83 173.98 31.11 166.12 23.47 163.18 28.59 156.79 22.66 151.14 29.83 147.2 26.51 139.71 34.64 138.82 34.45 130.63 42.31 132.91 45.25 125.27 51.64 130.39 57.28 124.47 61.23 131.64 68.71 128.31 69.61 136.45 77.79 136.25 75.52 144.11 83.16 147.06 78.03 153.44 83.96 159.09 76.79 163.04 80.12 170.52 71.98 171.42 72.18 179.6"/></g></g><g><g><path class="cls-8" d="M32.36,161.89l1.96-8.64,6.77-.96c.4-.06,.74-.01,1.03,.13,.28,.14,.52,.33,.7,.57s.33,.5,.43,.78c.1,.29,.17,.54,.2,.77,.06,.45,0,.89-.16,1.3-.17,.41-.41,.78-.72,1.11-.31,.33-.65,.6-1.05,.81-.39,.21-.78,.35-1.16,.4l-3.45,.49-.62,2.67-3.96,.56Zm3.79-.74l.6-2.67,3.6-.51c.36-.05,.73-.18,1.1-.38,.37-.2,.7-.45,.99-.76,.29-.3,.51-.65,.67-1.03,.16-.39,.21-.8,.15-1.23-.03-.22-.09-.46-.19-.71-.09-.26-.23-.5-.39-.72-.17-.22-.38-.39-.64-.52-.26-.13-.57-.17-.92-.12l-6.63,.94-1.86,8.21,3.53-.5Zm-2.99,.03l1.68-7.4,6.34-.9c.28-.04,.51,0,.71,.11,.19,.11,.36,.26,.5,.45,.14,.19,.24,.39,.31,.6,.07,.22,.12,.41,.15,.59,.05,.37,0,.73-.13,1.06s-.34,.63-.59,.9-.54,.48-.86,.65c-.32,.17-.64,.28-.96,.33l-3.88,.55-.6,2.69-2.66,.38Zm3.88-5.87l-.47,2.12,1.17-1.32,2.21-.31s.03-.03,.05-.07c.02-.05,.05-.1,.09-.15,.03-.06,.06-.11,.09-.17,.02-.06,.03-.09,.03-.11l.02-.07s-.03-.03-.04-.06c-.03-.05-.08-.1-.16-.17-.08-.06-.13-.09-.15-.09l-2.85,.4Zm2.8,.09l-2.32,.33-.22,.25,.06-.32,2.44-.35c0,.05,.02,.08,.03,.09Zm-.03-.09s.04,.06,.04,.07v.02m.04-.1h.03s-.02,0-.03,.02v-.02Z"/><path class="cls-8" d="M52.8,158.99l-3.67,.52-.26-.72c-.14,.2-.28,.38-.41,.55-.13,.17-.24,.27-.32,.31l-6.66,.95c0-.15,0-.28,.02-.4,.01-.12,.03-.23,.04-.35l4.12-7.1c.04-.08,.12-.19,.22-.33,.11-.14,.23-.28,.36-.42,.13-.14,.27-.26,.41-.37,.14-.1,.26-.16,.36-.18l2.3-.33c.22-.03,.41,0,.58,.11,.17,.1,.31,.24,.44,.4,.12,.17,.22,.34,.3,.53s.14,.34,.19,.47l1.97,6.36Zm-2.08-6.08c-.05-.14-.12-.31-.21-.5s-.18-.37-.3-.54c-.11-.17-.24-.31-.39-.42-.15-.11-.31-.15-.48-.13l-2.3,.33c-.09,.01-.2,.07-.33,.17-.13,.1-.25,.22-.37,.34-.12,.13-.22,.26-.32,.38-.09,.13-.15,.23-.17,.29l.02-.07-4.12,7.08c-.01,.08-.02,.15-.02,.23,0,.08-.01,.17-.02,.26l6.4-.91c.08-.05,.2-.19,.36-.4,.16-.21,.32-.44,.48-.68l.32,.92,3.26-.46-1.81-5.91Zm1.28,5.59l-2.44,.35-.51-1.46c-.01,.05-.07,.16-.16,.33-.09,.16-.2,.34-.31,.53s-.23,.36-.35,.52c-.12,.16-.21,.26-.27,.3l-5.81,.82c0-.11,.01-.14,.02-.1v-.05l4.06-6.78c.02-.05,.07-.13,.13-.23,.07-.1,.14-.2,.23-.3,.09-.1,.18-.19,.27-.27s.16-.13,.23-.13l2.3-.33c.09-.01,.18,.02,.28,.11,.09,.09,.17,.2,.25,.33,.08,.14,.14,.28,.2,.43,.06,.15,.11,.27,.16,.37l1.72,5.55Zm-5.79-1.14l.02,.14,2.78-.39-.92-3.04-1.88,3.3Zm1.75-2.25l.52,1.66-1.59,.23,1.07-1.89Zm-.7,1.64l.94-.13-.3-.98-.65,1.12Z"/><path class="cls-8" d="M52.23,155.16c-.07-.49-.03-1.02,.12-1.56,.15-.55,.39-1.06,.71-1.54s.71-.88,1.18-1.22c.47-.34,.98-.55,1.54-.63l6.88-.98c-.42,.7-.81,1.34-1.17,1.9-.37,.57-.74,1.05-1.11,1.45l-3.77,.54c-.11,.02-.23,.13-.35,.34-.12,.21-.2,.43-.25,.66v-.03c-.04,.15-.04,.28-.03,.38,.01,.1,.06,.21,.12,.32,.07,.11,.15,.21,.24,.31,.09,.09,.19,.16,.3,.22,.11,.05,.2,.07,.29,.06l4.44-.63c-.31,.6-.65,1.2-1.01,1.8-.36,.6-.74,1.11-1.15,1.54l-1.3,.18c-.64,.09-1.27,.12-1.9,.1-.63-.03-1.2-.15-1.72-.37-.52-.22-.96-.55-1.33-1-.37-.45-.61-1.05-.71-1.8v-.03Zm.2,0c.1,.71,.33,1.28,.67,1.7,.35,.42,.78,.74,1.28,.95s1.06,.32,1.67,.35c.61,.02,1.22,0,1.82-.09l1.24-.18c.37-.37,.71-.81,1.02-1.34,.31-.52,.6-1.04,.87-1.57l-4.05,.57c-.11,.02-.24,0-.36-.07-.13-.06-.25-.15-.37-.25-.12-.11-.22-.23-.3-.36-.09-.13-.14-.26-.16-.38,0-.04,0-.1,0-.18,.01-.08,.02-.17,.03-.26v.02c.03-.12,.07-.24,.12-.37,.06-.13,.12-.25,.19-.36,.07-.11,.15-.2,.23-.28,.08-.07,.16-.12,.24-.13l3.71-.53c.33-.38,.66-.82,.97-1.3,.32-.48,.65-1.02,1.01-1.62l-6.46,.92c-.54,.08-1.03,.28-1.47,.6-.44,.33-.82,.71-1.13,1.17-.31,.46-.53,.94-.68,1.46-.14,.52-.18,1.02-.11,1.49v.03Zm.42-.06v-.03c-.06-.42-.03-.87,.1-1.35s.33-.92,.6-1.33c.27-.41,.61-.77,1-1.06,.4-.29,.83-.47,1.32-.54l5.63-.8c-.22,.38-.44,.73-.66,1.06-.22,.33-.47,.65-.75,.97l-3.56,.51c-.11,.02-.23,.07-.35,.17-.12,.1-.24,.21-.34,.35-.1,.13-.19,.29-.27,.46-.08,.17-.14,.33-.17,.5-.04,.22-.05,.4-.03,.56,.02,.16,.09,.34,.21,.51s.26,.34,.42,.48c.16,.14,.33,.25,.51,.33,.18,.08,.35,.11,.5,.09l3.26-.46c-.16,.33-.35,.67-.57,1.02-.22,.35-.48,.69-.8,1l-1.08,.15c-.56,.08-1.11,.11-1.67,.09-.56-.02-1.06-.12-1.53-.3-.46-.18-.85-.46-1.17-.84-.32-.38-.52-.88-.61-1.52Z"/><path class="cls-8" d="M60.68,157.87l1.99-8.64,4.02-.57-.53,2.25,2.84-2.58,5.06-.72-5.24,5.07,3.61,3.53-4.52,.64-2.57-2.24-.64,2.69-4,.57Zm3.84-.75l.68-2.9,2.79,2.41,4.02-.57-3.48-3.4,4.94-4.75-4.38,.62-3.28,2.99,.62-2.61-3.59,.51-1.89,8.22,3.57-.51Zm-3.02,.03l1.7-7.4,2.69-.38-.77,3.33,4.18-3.81,3-.42-4.34,4.2,3.17,3.13-2.98,.42-3.19-2.77-.77,3.33-2.68,.38Z"/></g><polygon class="cls-1" points="39.79 155.3 39.86 155.43 39.9 155.41 39.8 155.25 39.79 155.3"/><polygon class="cls-1" points="39.88 155.27 39.89 155.33 39.95 155.33 39.96 155.28 39.88 155.27"/><path class="cls-8" d="M37.74,156.11l-1.05,.13-.55,.88,.08,.38s.51,.01,.74,.03,.44-.19,.63-.2,.15-1.22,.15-1.22Z"/><polygon class="cls-1" points="37.53 155.73 37.27 155.78 37.19 156.04 37.58 155.96 37.53 155.73"/></g></g></g></g></g></svg>