<svg width="5" height="18" viewBox="0 0 5 18" fill="none" xmlns="http://www.w3.org/2000/svg">
<path fill-rule="evenodd" clip-rule="evenodd" d="M0.45896 2.08008C0.459026 1.81737 0.510836 1.55724 0.611431 1.31456C0.712026 1.07187 0.859437 0.851375 1.04525 0.665657C1.23106 0.47994 1.45163 0.33264 1.69436 0.232166C1.9371 0.131692 2.19725 0.0800124 2.45996 0.0800781C2.72267 0.0801438 2.98279 0.131953 3.22548 0.232548C3.46817 0.333144 3.68866 0.480554 3.87438 0.666364C4.0601 0.852175 4.2074 1.07274 4.30787 1.31548C4.40835 1.55822 4.46003 1.81837 4.45996 2.08108C4.45983 2.61164 4.24893 3.12043 3.87367 3.4955C3.49841 3.87057 2.98953 4.08121 2.45896 4.08108C1.92839 4.08095 1.41961 3.87005 1.04454 3.49479C0.669467 3.11953 0.458828 2.61064 0.45896 2.08008ZM0.45896 8.85108C0.45896 8.32065 0.669674 7.81194 1.04475 7.43686C1.41982 7.06179 1.92853 6.85108 2.45896 6.85108C2.98939 6.85108 3.4981 7.06179 3.87317 7.43686C4.24825 7.81194 4.45896 8.32065 4.45896 8.85108C4.45896 9.38151 4.24825 9.89022 3.87317 10.2653C3.4981 10.6404 2.98939 10.8511 2.45896 10.8511C1.92853 10.8511 1.41982 10.6404 1.04475 10.2653C0.669674 9.89022 0.45896 9.38151 0.45896 8.85108ZM0.45896 15.6211C0.459026 15.3584 0.510835 15.0982 0.61143 14.8556C0.712026 14.6129 0.859436 14.3924 1.04525 14.2067C1.23106 14.0209 1.45163 13.8736 1.69436 13.7732C1.9371 13.6727 2.19725 13.621 2.45996 13.6211C2.72267 13.6211 2.98279 13.673 3.22548 13.7735C3.46817 13.8741 3.68866 14.0216 3.87438 14.2074C4.0601 14.3932 4.2074 14.6137 4.30787 14.8565C4.40835 15.0992 4.46003 15.3594 4.45996 15.6221C4.45983 16.1526 4.24893 16.6614 3.87367 17.0365C3.49841 17.4116 2.98953 17.6222 2.45896 17.6221C1.92839 17.6219 1.41961 17.4111 1.04454 17.0358C0.669466 16.6605 0.458827 16.1516 0.45896 15.6211Z" fill="#8B95A1"/>
</svg>
