<svg width="5" height="19" viewBox="0 0 5 19" fill="none" xmlns="http://www.w3.org/2000/svg">
<path fill-rule="evenodd" clip-rule="evenodd" d="M0.52146 2.55521C0.521526 2.2925 0.573336 2.03237 0.673931 1.78969C0.774526 1.547 0.921937 1.3265 1.10775 1.14079C1.29356 0.955068 1.51413 0.807768 1.75686 0.707294C1.9996 0.60682 2.25975 0.555141 2.52246 0.555206C2.78517 0.555272 3.04529 0.607081 3.28798 0.707677C3.53067 0.808272 3.75116 0.955683 3.93688 1.14149C4.1226 1.3273 4.2699 1.54787 4.37037 1.79061C4.47085 2.03335 4.52253 2.2935 4.52246 2.55621C4.52233 3.08677 4.31143 3.59555 3.93617 3.97063C3.56091 4.3457 3.05203 4.55634 2.52146 4.55621C1.99089 4.55607 1.48211 4.34518 1.10704 3.96992C0.731967 3.59466 0.521328 3.08577 0.52146 2.55521ZM0.52146 9.32621C0.52146 8.79577 0.732174 8.28707 1.10725 7.91199C1.48232 7.53692 1.99103 7.32621 2.52146 7.32621C3.05189 7.32621 3.5606 7.53692 3.93567 7.91199C4.31075 8.28707 4.52146 8.79577 4.52146 9.32621C4.52146 9.85664 4.31075 10.3653 3.93567 10.7404C3.5606 11.1155 3.05189 11.3262 2.52146 11.3262C1.99103 11.3262 1.48232 11.1155 1.10725 10.7404C0.732174 10.3653 0.52146 9.85664 0.52146 9.32621ZM0.52146 16.0962C0.521526 15.8335 0.573335 15.5734 0.67393 15.3307C0.774526 15.088 0.921936 14.8675 1.10775 14.6818C1.29356 14.4961 1.51413 14.3488 1.75686 14.2483C1.9996 14.1478 2.25975 14.0961 2.52246 14.0962C2.78517 14.0963 3.04529 14.1481 3.28798 14.2487C3.53067 14.3493 3.75116 14.4967 3.93688 14.6825C4.1226 14.8683 4.2699 15.0889 4.37037 15.3316C4.47085 15.5743 4.52253 15.8345 4.52246 16.0972C4.52233 16.6278 4.31143 17.1366 3.93617 17.5116C3.56091 17.8867 3.05203 18.0973 2.52146 18.0972C1.99089 18.0971 1.48211 17.8862 1.10704 17.5109C0.731966 17.1357 0.521327 16.6268 0.52146 16.0962Z" fill="#121212"/>
</svg>
