<svg width="337" height="33" viewBox="0 0 337 33" fill="none" xmlns="http://www.w3.org/2000/svg">
<rect x="1.45996" y="0.719727" width="335" height="31" rx="7.5" stroke="#D6D6D6" stroke-dasharray="3 3"/>
<path fill-rule="evenodd" clip-rule="evenodd" d="M174.194 15.4538H169.726V10.9857C169.726 10.7825 169.645 10.5877 169.501 10.4441C169.358 10.3004 169.163 10.2197 168.96 10.2197C168.757 10.2197 168.562 10.3004 168.418 10.4441C168.274 10.5877 168.194 10.7825 168.194 10.9857V15.4538H163.726C163.523 15.4538 163.328 15.5345 163.184 15.6781C163.04 15.8218 162.96 16.0166 162.96 16.2197C162.96 16.4229 163.04 16.6177 163.184 16.7613C163.328 16.905 163.523 16.9857 163.726 16.9857H168.194V21.4538C168.194 21.6569 168.274 21.8517 168.418 21.9954C168.562 22.139 168.757 22.2197 168.96 22.2197C169.163 22.2197 169.358 22.139 169.501 21.9954C169.645 21.8517 169.726 21.6569 169.726 21.4538V16.9857H174.194C174.397 16.9857 174.592 16.905 174.735 16.7613C174.879 16.6177 174.96 16.4229 174.96 16.2197C174.96 16.0166 174.879 15.8218 174.735 15.6781C174.592 15.5345 174.397 15.4538 174.194 15.4538Z" fill="#808080"/>
</svg>
