<svg width="25" height="25" viewBox="0 0 25 25" fill="none" xmlns="http://www.w3.org/2000/svg">
<path fill-rule="evenodd" clip-rule="evenodd" d="M16.226 20.3071C16.0488 20.3072 15.8732 20.2723 15.7095 20.2043C15.5458 20.1364 15.3971 20.0367 15.272 19.9111L8.52203 13.1611C8.39662 13.0358 8.29714 12.8869 8.22927 12.7231C8.1614 12.5593 8.12646 12.3837 8.12646 12.2064C8.12646 12.0291 8.1614 11.8535 8.22927 11.6897C8.29714 11.5258 8.39662 11.377 8.52203 11.2516L15.272 4.50163C15.3964 4.37191 15.5454 4.26832 15.7104 4.19695C15.8753 4.12558 16.0528 4.08786 16.2326 4.08601C16.4123 4.08415 16.5905 4.1182 16.7569 4.18615C16.9233 4.2541 17.0744 4.35459 17.2015 4.48172C17.3285 4.60885 17.4289 4.76006 17.4967 4.92649C17.5645 5.09292 17.5984 5.27122 17.5964 5.45093C17.5944 5.63064 17.5565 5.80814 17.4851 5.97302C17.4136 6.1379 17.3098 6.28685 17.18 6.41113L11.3855 12.2071L17.18 18.0016C17.3691 18.1903 17.4979 18.4309 17.5502 18.6929C17.6025 18.9549 17.5759 19.2265 17.4738 19.4733C17.3716 19.7201 17.1985 19.9311 16.9764 20.0796C16.7543 20.228 16.4932 20.3072 16.226 20.3071Z" fill="#535353"/>
</svg>
