<?xml version="1.0" encoding="UTF-8"?><svg id="Layer_1" xmlns="http://www.w3.org/2000/svg" xmlns:xlink="http://www.w3.org/1999/xlink" viewBox="0 0 221.1 124.16"><defs><style>.cls-1{fill:#54cdd8;}.cls-2,.cls-3,.cls-4,.cls-5,.cls-6,.cls-7,.cls-8,.cls-9,.cls-10,.cls-11{fill:#fff;}.cls-12{fill:#69e6ed;}.cls-13{letter-spacing:-.03em;}.cls-14{fill:#fa8cd5;}.cls-15,.cls-16{fill:#ed377b;}.cls-17{letter-spacing:-.12em;}.cls-18{stroke:#1fce65;}.cls-18,.cls-19,.cls-3,.cls-20,.cls-21,.cls-4,.cls-22,.cls-5,.cls-23,.cls-6,.cls-24,.cls-25,.cls-7,.cls-8,.cls-26,.cls-27,.cls-28,.cls-29,.cls-30,.cls-31,.cls-11{stroke-miterlimit:10;}.cls-18,.cls-21,.cls-22,.cls-27,.cls-28,.cls-32{fill:none;}.cls-18,.cls-4{stroke-width:.25px;}.cls-19{stroke-width:.13px;}.cls-19,.cls-3,.cls-20,.cls-4,.cls-5,.cls-23,.cls-6,.cls-24,.cls-25,.cls-7,.cls-26,.cls-28,.cls-29,.cls-30,.cls-31,.cls-11{stroke:#000;}.cls-3{stroke-width:.14px;}.cls-33{fill:#e1eefb;}.cls-20{stroke-width:.27px;}.cls-20,.cls-24,.cls-31,.cls-34{fill:#1fce65;}.cls-21{stroke:#5cc6d2;stroke-width:.17px;}.cls-35{letter-spacing:-.08em;}.cls-36{filter:url(#drop-shadow-4);}.cls-22{stroke:#e6e6e6;stroke-width:.5px;}.cls-37{clip-path:url(#clippath-2);}.cls-5{stroke-width:.2px;}.cls-38{letter-spacing:-.11em;}.cls-39{letter-spacing:0em;}.cls-23{stroke-width:.12px;}.cls-23,.cls-40,.cls-25,.cls-26,.cls-41{fill:#ff307b;}.cls-6{stroke-width:.25px;}.cls-24,.cls-30{stroke-width:.07px;}.cls-40{font-family:AirstrikeGradient, 'Airstrike Gradient';font-size:8.7px;}.cls-25{stroke-width:.34px;}.cls-42{letter-spacing:-.02em;}.cls-43{letter-spacing:-.08em;}.cls-7{stroke-width:.05px;}.cls-44{filter:url(#drop-shadow-11);}.cls-45{letter-spacing:-.03em;}.cls-46{clip-path:url(#clippath-1);}.cls-47{clip-path:url(#clippath-4);}.cls-8{stroke:#868686;stroke-width:.25px;}.cls-16,.cls-10{font-family:AirstrikeCondensed, 'Airstrike Condensed';font-size:8.31px;}.cls-26{stroke-width:.26px;}.cls-48{fill:#2b2b2b;}.cls-27{stroke:#fff;stroke-width:.97px;}.cls-28{stroke-width:.1px;}.cls-29{stroke-width:.05px;}.cls-49{clip-path:url(#clippath);}.cls-31{stroke-width:.11px;}.cls-50{filter:url(#drop-shadow-16);}.cls-51{letter-spacing:0em;}.cls-52{fill:#ff70fe;}.cls-53{clip-path:url(#clippath-3);}.cls-54{fill:#7688ff;}.cls-9{font-family:Airstrike3D, 'Airstrike 3D';font-size:3.54px;}.cls-55{letter-spacing:-.04em;}.cls-56{fill:#5cc6d2;}.cls-57{letter-spacing:-.01em;}.cls-58{filter:url(#drop-shadow-12);}.cls-11{stroke-width:.06px;}</style><filter id="drop-shadow-4" filterUnits="userSpaceOnUse"><feOffset dx="1.31" dy="1.31"/><feGaussianBlur result="blur" stdDeviation="0"/><feFlood flood-color="#000" flood-opacity=".34"/><feComposite in2="blur" operator="in"/><feComposite in="SourceGraphic"/></filter><clipPath id="clippath"><circle class="cls-32" cx="186.45" cy="24.32" r="23.14"/></clipPath><filter id="drop-shadow-11" filterUnits="userSpaceOnUse"><feOffset dx="1.23" dy="1.23"/><feGaussianBlur result="blur-2" stdDeviation="0"/><feFlood flood-color="#000" flood-opacity=".38"/><feComposite in2="blur-2" operator="in"/><feComposite in="SourceGraphic"/></filter><clipPath id="clippath-1"><path class="cls-32" d="M93.7,26.36l-20.43-3.46-24.98-4.23-20.43-3.46c-.43,2.51-2.81,4.2-5.32,3.78l-5.56,32.83c2.51,.43,4.2,2.81,3.78,5.32l20.43,3.46,24.98,4.23,20.43,3.46c.43-2.51,2.81-4.2,5.32-3.78l5.56-32.83c-2.51-.43-4.2-2.81-3.78-5.32Z"/></clipPath><clipPath id="clippath-2"><circle class="cls-32" cx="67.5" cy="52.38" r="9.28"/></clipPath><clipPath id="clippath-3"><circle class="cls-32" cx="78.33" cy="56.52" r="6.01"/></clipPath><filter id="drop-shadow-12" filterUnits="userSpaceOnUse"><feOffset dx="1.13" dy="1.13"/><feGaussianBlur result="blur-3" stdDeviation="0"/><feFlood flood-color="#000" flood-opacity=".38"/><feComposite in2="blur-3" operator="in"/><feComposite in="SourceGraphic"/></filter><clipPath id="clippath-4"><path class="cls-32" d="M131.46,75.79l-11.47-3.01c-.5-.13-.76-.75-.58-1.35l5.65-18.57c1.08-4.11,4.58-6.76,7.82-5.91l.24,.06c3.24,.85,4.99,4.88,3.91,8.99l-4.41,18.91c-.14,.61-.67,1.01-1.16,.88Z"/></clipPath><filter id="drop-shadow-16" filterUnits="userSpaceOnUse"><feOffset dx="1.14" dy="1.14"/><feGaussianBlur result="blur-4" stdDeviation="0"/><feFlood flood-color="#000" flood-opacity=".38"/><feComposite in2="blur-4" operator="in"/><feComposite in="SourceGraphic"/></filter></defs><g><g><polygon class="cls-2" points="221.39 124.11 .19 124.11 .19 .05 25.06 .05 221.39 .05 221.39 124.11"/><line class="cls-22" x1="22.31" y1=".05" x2="22.31" y2="124.11"/><line class="cls-22" x1=".19" y1=".05" x2=".19" y2="124.11"/><line class="cls-22" x1="44.43" y1=".05" x2="44.43" y2="124.11"/><line class="cls-22" x1="66.55" y1=".05" x2="66.55" y2="124.11"/><line class="cls-22" x1="88.67" y1=".05" x2="88.67" y2="124.11"/><line class="cls-22" x1="110.79" y1=".05" x2="110.79" y2="124.11"/><line class="cls-22" x1="132.91" y1=".05" x2="132.91" y2="124.11"/><line class="cls-22" x1="155.03" y1=".05" x2="155.03" y2="124.11"/><line class="cls-22" x1="177.15" y1=".05" x2="177.15" y2="124.11"/><line class="cls-22" x1="199.27" y1=".05" x2="199.27" y2="124.11"/></g><line class="cls-22" x1="221.39" y1=".05" x2=".19" y2=".05"/><line class="cls-22" x1="221.39" y1="124.11" x2=".19" y2="124.11"/><line class="cls-22" x1="221.39" y1="103.43" x2=".19" y2="103.43"/><line class="cls-22" x1="221.39" y1="82.76" x2=".19" y2="82.76"/><line class="cls-22" x1="221.39" y1="62.08" x2=".19" y2="62.08"/><line class="cls-22" x1="219.86" y1="49.69" x2="-1.34" y2="49.69"/><line class="cls-22" x1="221.39" y1="20.72" x2=".19" y2="20.72"/></g><g class="cls-36"><circle class="cls-6" cx="182.79" cy="38.25" r="24.95"/><g><circle cx="182.79" cy="38.25" r="23.14"/><g class="cls-49"><g><path class="cls-1" d="M188.45,34.35h0c-1.02-1.51-.78-4.61-.77-4.68h0l-4.9-1.3s-1.33,2.88-2.98,3.7h0c-1.54,.42-2.83,1.63-3.26,3.29l-2.53,9.62,13.16,3.46,2.53-9.62c.44-1.66-.09-3.34-1.23-4.46Z"/><rect class="cls-41" x="183" y="25.29" width="5.59" height="3.19" rx=".73" ry=".73" transform="translate(12.93 -46.34) rotate(14.72)"/><rect class="cls-41" x="182.39" y="28.56" width="5.59" height="1.27" rx=".51" ry=".51" transform="translate(13.5 -46.11) rotate(14.72)"/><path class="cls-33" d="M176.98,46.43s1.44-9.57,2.89-10.98,2.64-2.53,2.64-2.53l1.59,.42s-1.71,2.06-2.18,3.19-2.75,10.48-2.75,10.48l-2.18-.57Z"/><path class="cls-33" d="M186.46,35.08c-.36-.03-.64,.33-.48,.66,.11,.23,.18,.53,.14,.9-.12,1.04,.16,2.55,.77,2.26s1.27-2.27,.84-3.19c-.21-.45-.76-.6-1.26-.64Z"/></g></g><g><path class="cls-31" d="M170.58,48.24c-.82,1.58-2.22,1.9-4.08,.74-.92-.57-1.37-.87-2.26-1.5,1.24-1.74,1.85-2.61,3.09-4.35,.78,.55,1.18,.82,1.99,1.32,1.63,1.01,2.09,2.21,1.26,3.79Zm-3.98-.71c.22,.14,.33,.21,.54,.34,.69,.43,1.24,.3,1.63-.37l.23-.4c.39-.67,.25-1.19-.4-1.59-.2-.13-.31-.19-.51-.32-.6,.93-.9,1.4-1.5,2.34Z"/><path class="cls-31" d="M176.36,50.56c-.27,.19-.6,.28-.99,.27,.18,1.02,.29,1.53,.53,2.55-.85-.28-1.27-.43-2.1-.76-.13-.89-.18-1.33-.27-2.21-.26-.11-.39-.16-.65-.28-.31,.71-.47,1.07-.78,1.78-.73-.32-1.09-.49-1.81-.84,.94-1.92,1.42-2.87,2.36-4.79,1.2,.59,1.81,.86,3.05,1.34,.36,.14,.65,.33,.86,.56,.21,.23,.35,.49,.4,.77,.05,.28,.04,.57-.06,.85-.1,.31-.29,.56-.55,.75Zm-1.23-1.69c-.06-.12-.15-.21-.28-.26-.44-.18-.66-.27-1.09-.46-.16,.36-.24,.54-.39,.9,.44,.19,.67,.29,1.12,.47,.13,.05,.27,.06,.39,0s.22-.14,.27-.28,.05-.26-.01-.38Z"/><path class="cls-31" d="M176.89,53.7c.62-2.04,.94-3.06,1.56-5.1,.67,.2,1,.3,1.68,.47-.53,2.07-.8,3.1-1.33,5.17-.77-.2-1.15-.31-1.91-.54Z"/><path class="cls-31" d="M184.54,55.32c-.91-1.15-1.33-1.74-2.11-2.94-.18,1.02-.28,1.53-.46,2.55-.72-.13-1.08-.2-1.79-.36,.47-2.08,.7-3.13,1.17-5.21,.6,.13,.89,.19,1.5,.3,.71,1.2,1.1,1.79,1.94,2.96,.13-1.04,.19-1.57,.32-2.61,.64,.08,.96,.11,1.6,.16-.17,2.13-.26,3.19-.43,5.32-.69-.06-1.04-.09-1.73-.18Z"/><path class="cls-31" d="M191.58,50.26c.87-.04,1.31-.07,2.19-.16-.7,.95-1.07,1.42-1.86,2.34,.91,1.21,1.4,1.81,2.45,2.96-.95,.1-1.42,.13-2.37,.18-.56-.76-.82-1.14-1.33-1.91-.41,.31-.62,.46-1.04,.77,0,.48,0,.72,0,1.2-.8,0-1.2-.02-2-.06,.11-2.13,.16-3.2,.27-5.33,.7,.04,1.05,.05,1.76,.05,0,.91,0,1.37-.01,2.28,.83-.91,1.23-1.37,1.97-2.32Z"/></g><path class="cls-2" d="M175.65,25.25c-.4-.73,.33-4.37,.33-4.37,0,0-1.26,3.49-1.97,3.91-.72,.42-1.77,.55-1.77,.55,0,0,1.78,.81,1.66,1.92-.12,1.12-.51,2.91-.51,2.91,0,0,.61-1.73,1.08-2.75,.47-1.02,2.41-.79,2.41-.79,0,0-.83-.65-1.23-1.38Z"/><path class="cls-2" d="M195.81,38.61c-.4-.73,.33-4.37,.33-4.37,0,0-1.26,3.49-1.97,3.91-.72,.42-1.77,.55-1.77,.55,0,0,1.78,.81,1.66,1.92-.12,1.12-.51,2.91-.51,2.91,0,0,.61-1.73,1.08-2.75,.47-1.02,2.41-.79,2.41-.79,0,0-.83-.65-1.23-1.38Z"/></g></g><g class="cls-44"><text class="cls-10" transform="translate(42.03 37.68) rotate(9.6)"><tspan x="0" y="0">MU</tspan><tspan class="cls-57" x="10.1" y="0">S</tspan><tspan x="14.4" y="0">IC</tspan><tspan class="cls-45" x="0" y="8.19">C</tspan><tspan x="3.95" y="8.19">once</tspan><tspan class="cls-42" x="21.56" y="8.19">r</tspan><tspan class="cls-39" x="26.03" y="8.19">t</tspan></text><path class="cls-6" d="M18.23,57.78h0c.25-1.47-.74-2.87-2.21-3.11h0c-.96-.16-1.6-1.07-1.44-2.03l5.96-35.21c.16-.96,1.07-1.6,2.03-1.44,.87,.15,1.74,.29,1.74,.29,.55,.06,1-.28,1.08-.77l.29-1.73c.16-.96,1.07-1.6,2.03-1.44l67.11,11.36c.96,.16,1.6,1.07,1.44,2.03h0c-.25,1.47,.74,2.87,2.21,3.11h0c.96,.16,1.6,1.07,1.44,2.03l-5.96,35.21c-.16,.96-1.07,1.6-2.03,1.44-.87-.15-1.74-.29-1.74-.29-.55-.06-1,.28-1.08,.77l-.29,1.73c-.16,.96-1.07,1.6-2.03,1.44L19.67,59.81c-.96-.16-1.6-1.07-1.44-2.03Z"/><path class="cls-2" d="M93.7,26.36l-20.43-3.46-24.98-4.23-20.43-3.46c-.43,2.51-2.81,4.2-5.32,3.78l-5.56,32.83c2.51,.43,4.2,2.81,3.78,5.32l20.43,3.46,24.98,4.23,20.43,3.46c.43-2.51,2.81-4.2,5.32-3.78l5.56-32.83c-2.51-.43-4.2-2.81-3.78-5.32Z"/><g><g class="cls-46"><path d="M93.7,26.36l-20.43-3.46-24.98-4.23-20.43-3.46c-.43,2.51-2.81,4.2-5.32,3.78l-5.56,32.83c2.51,.43,4.2,2.81,3.78,5.32l20.43,3.46,24.98,4.23,20.43,3.46c.43-2.51,2.81-4.2,5.32-3.78l5.56-32.83c-2.51-.43-4.2-2.81-3.78-5.32Z"/><polygon class="cls-21" points="77.37 20.58 83.78 23.92 77.69 27.8 71.59 31.69 71.27 24.47 70.96 17.25 77.37 20.58"/><polygon class="cls-21" points="97.03 43.21 103.44 46.54 97.34 50.43 91.25 54.32 90.93 47.09 90.61 39.87 97.03 43.21"/><polygon class="cls-21" points="43.02 57.66 41.82 64.78 36.25 60.18 30.68 55.57 37.45 53.05 44.23 50.53 43.02 57.66"/></g><g><circle class="cls-2" cx="67.5" cy="52.38" r="9.73"/><g><circle class="cls-30" cx="67.5" cy="52.38" r="9.28"/><g class="cls-37"><path class="cls-48" d="M65.42,50.49s.22-2.07-1.49-3.05-3.23-1.65-3.11-2.86,3.07-1.56,3.07-1.56c0,0-.37,1.58,.15,2.28,.84,1.14,2.89,3.32,2.59,4.47s-1.22,.72-1.22,.72Z"/><path class="cls-48" d="M68.07,55.56s-1.05,2.07-.1,3.6c.95,1.53,4.32,.82,4.71,3.12s2.48-1.42,2.48-1.42c0,0-.6-1.7-2.63-2.11-2.03-.42-3.11-3.69-2.91-4.46s-1.55,1.28-1.55,1.28Z"/></g><circle class="cls-24" cx="67.45" cy="52.64" r="2.96"/></g></g><g><circle class="cls-2" cx="78.33" cy="56.52" r="6.4"/><g><circle class="cls-29" cx="78.33" cy="56.52" r="6.01"/><g class="cls-53"><path class="cls-48" d="M76.99,55.29s.14-1.34-.97-1.98-2.09-1.07-2.01-1.85,1.99-1.01,1.99-1.01c0,0-.24,1.02,.1,1.48,.54,.74,1.87,2.15,1.68,2.89s-.79,.47-.79,.47Z"/><path class="cls-48" d="M78.7,58.58s-.68,1.34-.06,2.33,2.8,.53,3.05,2.02,1.6-.92,1.6-.92c0,0-.39-1.1-1.7-1.37-1.31-.27-2.01-2.39-1.89-2.89s-1,.83-1,.83Z"/></g><circle class="cls-15" cx="78.3" cy="56.69" r="1.91"/></g></g><polygon class="cls-56" points="81.09 46.69 81.45 47.44 80.49 47.43 79.54 47.42 80.14 46.68 80.74 45.93 81.09 46.69"/><polygon class="cls-56" points="78.83 45.49 79.34 45.54 79.03 46.05 78.72 46.55 78.52 46 78.31 45.44 78.83 45.49"/><polygon class="cls-21" points="31.17 31.9 37.58 35.23 31.49 39.12 25.39 43.01 25.07 35.79 24.75 28.56 31.17 31.9"/><text class="cls-16" transform="translate(28.53 28.22) rotate(9.6)"><tspan x="0" y="0">MU</tspan><tspan class="cls-57" x="10.1" y="0">S</tspan><tspan x="14.4" y="0">IC</tspan><tspan class="cls-45" x="0" y="8.19">C</tspan><tspan x="3.95" y="8.19">once</tspan><tspan class="cls-42" x="21.56" y="8.19">r</tspan><tspan class="cls-39" x="26.03" y="8.19">t</tspan></text></g></g><g class="cls-58"><path class="cls-6" d="M119.52,74.55c-.69-.18-1.27-.64-1.63-1.28-.39-.71-.48-1.58-.23-2.38l5.64-18.54c.09-.35,.2-.7,.33-1.04s.03-.69-.19-.95c-1.94-2.24-3.17-5.03-3.52-7.97-.07-.59-.64-.98-1.21-.81-.1,.03-.2,.06-.29,.09-1.31,.4-2.8,.85-4.32,.45-.35-.09-1.4-.37-3.47-3.24l-.37-.51c-.24-.33-.24-.77,0-1.1l.96-1.36c.23-.33,.23-.77,0-1.1v-.02c-.25-.33-.25-.77-.02-1.1l1.79-2.53c.39-.56,1.23-.53,1.58,.05l.71,1.15c.18,.3,.44,.64,.7,.94,.24,.27,.62,.38,.97,.27h.03c.69-.21,1.63-.49,2.88-.66,.56-.08,1.12-.1,1.68-.07,.33,.02,.64-.15,.83-.43,3.46-5.09,9.86-7.58,15.94-5.98,7.86,2.07,12.57,10.14,10.51,18-1.24,4.7-4.65,8.42-9.12,10.07-.34,.12-.57,.42-.63,.78-.06,.39-.14,.77-.24,1.15l-4.4,18.89c-.19,.82-.69,1.52-1.38,1.94-.63,.38-1.35,.49-2.04,.31l-11.47-3.01Z"/><path class="cls-2" d="M147.02,43.97c1.81-6.89-2.31-13.94-9.2-15.76-6.03-1.58-12.18,1.37-14.84,6.75-.78-.24-1.76-.39-2.89-.23-2.53,.35-3.64,1.17-4.38,.76-1.04-.58-2.02-2.17-2.02-2.17l-.65,.91s1.68,2.34,2.45,2.54c1.98,.52,4.47-1.3,6.39-.89,.23,.05,.43,.11,.62,.19-.17,.43-.31,.88-.43,1.34-.09,.36-.17,.71-.23,1.07-.74-.2-1.65-.32-2.69-.17-2.53,.35-3.64,1.17-4.38,.76-1.04-.58-2.02-2.17-2.02-2.17l-.65,.91s1.68,2.34,2.45,2.54c1.98,.52,4.47-1.3,6.39-.89,.28,.06,.53,.15,.74,.25-.32,4.12,1.37,8.08,4.39,10.71-.43,.73-.78,1.54-1.02,2.43l-5.65,18.57c-.18,.61,.08,1.22,.58,1.35l11.47,3.01c.49,.13,1.02-.27,1.16-.88l4.41-18.91c.24-.92,.33-1.83,.31-2.71,4.57-1.01,8.42-4.48,9.69-9.32Z"/><g><path class="cls-20" d="M125.03,36.03s-1.91-1.72-4.94-1.3c-2.53,.35-3.64,1.17-4.38,.76-1.04-.58-2.02-2.17-2.02-2.17l-.65,.91s1.68,2.34,2.45,2.54c1.98,.52,4.47-1.3,6.39-.89,1.79,.38,2.1,1.78,2.1,1.78l1.04-1.63Z"/><path class="cls-20" d="M124.09,39.61s-1.91-1.72-4.94-1.3c-2.53,.35-3.64,1.17-4.38,.76-1.04-.58-2.02-2.17-2.02-2.17l-.65,.91s1.68,2.34,2.45,2.54c1.98,.52,4.47-1.3,6.39-.89,1.79,.38,2.1,1.78,2.1,1.78l1.04-1.63Z"/></g><g><g class="cls-47"><path class="cls-26" d="M131.46,75.79l-11.47-3.01c-.5-.13-.76-.75-.58-1.35l5.65-18.57c1.08-4.11,4.58-6.76,7.82-5.91l.24,.06c3.24,.85,4.99,4.88,3.91,8.99l-4.41,18.91c-.14,.61-.67,1.01-1.16,.88Z"/><polygon points="146.57 84.13 122.56 94.77 116.49 68.59 140.5 57.94 146.57 84.13"/></g><circle class="cls-25" cx="134.55" cy="40.69" r="12.9"/><circle class="cls-5" cx="134.55" cy="40.69" r="9.93"/><g><g><path class="cls-3" d="M135.3,41.02s2.34,1.59,3.76,1.41,5.38-2.33,2.9-6.44-4.36-.78-4.81,.67-1.8,2.89-2.03,3.11-.26,.98,.17,1.26Z"/><path class="cls-23" d="M136.04,40.71s2.01,1.11,3.22,.92,4.54-2,2.38-5.03-3.71-.41-4.08,.71-1.49,2.28-1.68,2.45-.21,.76,.16,.95Z"/></g><g><path class="cls-3" d="M134.94,40.2s1.27-2.52,.91-3.91-3-5.03-6.76-2.05c-3.76,2.99-.21,4.42,1.28,4.68s3.1,1.41,3.34,1.61,1.01,.14,1.22-.33Z"/><path class="cls-23" d="M134.54,39.5s.84-2.13,.5-3.31-2.56-4.25-5.29-1.71,.07,3.74,1.22,3.95,2.45,1.18,2.65,1.36,.78,.11,.92-.29Z"/></g><g><path class="cls-3" d="M133.98,40.27s-2.54-1.24-3.93-.86-4.99,3.07-1.95,6.79,4.42,.15,4.66-1.34,1.37-3.12,1.57-3.36,.12-1.01-.35-1.22Z"/><path class="cls-23" d="M133.29,40.68s-2.15-.81-3.32-.45-4.21,2.62-1.64,5.31,3.73-.12,3.94-1.28,1.15-2.47,1.32-2.67,.1-.78-.3-.92Z"/></g><g><path class="cls-3" d="M134.38,41.03s-1.41,2.45-1.13,3.86,2.72,5.19,6.64,2.42c3.91-2.78,.46-4.4-1.02-4.75s-3.02-1.58-3.25-1.8-1-.19-1.24,.27Z"/><path class="cls-23" d="M134.74,41.75s-.96,2.08-.68,3.28,2.33,4.38,5.19,2,.14-3.73-1-4.01-2.38-1.32-2.57-1.5-.77-.16-.94,.23Z"/></g><circle class="cls-19" cx="134.81" cy="40.97" r="1.76"/></g><circle class="cls-28" cx="134.55" cy="40.79" r="9.96"/><circle class="cls-28" cx="134.64" cy="40.63" r="6.94"/><circle class="cls-28" cx="134.64" cy="40.63" r="4.78"/><line class="cls-28" x1="125" y1="38.1" x2="144.28" y2="43.17"/><line class="cls-28" x1="137.17" y1="31" x2="132.06" y2="50.43"/></g><path class="cls-11" d="M146.55,35.94c-.29-.53,.24-3.18,.24-3.18,0,0-.91,2.54-1.44,2.84-.52,.31-1.28,.4-1.28,.4,0,0,1.3,.59,1.21,1.4-.09,.81-.37,2.11-.37,2.11,0,0,.44-1.26,.79-2,.34-.74,1.75-.57,1.75-.57,0,0-.6-.47-.89-1.01Z"/><path class="cls-7" d="M147.98,38.87c-.25-.45,.2-2.7,.2-2.7,0,0-.78,2.16-1.22,2.42-.44,.26-1.09,.34-1.09,.34,0,0,1.1,.5,1.03,1.19-.08,.69-.32,1.8-.32,1.8,0,0,.38-1.07,.67-1.7,.29-.63,1.49-.49,1.49-.49,0,0-.51-.4-.76-.86Z"/></g><g class="cls-50"><rect class="cls-6" x="114.33" y="11.09" width="15.68" height="167.13" rx="2.96" ry="2.96" transform="translate(204.68 -36.02) rotate(84.5)"/><g><g><rect class="cls-4" x="40.54" y="88.28" width="163.25" height="12.74" transform="translate(-8.51 12.14) rotate(-5.5)"/><rect x="59.74" y="87.54" width="140.37" height="12.74" transform="translate(-8.4 12.88) rotate(-5.5)"/><polygon class="cls-8" points="45.04 96.46 43.14 99.71 45.84 102 44.19 105.29 46.95 107.51 47.57 106.4 45.54 105.03 47.29 101.86 44.66 99.46 46.14 97.01 45.04 96.46"/><polygon class="cls-8" points="48.99 96.08 47.08 99.33 49.78 101.62 48.14 104.91 50.9 107.13 51.51 106.02 49.49 104.65 51.24 101.48 48.6 99.08 50.09 96.63 48.99 96.08"/><polygon class="cls-8" points="52.93 95.7 51.03 98.96 53.73 101.24 52.09 104.53 54.85 106.75 55.46 105.64 53.43 104.27 55.18 101.1 52.55 98.7 54.03 96.25 52.93 95.7"/><ellipse class="cls-41" cx="88.3" cy="97.91" rx="15.11" ry="2.34" transform="translate(-18.82 21.04) rotate(-12.29)"/><ellipse class="cls-18" cx="88.3" cy="97.91" rx="2.34" ry="15.11" transform="translate(-15.26 179.52) rotate(-86.19)"/><polygon class="cls-34" points="69.3 99.74 68.83 100.17 69.21 100.68 68.6 100.89 68.76 101.51 68.12 101.48 68.03 102.11 67.46 101.83 67.13 102.38 66.7 101.9 66.19 102.29 65.98 101.68 65.36 101.84 65.39 101.2 64.76 101.11 65.04 100.53 64.49 100.21 64.97 99.78 64.58 99.27 65.19 99.06 65.03 98.43 65.67 98.47 65.76 97.84 66.34 98.12 66.66 97.57 67.09 98.04 67.6 97.66 67.81 98.27 68.44 98.11 68.4 98.75 69.03 98.84 68.75 99.41 69.3 99.74"/><polygon class="cls-34" points="195.77 84.4 195.46 84.67 195.71 85 195.32 85.14 195.42 85.54 195.01 85.52 194.95 85.93 194.58 85.75 194.37 86.1 194.09 85.79 193.76 86.04 193.62 85.65 193.22 85.75 193.25 85.34 192.84 85.28 193.02 84.91 192.66 84.7 192.97 84.42 192.72 84.09 193.11 83.95 193.01 83.55 193.42 83.58 193.48 83.17 193.85 83.35 194.07 82.99 194.34 83.3 194.67 83.05 194.81 83.44 195.21 83.34 195.19 83.75 195.6 83.81 195.42 84.19 195.77 84.4"/><text class="cls-40" transform="translate(106.52 98.4) rotate(-5.5)"><tspan class="cls-35" x="0" y="0">P</tspan><tspan class="cls-38" x="5.17" y="0">a</tspan><tspan class="cls-51" x="10.73" y="0">ckman </tspan><tspan class="cls-55" x="44.24" y="0">C</tspan><tspan x="49.4" y="0">Once</tspan><tspan class="cls-13" x="72.29" y="0">r</tspan><tspan x="78.14" y="0">t</tspan></text></g><g><text class="cls-9" transform="translate(85.79 97.7) rotate(-5.5)"><tspan class="cls-43" x="0" y="0">P</tspan><tspan class="cls-17" x="2.19" y="0">a</tspan><tspan x="4.54" y="0">ckman</tspan></text><text class="cls-9" transform="translate(86.09 100.82) rotate(-5.5)"><tspan class="cls-43" x="0" y="0">P</tspan><tspan class="cls-17" x="2.19" y="0">a</tspan><tspan x="4.54" y="0">ckman</tspan></text></g></g></g><g><polygon points="39.25 103.97 35.85 100.63 32.24 103.73 30.38 99.35 25.86 100.82 25.82 96.07 21.07 95.7 22.86 91.29 18.62 89.14 21.95 85.74 18.85 82.13 23.24 80.27 21.76 75.75 26.52 75.71 26.88 70.96 31.29 72.75 33.45 68.51 36.85 71.84 40.46 68.74 42.31 73.13 46.84 71.65 46.88 76.41 51.62 76.77 49.84 81.18 54.08 83.34 50.75 86.73 53.84 90.35 49.46 92.2 50.94 96.73 46.18 96.77 45.82 101.51 41.4 99.73 39.25 103.97"/><g><polygon points="39.03 102.64 35.89 99.56 32.55 102.42 30.83 98.37 26.64 99.73 26.61 95.33 22.21 95 23.87 90.91 19.94 88.92 23.03 85.78 20.16 82.43 24.22 80.72 22.85 76.53 27.25 76.49 27.59 72.1 31.67 73.76 33.67 69.83 36.81 72.92 40.15 70.05 41.87 74.11 46.05 72.74 46.09 77.14 50.48 77.48 48.83 81.56 52.76 83.55 49.67 86.7 52.54 90.04 48.48 91.76 49.85 95.94 45.44 95.98 45.11 100.37 41.03 98.72 39.03 102.64"/><polygon class="cls-27" points="39.03 102.64 35.89 99.56 32.55 102.42 30.83 98.37 26.64 99.73 26.61 95.33 22.21 95 23.87 90.91 19.94 88.92 23.03 85.78 20.16 82.43 24.22 80.72 22.85 76.53 27.25 76.49 27.59 72.1 31.67 73.76 33.67 69.83 36.81 72.92 40.15 70.05 41.87 74.11 46.05 72.74 46.09 77.14 50.48 77.48 48.83 81.56 52.76 83.55 49.67 86.7 52.54 90.04 48.48 91.76 49.85 95.94 45.44 95.98 45.11 100.37 41.03 98.72 39.03 102.64"/></g><g><g><path class="cls-14" d="M24.66,84.26l3.13-3.59,3.45,1.27c.2,.08,.36,.18,.45,.32,.1,.14,.16,.29,.19,.45s.03,.32,0,.48c-.02,.16-.06,.3-.1,.42-.09,.23-.22,.42-.41,.57-.19,.15-.4,.27-.62,.34-.23,.08-.46,.12-.7,.12-.24,0-.46-.03-.65-.11l-1.76-.65-.97,1.11-2.02-.74Zm1.98,.62l.97-1.11,1.84,.68c.18,.07,.39,.1,.62,.1,.23,0,.45-.03,.66-.1,.21-.07,.41-.18,.58-.32,.17-.14,.3-.32,.38-.54,.04-.11,.07-.24,.09-.39,.02-.15,.02-.29,0-.44-.02-.15-.08-.28-.17-.41-.09-.13-.22-.23-.4-.29l-3.38-1.25-2.98,3.41,1.8,.66Zm-1.42-.75l2.68-3.07,3.23,1.19c.14,.05,.24,.13,.31,.23,.06,.1,.1,.22,.12,.34,.02,.12,.02,.24,0,.37-.02,.12-.05,.23-.08,.31-.07,.19-.18,.35-.33,.47s-.32,.21-.51,.27-.38,.09-.57,.09c-.2,0-.38-.03-.54-.09l-1.98-.73-.97,1.12-1.35-.5Zm3.34-1.79l-.76,.88,.89-.33,1.13,.42s.02,0,.04-.02c.02-.02,.05-.03,.08-.05,.03-.02,.06-.04,.08-.06,.03-.02,.04-.04,.04-.05l.03-.03s0-.02,0-.04c0-.03-.01-.07-.03-.12-.02-.05-.04-.08-.05-.08l-1.45-.54Zm1.3,.76l-1.18-.44-.17,.06,.11-.14,1.25,.46s-.01,.04,0,.05Zm0-.05s0,.04,0,.05h0m.04-.03h.02s-.01,0-.02,0h0Z"/><path class="cls-14" d="M35.08,88.11l-1.87-.69,.06-.41c-.12,.06-.23,.11-.33,.15-.11,.04-.18,.07-.23,.07l-3.4-1.25c.04-.07,.08-.13,.11-.18,.04-.05,.07-.1,.11-.16l3.76-2.31s.1-.06,.19-.1c.09-.04,.18-.08,.28-.11,.1-.03,.19-.06,.29-.07,.09-.01,.16-.01,.22,0l1.17,.43c.11,.04,.19,.11,.25,.2,.05,.09,.09,.19,.1,.3,.02,.11,.02,.22,0,.33s-.02,.2-.03,.27l-.69,3.52Zm.57-3.41c.01-.08,.02-.18,.03-.29s0-.22,0-.33c-.01-.11-.04-.21-.08-.3-.04-.09-.11-.15-.2-.18l-1.17-.43s-.11-.02-.2,0c-.09,.02-.17,.04-.26,.07-.09,.03-.17,.06-.25,.1-.08,.04-.13,.07-.16,.1l.03-.03-3.76,2.3s-.05,.07-.07,.1c-.02,.04-.05,.08-.08,.12l3.26,1.2c.05,0,.14-.04,.27-.1,.13-.06,.27-.13,.4-.2l-.08,.52,1.66,.61,.65-3.26Zm-.82,2.97l-1.24-.46,.13-.82s-.07,.06-.16,.12c-.09,.05-.18,.11-.28,.17s-.2,.11-.3,.16c-.1,.04-.16,.07-.2,.07l-2.96-1.09s.04-.06,.03-.04v-.02l3.67-2.17s.07-.05,.12-.08c.06-.03,.12-.06,.19-.08,.07-.03,.13-.05,.2-.06s.11-.02,.14,0l1.17,.43s.08,.06,.1,.12c.02,.06,.03,.14,.03,.22,0,.08,0,.17-.01,.25-.01,.09-.02,.16-.02,.22l-.6,3.06Zm-2.45-2.02l-.03,.07,1.42,.52,.34-1.67-1.73,1.08Zm1.4-.62l-.18,.92-.81-.3,.99-.62Zm-.75,.6l.48,.18,.11-.54-.59,.36Z"/><path class="cls-14" d="M35.78,86.15c.09-.25,.25-.49,.46-.71,.21-.22,.46-.4,.73-.55s.56-.24,.87-.28c.31-.04,.6,0,.89,.09l3.51,1.29c-.38,.23-.72,.43-1.04,.6-.32,.18-.62,.31-.9,.4l-1.92-.71c-.06-.02-.14,0-.25,.07-.11,.07-.21,.15-.29,.25v-.02c-.05,.06-.08,.12-.1,.17-.02,.05-.03,.11-.02,.18,0,.07,.02,.14,.04,.21,.02,.07,.05,.13,.09,.18,.04,.05,.08,.09,.12,.1l2.26,.83c-.3,.21-.61,.4-.94,.6-.32,.19-.63,.34-.94,.43l-.66-.24c-.33-.12-.63-.27-.93-.44-.29-.17-.53-.38-.72-.62-.19-.24-.31-.51-.38-.81-.06-.31-.02-.65,.12-1.03v-.02Zm.1,.05c-.13,.36-.17,.69-.12,.98,.06,.29,.18,.55,.36,.77s.42,.42,.7,.59c.28,.17,.58,.31,.89,.42l.63,.23c.27-.08,.54-.2,.82-.37,.28-.17,.55-.34,.81-.52l-2.06-.76c-.06-.02-.11-.06-.16-.12-.05-.06-.08-.13-.11-.21-.03-.08-.04-.16-.05-.25,0-.08,0-.16,.02-.22,0-.02,.02-.05,.05-.08,.03-.03,.05-.07,.08-.12h0s.09-.09,.15-.14c.06-.05,.12-.09,.18-.12,.06-.03,.12-.06,.18-.07,.06-.02,.11-.01,.15,0l1.89,.7c.26-.1,.52-.22,.79-.37,.27-.15,.57-.32,.89-.51l-3.29-1.22c-.27-.1-.56-.13-.85-.09-.29,.04-.57,.13-.83,.27-.26,.14-.49,.31-.69,.52-.2,.21-.34,.44-.43,.68v.02Zm.21,.08v-.02c.09-.22,.22-.42,.4-.61s.39-.35,.62-.48c.23-.13,.48-.21,.74-.24,.26-.04,.52-.01,.76,.08l2.87,1.06c-.2,.12-.4,.23-.58,.33-.19,.1-.39,.19-.6,.27l-1.81-.67c-.06-.02-.13-.03-.21-.01-.08,.01-.17,.04-.25,.08-.08,.04-.16,.09-.25,.15-.08,.06-.15,.12-.21,.19-.08,.09-.13,.18-.16,.26-.03,.08-.04,.18-.03,.3s.04,.23,.08,.33c.04,.11,.09,.2,.16,.29,.06,.08,.14,.14,.21,.17l1.66,.61c-.16,.11-.34,.23-.53,.34-.19,.11-.4,.2-.63,.27l-.55-.2c-.28-.1-.55-.23-.81-.38-.26-.15-.47-.33-.65-.53-.17-.2-.29-.44-.34-.69-.05-.26-.02-.55,.1-.88Z"/><path class="cls-14" d="M39.09,89.59l3.15-3.58,2.05,.76-.83,.93,2-.5,2.58,.95-3.78,1.06,.81,2.59-2.3-.85-.65-1.72-.99,1.11-2.04-.75Zm2.01,.63l1.06-1.2,.7,1.85,2.05,.76-.78-2.5,3.55-.99-2.23-.82-2.32,.58,.96-1.08-1.83-.67-2.99,3.41,1.82,.67Zm-1.44-.76l2.69-3.07,1.37,.51-1.22,1.38,2.95-.74,1.53,.56-3.13,.88,.7,2.29-1.52-.56-.8-2.12-1.22,1.38-1.36-.5Z"/></g><polygon points="29.86 83.04 29.86 83.12 29.88 83.12 29.88 83.02 29.86 83.04"/><polygon points="29.91 83.05 29.9 83.08 29.93 83.1 29.94 83.08 29.91 83.05"/><path class="cls-14" d="M28.68,82.9l-.53-.2-.49,.27-.06,.2s.24,.14,.34,.2,.26,.03,.35,.07,.38-.54,.38-.54Z"/><polygon points="28.68 82.67 28.54 82.63 28.44 82.73 28.64 82.79 28.68 82.67"/></g></g><g><path d="M105.51,26.8c-.53-1.8-.33-3.76,.58-5.41,1.01-1.84,2.89-3.36,5.02-2.29,.91,.46,1.57,1.3,2.01,2.21,.22,.45,.45,.99,.5,1.5,.03,.36-.03,.74-.41,.88-.31,.11-.66-.03-.9-.23-.68-.58-1.26-1.84-1.43-2.69-.24-1.17,.44-2.01,1.37-2.63,2.01-1.34,4.51-2.03,6.9-2.2,.46-.03,.47-.76,0-.72-2.69,.19-5.81,.98-7.9,2.78-.92,.8-1.34,1.88-1.03,3.08,.27,1.05,.97,2.62,1.97,3.17,.91,.49,2.02,.08,2.16-.98s-.54-2.42-1.16-3.27c-.73-1.01-1.79-1.77-3.04-1.95-1.35-.19-2.52,.4-3.45,1.34-1.95,1.97-2.65,4.97-1.87,7.61,.13,.45,.83,.26,.7-.19h0Z"/><path class="cls-52" d="M104.88,25.74c-.52-1.76-.32-3.67,.56-5.28,.96-1.74,2.76-3.26,4.79-2.23,.89,.45,1.52,1.26,1.95,2.15,.21,.44,.43,.95,.48,1.44,.07,.7-.5,.93-1.03,.51-.67-.53-1.23-1.82-1.39-2.62-.22-1.09,.43-1.87,1.29-2.44,1.99-1.32,4.45-2.01,6.81-2.18,.68-.05,.68-1.11,0-1.06-2.74,.19-5.9,1-8.02,2.83-.97,.83-1.4,1.99-1.07,3.25,.28,1.1,1.01,2.69,2.05,3.27s2.24,.08,2.41-1.08-.53-2.51-1.18-3.4c-.76-1.06-1.87-1.85-3.18-2.03-1.39-.19-2.6,.42-3.57,1.39-1.99,2.01-2.71,5.07-1.91,7.77,.19,.65,1.22,.37,1.02-.28h0Z"/></g><g><path d="M101.98,20.42c-1.14-.49-2.01-1.49-2.28-2.7-.16-.71-.13-1.51,.45-2.02,.62-.56,1.51-.58,2.28-.36,.18,.05,.38,.11,.54,.2,.24,.13,.36,.2,.3,.49-.12,.56-.85,.36-1.27,.26-.79-.17-1.37-.54-1.38-1.42,0-1.41,.7-2.88,1.5-4,.15-.21-.2-.41-.34-.2-.49,.69-.88,1.44-1.16,2.25-.24,.7-.47,1.5-.38,2.25,.08,.63,.43,1.08,1.01,1.32,.54,.23,1.44,.48,2,.2,.46-.23,.66-.77,.32-1.19-.41-.5-1.28-.66-1.88-.69-1.44-.07-2.57,.94-2.47,2.4,.11,1.55,1.14,2.94,2.56,3.55,.23,.1,.43-.24,.2-.34h0Z"/><path class="cls-54" d="M101.32,20.32c-1.12-.48-1.97-1.45-2.24-2.65-.15-.68-.13-1.44,.42-1.93,.6-.53,1.45-.55,2.19-.34,.29,.08,.87,.22,.8,.59-.09,.48-.84,.26-1.17,.19-.75-.16-1.31-.5-1.31-1.33,0-1.39,.7-2.85,1.49-3.96,.22-.31-.29-.59-.5-.29-.49,.7-.89,1.46-1.17,2.27-.24,.71-.47,1.52-.38,2.27,.08,.67,.46,1.16,1.08,1.41,.57,.23,1.48,.49,2.07,.2,.51-.25,.72-.86,.34-1.32-.42-.52-1.32-.7-1.95-.73-1.48-.07-2.67,.99-2.56,2.49s1.15,3.01,2.6,3.63c.34,.15,.63-.35,.29-.5h0Z"/></g><g><rect x="184.79" y="102.39" width="5.19" height="2.8" transform="translate(77 -79.79) rotate(30)"/><rect class="cls-14" x="184.79" y="101.67" width="5.19" height="2.8" transform="translate(76.64 -79.88) rotate(30)"/></g><g><rect x="169.56" y="105.91" width="5.19" height="2.8" transform="translate(374.32 90.5) rotate(143.31)"/><rect class="cls-12" x="170.22" y="106.19" width="5.19" height="2.8" transform="translate(375.67 90.62) rotate(143.31)"/></g><g><rect x="190.18" y="73.22" width="5.02" height="2.71" transform="translate(-11.1 108.68) rotate(-30.66)"/><rect class="cls-12" x="189.57" y="72.89" width="5.02" height="2.71" transform="translate(-11.01 108.33) rotate(-30.66)"/></g><g><rect x="205.26" y="70.03" width="4.14" height="2.24" transform="translate(8.13 -20.33) rotate(5.73)"/><rect class="cls-14" x="205.03" y="69.51" width="4.14" height="2.24" transform="translate(8.08 -20.31) rotate(5.73)"/></g><g><rect x="167.61" y="73.92" width="5.22" height="2.82" transform="translate(69.41 -81.15) rotate(33.34)"/><rect class="cls-14" x="167.65" y="73.2" width="5.22" height="2.82" transform="translate(69.03 -81.3) rotate(33.34)"/></g></svg>