<svg width="24" height="24" viewBox="0 0 24 24" fill="none" xmlns="http://www.w3.org/2000/svg">
<path fill-rule="evenodd" clip-rule="evenodd" d="M12.246 8.26775L7.15956 13.3542L6.46579 15.9418L6.00946 17.6465C5.99678 17.6941 5.99685 17.7442 6.00964 17.7918C6.02244 17.8394 6.04752 17.8828 6.08236 17.9176C6.11721 17.9525 6.16061 17.9776 6.2082 17.9904C6.25579 18.0032 6.30591 18.0032 6.35353 17.9905L8.05707 17.5336L10.6452 16.8399H10.6458L15.7322 11.7534L12.2466 8.26775H12.246ZM17.8354 8.85711L15.1434 6.16457C15.0914 6.1124 15.0295 6.07101 14.9614 6.04277C14.8933 6.01454 14.8203 6 14.7466 6C14.6729 6 14.5999 6.01454 14.5318 6.04277C14.4637 6.07101 14.4019 6.1124 14.3498 6.16457L12.9606 7.55322L16.4468 11.0394L17.8354 9.65023C17.8876 9.59815 17.929 9.53629 17.9572 9.46819C17.9855 9.4001 18 9.32711 18 9.25339C18 9.17967 17.9855 9.10668 17.9572 9.03859C17.929 8.97049 17.8876 8.90863 17.8354 8.85655" fill="#06C167"/>
</svg>
