<svg width="25" height="25" viewBox="0 0 25 25" fill="none" xmlns="http://www.w3.org/2000/svg">
<path fill-rule="evenodd" clip-rule="evenodd" d="M18.7513 10.4599L13.1199 5.98194C13.0021 5.88804 12.8559 5.83691 12.7053 5.83691C12.5546 5.83691 12.4084 5.88804 12.2906 5.98194L6.65861 10.4599C6.50164 10.5848 6.37486 10.7434 6.28772 10.9241C6.20057 11.1047 6.1553 11.3027 6.15527 11.5033V17.7819C6.15527 18.2063 6.32384 18.6133 6.6239 18.9133C6.92396 19.2134 7.33093 19.3819 7.75527 19.3819H11.3719V16.2139C11.3719 16.0371 11.4422 15.8676 11.5672 15.7425C11.6922 15.6175 11.8618 15.5473 12.0386 15.5473H13.3719C13.5488 15.5473 13.7183 15.6175 13.8433 15.7425C13.9684 15.8676 14.0386 16.0371 14.0386 16.2139V19.3819H17.6546C18.079 19.3819 18.4859 19.2134 18.786 18.9133C19.086 18.6133 19.2546 18.2063 19.2546 17.7819V11.5039C19.2546 11.3034 19.2093 11.1054 19.1222 10.9248C19.035 10.7441 18.9082 10.5855 18.7513 10.4606" fill="white"/>
</svg>
