<svg width="25" height="25" viewBox="0 0 25 25" fill="none" xmlns="http://www.w3.org/2000/svg">
<path fill-rule="evenodd" clip-rule="evenodd" d="M17.7431 10.9545L12.1601 16.5385C11.972 16.7253 11.7177 16.8301 11.4526 16.8301C11.1875 16.8301 10.9332 16.7253 10.7451 16.5385L7.32913 13.1225C7.23629 13.0297 7.16264 12.9194 7.11239 12.7981C7.06215 12.6768 7.03628 12.5468 7.03628 12.4155C7.03628 12.1503 7.14162 11.896 7.32913 11.7085C7.51664 11.521 7.77096 11.4157 8.03613 11.4157C8.30131 11.4157 8.55562 11.521 8.74313 11.7085L11.4521 14.4175L16.3291 9.5405C16.422 9.44766 16.5322 9.37401 16.6535 9.32376C16.7748 9.27351 16.9048 9.24765 17.0361 9.24765C17.1674 9.24765 17.2975 9.27351 17.4188 9.32376C17.5401 9.37401 17.6503 9.44766 17.7431 9.5405C17.836 9.63335 17.9096 9.74357 17.9599 9.86488C18.0101 9.98618 18.036 10.1162 18.036 10.2475C18.036 10.3788 18.0101 10.5088 17.9599 10.6301C17.9096 10.7514 17.836 10.8617 17.7431 10.9545ZM12.5361 1.7395C6.46113 1.7395 1.53613 6.6645 1.53613 12.7395C1.53613 18.8145 6.46113 23.7395 12.5361 23.7395C18.6111 23.7395 23.5361 18.8145 23.5361 12.7395C23.5361 6.6645 18.6111 1.7395 12.5361 1.7395Z" fill="#FF307B"/>
</svg>
