<svg width="25" height="25" viewBox="0 0 25 25" fill="none" xmlns="http://www.w3.org/2000/svg">
<path fill-rule="evenodd" clip-rule="evenodd" d="M14.484 12.1343L20.135 6.48327C20.2465 6.37185 20.3349 6.23955 20.3953 6.09394C20.4557 5.94833 20.4868 5.79225 20.4868 5.63463C20.4869 5.477 20.4559 5.32091 20.3956 5.17526C20.3353 5.02961 20.2469 4.89727 20.1355 4.78577C20.0241 4.67428 19.8918 4.58583 19.7462 4.52546C19.6006 4.4651 19.4445 4.43401 19.2869 4.43396C19.1292 4.43391 18.9731 4.46491 18.8275 4.52519C18.6818 4.58547 18.5495 4.67385 18.438 4.78527L12.787 10.4373L7.135 4.78527C6.90736 4.57265 6.60601 4.45679 6.29456 4.46215C5.98311 4.4675 5.68592 4.59366 5.46573 4.81398C5.24553 5.03431 5.11955 5.33157 5.11438 5.64302C5.1092 5.95448 5.22524 6.25576 5.438 6.48327L11.09 12.1343L5.438 17.7853C5.27096 17.9535 5.15738 18.1673 5.11155 18.3999C5.06572 18.6325 5.08968 18.8734 5.18042 19.0924C5.27116 19.3114 5.42463 19.4987 5.62152 19.6307C5.81842 19.7627 6.04995 19.8335 6.287 19.8343C6.594 19.8343 6.901 19.7173 7.135 19.4833L12.787 13.8313L18.438 19.4833C18.5493 19.5949 18.6815 19.6835 18.8271 19.744C18.9727 19.8044 19.1288 19.8355 19.2865 19.8355C19.4442 19.8355 19.6003 19.8044 19.7459 19.744C19.8915 19.6835 20.0237 19.5949 20.135 19.4833C20.2466 19.3718 20.3351 19.2395 20.3955 19.0938C20.4559 18.9481 20.4869 18.792 20.4869 18.6343C20.4869 18.4766 20.4559 18.3204 20.3955 18.1747C20.3351 18.0291 20.2466 17.8967 20.135 17.7853L14.484 12.1343Z" fill="#121212"/>
</svg>
