<svg width="19" height="18" viewBox="0 0 19 18" fill="none" xmlns="http://www.w3.org/2000/svg">
<g clip-path="url(#clip0_787_11280)">
<path fill-rule="evenodd" clip-rule="evenodd" d="M3.26141 15.594C3.26141 15.7929 3.34043 15.9837 3.48108 16.1243C3.62174 16.265 3.8125 16.344 4.01141 16.344H14.2242C14.4231 16.344 14.6138 16.265 14.7545 16.1243C14.8951 15.9837 14.9742 15.7929 14.9742 15.594V14.6565H3.26141V15.594ZM15.0889 7.08448L12.2014 8.57698L9.77591 4.84573C9.70463 4.736 9.60705 4.64582 9.49205 4.58339C9.37705 4.52096 9.24827 4.48826 9.11741 4.48826C8.98656 4.48826 8.85778 4.52096 8.74278 4.58339C8.62778 4.64582 8.5302 4.736 8.45891 4.84573L6.03341 8.57698L3.14591 7.08448C3.01433 7.01658 2.86625 6.98723 2.71872 6.99981C2.57118 7.01238 2.4302 7.06638 2.31201 7.15557C2.19382 7.24476 2.10323 7.36552 2.05067 7.50394C1.99811 7.64237 1.98571 7.79282 2.01491 7.93798L3.14741 13.5315H15.0874L16.2199 7.93798C16.3512 7.29148 15.6747 6.78148 15.0889 7.08448ZM9.11741 3.85573C9.42971 3.85573 9.72921 3.73167 9.95003 3.51085C10.1709 3.29003 10.2949 2.99053 10.2949 2.67823C10.2949 2.36594 10.1709 2.06644 9.95003 1.84561C9.72921 1.62479 9.42971 1.50073 9.11741 1.50073C8.80512 1.50073 8.50562 1.62479 8.2848 1.84561C8.06397 2.06644 7.93991 2.36594 7.93991 2.67823C7.93991 2.99053 8.06397 3.29003 8.2848 3.51085C8.50562 3.73167 8.80512 3.85573 9.11741 3.85573ZM16.9399 4.48873C16.6276 4.48873 16.3281 4.61279 16.1073 4.83361C15.8865 5.05444 15.7624 5.35394 15.7624 5.66623C15.7624 5.97852 15.8865 6.27803 16.1073 6.49885C16.3281 6.71967 16.6276 6.84373 16.9399 6.84373C17.2522 6.84373 17.5517 6.71967 17.7725 6.49885C17.9934 6.27803 18.1174 5.97852 18.1174 5.66623C18.1174 5.35394 17.9934 5.05444 17.7725 4.83361C17.5517 4.61279 17.2522 4.48873 16.9399 4.48873ZM2.47316 5.66623C2.47316 5.35394 2.34911 5.05444 2.12828 4.83361C1.90746 4.61279 1.60796 4.48873 1.29566 4.48873C0.983372 4.48873 0.68387 4.61279 0.463046 4.83361C0.242222 5.05444 0.118164 5.35394 0.118164 5.66623C0.118164 5.97852 0.242222 6.27803 0.463046 6.49885C0.68387 6.71967 0.983372 6.84373 1.29566 6.84373C1.60796 6.84373 1.90746 6.71967 2.12828 6.49885C2.34911 6.27803 2.47316 5.97852 2.47316 5.66623Z" fill="#FF307B"/>
</g>
<defs>
<clipPath id="clip0_787_11280">
<rect width="18" height="18" fill="white" transform="translate(0.117188)"/>
</clipPath>
</defs>
</svg>
