<svg width="24" height="24" viewBox="0 0 24 24" fill="none" xmlns="http://www.w3.org/2000/svg">
<path fill-rule="evenodd" clip-rule="evenodd" d="M14.8045 13.8621C14.8664 13.924 14.9155 13.9975 14.949 14.0783C14.9825 14.1592 14.9997 14.2459 14.9997 14.3334C14.9997 14.4209 14.9825 14.5076 14.949 14.5885C14.9155 14.6694 14.8664 14.7429 14.8045 14.8047C14.7426 14.8666 14.6691 14.9157 14.5883 14.9492C14.5074 14.9827 14.4207 15 14.3332 15C14.2456 15 14.159 14.9827 14.0781 14.9492C13.9972 14.9157 13.9237 14.8666 13.8618 14.8047L11.9998 12.9427L10.1378 14.8047C10.0761 14.8669 10.0026 14.9162 9.92174 14.9498C9.84085 14.9835 9.75411 15.0008 9.6665 15.0008C9.5789 15.0008 9.49216 14.9835 9.41127 14.9498C9.33038 14.9162 9.25694 14.8669 9.19517 14.8047C9.13321 14.7429 9.08405 14.6694 9.05051 14.5885C9.01697 14.5077 8.9997 14.421 8.9997 14.3334C8.9997 14.2459 9.01697 14.1592 9.05051 14.0783C9.08405 13.9974 9.13321 13.9239 9.19517 13.8621L11.0572 12.0001L9.19517 10.1381C9.13327 10.0762 9.08418 10.0027 9.05068 9.92183C9.01718 9.84096 8.99994 9.75428 8.99994 9.66675C8.99994 9.57921 9.01718 9.49254 9.05068 9.41166C9.08418 9.33079 9.13327 9.25731 9.19517 9.19541C9.25707 9.13352 9.33055 9.08442 9.41142 9.05092C9.49229 9.01742 9.57897 9.00018 9.6665 9.00018C9.75404 9.00018 9.84072 9.01742 9.92159 9.05092C10.0025 9.08442 10.0759 9.13352 10.1378 9.19541L11.9998 11.0574L13.8618 9.19541C13.9237 9.13352 13.9972 9.08442 14.0781 9.05092C14.159 9.01742 14.2456 9.00018 14.3332 9.00018C14.4207 9.00018 14.5074 9.01742 14.5883 9.05092C14.6691 9.08442 14.7426 9.13352 14.8045 9.19541C14.8664 9.25731 14.9155 9.33079 14.949 9.41166C14.9825 9.49254 14.9997 9.57921 14.9997 9.66675C14.9997 9.75428 14.9825 9.84096 14.949 9.92183C14.9155 10.0027 14.8664 10.0762 14.8045 10.1381L12.9425 12.0001L14.8045 13.8621ZM11.9998 4.66675C7.94984 4.66675 4.6665 7.95008 4.6665 12.0001C4.6665 16.0501 7.94984 19.3334 11.9998 19.3334C16.0498 19.3334 19.3332 16.0501 19.3332 12.0001C19.3332 7.95008 16.0498 4.66675 11.9998 4.66675Z" fill="#121212"/>
</svg>
