<svg width="27" height="16" viewBox="0 0 27 16" fill="none" xmlns="http://www.w3.org/2000/svg">
<path d="M5.53125 3.13965V1.63965H3.78125V2.99902C3.78125 4.93652 2.64062 6.75684 0.359375 7.49902L1.25 8.87402C2.89844 8.32715 4.04688 7.19434 4.66406 5.74902C5.28125 7.08496 6.39844 8.14746 7.98438 8.65527L8.85938 7.2959C6.66406 6.59277 5.51562 4.90527 5.53125 3.13965ZM2.20312 11.4678H9.875V15.0303H11.6094V10.0771H2.20312V11.4678ZM9.875 9.45215H11.6094V5.90527H13.5781V4.45215H11.6094V0.905273H9.875V9.45215ZM26.4531 0.905273H24.7969V15.0303H26.4531V0.905273ZM14.0469 11.0146L15.1094 12.3115C16.4375 11.4834 17.3359 9.99902 17.8359 8.25684C18.3281 9.86621 19.1953 11.21 20.5 11.9834L21.5312 10.7021C19.5078 9.53809 18.6562 7.14746 18.6562 4.76465V3.82715H20.9375V2.4209H14.5312V3.82715H16.9844V4.76465C16.9844 7.22559 16.0859 9.77246 14.0469 11.0146ZM19.9062 7.2334H21.9375V14.3428H23.5781V1.1709H21.9375V5.82715H19.9062V7.2334Z" fill="white"/>
</svg>
