<svg width="25" height="25" viewBox="0 0 25 25" fill="none" xmlns="http://www.w3.org/2000/svg">
<path fill-rule="evenodd" clip-rule="evenodd" d="M12.3822 7.75414L5.60028 14.5361L4.67526 17.9862L4.06681 20.2591C4.04991 20.3226 4.05 20.3894 4.06706 20.4529C4.08412 20.5163 4.11755 20.5742 4.16402 20.6206C4.21048 20.6671 4.26834 20.7006 4.3318 20.7176C4.39525 20.7347 4.46208 20.7348 4.52558 20.7179L6.79696 20.1087L10.2478 19.1836H10.2486L17.0305 12.4017L12.383 7.75414H12.3822ZM19.8348 8.53996L16.2455 4.9499C16.176 4.88034 16.0935 4.82515 16.0028 4.7875C15.912 4.74985 15.8146 4.73047 15.7163 4.73047C15.6181 4.73047 15.5207 4.74985 15.4299 4.7875C15.3391 4.82515 15.2567 4.88034 15.1872 4.9499L13.3349 6.80143L17.9832 11.4497L19.8348 9.59744C19.9043 9.528 19.9595 9.44552 19.9972 9.35473C20.0348 9.26394 20.0542 9.16661 20.0542 9.06832C20.0542 8.97003 20.0348 8.87271 19.9972 8.78192C19.9595 8.69112 19.9043 8.60865 19.8348 8.53921" fill="#535353"/>
</svg>
