<svg width="25" height="25" viewBox="0 0 25 25" fill="none" xmlns="http://www.w3.org/2000/svg">
<path fill-rule="evenodd" clip-rule="evenodd" d="M8.66093 20.2397C8.31593 20.2397 7.97093 20.1047 7.70093 19.8497C7.44904 19.5967 7.30762 19.2542 7.30762 18.8972C7.30762 18.5402 7.44904 18.1977 7.70093 17.9447L13.5059 12.1397L7.70093 6.34971C7.44904 6.09671 7.30762 5.75423 7.30762 5.39721C7.30762 5.04019 7.44904 4.69771 7.70093 4.44471C7.95394 4.19281 8.29642 4.05139 8.65343 4.05139C9.01045 4.05139 9.35293 4.19281 9.60593 4.44471L16.3559 11.1947C16.6078 11.4477 16.7492 11.7902 16.7492 12.1472C16.7492 12.5042 16.6078 12.8467 16.3559 13.0997L9.60593 19.8497C9.35093 20.1047 9.00593 20.2397 8.66093 20.2397Z" fill="#808080"/>
</svg>
