<svg width="41" height="41" viewBox="0 0 41 41" fill="none" xmlns="http://www.w3.org/2000/svg">
<g clip-path="url(#clip0_402_5007)">
<path d="M11.9551 8.88428H29.4551C35.6582 8.88428 40.7051 13.9312 40.7051 20.1343C40.7051 26.3374 35.6582 31.3843 29.4551 31.3843H11.9551C5.75195 31.3843 0.705078 26.3374 0.705078 20.1343C0.705078 13.9312 5.75195 8.88428 11.9551 8.88428ZM11.9551 28.8843C13.6857 28.8843 15.3774 28.3711 16.8163 27.4096C18.2552 26.4482 19.3768 25.0816 20.039 23.4828C20.7013 21.8839 20.8746 20.1246 20.5369 18.4272C20.1993 16.7299 19.366 15.1708 18.1423 13.9471C16.9186 12.7234 15.3595 11.89 13.6621 11.5524C11.9648 11.2148 10.2055 11.3881 8.6066 12.0503C7.00774 12.7126 5.64118 13.8341 4.67972 15.273C3.71826 16.712 3.20508 18.4037 3.20508 20.1343C3.20756 22.4542 4.13023 24.6783 5.77063 26.3187C7.41104 27.9591 9.63519 28.8818 11.9551 28.8843Z" fill="#808080"/>
</g>
<defs>
<clipPath id="clip0_402_5007">
<rect width="40" height="40" fill="white" transform="translate(0.705078 0.134277)"/>
</clipPath>
</defs>
</svg>
