<svg width="41" height="23" viewBox="0 0 41 23" fill="none" xmlns="http://www.w3.org/2000/svg">
<path d="M28.9551 0.384277H11.4551C5.25195 0.384277 0.205078 5.43115 0.205078 11.6343C0.205078 17.8374 5.25195 22.8843 11.4551 22.8843H28.9551C35.1582 22.8843 40.2051 17.8374 40.2051 11.6343C40.2051 5.43115 35.1582 0.384277 28.9551 0.384277ZM28.9551 20.3843C27.2245 20.3843 25.5328 19.8711 24.0938 18.9096C22.6549 17.9482 21.5334 16.5816 20.8711 14.9828C20.2089 13.3839 20.0356 11.6246 20.3732 9.92724C20.7108 8.2299 21.5442 6.6708 22.7679 5.44709C23.9916 4.22338 25.5507 3.39003 27.248 3.05241C28.9454 2.71479 30.7047 2.88807 32.3036 3.55033C33.9024 4.2126 35.269 5.33411 36.2304 6.77304C37.1919 8.21197 37.7051 9.90369 37.7051 11.6343C37.7026 13.9542 36.7799 16.1783 35.1395 17.8187C33.4991 19.4591 31.275 20.3818 28.9551 20.3843Z" fill="#FF307B"/>
</svg>
