<svg width="25" height="25" viewBox="0 0 25 25" fill="none" xmlns="http://www.w3.org/2000/svg">
<path fill-rule="evenodd" clip-rule="evenodd" d="M14.5019 16.9106C14.5019 17.1012 14.4262 17.2839 14.2915 17.4187C14.1567 17.5534 13.974 17.6291 13.7834 17.6291C13.5929 17.6291 13.4101 17.5534 13.2754 17.4187C13.1406 17.2839 13.0649 17.1012 13.0649 16.9106V12.9141C13.0649 12.7236 13.1406 12.5408 13.2754 12.4061C13.4101 12.2713 13.5929 12.1956 13.7834 12.1956C13.974 12.1956 14.1567 12.2713 14.2915 12.4061C14.4262 12.5408 14.5019 12.7236 14.5019 12.9141V16.9106ZM11.2024 16.9106C11.2024 17.1012 11.1267 17.2839 10.9919 17.4187C10.8572 17.5534 10.6744 17.6291 10.4839 17.6291C10.2933 17.6291 10.1106 17.5534 9.97582 17.4187C9.84107 17.2839 9.76537 17.1012 9.76537 16.9106V12.9141C9.76537 12.7236 9.84107 12.5408 9.97582 12.4061C10.1106 12.2713 10.2933 12.1956 10.4839 12.1956C10.6744 12.1956 10.8572 12.2713 10.9919 12.4061C11.1267 12.5408 11.2024 12.7236 11.2024 12.9141V16.9106ZM9.68235 6.63038C9.68235 6.41864 9.76646 6.21558 9.91618 6.06586C10.0659 5.91615 10.269 5.83204 10.4807 5.83204H13.789C14.2289 5.83204 14.5874 6.18969 14.5874 6.63038V7.38162H9.68235V6.63038ZM18.6797 7.38162H16.184V6.63038C16.184 5.30992 15.1103 4.23535 13.789 4.23535H10.4807C9.16023 4.23535 8.08566 5.30992 8.08566 6.63038V7.38162H5.42798C5.1739 7.38162 4.93023 7.48255 4.75057 7.66221C4.5709 7.84187 4.46997 8.08555 4.46997 8.33963V8.81863C4.46997 9.07271 4.5709 9.31639 4.75057 9.49605C4.93023 9.67571 5.1739 9.77664 5.42798 9.77664H5.53256L5.90938 19.3855C5.92898 19.8803 6.13936 20.3482 6.49641 20.6913C6.85346 21.0343 7.32945 21.2258 7.8246 21.2257H16.4435C16.9385 21.2258 17.4143 21.0343 17.7711 20.6912C18.1279 20.3481 18.3379 19.8801 18.3571 19.3855L18.7355 9.76547C18.9786 9.75302 19.2076 9.64794 19.3755 9.47183C19.5435 9.29573 19.6376 9.06198 19.6385 8.81863V8.33963C19.6385 7.81113 19.209 7.38162 18.6797 7.38162Z" fill="#535353"/>
</svg>
