<?xml version="1.0" encoding="UTF-8"?><svg id="Layer_1" xmlns="http://www.w3.org/2000/svg" xmlns:xlink="http://www.w3.org/1999/xlink" viewBox="0 0 221.1 124.16"><defs><style>.cls-1{filter:url(#drop-shadow-24);}.cls-2,.cls-3,.cls-4,.cls-5,.cls-6,.cls-7,.cls-8,.cls-9,.cls-10,.cls-11,.cls-12,.cls-13,.cls-14,.cls-15,.cls-16,.cls-17,.cls-18,.cls-19,.cls-20,.cls-21,.cls-22,.cls-23,.cls-24,.cls-25,.cls-26,.cls-27,.cls-28,.cls-29,.cls-30,.cls-31,.cls-32{stroke-miterlimit:10;}.cls-2,.cls-3,.cls-4,.cls-5,.cls-7,.cls-8,.cls-10,.cls-11,.cls-12,.cls-14,.cls-17,.cls-18,.cls-19,.cls-20,.cls-21,.cls-22,.cls-26,.cls-27,.cls-28,.cls-30,.cls-31{stroke:#000;}.cls-2,.cls-7,.cls-10,.cls-12,.cls-26,.cls-27{fill:#1fce65;}.cls-2,.cls-19{stroke-width:.39px;}.cls-3{stroke-width:.35px;}.cls-3,.cls-9,.cls-33,.cls-29{fill:none;}.cls-34,.cls-11,.cls-13,.cls-15,.cls-18,.cls-24,.cls-28,.cls-30,.cls-31,.cls-32{fill:#fff;}.cls-4,.cls-6,.cls-20,.cls-26{stroke-width:.09px;}.cls-4,.cls-22,.cls-23{fill:#1ba854;}.cls-35{font-family:AirstrikeCondensed, 'Airstrike Condensed';font-size:3.06px;}.cls-36{fill:#fafafa;}.cls-5{stroke-width:.35px;}.cls-5,.cls-14{fill:#ff307b;}.cls-6,.cls-15,.cls-16,.cls-23,.cls-24,.cls-25,.cls-29,.cls-32{stroke:#171717;}.cls-6,.cls-16{fill:#d8d8d8;}.cls-37{fill:#f05129;font-family:ArchivoBlack-Regular, 'Archivo Black';font-size:8.92px;}.cls-7,.cls-22{stroke-width:.19px;}.cls-8{fill:#e02b75;stroke-width:.13px;}.cls-9{stroke:#e6e6e6;stroke-width:.5px;}.cls-38{letter-spacing:-.09em;}.cls-39{letter-spacing:0em;}.cls-40{filter:url(#drop-shadow-28);}.cls-41{filter:url(#drop-shadow-23);}.cls-10,.cls-21,.cls-31{stroke-width:.1px;}.cls-11{stroke-width:.2px;}.cls-42{clip-path:url(#clippath-1);}.cls-12{stroke-width:.38px;}.cls-13{stroke:#f05129;stroke-width:.4px;}.cls-14{stroke-width:.16px;}.cls-15{stroke-width:.2px;}.cls-43{filter:url(#drop-shadow-27);}.cls-16{stroke-width:.1px;}.cls-17,.cls-21{fill:#ff9700;}.cls-17,.cls-27,.cls-30{stroke-width:.14px;}.cls-18{stroke-width:.19px;}.cls-44{letter-spacing:-.07em;}.cls-45{fill:#171717;}.cls-46{clip-path:url(#clippath);}.cls-19{fill:#1db75b;}.cls-20,.cls-25{fill:#198e48;}.cls-47{fill:#ff70fe;}.cls-23,.cls-25{stroke-width:.1px;}.cls-24,.cls-29{stroke-width:.08px;}.cls-48{fill:#7688ff;}.cls-49{fill:#ffcd1c;}.cls-50{filter:url(#drop-shadow-26);}.cls-28{stroke-width:.23px;}.cls-51{fill:#ef8200;}.cls-52{fill:#144c2b;}.cls-32{stroke-width:.16px;}</style><filter id="drop-shadow-23" filterUnits="userSpaceOnUse"><feOffset dx="2.08" dy="2.08"/><feGaussianBlur result="blur" stdDeviation="0"/><feFlood flood-color="#000" flood-opacity=".38"/><feComposite in2="blur" operator="in"/><feComposite in="SourceGraphic"/></filter><filter id="drop-shadow-24" filterUnits="userSpaceOnUse"><feOffset dx="1.17" dy="1.17"/><feGaussianBlur result="blur-2" stdDeviation="0"/><feFlood flood-color="#000" flood-opacity=".38"/><feComposite in2="blur-2" operator="in"/><feComposite in="SourceGraphic"/></filter><filter id="drop-shadow-26" filterUnits="userSpaceOnUse"><feOffset dx="1.11" dy="1.11"/><feGaussianBlur result="blur-3" stdDeviation="0"/><feFlood flood-color="#000" flood-opacity=".38"/><feComposite in2="blur-3" operator="in"/><feComposite in="SourceGraphic"/></filter><clipPath id="clippath"><ellipse class="cls-33" cx="82.37" cy="92.45" rx="6.66" ry="7.79" transform="translate(-36.58 126.84) rotate(-64.43)"/></clipPath><clipPath id="clippath-1"><ellipse class="cls-33" cx="103.4" cy="96.1" rx="7.79" ry="6.66" transform="translate(-9.31 11.11) rotate(-5.89)"/></clipPath><filter id="drop-shadow-27" filterUnits="userSpaceOnUse"><feOffset dx=".85" dy=".85"/><feGaussianBlur result="blur-4" stdDeviation="0"/><feFlood flood-color="#000" flood-opacity=".38"/><feComposite in2="blur-4" operator="in"/><feComposite in="SourceGraphic"/></filter><filter id="drop-shadow-28" filterUnits="userSpaceOnUse"><feOffset dx="1.4" dy="1.4"/><feGaussianBlur result="blur-5" stdDeviation="0"/><feFlood flood-color="#000" flood-opacity=".38"/><feComposite in2="blur-5" operator="in"/><feComposite in="SourceGraphic"/></filter></defs><rect class="cls-34" x="-.05" y=".05" width="221.2" height="124.06"/><g><g><polygon class="cls-34" points="221.15 124.11 -.05 124.11 -.05 .05 24.82 .05 221.15 .05 221.15 124.11"/><line class="cls-9" x1="22.07" y1=".05" x2="22.07" y2="124.11"/><line class="cls-9" x1="221.15" y1=".05" x2="221.15" y2="124.11"/><line class="cls-9" x1="-.05" y1=".05" x2="-.05" y2="124.11"/><line class="cls-9" x1="44.19" y1=".05" x2="44.19" y2="124.11"/><line class="cls-9" x1="66.31" y1=".05" x2="66.31" y2="124.11"/><line class="cls-9" x1="88.43" y1=".05" x2="88.43" y2="124.11"/><line class="cls-9" x1="110.55" y1=".05" x2="110.55" y2="124.11"/><line class="cls-9" x1="132.67" y1=".05" x2="132.67" y2="124.11"/><line class="cls-9" x1="154.79" y1=".05" x2="154.79" y2="124.11"/><line class="cls-9" x1="176.91" y1=".05" x2="176.91" y2="124.11"/><line class="cls-9" x1="199.03" y1=".05" x2="199.03" y2="124.11"/></g><line class="cls-9" x1="221.15" y1=".05" x2="-.05" y2=".05"/><line class="cls-9" x1="221.15" y1="124.11" x2="-.05" y2="124.11"/><line class="cls-9" x1="221.15" y1="103.43" x2="-.05" y2="103.43"/><line class="cls-9" x1="221.15" y1="82.76" x2="-.05" y2="82.76"/><line class="cls-9" x1="221.15" y1="62.08" x2="-.05" y2="62.08"/><line class="cls-9" x1="221.15" y1="41.4" x2="-.05" y2="41.4"/><line class="cls-9" x1="221.15" y1="20.72" x2="-.05" y2="20.72"/></g><g class="cls-41"><g><path class="cls-11" d="M41.68,84.46c-3.19,.98-9.4,1.96-15.13-2.45-1.26-.97-5.08-3.91-8.39-24.6-.6-3.72-2.78-19.36-1.75-22.06,.46-1.21,1.44-2.2,2.9-2.96,.24-.76,.51-1.47,.81-2.14,.63-1.38,1.84-2.44,3.33-2.89l34.38-10.54c2.01-.62,4.21,0,5.61,1.55,2.11,2.36,4.7,5.99,5.13,9.97,1.92,3.72,5.1,13.21,7.29,20.78,4.99,17.27,3.68,19.05,2.82,20.22-.83,1.12-1.96,2.66-30.32,11.38-.57,.84-1.76,1.68-4.41,2.89l-.07,.03c-.29,.13-1.07,.48-2.18,.82Z"/><path class="cls-34" d="M65.8,29.61c-.14-.26-.21-.55-.24-.85-.33-3.39-2.9-6.7-4.39-8.37-.61-.68-1.57-.95-2.46-.68L24.33,30.25c-.64,.2-1.18,.65-1.46,1.25-.44,.97-.78,2.01-1.05,3.1-1.29,.44-2.31,1.07-2.6,1.82-.76,1.99,2.81,38.29,9.17,43.19,6.36,4.9,13.49,1.6,14.28,1.25,0,0,3.06-1.39,3.19-1.93,0-.03-.04-.23-.14-.56,12.34-3.77,29.31-9.19,30.5-10.81,1.84-2.5-7.13-31.75-10.42-37.95Z"/><g><path class="cls-2" d="M24.33,30.25l34.38-10.54c.89-.27,1.85,0,2.46,.68,1.49,1.67,4.06,4.98,4.39,8.37,.03,.3,.1,.58,.24,.85,3.29,6.2,12.27,35.44,10.42,37.95-1.54,2.09-29.43,10.53-39.63,13.56-2.15,.64-4.42-.38-5.32-2.38-4.13-9.19-14.28-34.3-8.41-47.22,.28-.61,.82-1.06,1.46-1.25Z"/><path class="cls-19" d="M42.68,80.86s3.06-1.39,3.19-1.93c.14-.57-14.96-43.54-17.45-44.6-2.49-1.06-8.43,.11-9.19,2.1s2.81,38.29,9.17,43.19c6.36,4.9,13.49,1.6,14.28,1.25Z"/><g><rect class="cls-23" x="23.19" y="39.59" width="4.16" height="6.29" transform="translate(-11.41 9.28) rotate(-17.04)"/><rect class="cls-45" x="23.82" y="40.48" width="2.84" height="4.29" transform="translate(-11.38 9.27) rotate(-17.04)"/></g><g><circle class="cls-26" cx="69.57" cy="62.57" r="3.38"/><circle class="cls-4" cx="69.57" cy="62.57" r="2.39"/></g><g><circle class="cls-26" cx="29.91" cy="49.64" r="2.79"/><circle class="cls-20" cx="29.91" cy="49.64" r="1.97"/></g><circle class="cls-7" cx="55.67" cy="55.06" r="15.35"/><circle class="cls-22" cx="55.67" cy="55.06" r="11.29"/><g><ellipse class="cls-25" cx="43.36" cy="34.61" rx="2.13" ry="3.46" transform="translate(-8.24 14.23) rotate(-17.04)"/><g><circle class="cls-45" cx="43.02" cy="33.48" r=".81"/><circle class="cls-45" cx="43.74" cy="35.84" r=".81"/></g></g><g><rect class="cls-6" x="33.71" y="30.98" width="5.36" height="11.53" rx="1.7" ry="1.7" transform="translate(-9.17 12.27) rotate(-17.04)"/><g><rect class="cls-24" x="34.43" y="32.66" width="3.92" height="8.17" transform="translate(-9.17 12.27) rotate(-17.04)"/><line class="cls-29" x1="33.66" y1="33.31" x2="36.05" y2="41.13"/><line class="cls-29" x1="34" y1="33.21" x2="36.39" y2="41.02"/><line class="cls-29" x1="34.34" y1="33.1" x2="36.73" y2="40.92"/><line class="cls-29" x1="34.68" y1="33" x2="37.07" y2="40.81"/><line class="cls-29" x1="35.02" y1="32.9" x2="37.41" y2="40.71"/><line class="cls-29" x1="35.36" y1="32.79" x2="37.75" y2="40.61"/><line class="cls-29" x1="37.06" y1="32.27" x2="39.45" y2="40.08"/><line class="cls-29" x1="33.32" y1="33.42" x2="35.71" y2="41.23"/><line class="cls-29" x1="35.7" y1="32.69" x2="38.09" y2="40.5"/><line class="cls-29" x1="36.04" y1="32.58" x2="38.43" y2="40.4"/><line class="cls-29" x1="36.38" y1="32.48" x2="38.77" y2="40.29"/><line class="cls-29" x1="36.72" y1="32.37" x2="39.11" y2="40.19"/></g></g><rect class="cls-16" x="48.89" y="55.5" width="2.21" height="2.61" transform="translate(-14.45 17.14) rotate(-17.04)"/><ellipse cx="55.67" cy="55.06" rx="5.79" ry="4.63" transform="translate(-13.69 18.73) rotate(-17.04)"/><text class="cls-35" transform="translate(49.24 28.07) rotate(-17.04)"><tspan class="cls-44" x="0" y="0">P</tspan><tspan class="cls-38" x="1.46" y="0">a</tspan><tspan class="cls-39" x="3.02" y="0">ckman</tspan></text></g></g><circle class="cls-34" cx="57.95" cy="54.81" r="1.35"/><circle class="cls-34" cx="55.99" cy="53.55" r=".3"/></g><g class="cls-1"><path class="cls-18" d="M78.77,75.02c-.93-.11-1.73-.57-2.28-1.24l-2.51-.3c-1.91-.23-3.27-1.97-3.04-3.87l3.2-26.62c.23-1.92,1.98-3.29,3.89-3.06l14.29,1.72c1.47,.18,2.61,1.24,2.97,2.59l4.2,.5,.26,.08c.48,.15,2.9,1.1,3.59,4.76,.34,1.42,3.69,5.65,5.53,5.88l15.35,1.85c3.28,.39,5.63,3.39,5.23,6.67l-1.25,10.42c-.28,2.36-2.44,4.06-4.8,3.77l-32.29-3.89c-.73,.68-1.74,1.05-2.8,.92l-2.51-.3c-.7,.51-1.58,.77-2.51,.66l-4.51-.54Z"/><path class="cls-34" d="M123.86,60.23l-15.35-1.85c-3.56-.43-7.67-6.13-8.06-8.25-.4-2.12-1.59-2.5-1.59-2.5l-5.19-.63-1.4-.17v.12c0-.1,0-.19-.02-.28h.04l.18-1.48c.04-.31-.18-.59-.49-.63l-14.29-1.72c-.31-.04-.59,.18-.63,.49l-.18,1.48h.04c-.04,.09-.07,.18-.08,.28l-2.81,23.36-.08,.68-.1,.82c-.04,.3,.18,.57,.47,.6l4.32,.52-.04,.36c-.04,.33,.19,.62,.52,.66l4.51,.54c.33,.04,.62-.19,.66-.52l.04-.36,4.32,.52c.3,.04,.57-.18,.6-.47l.08-.7,17.39,2.09,17.01,2.05c.76,.09,1.45-.45,1.54-1.21l1.25-10.42c.2-1.68-.99-3.2-2.67-3.4Z"/><g><g><rect class="cls-34" x="75.34" y="44.92" width="15.52" height="26.24" rx="1.47" ry="1.47" transform="translate(7.53 -9.52) rotate(6.86)"/><path d="M73.85,69.37h15.52v1.27c0,.43-.35,.79-.79,.79h-13.94c-.43,0-.79-.35-.79-.79v-1.27h0Z" transform="translate(9 -9.25) rotate(6.86)"/><path d="M77.76,43.7h13.89c.45,0,.81,.36,.81,.81v1.24h-15.52v-1.24c0-.45,.36-.81,.81-.81Z" transform="translate(5.95 -9.8) rotate(6.86)"/></g><rect x="78.62" y="70.57" width="5.73" height="1.81" rx=".86" ry=".86" transform="translate(9.13 -9.23) rotate(6.86)"/><path d="M123.86,60.23l-15.35-1.85c-3.56-.43-7.67-6.13-8.06-8.25-.4-2.12-1.59-2.5-1.59-2.5l-5.19-.63-1.4-.17-2.92,24.28,17.39,2.09,17.01,2.05c.76,.09,1.45-.45,1.54-1.21l1.25-10.42c.2-1.68-.99-3.2-2.67-3.4Zm-30.97,9.38c-.04,.32-.33,.54-.64,.5l-.55-.07c-.32-.04-.54-.33-.5-.64l.13-1.07c.04-.32,.33-.54,.64-.5l.55,.07c.32,.04,.54,.33,.5,.64l-.13,1.07Zm2.38-19.78c-.04,.32-.33,.54-.64,.5l-.55-.07c-.32-.04-.54-.33-.5-.64l.13-1.07c.04-.32,.33-.54,.64-.5l.55,.07c.32,.04,.54,.33,.5,.64l-.13,1.07Zm1.62-.89c.04-.32,.33-.54,.64-.5l.55,.07c.32,.04,.54,.33,.5,.64l-.13,1.07c-.04,.32-.33,.54-.64,.5l-.55-.07c-.32-.04-.54-.33-.5-.64l.13-1.07Zm-.69,21.07c-.04,.32-.33,.54-.64,.5l-.55-.07c-.32-.04-.54-.33-.5-.64l.13-1.07c.04-.32,.33-.54,.64-.5l.55,.07c.32,.04,.54,.33,.5,.64l-.13,1.07Zm3.3,.4c-.04,.32-.33,.54-.64,.5l-.55-.07c-.32-.04-.54-.33-.5-.64l.13-1.07c.04-.32,.33-.54,.64-.5l.55,.07c.32,.04,.54,.33,.5,.64l-.13,1.07Zm3.3,.4c-.04,.32-.33,.54-.64,.5l-.55-.07c-.32-.04-.54-.33-.5-.64l.13-1.07c.04-.32,.33-.54,.64-.5l.55,.07c.32,.04,.54,.33,.5,.64l-.13,1.07Zm3.3,.4c-.04,.32-.33,.54-.64,.5l-.55-.07c-.32-.04-.54-.33-.5-.64l.13-1.07c.04-.32,.33-.54,.64-.5l.55,.07c.32,.04,.54,.33,.5,.64l-.13,1.07Zm3.3,.4c-.04,.32-.33,.54-.64,.5l-.55-.07c-.32-.04-.54-.33-.5-.64l.13-1.07c.04-.32,.33-.54,.64-.5l.55,.07c.32,.04,.54,.33,.5,.64l-.13,1.07Zm3.3,.4c-.04,.32-.33,.54-.64,.5l-.55-.07c-.32-.04-.54-.33-.5-.64l.13-1.07c.04-.32,.33-.54,.64-.5l.55,.07c.32,.04,.54,.33,.5,.64l-.13,1.07Zm3.3,.4c-.04,.32-.33,.54-.64,.5l-.55-.07c-.32-.04-.54-.33-.5-.64l.13-1.07c.04-.32,.33-.54,.64-.5l.55,.07c.32,.04,.54,.33,.5,.64l-.13,1.07Zm3.3,.4c-.04,.32-.33,.54-.64,.5l-.55-.07c-.32-.04-.54-.33-.5-.64l.13-1.07c.04-.32,.33-.54,.64-.5l.55,.07c.32,.04,.54,.33,.5,.64l-.13,1.07Zm3.3,.4c-.04,.32-.33,.54-.64,.5l-.55-.07c-.32-.04-.54-.33-.5-.64l.13-1.07c.04-.32,.33-.54,.64-.5l.55,.07c.32,.04,.54,.33,.5,.64l-.13,1.07Z"/><rect class="cls-14" x="75.5" y="45.25" width="8.38" height="23.8" transform="translate(7.4 -9.11) rotate(6.86)"/><g><path class="cls-34" d="M116.78,66.38s-.07,.11-.12,.18c-.06,.07-.11,.15-.18,.22-.06,.07-.12,.13-.18,.18s-.09,.07-.12,.07l-1.3-.16-.34,.8,.1-.48,1.33,.16-.69,.64-.84-.1-.42,.99-.81-.1,1.15-2.7,2.41,.29Z"/><path class="cls-34" d="M117,66.41l.81,.1-1.15,2.7-.81-.1,1.15-2.7Z"/><path class="cls-34" d="M116.91,69.23l1.15-2.7,.81,.1-.86,2.01,1.34,.16s-.02,.03-.06,.08c-.04,.06-.1,.12-.16,.19-.06,.07-.13,.15-.19,.22s-.12,.13-.17,.16l-1.86-.22Z"/><path class="cls-34" d="M121.76,69.82l.64-1.52-1.33,1.43-.3-.04-.04-1.6-.64,1.52-.81-.1,1.15-2.7,1.02,.12,.05,1.43,1.2-1.28,1.02,.12-1.15,2.7-.81-.1Z"/></g><g><g><path d="M84.15,68.51l.13-1.06s.03-.08,.06-.11c.03-.03,.07-.05,.12-.06,.05-.01,.09-.02,.14-.02,.05,0,.09,0,.13,0,.08,0,.15,.03,.22,.07,.06,.04,.12,.08,.16,.14,.04,.05,.08,.11,.09,.17,.02,.06,.03,.12,.02,.17l-.08,.65,.53,.23-.05,.44-1.47-.63Zm.85-.1l-.25,.04,.08-.66s0,0-.01-.01c0,0-.02-.01-.03-.02l-.03-.02s-.02-.01-.02-.01h-.03s-.02,0-.04,.01-.03,.02-.03,.02l-.06,.47,.42,.18Z"/><path d="M85.94,66.55h-.33s.03,.03,.06,.05c.03,.02,.06,.05,.1,.08s.06,.06,.09,.08c.03,.03,.04,.05,.05,.06l-.12,.97h-.03l-1.23-1s-.03-.02-.04-.03-.03-.03-.05-.05c-.02-.02-.03-.04-.04-.05-.01-.02-.02-.03-.02-.04l.05-.39s.01-.03,.04-.04c.02,0,.05-.02,.08-.02s.07-.01,.1-.01c.03,0,.06,0,.09,0h1.25l-.05,.41Zm-.45,.47l.06-.47h-.69l.6,.46h.03Z"/><path d="M85.29,65.98c-.09-.01-.19-.04-.28-.08-.09-.04-.18-.1-.25-.16-.07-.06-.13-.14-.17-.21s-.06-.16-.05-.24l.11-.95c.07,.05,.13,.11,.19,.16,.06,.05,.11,.11,.16,.17l-.07,.6s0,.04,.02,.07c.01,.02,.03,.05,.06,.07,.02,.02,.05,.05,.08,.07,.03,.02,.06,.04,.09,.05,.02,0,.04,.02,.06,.02s.04,.01,.05,.01c.04,0,.08,0,.12,0,.04-.01,.08-.03,.12-.05s.07-.04,.1-.07c.03-.03,.04-.05,.04-.08l.07-.55c.06,.04,.12,.09,.19,.15s.12,.11,.17,.18l-.02,.18c-.01,.09-.03,.19-.07,.27-.03,.09-.08,.17-.14,.23-.06,.06-.14,.11-.24,.15-.1,.03-.21,.04-.35,.03h0Z"/><path d="M84.67,64.21l.05-.44,.66,.28-.59-.85,.06-.49,.67,.89,.82-.35-.06,.5-.74,.37,.66,.28-.05,.44-1.47-.63Z"/><path d="M86.5,61.88l-.83-.35,.78,.73-.02,.16-.87,.02,.83,.35-.05,.44-1.47-.63,.07-.56,.78-.03-.7-.66,.07-.56,1.47,.63-.05,.44Z"/><path d="M86.72,60.08h-.33s.03,.03,.06,.05c.03,.02,.06,.05,.1,.08s.06,.06,.09,.08c.03,.03,.04,.05,.05,.06l-.12,.97h-.03l-1.23-1s-.03-.02-.04-.03-.03-.03-.05-.05c-.02-.02-.03-.04-.04-.05-.01-.02-.02-.03-.02-.04l.05-.39s.01-.03,.04-.04c.02,0,.05-.02,.08-.02s.07-.01,.1-.01c.03,0,.06,0,.09,0h1.25l-.05,.41Zm-.45,.47l.06-.47h-.69l.6,.46h.03Z"/><path d="M85.3,58.94l.07-.56,.88-.03-.83-.35,.05-.44,1.47,.63-.07,.56-.87,.03,.83,.35-.05,.44-1.47-.63Z"/></g><g><path d="M86.62,67.48s.06,.04,.1,.07,.08,.06,.12,.1c.04,.03,.07,.07,.1,.1,.03,.03,.04,.05,.04,.06l-.09,.71,.44,.18-.28,.08,.1-.87,.35,.38-.06,.46,.54,.23-.05,.44-1.47-.63,.16-1.31Z"/><path d="M87.8,66.27c.09,.06,.18,.13,.24,.2,.07,.08,.12,.16,.16,.25,.04,.09,.05,.18,.04,.27l-.03,.27c-.01,.08-.03,.16-.05,.23-.03,.07-.06,.13-.11,.18s-.11,.08-.18,.1c-.07,.02-.17,.03-.27,.01-.02,0-.05,0-.07-.01-.02,0-.05-.01-.08-.02-.1-.02-.2-.06-.29-.12-.09-.06-.18-.12-.25-.2-.07-.07-.12-.15-.16-.24s-.05-.17-.04-.25l.04-.34c.02-.17,.08-.31,.17-.4,.09-.09,.24-.12,.43-.1,.03,0,.05,0,.08,.01,.03,0,.06,.01,.09,.02,.11,.03,.21,.07,.3,.13Zm-.34,1.06h.02s.07,0,.11,0c.04,0,.07-.02,.11-.03,.03-.02,.06-.03,.08-.06,.02-.02,.03-.05,.04-.08l.02-.19s0-.04-.02-.06c-.01-.03-.03-.06-.05-.1-.02-.03-.05-.07-.08-.1-.03-.03-.06-.06-.09-.08l-.03-.02s-.02,0-.03-.01h-.03l-.02-.02h0s-.03,0-.05-.01c-.02,0-.03,0-.05,0-.03,0-.06,0-.09,0-.03,0-.06,0-.09,.02s-.05,.03-.06,.05-.03,.05-.03,.09l-.03,.23s0,.05,.02,.08c.01,.03,.03,.06,.05,.09,.02,.03,.05,.06,.08,.09,.03,.03,.06,.05,.09,.07,.02,.01,.04,.02,.06,.03,.02,0,.04,.01,.05,.02,0,0,0,0,.02,0Z"/><path d="M86.84,65.72l.12-1.03c0-.06,.03-.1,.06-.13s.07-.05,.12-.06,.1-.02,.15-.02c.05,0,.1,0,.15,0,.1,.01,.18,.04,.24,.09,.06,.05,.1,.1,.13,.16,.03,.06,.05,.13,.06,.2,0,.07,.01,.14,0,.2l.63-.38-.06,.5-.6,.41,.02,.03,.51,.22-.05,.44-1.47-.63Zm.54-.78s-.03,0-.04,0c-.01,0-.02,.01-.02,.03l-.06,.46,.43,.18h-.26l.07-.6s0-.04-.03-.05c-.02-.01-.05-.02-.07-.02h-.03Z"/><path d="M87.19,62.8s.06,.04,.1,.07,.08,.06,.12,.1c.04,.03,.07,.07,.1,.1,.03,.03,.04,.05,.04,.06l-.09,.71,.44,.18-.28,.11,.11-.89,.35,.38-.06,.46,.17,.07,.11-.89h.02l.04,.04s.02,.02,.04,.02h.02s.05,.05,.07,.08c.03,.03,.05,.05,.08,.08s.05,.05,.06,.07c.02,.02,.03,.03,.03,.03l-.14,1.16-1.47-.63,.16-1.31Z"/><path d="M87.34,61.54l.06-.48,1.25,.98s.02,.02,.04,.04c.02,.02,.04,.03,.05,.05,.02,.02,.03,.04,.05,.06,.01,.02,.02,.03,.02,.04l-.05,.38s-.01,.03-.04,.04c-.02,0-.05,.02-.08,.02-.03,0-.07,0-.1,.01-.03,0-.06,0-.09,0h-1.25l.05-.41h1.04l-.95-.75Z"/><path d="M87.57,59.65s.06,.04,.1,.07,.08,.06,.12,.1c.04,.03,.07,.07,.1,.1,.03,.03,.04,.05,.04,.06l-.09,.71,.44,.18h-.27l.09-.78,.35,.38-.06,.46,.17,.07,.11-.89h.02l.04,.04s.02,.02,.04,.02h.02s.05,.05,.07,.08c.03,.03,.05,.05,.08,.08s.05,.05,.06,.07c.02,.02,.03,.03,.03,.03l-.14,1.16-1.47-.63,.16-1.31Z"/><path d="M87.58,59.52l.12-1.03c0-.06,.03-.1,.06-.13s.07-.05,.12-.06,.1-.02,.15-.02c.05,0,.1,0,.15,0,.1,.01,.18,.04,.24,.09,.06,.05,.1,.1,.13,.16,.03,.06,.05,.13,.06,.2,0,.07,.01,.14,0,.2l.63-.38-.06,.5-.6,.41,.02,.03,.51,.22-.05,.44-1.47-.63Zm.54-.78s-.03,0-.04,0c-.01,0-.02,.01-.02,.03l-.06,.46,.43,.18-.28,.13,.09-.73s0-.04-.03-.05c-.02-.01-.05-.02-.07-.02h-.03Z"/></g></g><polygon points="81.12 45.33 75.08 68.58 77.59 68.88 83.7 45.64 81.12 45.33"/><line class="cls-3" x1="84.58" y1="45.75" x2="78.89" y2="69.04"/></g></g><g><g><path class="cls-34" d="M138.34,31.72s.07-.06,.09-.1c.58-1.21,.26-1.74-.14-2.06-.39-.32-.87,.23-1.12-.06-.12-.14-.17-.24-.26-.34l.23-.57c.86,.11,2.7,.38,4.19,.93,2.02,.75,2.88,.59,4.4,.1-.97-.39-1.98-3.44-3.87-4.11-1.78-.62-3.94,1.61-4.4,2.26,0-.08-.05-.16-.13-.2l-.33-.13c-.11-.04-.23,0-.27,.11l-.53,1.28c-.46-.1-.23,.28-.9-.06-1.18-.61-1.63,.6-1.75,1.02-2.74,0-5.33,1.63-6.43,4.33-1.38,3.4,.2,7.4,3.54,8.92,3.6,1.65,7.82-.04,9.31-3.67,1.12-2.72,.37-5.74-1.63-7.66Z"/><path class="cls-30" d="M130.24,44.07c-3.71-1.68-5.6-6-4.32-9.86,1.03-3.08,3.74-5.18,6.88-5.47,.21-.39,.54-.78,1.02-1.02,.36-.18,.94-.32,1.67-.05l.21-.52c.25-.6,.9-.92,1.52-.77,1.06-1.07,3.06-2.57,4.99-1.89,.06,.02,.12,.04,.18,.07,1.37,.56,2.26,1.91,2.97,2.99,.25,.38,.63,.94,.8,1.08l1.54,.61c.43,.17,.41,.79-.03,.93l-1.62,.52c-1.6,.51-2.75,.76-5.12-.12-.36-.13-.74-.25-1.12-.35,.04,.37,0,.8-.17,1.3,1.97,2.28,2.5,5.45,1.33,8.28-1.72,4.19-6.6,6.15-10.76,4.27Z"/><g><path class="cls-27" d="M145.75,29.58c-.97-.39-1.98-3.44-3.87-4.11-1.78-.62-3.94,1.61-4.4,2.26,0-.08-.05-.16-.13-.2l-.33-.13c-.11-.04-.23,0-.27,.11l-.94,2.28c-.04,.11,0,.23,.11,.27l.33,.13c.11,.04,.23,0,.27-.11l.63-1.54c.86,.11,2.7,.38,4.19,.93,2.02,.75,2.88,.59,4.4,.1Z"/><path class="cls-17" d="M138.36,31.68s.07-.06,.09-.1c.58-1.21,.26-1.74-.14-2.06-.39-.32-.87,.23-1.12-.06-.25-.29-.19-.41-.83-.63-.65-.21-.3,.28-1.03-.09-1.18-.61-1.63,.6-1.75,1.02-2.73,0-5.32,1.62-6.42,4.3-1.46,3.55,.24,7.6,3.78,9.06,3.55,1.46,7.6-.24,9.06-3.78,1.12-2.72,.37-5.74-1.63-7.66Z"/><g><ellipse class="cls-51" cx="132.01" cy="33.64" rx=".25" ry=".19" transform="translate(50.75 142.99) rotate(-67.68)"/><ellipse class="cls-51" cx="132.54" cy="35.72" rx=".25" ry=".19" transform="translate(49.16 144.76) rotate(-67.68)"/><ellipse class="cls-51" cx="133.96" cy="32.97" rx=".25" ry=".19" transform="translate(52.58 144.37) rotate(-67.68)"/><ellipse class="cls-51" cx="130.65" cy="31.61" rx=".25" ry=".19" transform="translate(51.79 140.47) rotate(-67.68)"/><ellipse class="cls-51" cx="128.45" cy="33.77" rx=".25" ry=".19" transform="translate(48.42 139.77) rotate(-67.68)"/><ellipse class="cls-51" cx="129.72" cy="35.61" rx=".25" ry=".19" transform="translate(47.51 142.09) rotate(-67.68)"/><ellipse class="cls-51" cx="130.45" cy="37.7" rx=".25" ry=".19" transform="translate(46.03 144.05) rotate(-67.68)"/><ellipse class="cls-51" cx="129.46" cy="40.1" rx=".25" ry=".19" transform="translate(43.19 144.63) rotate(-67.68)"/><ellipse class="cls-51" cx="131.67" cy="39.56" rx=".25" ry=".19" transform="translate(45.07 146.34) rotate(-67.68)"/><ellipse class="cls-51" cx="133.83" cy="38.09" rx=".25" ry=".19" transform="translate(47.77 147.42) rotate(-67.68)"/><ellipse class="cls-51" cx="135.03" cy="35.15" rx=".25" ry=".19" transform="translate(51.23 146.71) rotate(-67.68)"/><ellipse class="cls-51" cx="136.25" cy="32.2" rx=".25" ry=".19" transform="translate(54.71 146) rotate(-67.68)"/><ellipse class="cls-51" cx="133.44" cy="30.91" rx=".25" ry=".19" transform="translate(54.16 142.61) rotate(-67.68)"/><ellipse class="cls-51" cx="137.68" cy="34.41" rx=".25" ry=".19" transform="translate(53.55 148.71) rotate(-67.68)"/><ellipse class="cls-51" cx="136.55" cy="37.18" rx=".25" ry=".19" transform="translate(50.29 149.37) rotate(-67.68)"/><ellipse class="cls-51" cx="139.04" cy="36.26" rx=".25" ry=".19" transform="translate(52.69 151.11) rotate(-67.68)"/><ellipse class="cls-51" cx="138.59" cy="32.69" rx=".25" ry=".19" transform="translate(55.71 148.48) rotate(-67.68)"/><ellipse class="cls-51" cx="135.59" cy="40.01" rx=".25" ry=".19" transform="translate(47.08 150.24) rotate(-67.68)"/><ellipse class="cls-51" cx="133.17" cy="40.7" rx=".25" ry=".19" transform="translate(44.93 148.43) rotate(-67.68)"/><ellipse class="cls-51" cx="130.83" cy="42.12" rx=".25" ry=".19" transform="translate(42.18 147.15) rotate(-67.68)"/><ellipse class="cls-51" cx="134.58" cy="42.47" rx=".25" ry=".19" transform="translate(44.17 150.83) rotate(-67.68)"/><ellipse class="cls-51" cx="137.83" cy="39.21" rx=".25" ry=".19" transform="translate(49.21 151.82) rotate(-67.68)"/><ellipse class="cls-51" cx="136.88" cy="41.54" rx=".25" ry=".19" transform="translate(46.46 152.38) rotate(-67.68)"/><ellipse class="cls-51" cx="127.93" cy="37.75" rx=".25" ry=".19" transform="translate(44.42 141.75) rotate(-67.68)"/></g></g></g><g><path class="cls-34" d="M121.79,32.71s0-.07-.02-.1c-.44-.92-.9-.97-1.27-.9-.37,.08-.28,.62-.57,.63-.14,0-.22-.02-.32,0l-.22-.41c.47-.45,1.5-1.4,2.53-2.02,1.39-.83,1.71-1.41,2.14-2.53-.69,.39-2.96-.47-4.24,.32-1.21,.75-.92,3.07-.76,3.65-.05-.04-.12-.05-.18-.02l-.23,.13c-.08,.04-.1,.14-.06,.21l.5,.91c-.28,.22,.06,.27-.46,.5-.92,.41-.42,1.24-.23,1.51-1.3,1.61-1.57,3.9-.51,5.82,1.34,2.42,4.43,3.39,6.91,2.15,2.67-1.33,3.68-4.6,2.26-7.2-1.07-1.94-3.19-2.94-5.26-2.67Z"/><path class="cls-31" d="M125.18,43.31c-2.74,1.38-6.17,.44-7.82-2.14-1.32-2.06-1.27-4.65,.05-6.63-.13-.31-.21-.69-.11-1.08,.07-.29,.26-.7,.76-1l-.2-.37c-.24-.43-.12-.97,.26-1.26-.13-1.13-.06-3.01,1.26-3.82,.04-.02,.08-.05,.12-.07,.98-.53,2.19-.42,3.16-.33,.34,.03,.85,.08,1.02,.04l1.09-.61c.3-.17,.65,.13,.53,.46l-.46,1.19c-.46,1.18-.86,1.97-2.49,2.94-.25,.15-.49,.31-.73,.49,.24,.15,.47,.38,.68,.72,2.27-.07,4.38,1.12,5.49,3.14,1.64,2.99,.48,6.78-2.59,8.33Z"/><g><path class="cls-10" d="M124.04,27.36c-.69,.39-2.96-.47-4.24,.32-1.21,.75-.92,3.07-.76,3.65-.05-.04-.12-.05-.18-.02l-.23,.13c-.08,.04-.1,.14-.06,.21l.89,1.63c.04,.08,.14,.1,.21,.06l.23-.13c.08-.04,.1-.14,.06-.21l-.6-1.1c.47-.45,1.5-1.4,2.53-2.02,1.39-.83,1.71-1.41,2.14-2.53Z"/><path class="cls-21" d="M121.77,32.68s0-.07-.02-.1c-.44-.92-.9-.97-1.27-.9-.37,.08-.28,.62-.57,.63-.29,.01-.33-.09-.76,.19-.43,.28,.02,.31-.54,.56-.92,.41-.42,1.24-.23,1.51-1.29,1.6-1.57,3.89-.52,5.8,1.39,2.53,4.57,3.46,7.1,2.07s3.46-4.57,2.07-7.1c-1.07-1.94-3.19-2.94-5.26-2.67Z"/><g><ellipse class="cls-51" cx="119.91" cy="37.33" rx=".14" ry=".19" transform="translate(-3.18 62.24) rotate(-28.73)"/><ellipse class="cls-51" cx="121.38" cy="38" rx=".14" ry=".19" transform="translate(-3.32 63.03) rotate(-28.73)"/><ellipse class="cls-51" cx="120.44" cy="35.87" rx=".14" ry=".19" transform="translate(-2.41 62.31) rotate(-28.73)"/><ellipse class="cls-51" cx="118.08" cy="37.16" rx=".14" ry=".19" transform="translate(-3.33 61.34) rotate(-28.73)"/><ellipse class="cls-51" cx="118.3" cy="39.48" rx=".14" ry=".19" transform="translate(-4.41 61.73) rotate(-28.73)"/><ellipse class="cls-51" cx="119.98" cy="39.61" rx=".14" ry=".19" transform="translate(-4.27 62.55) rotate(-28.73)"/><ellipse class="cls-51" cx="121.55" cy="40.17" rx=".14" ry=".19" transform="translate(-4.34 63.37) rotate(-28.73)"/><ellipse class="cls-51" cx="122.49" cy="41.89" rx=".14" ry=".19" transform="translate(-5.06 64.04) rotate(-28.73)"/><ellipse class="cls-51" cx="123.22" cy="40.33" rx=".14" ry=".19" transform="translate(-4.22 64.2) rotate(-28.73)"/><ellipse class="cls-51" cx="123.38" cy="38.37" rx=".14" ry=".19" transform="translate(-3.26 64.03) rotate(-28.73)"/><ellipse class="cls-51" cx="122.23" cy="36.27" rx=".14" ry=".19" transform="translate(-2.39 63.22) rotate(-28.73)"/><ellipse class="cls-51" cx="121.07" cy="34.16" rx=".14" ry=".19" transform="translate(-1.52 62.4) rotate(-28.73)"/><ellipse class="cls-51" cx="118.99" cy="35.2" rx=".14" ry=".19" transform="translate(-2.27 61.53) rotate(-28.73)"/><ellipse class="cls-51" cx="123.05" cy="34.37" rx=".14" ry=".19" transform="translate(-1.37 63.38) rotate(-28.73)"/><ellipse class="cls-51" cx="124.13" cy="36.35" rx=".14" ry=".19" transform="translate(-2.19 64.14) rotate(-28.73)"/><ellipse class="cls-51" cx="124.78" cy="34.45" rx=".14" ry=".19" transform="translate(-1.2 64.22) rotate(-28.73)"/><ellipse class="cls-51" cx="122.47" cy="33.02" rx=".14" ry=".19" transform="translate(-.8 62.94) rotate(-28.73)"/><ellipse class="cls-51" cx="125.34" cy="38.25" rx=".14" ry=".19" transform="translate(-2.96 64.96) rotate(-28.73)"/><ellipse class="cls-51" cx="124.6" cy="40" rx=".14" ry=".19" transform="translate(-3.89 64.82) rotate(-28.73)"/><ellipse class="cls-51" cx="124.32" cy="42.04" rx=".14" ry=".19" transform="translate(-4.9 64.94) rotate(-28.73)"/><ellipse class="cls-51" cx="126.3" cy="40.01" rx=".14" ry=".19" transform="translate(-3.68 65.64) rotate(-28.73)"/><ellipse class="cls-51" cx="125.93" cy="36.56" rx=".14" ry=".19" transform="translate(-2.07 65.04) rotate(-28.73)"/><ellipse class="cls-51" cx="126.84" cy="38.22" rx=".14" ry=".19" transform="translate(-2.76 65.68) rotate(-28.73)"/><ellipse class="cls-51" cx="120.38" cy="41.67" rx=".14" ry=".19" transform="translate(-5.21 63) rotate(-28.73)"/></g></g></g></g><g class="cls-50"><path class="cls-15" d="M100.93,106.61c-3.96-.69-7.19-2.89-8.87-5.86-2.58,2.23-6.36,3.22-10.32,2.53-1.24-.22-2.46-.59-3.62-1.12-4.29-1.96-7.69-7.96-9.79-12.64-.17-.37-.29-.76-.34-1.17-.29-2.31,1.23-4.24,3.35-4.8,3.24-.87,9.35-2.21,13.81-1.43,.98,.17,1.86,.43,2.64,.79,2.18,1,4.04,2.5,5.38,4.31l2.24,.54c1.9-1.32,4.22-2.15,6.69-2.36,.85-.07,1.78-.02,2.75,.15,4.46,.77,9.76,4.09,12.52,6,.4,.27,.74,.6,1.03,.95l3.27,.79c1.17,.28,2.11,1.1,2.51,2.17h0c.44,1.19,.92,2.38,1.44,3.57,.74,1.69,.13,3.6-1.46,4.61h0c-1.29,.82-2.78,.66-4.05-.11-.55-.33-1.01-.79-1.4-1.3l-2.08-2.68c-3.33,3.1-8.11,6.92-11.92,7.25-1.27,.11-2.54,.05-3.78-.16Z"/><g><path class="cls-52" d="M115.04,95.11l5.85,1.44-.14-.14c.26,.79,.5,1.6,.77,2.39s.64,1.59,.99,2.36c.11,.24,.47,.03,.36-.21-.33-.72-.66-1.43-.92-2.18-.22-.61-.4-1.24-.6-1.86-.06-.2-.1-.51-.23-.67-.12-.15-.38-.16-.56-.2l-1.75-.43-3.66-.9c-.26-.06-.37,.33-.11,.4h0Z"/><path class="cls-52" d="M89.91,89.42l5.85,1.44-.14-.14c.87,2.6,1.88,5.14,3.01,7.64,.11,.24,.47,.03,.36-.21-1.02-2.25-1.94-4.55-2.75-6.89-.07-.2-.11-.53-.24-.7-.11-.14-.31-.14-.47-.18l-1.81-.44-3.7-.91c-.26-.06-.37,.33-.11,.4h0Z"/><path d="M91.27,93.76c.3-.73,1.15-1.12,1.9-1.04,.85,.09,1.55,.7,1.95,1.42,.15,.28,.58,.03,.42-.25-.49-.89-1.39-1.6-2.43-1.67-.98-.07-1.94,.5-2.32,1.4-.12,.29,.35,.42,.47,.13h0Z"/><g><path class="cls-12" d="M85.73,84.68c4.82,2.31,7.1,7.59,5.08,11.81-2.02,4.21-7.56,5.76-12.38,3.45-3.77-1.8-7.11-9.14-8.39-12.25-.31-.76,.1-1.63,.89-1.86,3.22-.96,11.03-2.96,14.8-1.15Z"/><g class="cls-46"><ellipse class="cls-45" cx="82.37" cy="92.45" rx="6.66" ry="7.79" transform="translate(-36.58 126.84) rotate(-64.43)"/><rect class="cls-36" x="79.29" y="82.7" width="2.44" height="16.26" transform="translate(68.26 -29.92) rotate(35.76)"/><rect class="cls-36" x="81.33" y="85.04" width="1.39" height="16.26" transform="translate(69.91 -30.37) rotate(35.76)"/></g><circle class="cls-32" cx="72.67" cy="87.64" r=".58"/></g><path class="cls-12" d="M102.85,87.65c-5.32,.55-9.24,4.76-8.76,9.41s5.18,7.97,10.5,7.42c4.16-.43,9.77-6.21,12.03-8.71,.55-.61,.45-1.56-.21-2.05-2.71-1.99-9.39-6.5-13.55-6.07Z"/><g class="cls-42"><ellipse class="cls-45" cx="103.4" cy="96.1" rx="7.79" ry="6.66" transform="translate(-9.31 11.11) rotate(-5.89)"/><rect class="cls-36" x="101.41" y="88.12" width="2.44" height="16.26" transform="translate(66.92 -39.84) rotate(32.14)"/><rect class="cls-36" x="99.52" y="86.92" width="1.39" height="16.26" transform="translate(134.52 228.85) rotate(-147.86)"/></g><circle class="cls-32" cx="114.14" cy="94.83" r=".58"/></g></g><g class="cls-43"><ellipse class="cls-13" cx="34.38" cy="86.42" rx="10.33" ry="20.58" transform="translate(-56.53 106.07) rotate(-80.5)"/><ellipse class="cls-13" cx="34.38" cy="86.42" rx="9.02" ry="19.02" transform="translate(-56.53 106.07) rotate(-80.5)"/><text class="cls-37" transform="translate(21.19 86.9) rotate(9.5)"><tspan x="0" y="0">JEJU</tspan></text></g><g class="cls-40"><path class="cls-28" d="M173.73,96.19c-.37,0-.74-.06-1.09-.17l-39.92-11.98c-.5-.15-.87-.56-.96-1.07l-.93-4.87c-.15-.8,.41-1.56,1.22-1.64h0c.09-.11,.2-.21,.31-.31l19.28-17.33c.23-.21,.38-.48,.44-.78,.65-3.6,4.87-27.05,4.87-27.05,.35-1.94,2.04-3.35,4.01-3.35,.45,0,.89,.07,1.31,.22l38.34,13.07c1.9,.65,3.06,2.63,2.69,4.61l-5.17,27.55c-.05,.29-.14,.57-.26,.84s-.16,.54-.11,.82l.35,1.77c.1,.51-.09,1.04-.5,1.36l-19.09,15.08s-.07,.06-.1,.09l-2.25,2.17c-.66,.64-1.52,.99-2.44,.99h0Z"/><path class="cls-34" d="M199.57,43.58l-38.34-13.07c-.73-.25-1.52,.21-1.65,.97l-4.95,27.49c-.06,.31,0,.62,.16,.87-.15,.01-.29,.06-.41,.16l-20.28,18.23c-.25,.23-.27,.57-.14,.84l-.22,.02,.48,2.5,39.14,11.74c.25,.09,.54,.03,.73-.16l2.4-2.31,18.57-14.67-.54-2.73c.36-.16,.64-.49,.72-.91l5.17-27.55c.12-.62-.24-1.23-.83-1.43Z"/><g><polygon points="133.74 79.1 134.22 81.6 173.36 93.34 195.05 76.2 194.4 72.92 133.74 79.1"/><path class="cls-5" d="M193.57,73.52l-38.12-13.13c-.59-.2-.94-.81-.83-1.42l4.95-27.49c.14-.76,.92-1.22,1.65-.97l38.34,13.07c.6,.2,.95,.81,.83,1.43l-5.17,27.55c-.14,.76-.93,1.21-1.65,.96Z"/><path class="cls-5" d="M173.36,93.34l-39.02-13.91c-.51-.18-.63-.83-.24-1.19l20.28-18.23c.19-.17,.45-.23,.69-.15l38.91,12.68c.51,.17,.66,.81,.27,1.18l-20.17,19.46c-.19,.19-.48,.25-.73,.16Z"/><polygon points="193.91 70.19 156.28 58.2 160.9 32.84 198.36 45.42 193.91 70.19"/><g><path d="M158.16,63.03l-2.22-.78c-.15-.05-.37,0-.49,.1l-.7,.61c-.12,.11-.1,.24,.05,.29l2.23,.78c.15,.05,.37,0,.49-.1l.69-.61c.12-.11,.1-.24-.05-.29Z"/><path d="M156.52,64.47l-2.23-.78c-.15-.05-.37,0-.5,.1l-1.62,1.4c-.13,.11-.11,.24,.04,.29l2.25,.79c.15,.05,.38,0,.5-.1l1.6-1.41c.12-.11,.1-.24-.05-.29Z"/><path d="M159.95,65.67l-2.24-.79c-.15-.05-.37,0-.5,.1l-1.6,1.41c-.13,.11-.1,.24,.05,.3l2.25,.79c.15,.05,.38,0,.5-.1l1.59-1.42c.12-.11,.1-.24-.05-.29Z"/><path d="M159.12,67.92l2.26,.8c.15,.05,.38,0,.5-.1l1.57-1.43c.12-.11,.1-.24-.05-.3l-2.25-.79c-.15-.05-.37,0-.5,.1l-1.59,1.42c-.12,.11-.1,.24,.05,.3Z"/><path d="M162.59,69.14l2.27,.8c.15,.05,.38,0,.5-.11l1.56-1.44c.12-.11,.09-.24-.06-.3l-2.26-.79c-.15-.05-.37,0-.49,.1l-1.57,1.43c-.12,.11-.1,.25,.05,.3Z"/><path d="M166.07,70.36l2.28,.8c.15,.05,.38,0,.5-.11l1.54-1.45c.12-.11,.09-.25-.06-.3l-2.27-.8c-.15-.05-.37,0-.49,.1l-1.56,1.44c-.12,.11-.1,.25,.06,.3Z"/><path d="M169.56,71.6l2.29,.81c.15,.05,.38,0,.5-.11l1.53-1.46c.12-.11,.09-.25-.06-.3l-2.28-.8c-.15-.05-.37,0-.49,.11l-1.54,1.45c-.12,.11-.09,.25,.06,.3Z"/><path d="M173.07,72.83l2.3,.81c.15,.05,.38,0,.49-.11l1.51-1.47c.12-.11,.09-.25-.07-.3l-2.29-.8c-.15-.05-.37,0-.49,.11l-1.53,1.46c-.12,.11-.09,.25,.06,.3Z"/><path d="M180.83,73l-2.29-.81c-.15-.05-.37,0-.49,.11l-1.51,1.47c-.12,.11-.09,.25,.07,.31l2.31,.81c.16,.05,.38,0,.49-.11l1.5-1.48c.12-.11,.08-.25-.07-.3Z"/><path d="M184.35,74.24l-2.3-.81c-.15-.05-.37,0-.49,.11l-1.5,1.48c-.12,.12-.09,.25,.07,.31l2.32,.82c.16,.05,.38,0,.49-.11l1.48-1.48c.11-.11,.08-.25-.07-.31Z"/><path d="M187.89,75.48l-2.31-.81c-.16-.05-.37,0-.49,.11l-1.48,1.49c-.12,.12-.08,.25,.07,.31l2.33,.82c.16,.06,.38,0,.49-.11l1.47-1.49c.11-.12,.08-.25-.08-.31Z"/><path d="M153.96,66.72l-2.25-.79c-.15-.05-.38,0-.5,.1l-1.64,1.43c-.13,.11-.11,.25,.04,.3l2.26,.8c.15,.05,.38,0,.51-.11l1.63-1.43c.13-.11,.11-.24-.05-.3Z"/><path d="M157.42,67.94l-2.26-.8c-.15-.05-.38,0-.5,.1l-1.63,1.44c-.13,.11-.11,.25,.05,.3l2.27,.8c.15,.05,.38,0,.5-.11l1.62-1.44c.12-.11,.1-.25-.05-.3Z"/><path d="M156.56,70.22l2.28,.81c.15,.05,.38,0,.5-.11l1.6-1.45c.12-.11,.1-.25-.05-.3l-2.27-.8c-.15-.05-.38,0-.5,.1l-1.61,1.45c-.13,.11-.1,.25,.05,.3Z"/><path d="M160.05,71.45l2.29,.81c.15,.05,.38,0,.5-.11l1.59-1.46c.12-.11,.1-.25-.06-.3l-2.27-.8c-.15-.05-.38,0-.5,.11l-1.6,1.46c-.12,.11-.1,.25,.05,.3Z"/><path d="M163.55,72.69l2.3,.81c.15,.05,.38,0,.5-.11l1.57-1.47c.12-.11,.09-.25-.06-.3l-2.28-.81c-.15-.05-.38,0-.5,.11l-1.58,1.46c-.12,.11-.1,.25,.06,.31Z"/><path d="M167.07,73.94l2.31,.82c.16,.05,.38,0,.5-.11l1.56-1.48c.12-.11,.09-.25-.06-.31l-2.29-.81c-.15-.05-.38,0-.5,.11l-1.57,1.47c-.12,.12-.1,.25,.06,.31Z"/><path d="M170.61,75.19l2.31,.82c.16,.06,.38,0,.5-.11l1.54-1.49c.12-.12,.09-.25-.07-.31l-2.3-.81c-.15-.05-.38,0-.5,.11l-1.55,1.48c-.12,.12-.09,.25,.06,.31Z"/><path d="M178.43,75.35l-2.31-.81c-.15-.05-.38,0-.5,.11l-1.54,1.49c-.12,.12-.09,.26,.07,.31l2.32,.82c.16,.06,.38,0,.5-.11l1.52-1.5c.12-.12,.09-.25-.07-.31Z"/><path d="M181.98,76.6l-2.32-.82c-.16-.05-.38,0-.49,.11l-1.52,1.5c-.12,.12-.09,.26,.07,.31l2.33,.83c.16,.06,.38,0,.5-.11l1.51-1.51c.12-.12,.08-.26-.07-.31Z"/><path d="M185.55,77.86l-2.33-.82c-.16-.06-.38,0-.49,.11l-1.51,1.51c-.12,.12-.09,.26,.07,.31l2.34,.83c.16,.06,.38,0,.5-.11l1.49-1.52c.12-.12,.08-.26-.08-.31Z"/><path d="M151.36,69.01l-2.26-.8c-.15-.05-.38,0-.51,.11l-1.67,1.45c-.13,.11-.11,.25,.04,.3l2.28,.81c.15,.05,.38,0,.51-.11l1.66-1.46c.13-.11,.11-.25-.04-.3Z"/><path d="M154.84,70.24l-2.27-.81c-.15-.05-.38,0-.51,.11l-1.65,1.46c-.13,.11-.11,.25,.04,.31l2.28,.81c.15,.05,.38,0,.51-.11l1.64-1.47c.13-.11,.11-.25-.05-.3Z"/><path d="M153.95,72.55l2.29,.82c.15,.05,.38,0,.51-.11l1.63-1.48c.13-.11,.1-.25-.05-.31l-2.28-.81c-.15-.05-.38,0-.51,.11l-1.64,1.47c-.13,.11-.11,.25,.05,.31Z"/><path d="M157.47,73.81l2.3,.82c.16,.06,.38,0,.51-.11l1.61-1.49c.12-.11,.1-.25-.05-.31l-2.29-.81c-.15-.05-.38,0-.51,.11l-1.62,1.48c-.13,.12-.1,.25,.05,.31Z"/><path d="M161,75.06l2.31,.82c.16,.06,.38,0,.51-.11l1.6-1.5c.12-.12,.1-.25-.06-.31l-2.3-.81c-.15-.05-.38,0-.5,.11l-1.61,1.49c-.13,.12-.1,.26,.05,.31Z"/><path d="M164.54,76.32l2.32,.83c.16,.06,.38,0,.51-.11l1.58-1.51c.12-.12,.1-.26-.06-.31l-2.31-.82c-.15-.05-.38,0-.5,.11l-1.59,1.5c-.12,.12-.1,.26,.06,.31Z"/><path d="M168.1,77.59l2.33,.83c.16,.06,.38,0,.51-.11l1.57-1.52c.12-.12,.09-.26-.06-.31l-2.32-.82c-.16-.06-.38,0-.5,.11l-1.58,1.51c-.12,.12-.1,.26,.06,.31Z"/><path d="M176,77.74l-2.33-.82c-.16-.06-.38,0-.5,.11l-1.56,1.52c-.12,.12-.09,.26,.06,.32l2.34,.83c.16,.06,.38,0,.5-.11l1.55-1.53c.12-.12,.09-.26-.07-.31Z"/><path d="M179.58,79.01l-2.34-.83c-.16-.06-.38,0-.5,.11l-1.55,1.53c-.12,.12-.09,.26,.07,.32l2.35,.84c.16,.06,.38,0,.5-.12l1.53-1.54c.12-.12,.09-.26-.07-.32Z"/><path d="M183.17,80.28l-2.35-.83c-.16-.06-.38,0-.5,.11l-1.53,1.54c-.12,.12-.09,.26,.07,.32l2.36,.84c.16,.06,.38,0,.5-.12l1.52-1.55c.12-.12,.08-.26-.07-.32Z"/><path d="M148.71,71.33l-2.28-.81c-.15-.05-.38,0-.51,.11l-1.7,1.48c-.13,.12-.12,.25,.04,.31l2.29,.82c.15,.06,.39,0,.52-.11l1.69-1.48c.13-.11,.11-.25-.04-.31Z"/><path d="M152.22,72.58l-2.29-.82c-.15-.05-.38,0-.51,.11l-1.68,1.49c-.13,.12-.11,.25,.04,.31l2.3,.82c.15,.06,.39,0,.52-.11l1.67-1.49c.13-.12,.11-.25-.05-.31Z"/><path d="M155.78,74.14c.13-.12,.11-.25-.05-.31l-2.3-.82c-.15-.05-.38,0-.51,.11l-1.67,1.49c-.13,.12-.11,.26,.04,.31l2.31,.83c.16,.06,.39,0,.52-.11l1.66-1.5Z"/><path d="M154.84,76.2l13.06,4.67c.16,.06,.39,0,.51-.12l1.59-1.54c.12-.12,.1-.26-.06-.32l-12.98-4.63c-.15-.06-.38,0-.51,.11l-1.65,1.5c-.13,.12-.11,.26,.05,.31Z"/><path d="M173.53,80.17l-2.34-.83c-.16-.06-.38,0-.51,.11l-1.59,1.54c-.12,.12-.1,.26,.06,.32l2.36,.84c.16,.06,.39,0,.51-.12l1.58-1.55c.12-.12,.09-.26-.07-.32Z"/><path d="M177.13,81.46l-2.35-.84c-.16-.06-.38,0-.51,.12l-1.57,1.55c-.12,.12-.09,.27,.06,.32l2.37,.85c.16,.06,.39,0,.51-.12l1.56-1.56c.12-.12,.09-.26-.07-.32Z"/><path d="M180.74,82.75l-2.36-.84c-.16-.06-.38,0-.5,.12l-1.56,1.56c-.12,.12-.09,.27,.07,.32l2.38,.85c.16,.06,.39,0,.51-.12l1.54-1.57c.12-.12,.09-.27-.07-.32Z"/><path d="M161.57,64.23l-2.23-.78c-.15-.05-.37,0-.49,.1l-.69,.61c-.12,.11-.1,.24,.05,.29l2.24,.78c.15,.05,.37,0,.49-.1l.69-.61c.12-.11,.1-.24-.05-.29Z"/><path d="M161.64,65.65l2.25,.79c.15,.05,.37,0,.49-.1l.68-.62c.12-.11,.1-.24-.06-.29l-2.24-.78c-.15-.05-.37,0-.49,.1l-.68,.61c-.12,.11-.1,.24,.05,.29Z"/><path d="M165.08,66.86l2.26,.79c.15,.05,.37,0,.49-.1l.67-.62c.12-.11,.09-.24-.06-.29l-2.25-.79c-.15-.05-.37,0-.49,.1l-.68,.62c-.12,.11-.1,.24,.06,.3Z"/><path d="M168.54,68.07l2.26,.79c.15,.05,.37,0,.49-.1l.67-.62c.12-.11,.09-.24-.06-.3l-2.26-.79c-.15-.05-.37,0-.49,.1l-.67,.62c-.12,.11-.09,.24,.06,.3Z"/><path d="M172.01,69.29l2.27,.8c.15,.05,.37,0,.49-.11l.66-.63c.12-.11,.09-.24-.06-.3l-2.27-.79c-.15-.05-.37,0-.49,.1l-.66,.62c-.12,.11-.09,.24,.06,.3Z"/><path d="M175.5,70.51l2.28,.8c.15,.05,.37,0,.49-.11l.65-.63c.12-.11,.09-.25-.07-.3l-2.27-.8c-.15-.05-.37,0-.49,.1l-.66,.63c-.12,.11-.09,.25,.07,.3Z"/><path d="M182.35,71.5l-2.28-.8c-.15-.05-.37,0-.49,.11l-.65,.63c-.12,.11-.09,.25,.07,.3l2.29,.8c.15,.05,.37,0,.49-.11l.65-.64c.11-.11,.08-.25-.07-.3Z"/><path d="M185.86,72.73l-2.29-.8c-.15-.05-.37,0-.49,.11l-.64,.64c-.11,.11-.08,.25,.07,.3l2.3,.81c.15,.05,.37,0,.49-.11l.64-.64c.11-.11,.08-.25-.07-.3Z"/><path d="M189.39,73.96l-2.3-.81c-.15-.05-.37,0-.48,.11l-.64,.64c-.11,.11-.08,.25,.07,.31l2.31,.81c.16,.05,.37,0,.49-.11l.63-.64c.11-.11,.08-.25-.08-.3Z"/><path class="cls-8" d="M167.09,82.5l-14.39-5.16c-.18-.06-.44,0-.59,.13l-4.52,4.1c-.15,.14-.13,.3,.05,.37l14.58,5.28c.18,.07,.45,0,.59-.14l4.34-4.21c.14-.14,.11-.3-.07-.37Z"/></g><polygon class="cls-34" points="184.07 67.06 180.16 65.81 173.25 36.99 178.68 38.82 184.07 67.06"/><polygon class="cls-34" points="189.24 68.7 186.93 67.97 180.74 39.54 184.35 40.76 189.24 68.7"/></g></g><g><path d="M80.57,29.38c-.71-1.81-.66-3.86,.17-5.63,.42-.88,1.03-1.76,1.85-2.32,.93-.63,2.1-.61,3.1-.14,.91,.43,1.59,1.24,2.08,2.1,.24,.42,.48,.89,.55,1.37,.12,.82-.66,1.08-1.27,.65-.4-.28-.67-.73-.93-1.14-.3-.47-.62-.97-.76-1.52-.3-1.2,.48-2.11,1.39-2.78,1.91-1.4,4.2-2.26,6.53-2.63,.46-.07,.26-.77-.19-.7-1.43,.22-2.81,.63-4.13,1.23-1.23,.55-2.56,1.26-3.49,2.26-.85,.91-1.13,2.04-.67,3.21,.39,.99,1.15,2.41,2.17,2.87,.93,.43,2.05-.05,2.1-1.14s-.75-2.37-1.45-3.18c-.8-.93-1.91-1.58-3.14-1.67s-2.38,.51-3.21,1.45c-1.88,2.12-2.41,5.26-1.38,7.89,.17,.43,.87,.24,.7-.19h0Z"/><path class="cls-47" d="M79.86,28.38c-.69-1.77-.66-3.77,.16-5.5,.87-1.84,2.61-3.41,4.71-2.4,.89,.42,1.55,1.2,2.02,2.04,.22,.4,.46,.85,.53,1.31,.1,.68-.5,.85-1.01,.5-.38-.27-.64-.71-.88-1.09-.3-.46-.6-.95-.74-1.48-.29-1.12,.47-1.97,1.31-2.6,1.89-1.4,4.18-2.25,6.49-2.61,.67-.11,.39-1.13-.28-1.02-1.44,.23-2.84,.64-4.17,1.24-1.24,.56-2.59,1.28-3.53,2.29-.88,.95-1.19,2.15-.72,3.37,.4,1.04,1.19,2.48,2.25,2.97s2.31-.07,2.35-1.28-.77-2.45-1.5-3.3c-.83-.97-1.98-1.63-3.26-1.72s-2.47,.53-3.33,1.5c-1.92,2.16-2.47,5.37-1.42,8.05,.25,.63,1.27,.35,1.02-.28h0Z"/></g><g><path d="M76.47,23.28c-1.2-.4-2.17-1.38-2.51-2.61-.2-.72-.18-1.48,.4-2.02s1.46-.62,2.22-.46c.31,.06,1.09,.23,.86,.74-.19,.41-.88,.28-1.23,.24-.84-.1-1.47-.44-1.54-1.36-.09-1.38,.46-2.87,1.15-4.05,.13-.22-.21-.42-.34-.2-.43,.73-.76,1.51-.97,2.34-.18,.71-.34,1.52-.2,2.25,.12,.62,.51,1.07,1.11,1.26s1.52,.37,2.06,.01c.42-.27,.54-.82,.17-1.19-.46-.47-1.38-.56-2-.52-1.43,.1-2.41,1.2-2.18,2.64,.25,1.54,1.41,2.81,2.88,3.3,.24,.08,.35-.3,.11-.38h0Z"/><path class="cls-49" d="M75.79,23.23c-1.17-.39-2.11-1.35-2.45-2.54-.19-.69-.18-1.42,.37-1.93s1.4-.59,2.13-.43c.24,.05,.98,.19,.8,.61-.16,.36-.85,.23-1.15,.19-.79-.1-1.39-.4-1.44-1.27-.09-1.37,.46-2.84,1.14-4,.19-.32-.31-.61-.5-.29-.43,.74-.77,1.53-.97,2.36-.18,.73-.34,1.56-.2,2.3,.13,.65,.55,1.12,1.18,1.33s1.57,.37,2.13,0c.47-.31,.6-.92,.19-1.33-.48-.48-1.42-.58-2.06-.54-1.5,.1-2.51,1.25-2.26,2.75,.26,1.57,1.44,2.87,2.94,3.36,.35,.12,.51-.44,.15-.56h0Z"/></g><g><rect x="187.64" y="94.84" width="11.74" height="2.76" transform="translate(41.42 -57.32) rotate(18.83)"/><rect class="cls-47" x="187.64" y="95.48" width="11.74" height="2.76" transform="translate(41.63 -57.28) rotate(18.83)"/><rect x="180.36" y="103.35" width="11.74" height="2.76" transform="translate(216.47 -106.78) rotate(68.79)"/><rect class="cls-48" x="180.01" y="104.12" width="11.74" height="2.76" transform="translate(216.97 -105.96) rotate(68.79)"/></g></svg>