<svg width="336" height="49" viewBox="0 0 336 49" fill="none" xmlns="http://www.w3.org/2000/svg">
<rect y="0.219727" width="336" height="48" rx="8" fill="#FEE500"/>
<rect width="24" height="24" transform="translate(98 12.2197)" fill="#FEE500"/>
<path d="M110 16.1914C105.195 16.1914 101.3 19.2625 101.3 23.0509C101.3 25.5001 102.928 27.6492 105.378 28.8627C105.244 29.3223 104.521 31.8193 104.493 32.0155C104.493 32.0155 104.475 32.1629 104.571 32.2191C104.666 32.2753 104.778 32.2316 104.778 32.2316C105.052 32.1934 107.952 30.1562 108.454 29.8024C108.956 29.8734 109.472 29.9103 110 29.9103C114.804 29.9103 118.699 26.8393 118.699 23.0509C118.699 19.2625 114.804 16.1914 110 16.1914Z" fill="black" fill-opacity="0.9"/>
<path d="M137.689 18.585H131.61V19.9033H136.07C136.019 20.5991 135.909 21.251 135.741 21.8735L130.921 22.1738L131.126 23.5801L135.25 23.1919C134.481 24.7593 133.111 26.085 130.819 27.2129L131.712 28.4434C136.59 26.019 137.682 22.584 137.689 18.585ZM139.549 30.4941H141.175V23.7998H143.138V22.4668H141.175V17.2812H139.549V30.4941ZM150.653 18.585H144.574V19.9033H149.034C148.983 20.5991 148.873 21.251 148.705 21.8735L143.885 22.1738L144.09 23.5801L148.214 23.1919C147.445 24.7593 146.075 26.085 143.783 27.2129L144.676 28.4434C149.554 26.019 150.646 22.584 150.653 18.585ZM152.513 30.4941H154.139V23.7998H156.102V22.4668H154.139V17.2812H152.513V30.4941ZM162.752 18.0283C159.933 18.0356 157.838 19.4492 157.845 21.6025C157.838 23.5874 159.544 24.9131 161.947 25.1548V27.5791H156.732V28.9121H168.832V27.5791H163.558V25.1548C165.99 24.9131 167.696 23.5874 167.689 21.6025C167.696 19.4492 165.594 18.0356 162.752 18.0283ZM159.442 21.6025C159.435 20.2183 160.819 19.3394 162.752 19.3467C164.715 19.3394 166.092 20.2183 166.092 21.6025C166.092 23.0308 164.715 23.8877 162.752 23.8877C160.819 23.8877 159.435 23.0308 159.442 21.6025ZM181.795 27.6377H176.522V25.4844H180.667V24.1514H172.757V22.4375H180.36V18.1895H171.102V19.5078H178.749V21.1484H171.131V25.4844H174.911V27.6377H169.696V28.9854H181.795V27.6377ZM191.229 20.46V18.3506H189.574V20.46C189.566 23.0161 188.277 25.543 186.073 26.4951L187.069 27.8574C188.673 27.103 189.815 25.5796 190.423 23.7192C191.039 25.4478 192.152 26.8467 193.675 27.5498L194.642 26.2461C192.496 25.3232 191.214 22.8916 191.229 20.46ZM195.594 30.5381H197.235V17.2812H195.594V30.5381ZM203.929 19.5811V19.4199H206.683V18.1162H199.491V19.4199H202.289V19.5811C202.289 21.3169 201.168 23.0308 199.037 23.7412L199.901 25.001C201.446 24.4736 202.545 23.397 203.131 22.042C203.709 23.2798 204.757 24.2686 206.244 24.7666L207.064 23.5068C204.977 22.8184 203.929 21.2144 203.929 19.5811ZM200.809 27.1836H208.001V30.5234H209.627V25.8799H200.809V27.1836ZM208.001 25.2646H209.627V21.9541H211.473V20.5918H209.627V17.2812H208.001V25.2646ZM222.518 17.2812H220.907V30.5234H222.518V23.9023H224.554V22.5547H222.518V17.2812ZM212.074 20.6211H219.881V19.3174H216.834V17.4717H215.208V19.3174H212.074V20.6211ZM212.689 24.6055C212.674 26.4292 214.095 27.7109 216.029 27.7109C217.933 27.7109 219.347 26.4292 219.354 24.6055C219.347 22.7744 217.933 21.478 216.029 21.4854C214.095 21.478 212.674 22.7744 212.689 24.6055ZM214.242 24.6055C214.234 23.5288 214.989 22.8184 216.029 22.8184C217.047 22.8184 217.787 23.5288 217.801 24.6055C217.787 25.6821 217.047 26.3706 216.029 26.3633C214.989 26.3706 214.234 25.6821 214.242 24.6055ZM236.17 17.2812H234.53V30.5234H236.17V17.2812ZM225.199 26.876L226.048 28.1797C230.685 25.9751 232.215 22.6279 232.215 18.6875H225.873V19.9766H230.56C230.267 22.9868 228.67 25.228 225.199 26.876Z" fill="#191919"/>
</svg>
