<svg width="336" height="49" viewBox="0 0 336 49" fill="none" xmlns="http://www.w3.org/2000/svg">
<path d="M0 24.9351C0 11.6802 10.7452 0.935059 24 0.935059H312C325.255 0.935059 336 11.6802 336 24.9351V24.9351C336 38.1899 325.255 48.9351 312 48.9351H24C10.7452 48.9351 0 38.1899 0 24.9351V24.9351Z" fill="white"/>
<rect width="24" height="24" transform="translate(94 12.9351)" fill="white"/>
<path d="M106 16.9067C101.195 16.9067 97.2998 19.9778 97.2998 23.7662C97.2998 26.2154 98.9282 28.3645 101.378 29.5781C101.244 30.0377 100.521 32.5347 100.493 32.7308C100.493 32.7308 100.475 32.8782 100.571 32.9344C100.666 32.9906 100.778 32.947 100.778 32.947C101.052 32.9088 103.952 30.8715 104.454 30.5177C104.956 30.5888 105.472 30.6256 106 30.6256C110.804 30.6256 114.699 27.5546 114.699 23.7662C114.699 19.9778 110.804 16.9067 106 16.9067Z" fill="black"/>
<path d="M101.19 26.1608C100.913 26.1608 100.688 25.9458 100.688 25.6815V22.6997H99.9047C99.633 22.6997 99.4121 22.4792 99.4121 22.2083C99.4121 21.9373 99.6331 21.7168 99.9047 21.7168H102.475C102.746 21.7168 102.967 21.9373 102.967 22.2083C102.967 22.4792 102.746 22.6997 102.475 22.6997H101.692V25.6815C101.692 25.9458 101.467 26.1608 101.19 26.1608ZM105.591 26.1543C105.382 26.1543 105.221 26.0693 105.173 25.9326L104.925 25.282L103.394 25.2819L103.145 25.9329C103.097 26.0694 102.937 26.1543 102.728 26.1543C102.618 26.1544 102.509 26.1308 102.409 26.085C102.271 26.0212 102.138 25.8457 102.29 25.3723L103.491 22.2123C103.575 21.9719 103.832 21.7243 104.159 21.7169C104.487 21.7242 104.744 21.9719 104.828 22.2128L106.028 25.3714C106.181 25.8459 106.048 26.0214 105.91 26.0851C105.81 26.1308 105.701 26.1544 105.591 26.1543C105.591 26.1543 105.591 26.1543 105.591 26.1543V26.1543ZM104.661 24.3929L104.159 22.9687L103.658 24.3929H104.661V24.3929ZM106.836 26.0876C106.571 26.0876 106.355 25.8812 106.355 25.6275V22.2187C106.355 21.9419 106.585 21.7168 106.868 21.7168C107.15 21.7168 107.38 21.9419 107.38 22.2187V25.1674H108.447C108.712 25.1674 108.928 25.3739 108.928 25.6275C108.928 25.8812 108.712 26.0876 108.447 26.0876H106.836ZM109.625 26.1543C109.348 26.1543 109.123 25.9292 109.123 25.6524V22.2187C109.123 21.9419 109.348 21.7168 109.625 21.7168C109.901 21.7168 110.127 21.9419 110.127 22.2187V23.2975L111.527 21.8972C111.599 21.8251 111.698 21.7855 111.805 21.7855C111.931 21.7855 112.056 21.8395 112.151 21.9337C112.239 22.0215 112.291 22.1346 112.298 22.2519C112.306 22.3703 112.266 22.4788 112.188 22.5575L111.044 23.7011L112.279 25.3378C112.319 25.3903 112.348 25.4503 112.365 25.5141C112.381 25.5779 112.385 25.6444 112.376 25.7097C112.367 25.775 112.345 25.8379 112.311 25.8947C112.278 25.9515 112.234 26.0011 112.181 26.0407C112.094 26.1066 111.988 26.1422 111.879 26.142C111.801 26.1423 111.724 26.1245 111.655 26.0898C111.585 26.0552 111.525 26.0047 111.478 25.9425L110.301 24.3829L110.127 24.557V25.6521C110.127 25.7852 110.074 25.9129 109.98 26.007C109.885 26.1011 109.758 26.1541 109.625 26.1543V26.1543Z" fill="#FFE812"/>
<path d="M128.933 29.9351H130.808V27.2544L131.496 26.522L133.942 29.9351H136.169L132.895 25.4087L135.979 21.981H133.796L130.939 25.1743H130.808V19.3296H128.933V29.9351ZM136.726 27.6938C136.726 29.2686 137.875 30.0962 139.392 30.0962C140.644 30.0962 141.384 29.5103 141.735 28.8364H141.794V29.9351H143.581V24.6177C143.581 22.501 141.838 21.8784 140.329 21.8784C138.337 21.8784 137.121 22.8965 136.989 24.2515H138.791C138.938 23.6802 139.45 23.2993 140.285 23.2993C141.215 23.2993 141.721 23.7534 141.721 24.5444L141.728 25.1816C141.376 25.1963 140.241 25.2476 139.685 25.2915C138.212 25.3867 136.726 25.9067 136.726 27.6938ZM138.527 27.6792C138.527 26.9834 139.091 26.6099 139.978 26.5366C140.351 26.5073 141.391 26.4414 141.728 26.4268L141.735 27.0786C141.735 27.9722 141.01 28.7192 139.875 28.7192C139.091 28.7192 138.527 28.3677 138.527 27.6792ZM145.339 29.9351H147.214V27.2544L147.902 26.522L150.349 29.9351H152.575L149.301 25.4087L152.385 21.981H150.202L147.346 25.1743H147.214V19.3296H145.339V29.9351ZM153.132 27.6938C153.132 29.2686 154.282 30.0962 155.798 30.0962C157.05 30.0962 157.79 29.5103 158.142 28.8364H158.2V29.9351H159.987V24.6177C159.987 22.501 158.244 21.8784 156.735 21.8784C154.743 21.8784 153.527 22.8965 153.396 24.2515H155.197C155.344 23.6802 155.856 23.2993 156.691 23.2993C157.622 23.2993 158.127 23.7534 158.127 24.5444L158.134 25.1816C157.783 25.1963 156.647 25.2476 156.091 25.2915C154.619 25.3867 153.132 25.9067 153.132 27.6938ZM154.934 27.6792C154.934 26.9834 155.498 26.6099 156.384 26.5366C156.757 26.5073 157.797 26.4414 158.134 26.4268L158.142 27.0786C158.142 27.9722 157.417 28.7192 156.281 28.7192C155.498 28.7192 154.934 28.3677 154.934 27.6792ZM165.217 30.0962C167.546 30.0962 169.033 28.4482 169.025 25.9946C169.033 23.519 167.546 21.8784 165.217 21.8784C162.895 21.8784 161.408 23.519 161.408 25.9946C161.408 28.4482 162.895 30.0962 165.217 30.0962ZM163.298 25.98C163.298 24.5225 163.935 23.3506 165.231 23.3579C166.506 23.3506 167.143 24.5225 167.136 25.98C167.143 27.4375 166.506 28.6021 165.231 28.6021C163.935 28.6021 163.298 27.4375 163.298 25.98ZM182.121 28.353H176.848V26.1997H180.993V24.8667H173.083V23.1528H180.686V18.9048H171.428V20.2231H179.074V21.8638H171.457V26.1997H175.236V28.353H170.021V29.7007H182.121V28.353ZM197.971 17.9966H196.418V31.2388H197.971V17.9966ZM186.413 27.2837L187.365 28.4409C189.848 26.9761 191.225 25.0864 191.855 22.8892H193.679V24.8521H191.613V26.1851H193.679V30.6089H195.231V18.3188H193.679V21.5562H192.133C192.229 20.9263 192.272 20.2744 192.272 19.6079H187.116V20.9263H190.661C190.412 23.5923 189.152 25.665 186.413 27.2837ZM211.579 24.5005H206.335V22.6548H204.724V24.5005H199.509V25.8188H211.579V24.5005ZM200.168 22.1421L200.754 23.4165C202.937 23.0869 204.665 22.0981 205.515 20.7139C206.357 22.1055 208.093 23.0869 210.261 23.4165L210.891 22.1421C208.129 21.7979 206.35 20.333 206.35 18.7144V18.2163H204.694V18.7144C204.694 20.2964 202.9 21.7979 200.168 22.1421ZM200.842 28.1479H208.474V31.2388H210.1V26.8735H200.842V28.1479ZM222.844 17.9966H221.232V31.2388H222.844V24.6177H224.88V23.27H222.844V17.9966ZM212.399 21.3364H220.207V20.0327H217.16V18.187H215.534V20.0327H212.399V21.3364ZM213.015 25.3208C213 27.1445 214.421 28.4263 216.354 28.4263C218.259 28.4263 219.672 27.1445 219.68 25.3208C219.672 23.4897 218.259 22.1934 216.354 22.2007C214.421 22.1934 213 23.4897 213.015 25.3208ZM214.567 25.3208C214.56 24.2441 215.314 23.5337 216.354 23.5337C217.373 23.5337 218.112 24.2441 218.127 25.3208C218.112 26.3975 217.373 27.0859 216.354 27.0786C215.314 27.0859 214.56 26.3975 214.567 25.3208ZM236.496 17.9966H234.855V31.2388H236.496V17.9966ZM225.524 27.5913L226.374 28.895C231.01 26.6904 232.541 23.3433 232.541 19.4028H226.198V20.6919H230.886C230.593 23.7021 228.996 25.9434 225.524 27.5913Z" fill="#121212"/>
</svg>
