<svg width="25" height="25" viewBox="0 0 25 25" fill="none" xmlns="http://www.w3.org/2000/svg">
<path fill-rule="evenodd" clip-rule="evenodd" d="M14.1641 16.6349C14.1641 16.7979 14.1319 16.9593 14.0695 17.11C14.0071 17.2606 13.9156 17.3974 13.8003 17.5127C13.685 17.6279 13.5481 17.7194 13.3974 17.7817C13.2468 17.8441 13.0853 17.8761 12.9223 17.8761C12.7592 17.8761 12.5978 17.8439 12.4472 17.7815C12.2966 17.719 12.1597 17.6276 12.0445 17.5122C11.9292 17.3969 11.8378 17.26 11.7754 17.1094C11.7131 16.9587 11.681 16.7973 11.681 16.6342C11.6811 16.305 11.812 15.9892 12.0449 15.7564C12.2778 15.5236 12.5936 15.3929 12.9229 15.393C13.2522 15.3931 13.5679 15.524 13.8007 15.7569C14.0335 15.9898 14.1642 16.3056 14.1641 16.6349ZM14.1641 12.4326C14.1641 12.7618 14.0334 13.0775 13.8006 13.3103C13.5678 13.5431 13.2521 13.6739 12.9229 13.6739C12.5937 13.6739 12.278 13.5431 12.0452 13.3103C11.8124 13.0775 11.6817 12.7618 11.6817 12.4326C11.6817 12.1034 11.8124 11.7877 12.0452 11.5549C12.278 11.3222 12.5937 11.1914 12.9229 11.1914C13.2521 11.1914 13.5678 11.3222 13.8006 11.5549C14.0334 11.7877 14.1641 12.1034 14.1641 12.4326ZM14.1641 8.23103C14.1641 8.39407 14.1319 8.55551 14.0695 8.70613C14.0071 8.85674 13.9156 8.99359 13.8003 9.10885C13.685 9.22411 13.5481 9.31553 13.3974 9.37788C13.2468 9.44024 13.0853 9.47231 12.9223 9.47227C12.7592 9.47223 12.5978 9.44008 12.4472 9.37765C12.2966 9.31521 12.1597 9.22373 12.0445 9.10841C11.9292 8.99309 11.8378 8.8562 11.7754 8.70555C11.7131 8.55491 11.681 8.39345 11.681 8.23041C11.6811 7.90113 11.812 7.58537 12.0449 7.35259C12.2778 7.11981 12.5936 6.98909 12.9229 6.98917C13.2522 6.98925 13.5679 7.12014 13.8007 7.35303C14.0335 7.58592 14.1642 7.90175 14.1641 8.23103Z" fill="#121212"/>
</svg>
