<?xml version="1.0" encoding="UTF-8"?><svg id="Layer_1" xmlns="http://www.w3.org/2000/svg" xmlns:xlink="http://www.w3.org/1999/xlink" viewBox="0 0 221.1 124.16"><defs><style>.cls-1,.cls-2,.cls-3,.cls-4,.cls-5,.cls-6,.cls-7,.cls-8,.cls-9,.cls-10,.cls-11,.cls-12,.cls-13,.cls-14,.cls-15,.cls-16,.cls-17,.cls-18,.cls-19,.cls-20,.cls-21,.cls-22,.cls-23,.cls-24,.cls-25,.cls-26,.cls-27,.cls-28,.cls-29{stroke-miterlimit:10;}.cls-1,.cls-30,.cls-5,.cls-6,.cls-9,.cls-11,.cls-24,.cls-31,.cls-27{fill:#fff;}.cls-1,.cls-10,.cls-16,.cls-21,.cls-22{stroke:#171717;}.cls-1,.cls-21{stroke-width:.04px;}.cls-2,.cls-3,.cls-5,.cls-6,.cls-8,.cls-9,.cls-11,.cls-12,.cls-13,.cls-15,.cls-17,.cls-18,.cls-19,.cls-20,.cls-24,.cls-25,.cls-26,.cls-27,.cls-28,.cls-29{stroke:#000;}.cls-2,.cls-18,.cls-22,.cls-29{fill:#d82a71;}.cls-2,.cls-25{stroke-width:.09px;}.cls-32{letter-spacing:-.03em;}.cls-3,.cls-6{stroke-width:.25px;}.cls-3,.cls-19,.cls-28{fill:#1fce65;}.cls-33{letter-spacing:-.05em;}.cls-34{letter-spacing:-.09em;}.cls-35{letter-spacing:.02em;}.cls-4{stroke:#e6e6e6;stroke-width:.5px;}.cls-4,.cls-7,.cls-8,.cls-14,.cls-20,.cls-21,.cls-23{fill:none;}.cls-36{letter-spacing:-.06em;}.cls-5{stroke-width:.15px;}.cls-7{stroke-width:.77px;}.cls-7,.cls-14{stroke:#fff;}.cls-8,.cls-17,.cls-27{stroke-width:.28px;}.cls-37{filter:url(#drop-shadow-37);}.cls-9{font-family:ArchivoBlack-Regular, 'Archivo Black';font-size:8.23px;stroke-width:.11px;}.cls-10{stroke-width:.05px;}.cls-10,.cls-16{fill:#d8d8d8;}.cls-11,.cls-13{stroke-width:.09px;}.cls-12,.cls-15,.cls-17,.cls-38,.cls-25,.cls-26{fill:#ff307b;}.cls-12,.cls-29{stroke-width:.19px;}.cls-13{fill:#5cc6d2;}.cls-14{stroke-width:.67px;}.cls-15{stroke-width:.15px;}.cls-39{filter:url(#drop-shadow-20);}.cls-16,.cls-18,.cls-26{stroke-width:.05px;}.cls-40{fill:#171717;}.cls-41{fill:#fe71fb;font-family:AirstrikeAcademy, 'Airstrike Academy';font-size:8.82px;}.cls-42{filter:url(#drop-shadow-18);}.cls-43{fill:#353535;}.cls-44{fill:#ff70fe;}.cls-19,.cls-24{stroke-width:.11px;}.cls-45{fill:#7688ff;}.cls-20{stroke-width:.46px;}.cls-20,.cls-23{stroke-linecap:round;}.cls-22{stroke-width:.05px;}.cls-23{stroke:#1fce65;stroke-width:.79px;}.cls-31{font-family:AirstrikeCondensed, 'Airstrike Condensed';font-size:1.5px;}.cls-46{filter:url(#drop-shadow-19);}.cls-47{fill:#05080a;}.cls-28{stroke-width:.18px;}</style><filter id="drop-shadow-18" filterUnits="userSpaceOnUse"><feOffset dx="1.29" dy="1.29"/><feGaussianBlur result="blur" stdDeviation="0"/><feFlood flood-color="#000" flood-opacity=".38"/><feComposite in2="blur" operator="in"/><feComposite in="SourceGraphic"/></filter><filter id="drop-shadow-19" filterUnits="userSpaceOnUse"><feOffset dx="1.41" dy="1.41"/><feGaussianBlur result="blur-2" stdDeviation="0"/><feFlood flood-color="#000" flood-opacity=".38"/><feComposite in2="blur-2" operator="in"/><feComposite in="SourceGraphic"/></filter><filter id="drop-shadow-20" filterUnits="userSpaceOnUse"><feOffset dx="1.7" dy="1.7"/><feGaussianBlur result="blur-3" stdDeviation="0"/><feFlood flood-color="#000" flood-opacity=".38"/><feComposite in2="blur-3" operator="in"/><feComposite in="SourceGraphic"/></filter><filter id="drop-shadow-37" filterUnits="userSpaceOnUse"><feOffset dx="1.02" dy="1.02"/><feGaussianBlur result="blur-4" stdDeviation="0"/><feFlood flood-color="#000" flood-opacity=".38"/><feComposite in2="blur-4" operator="in"/><feComposite in="SourceGraphic"/></filter></defs><g><g><polygon class="cls-30" points="221.27 124.11 .07 124.11 .07 .05 24.94 .05 221.27 .05 221.27 124.11"/><line class="cls-4" x1="22.19" y1=".05" x2="22.19" y2="124.11"/><line class="cls-4" x1="221.27" y1=".05" x2="221.27" y2="124.11"/><line class="cls-4" x1=".07" y1=".05" x2=".07" y2="124.11"/><line class="cls-4" x1="44.31" y1=".05" x2="44.31" y2="124.11"/><line class="cls-4" x1="66.43" y1=".05" x2="66.43" y2="124.11"/><line class="cls-4" x1="88.55" y1=".05" x2="88.55" y2="124.11"/><line class="cls-4" x1="110.67" y1=".05" x2="110.67" y2="124.11"/><line class="cls-4" x1="132.79" y1=".05" x2="132.79" y2="124.11"/><line class="cls-4" x1="154.91" y1=".05" x2="154.91" y2="124.11"/><line class="cls-4" x1="177.03" y1=".05" x2="177.03" y2="124.11"/><line class="cls-4" x1="199.15" y1=".05" x2="199.15" y2="124.11"/></g><line class="cls-4" x1="221.27" y1=".05" x2=".07" y2=".05"/><line class="cls-4" x1="221.27" y1="124.11" x2=".07" y2="124.11"/><line class="cls-4" x1="221.27" y1="103.43" x2=".07" y2="103.43"/><line class="cls-4" x1="221.27" y1="82.76" x2=".07" y2="82.76"/><line class="cls-4" x1="221.27" y1="62.08" x2=".07" y2="62.08"/><line class="cls-4" x1="221.27" y1="41.4" x2=".07" y2="41.4"/><line class="cls-4" x1="221.27" y1="20.72" x2=".07" y2="20.72"/></g><g><rect x="26.96" y="32.34" width="11.74" height="2.76" transform="translate(52.78 76.35) rotate(-160.84)"/><rect class="cls-44" x="26.96" y="31.7" width="11.74" height="2.76" transform="translate(52.99 75.11) rotate(-160.84)"/><rect x="34.29" y="23.5" width="11.74" height="2.76" transform="translate(31.24 71.26) rotate(-110.89)"/><rect class="cls-45" x="34.64" y="23.1" width="11.74" height="2.76" transform="translate(32.08 71.06) rotate(-110.89)"/></g><g><path class="cls-6" d="M198.31,71.39c-1.41-.58-2.82-1.08-4.18-1.48,.53-13.1,.81-20.22,.82-21.2,.05-2.78-.65-4.22-1.79-5.62l.04-1.18c.04-1.36-1.01-2.49-2.37-2.55-.37-.28-.77-.53-1.19-.76,.89-1.3,1.24-2.97,.81-4.59-.62-2.35-2.65-3.99-5.06-4.09-.59-.02-1.18,.05-1.75,.22l-2.78,.82c-.26-.6-.63-1.17-1.12-1.66l-2.81-2.86c-.97-.99-2.27-1.56-3.65-1.62-1.59-.06-3.13,.58-4.21,1.75-1.72,1.86-1.92,4.57-.66,6.65l-.41,.31c-1.07,.8-1.77,2.02-1.92,3.35-.06,.51-.01,1.01,.09,1.51-1.28,.04-2.34,1.05-2.39,2.36l-.05,1.16c-1.25,1.3-2.06,2.69-2.23,5.46-.14,2.19-1.43,35.98-1.49,37.42l-.08,2.15,1.71,1.3c.76,.58,5.04,3.49,14.84,3.88,2.36,.09,4.59,.02,6.66-.22,2.07,.54,4.9,.91,8.11,1.04,.6,.02,1.22,.04,1.84,.05,6.97,.07,10.85-.77,12.99-2,.94,.11,1.83-.44,2.16-1.33l.57-1.58c.3-.83,1.24-3.17,1.58-3.99l.04-.11c2.16-5.79-6.65-10.38-12.1-12.6Z"/><g><path class="cls-6" d="M191.15,47.87c.04-2.33-.54-2.63-1.27-3.57-.72-.94-.68-2.01-.68-2.01l-11.37-.45-11.37-.45s-.04,1.08-.84,1.95c-.79,.88-1.4,1.14-1.54,3.46-.15,2.32-1.59,40.08-1.59,40.08,0,0,3.77,2.88,13.42,3.26,9.66,.38,13.64-2.18,13.64-2.18,0,0,1.55-37.76,1.59-40.08Z"/><ellipse class="cls-47" cx="193.66" cy="88.73" rx="2.33" ry="12.11" transform="translate(102.99 281.49) rotate(-89.42)"/><ellipse class="cls-47" cx="177.83" cy="42.14" rx="3.15" ry="11.4" transform="translate(128.66 218.15) rotate(-87.72)"/><g><path class="cls-47" d="M179.17,40.34c6.26,.42,11.1,1.99,11.03,3.66-.07,1.79-5.7,3.01-12.56,2.74s-12.38-1.94-12.31-3.73c.07-1.67,5.01-2.86,11.29-2.77-6.69-.09-11.98,1.21-12.05,3.05-.08,1.96,5.76,3.78,13.05,4.07s13.25-1.06,13.33-3.02c.07-1.84-5.09-3.56-11.77-4Z"/><path class="cls-47" d="M179.1,40.34c-.18-.01-.37-.02-.55-.03,.19,0,.37,.02,.55,.03Z"/><path class="cls-47" d="M176.69,40.24c.18,0,.37,0,.56,.01-.19,0-.37,0-.56-.01Z"/></g><path class="cls-17" d="M176.13,84.83c5.13,.2,9.93-.98,13.65-2.47,.22-5.23,.97-23.51,1.22-30.44-3.73,.83-8.47,1.23-13.61,1.03s-9.83-.98-13.48-2.11c-.3,6.93-1,25.21-1.2,30.44,3.68,1.57,8.28,3.34,13.41,3.54Z"/><ellipse class="cls-43" cx="177.83" cy="41.96" rx="2.4" ry="9.75" transform="translate(128.85 217.98) rotate(-87.72)"/><text class="cls-9" transform="translate(166.46 66.53) rotate(2.28) scale(.95 1)"><tspan class="cls-33" x="0" y="0">T</tspan><tspan x="5.52" y="0">a</tspan><tspan class="cls-32" x="11.01" y="0">k</tspan><tspan x="16.23" y="0">e</tspan><tspan x=".27" y="7.11">Ca</tspan><tspan class="cls-35" x="12.17" y="7.11">r</tspan><tspan x="15.95" y="7.11">e</tspan></text><g><path class="cls-24" d="M176.52,40.31l-1.9-.95-1.23,2.68,1.9,.95c.71,.35,1.55,.04,1.89-.7h0c.34-.74,.04-1.63-.66-1.98Z"/><path class="cls-19" d="M172.72,38.42l1.9,.95-1.23,2.68-1.9-.95c-.71-.35-1-1.24-.66-1.98h0c.34-.74,1.18-1.06,1.89-.7Z"/></g><g><path class="cls-24" d="M181.4,36.33l2.03-.6-.76-2.86-2.03,.6c-.75,.22-1.19,1.04-.99,1.83h0c.21,.79,.99,1.25,1.74,1.03Z"/><path class="cls-19" d="M185.46,35.13l-2.03,.6-.76-2.86,2.03-.6c.75-.22,1.53,.24,1.74,1.03h0c.21,.79-.23,1.61-.99,1.83Z"/></g><g><path class="cls-24" d="M176.08,30.23l-1.51-1.53-1.97,2.14,1.51,1.53c.56,.57,1.46,.55,2-.04h0c.54-.59,.53-1.53-.03-2.1Z"/><path class="cls-19" d="M173.06,27.16l1.51,1.53-1.97,2.14-1.51-1.53c-.56-.57-.57-1.51-.03-2.1h0c.54-.59,1.44-.61,2-.04Z"/></g><g><path class="cls-11" d="M171.34,33.68l-1.01,.76,1.1,1.32,1.01-.76c.38-.28,.44-.81,.13-1.17h0c-.3-.36-.85-.43-1.23-.15Z"/><path class="cls-13" d="M169.31,35.21l1.01-.76,1.1,1.32-1.01,.76c-.38,.28-.93,.22-1.23-.15h0c-.3-.36-.24-.89,.13-1.17Z"/></g><g><path class="cls-11" d="M184.51,39.31l-1.16,.52,.77,1.53,1.16-.52c.43-.19,.61-.69,.39-1.11h0c-.21-.42-.74-.61-1.17-.42Z"/><path class="cls-13" d="M182.2,40.35l1.16-.52,.77,1.53-1.16,.52c-.43,.19-.95,0-1.17-.42h0c-.21-.42-.04-.92,.39-1.11Z"/></g><g><path class="cls-27" d="M184.7,74.76l-1.69,4.23s7.38,7.86,23.27,9.74c.43-1.18,1.76-4.45,1.76-4.45l-23.33-9.52Z"/><ellipse class="cls-27" cx="196.37" cy="79.52" rx="3.3" ry="12.6" transform="translate(48.25 230.99) rotate(-67.69)"/><line class="cls-8" x1="185.92" y1="77.18" x2="184.56" y2="80.36"/><line class="cls-8" x1="184.99" y1="76.07" x2="183.51" y2="79.53"/><line class="cls-8" x1="187.21" y1="78.24" x2="185.89" y2="81.33"/><line class="cls-8" x1="188.51" y1="79.21" x2="187.19" y2="82.3"/><line class="cls-8" x1="189.76" y1="80.02" x2="188.47" y2="83.03"/><line class="cls-8" x1="191.07" y1="80.74" x2="189.78" y2="83.75"/><line class="cls-8" x1="192.39" y1="81.35" x2="191.08" y2="84.43"/><line class="cls-8" x1="193.67" y1="81.95" x2="192.35" y2="85.03"/><line class="cls-8" x1="194.82" y1="82.45" x2="193.53" y2="85.47"/><line class="cls-8" x1="196.01" y1="82.93" x2="194.71" y2="85.95"/><line class="cls-8" x1="197.41" y1="83.4" x2="196.12" y2="86.43"/><line class="cls-8" x1="198.87" y1="83.92" x2="197.57" y2="86.95"/><line class="cls-8" x1="200.27" y1="84.31" x2="198.98" y2="87.33"/><line class="cls-8" x1="201.49" y1="84.67" x2="200.2" y2="87.7"/><line class="cls-8" x1="202.71" y1="84.91" x2="201.41" y2="87.94"/><line class="cls-8" x1="203.92" y1="85.12" x2="202.62" y2="88.14"/><line class="cls-8" x1="205.22" y1="85.17" x2="203.93" y2="88.37"/><line class="cls-8" x1="206.52" y1="85.13" x2="205.19" y2="88.59"/></g></g></g><g class="cls-42"><path class="cls-6" d="M145.24,59.52c-.79,0-1.51-.14-2.21-.27-.23-.04-.47-.09-.73-.13-7.89-1.29-34.03-5.72-38.52-8.31-4.17-2.41-6.69-5.88-6.75-9.29-.02-1.5,.44-4.33,3.8-6.42,.46-.29,.98-.54,1.58-.76l3.34-1.55c4.72-10.68,6.45-11.39,7.5-11.82,.69-.28,2.19-.94,4.21-1.85,1.28-.58,2.65-.87,4.05-.87,.63,0,1.27,.06,1.89,.18,19.66,3.82,21.05,6.94,21.8,8.62,1.61,3.63,1.33,11.12,.98,15.58,.28,.7,1.18,2.49,3.2,5.72,.63,.7,1.1,1.51,1.41,2.41,.77,2.3,1.49,4.48-1.12,6.81-.09,.08-.19,.17-.3,.27-1.17,1.11-2.56,1.67-4.14,1.67h0Z"/><path class="cls-30" d="M149.06,52.83c-.19-.57-.5-1.04-.91-1.43-1.5-2.4-4.34-7.1-4.25-8.27,.08-.92,.99-11.6-.69-15.38-1.35-3.03-15.19-5.99-20.59-7.04-1.38-.27-2.8-.1-4.08,.47-1.56,.7-3.65,1.63-4.63,2.03-1.68,.69-6.56,11.98-6.56,11.98l-5.03,2.34c-.41,.15-.8,.32-1.15,.53-4.58,2.85-1.53,7.63,3.05,10.28s40,8.44,40,8.44c2.01,.33,3.1,.8,4.32-.36,1.22-1.16,1.44-.85,.52-3.6Z"/><g><path class="cls-3" d="M143.9,43.13c.08-.92,.99-11.6-.69-15.38-1.35-3.03-15.19-5.99-20.59-7.04-1.38-.27-2.8-.1-4.08,.47-1.56,.7-3.65,1.63-4.63,2.03-1.68,.69-6.56,11.98-6.56,11.98l-6.18,2.87,24.19,11.7,23.7,3.06s-5.28-8.11-5.16-9.7Z"/><path d="M144.22,56.79s-35.42-5.8-40-8.44c-4.58-2.65-7.63-7.43-3.05-10.28,4.58-2.85,15.26,.41,19.23,3.36s11.9,7.74,18.11,7.99,9.64,.66,10.55,3.41,.7,2.44-.52,3.6-2.32,.7-4.32,.36Z"/><path d="M114.49,35.85c8.91,2.32,17.2,7.36,26.67,6.97,.16,0,.16-.25,0-.24-9.45,.39-17.72-4.65-26.6-6.96-.15-.04-.22,.19-.06,.23h0Z"/><path class="cls-15" d="M113.5,29.38s-2.47,3.08-.99,3.56,9.11-3.05,9.11-3.05c0,0-6.22,1.84-7.31,1.82-.76-.02-2,.34-.8-2.33Z"/></g></g><g class="cls-46"><path class="cls-6" d="M14.78,75.09L59.96,17.34c1.4-1.79,3.95-1.79,5.34,.02l44.6,57.76c1.92,2.48,.3,6.27-2.68,6.27H17.44c-2.99,0-4.6-3.82-2.66-6.29Z"/><g><polygon points="62.47 19.15 23.94 77.68 62.47 77.68 100.5 77.68 62.47 19.15"/><polygon class="cls-38" points="62.47 19.15 62.47 77.68 72.2 77.68 62.47 19.15"/><polygon class="cls-30" points="62.62 20.08 73.32 77.68 77.06 77.68 62.62 20.08"/><polygon class="cls-38" points="47.09 42.51 55.38 42.51 55.38 57.42 37.28 57.42 47.09 42.51"/><line class="cls-23" x1="62.29" y1="19.42" x2="19.02" y2="78.23"/><line class="cls-23" x1="62.62" y1="19.39" x2="105.65" y2="78.23"/></g></g><g class="cls-39"><path class="cls-6" d="M123.63,107.17c-1.49,0-3.01-.17-4.62-.53-3.32-.73-4.78-2.48-5.43-3.83-.69-1.44-.7-2.89-.52-4.05-3.4,.65-9.32,1.41-19.82,2.19h-.28c-5.52-.14-8.64-3.19-9.71-5.99-.74-1.94-.4-4.21-.18-5.23,0-4.31,4.56-8.37,9.24-10.54,2.87-1.33,4.95-2.5,6.24-3.28-.35-1.88-.43-4.3,.81-6.01,.86-1.19,2.18-1.84,3.73-1.84,7.29,0,11.45,1.38,12.38,4.11,1.36-.16,2.55-.24,3.56-.24,1.61,0,2.83,.2,3.78,.62,1.67,.08,3.15,.9,4.15,2.29,.03-.11,.07-.21,.11-.32,.06-.17,.12-.33,.16-.51,1.12-4.48,6.7-4.48,8.8-4.48,.64,0,1.34,.02,2.1,.06,1.33,.07,3.93,.53,5.53,2.87,1.57-.85,2.37-1.05,3.09-1.05,.66,0,1.29,.2,1.81,.57,.12,.08,.23,.18,.34,.28,.38,.23,1.19,.77,2.55,1.88,2.83,2.3,3.87,9.35,3.79,12.62,0,.1,0,.19-.02,.29,0,.04,0,.07,.01,.11,.38,4.84-.74,7.95-3.43,9.54-.46,.27-1.2,.57-3.28,1.4-3.04,1.21-7.64,3.05-11.64,5.06-5.06,2.53-8.85,4-13.24,4h0Z"/><path class="cls-30" d="M152.4,87.41c0-.09-.05-.17-.08-.24,.04-.15,.07-.31,.08-.46,.08-3.37-1.1-9.02-2.74-10.35-1.65-1.33-2.35-1.73-2.35-1.73,0,0,.72,.89,.83,1.82-.38-.93-.85-1.87-1.24-2.16-.38-.27-2.52,.96-4.76,2.4-.18-1.94-.93-4.09-4.16-4.26-5.8-.31-7.61,.71-8,2.27-.39,1.57-1.49,2.59,1.1,5.96,0,0-1.77,1.18-4.02,2.76-.04-.2-.09-.4-.14-.57h0c-.16-.57-.33-.96-.33-.96h0c-.25-1.22-.9-3.27-1.55-4.73-.91-2.03-2.62-1.79-2.94-1.74-1.14-1.03-5.22-.68-9.27,0,.08-.86,.13-1.71-.03-2.29-.47-1.71-6.35-2.23-9.7-2.23s-1.29,6.29-1.29,6.29c0,0-2.73,1.98-8.29,4.57-4.07,1.89-7.83,5.33-7.59,8.25h0s-.62,2.35-.02,3.94c.61,1.59,2.61,4.06,7.13,4.18,0,0,21.16-1.57,22.98-3.12l.05-.04c-.17,.96-.14,1.93,.25,2.79h-.01s-2.4,4.85,3.32,6.11c5.72,1.25,9.78-.13,15.98-3.24,6.21-3.11,13.89-5.86,14.76-6.37,.86-.51,2.45-1.73,2.04-6.86Z"/><g><path d="M136.52,80.49s9.53-6.8,10.36-6.2,2,4.22,2,4.22l-1.12,3.89-11.24-1.92Z"/><path d="M103.44,77.43s16.17-4.23,18.64-2,1.18,5.12,1.18,5.12l-9.29,1.71-10.53-4.82Z"/><g><path class="cls-28" d="M93.03,98.13s21.16-1.57,22.98-3.12c2.43-2.07,9.58-7.35,10.68-8.88s-.11-4.24-.11-4.24l-40.66,8.12s-.62,2.35-.02,3.94,2.61,4.06,7.13,4.18Z"/><g><path class="cls-6" d="M101.79,77.19s-2.06-6.29,1.29-6.29,9.23,.53,9.7,2.23-.88,5.65,.53,5.88,10-.82,9.65-2-1.21-1.53-.88-1.59,2.03-.29,2.94,1.74,1.8,5.22,1.65,5.7-8.7,5.25-11.29,8.55c-5.88,1.53-22.27,4.64-27.37,1.53-5.1-3.1-.08-8.59,5.49-11.18s8.29-4.57,8.29-4.57Z"/><line class="cls-20" x1="98.44" y1="81.53" x2="103.69" y2="83.64"/><line class="cls-20" x1="99.5" y1="80.14" x2="104.76" y2="82.25"/><line class="cls-20" x1="101.06" y1="78.75" x2="106.32" y2="80.86"/><path d="M115.38,91.41l.63,3.61s8.32-6.47,9.5-7.68,2.06-1.48,1.4-4.49c-.23,.01-.08-.01-.77,.46s-6.51,4.35-7.38,5.02-3.1,2.8-3.38,3.08Z"/></g></g><g><path class="cls-28" d="M116.29,97.77s-2.4,4.85,3.32,6.1,9.78-.13,15.98-3.24c6.21-3.11,13.89-5.86,14.76-6.37s2.45-1.73,2.04-6.86-36.11,10.37-36.11,10.37Z"/><path class="cls-6" d="M131.07,80.66s-11.76,7.84-13.33,10.27c-1.57,2.43-3.92,7.92,2.2,9.41s14.35-3.22,18.35-4.86c4-1.65,14.04-5.41,14.12-8.78s-1.1-9.02-2.74-10.35-2.35-1.73-2.35-1.73c0,0,1.73,2.12,.24,3.22s-4.23,2.36-5.1,1.97,1.33-7.06-4.47-7.38-7.61,.71-8,2.27-1.49,2.59,1.1,5.96Z"/><line class="cls-20" x1="129.4" y1="84.64" x2="134.83" y2="86.26"/><line class="cls-20" x1="130.59" y1="83.21" x2="136.01" y2="84.83"/><line class="cls-20" x1="131.88" y1="81.77" x2="137.31" y2="83.39"/></g></g></g><g><polygon points="154.5 38.87 151.45 36.67 148.99 39.52 147.02 36.31 143.65 38 143.05 34.28 139.3 34.56 140.17 30.9 136.6 29.71 138.8 26.66 135.95 24.2 139.16 22.23 137.47 18.86 141.19 18.26 140.91 14.51 144.57 15.38 145.76 11.81 148.81 14.01 151.27 11.16 153.24 14.37 156.61 12.68 157.2 16.4 160.96 16.12 160.09 19.78 163.66 20.97 161.45 24.02 164.31 26.48 161.1 28.45 162.79 31.82 159.07 32.41 159.35 36.17 155.69 35.3 154.5 38.87"/><g><polygon points="154.17 37.86 151.35 35.82 149.07 38.46 147.25 35.49 144.14 37.05 143.58 33.61 140.11 33.87 140.92 30.48 137.61 29.39 139.65 26.56 137.01 24.28 139.98 22.46 138.41 19.35 141.86 18.79 141.6 15.32 144.99 16.13 146.08 12.82 148.91 14.86 151.18 12.22 153.01 15.19 156.12 13.62 156.67 17.07 160.15 16.81 159.34 20.2 162.65 21.29 160.61 24.12 163.25 26.39 160.28 28.22 161.84 31.33 158.4 31.89 158.66 35.36 155.27 34.55 154.17 37.86"/><polygon class="cls-7" points="154.17 37.86 151.35 35.82 149.07 38.46 147.25 35.49 144.14 37.05 143.58 33.61 140.11 33.87 140.92 30.48 137.61 29.39 139.65 26.56 137.01 24.28 139.98 22.46 138.41 19.35 141.86 18.79 141.6 15.32 144.99 16.13 146.08 12.82 148.91 14.86 151.18 12.22 153.01 15.19 156.12 13.62 156.67 17.07 160.15 16.81 159.34 20.2 162.65 21.29 160.61 24.12 163.25 26.39 160.28 28.22 161.84 31.33 158.4 31.89 158.66 35.36 155.27 34.55 154.17 37.86"/></g><g><g><path class="cls-45" d="M140.75,25.18l2.03-3.18,2.85,.59c.17,.03,.3,.1,.39,.2,.09,.1,.16,.21,.2,.33s.06,.25,.06,.38c0,.13,0,.24-.03,.34-.04,.19-.12,.36-.25,.5-.13,.14-.28,.26-.45,.34-.17,.09-.35,.15-.54,.17-.19,.03-.36,.03-.52,0l-1.45-.3-.63,.98-1.67-.34Zm1.63,.25l.62-.99,1.52,.31c.15,.03,.32,.03,.49,0,.18-.03,.35-.08,.51-.16,.16-.08,.3-.19,.42-.32,.12-.13,.2-.29,.24-.47,.02-.09,.03-.2,.03-.31,0-.12-.02-.23-.06-.34-.04-.11-.1-.21-.18-.3-.09-.09-.2-.15-.35-.18l-2.79-.58-1.93,3.02,1.48,.31Zm-1.2-.42l1.74-2.72,2.67,.55c.12,.02,.21,.07,.27,.15,.06,.07,.11,.16,.13,.25,.03,.09,.04,.19,.04,.29,0,.1-.01,.18-.03,.26-.03,.16-.1,.29-.21,.41s-.23,.21-.37,.27-.29,.11-.44,.14c-.15,.02-.3,.02-.43,0l-1.64-.34-.63,.99-1.12-.23Zm2.4-1.79l-.49,.78,.66-.36,.93,.19s.01,0,.03-.02c.02-.02,.04-.03,.06-.05,.02-.02,.04-.04,.06-.06,.02-.02,.03-.03,.03-.04l.02-.02s0-.01,0-.03c0-.02-.02-.05-.04-.09-.02-.04-.04-.06-.05-.06l-1.2-.25Zm1.11,.44l-.98-.2-.12,.07,.07-.12,1.03,.21s0,.03,0,.04Zm0-.04s0,.03,0,.04h0m.03-.03h.01s0,0-.01,0h0Z"/><path class="cls-45" d="M149.36,26.96l-1.54-.32v-.33c-.09,.06-.17,.11-.24,.16-.08,.05-.14,.07-.17,.08l-2.81-.58c.02-.06,.04-.11,.07-.16,.02-.05,.05-.09,.07-.14l2.67-2.25s.07-.06,.14-.1c.06-.04,.13-.08,.2-.12,.07-.04,.14-.07,.21-.09,.07-.02,.13-.03,.17-.02l.97,.2c.09,.02,.16,.06,.22,.13,.05,.07,.09,.14,.12,.22,.03,.08,.04,.17,.05,.25s0,.16,.01,.22l-.12,2.83Zm.04-2.73c0-.06,0-.14-.01-.23s-.02-.18-.04-.26c-.02-.08-.05-.16-.1-.22-.04-.07-.1-.11-.18-.12l-.97-.2s-.09,0-.16,.02c-.07,.02-.13,.05-.2,.08-.07,.03-.13,.07-.18,.11-.06,.04-.09,.07-.11,.09l.02-.02-2.67,2.25s-.03,.06-.04,.09c-.01,.03-.03,.07-.04,.1l2.7,.56s.11-.05,.2-.11c.1-.06,.19-.13,.29-.21v.41l1.37,.28,.12-2.63Zm-.29,2.43l-1.03-.21v-.66s-.04,.06-.1,.11c-.06,.05-.13,.11-.2,.17s-.15,.11-.22,.16c-.07,.05-.12,.07-.15,.08l-2.45-.5s.02-.05,.02-.04v-.02l2.61-2.13s.05-.04,.09-.07c.04-.03,.09-.06,.14-.09,.05-.03,.1-.05,.15-.07s.08-.03,.11-.02l.97,.2s.07,.04,.1,.08c.02,.05,.04,.1,.05,.17,.01,.07,.02,.13,.02,.2,0,.07,0,.13,0,.17l-.11,2.47Zm-2.16-1.29v.06l1.16,.24,.07-1.35-1.23,1.05Zm1.02-.65l-.03,.74-.67-.14,.7-.6Zm-.52,.56l.4,.08,.02-.44-.42,.35Z"/><path class="cls-45" d="M149.68,25.34c.04-.21,.13-.41,.27-.61,.14-.2,.31-.37,.51-.51s.41-.25,.65-.32c.24-.07,.47-.08,.71-.03l2.9,.6c-.27,.22-.52,.42-.74,.59-.23,.18-.45,.32-.65,.42l-1.59-.33s-.11,.02-.19,.09c-.08,.07-.14,.14-.2,.23h0s-.06,.09-.07,.14c0,.04,0,.09,0,.15,.01,.05,.03,.11,.05,.16,.02,.05,.05,.09,.09,.13,.04,.04,.07,.06,.11,.07l1.87,.39c-.21,.2-.43,.39-.66,.58-.23,.19-.46,.34-.68,.45l-.55-.11c-.27-.06-.53-.13-.78-.23-.25-.1-.46-.23-.64-.4-.18-.16-.31-.36-.39-.59-.08-.23-.09-.51-.03-.82h0Zm.08,.02c-.06,.3-.05,.56,.03,.78,.08,.22,.2,.41,.38,.56s.38,.28,.62,.38c.24,.1,.49,.17,.74,.22l.52,.11c.2-.09,.4-.22,.6-.39,.2-.16,.39-.33,.58-.5l-1.71-.35s-.09-.04-.14-.08c-.04-.04-.08-.09-.11-.15-.03-.06-.05-.12-.07-.19-.02-.06-.02-.12,0-.17,0-.02,.01-.04,.03-.07,.02-.03,.03-.06,.05-.1h0s.06-.08,.1-.13c.04-.04,.08-.08,.13-.12,.05-.03,.09-.06,.13-.08,.04-.02,.08-.02,.12-.02l1.56,.32c.19-.11,.38-.23,.58-.38,.2-.15,.41-.32,.64-.5l-2.72-.56c-.23-.05-.45-.04-.68,.03-.22,.07-.43,.17-.62,.31-.19,.14-.35,.3-.48,.49-.13,.19-.22,.38-.26,.58h0Zm.18,.05h0c.04-.19,.11-.37,.23-.54s.26-.32,.43-.45c.17-.13,.35-.22,.55-.28,.2-.06,.4-.07,.61-.03l2.37,.49c-.14,.12-.28,.23-.42,.33-.14,.1-.28,.19-.44,.28l-1.5-.31s-.1,0-.17,.02c-.06,.02-.13,.05-.19,.09-.06,.04-.12,.09-.18,.14-.06,.06-.1,.11-.14,.18-.05,.08-.08,.15-.09,.22-.01,.07-.01,.15,.01,.24s.06,.17,.1,.25c.04,.08,.1,.15,.16,.21,.06,.06,.12,.09,.19,.11l1.37,.28c-.11,.11-.24,.22-.38,.33-.14,.11-.29,.21-.46,.29l-.46-.09c-.23-.05-.46-.12-.68-.2-.22-.09-.41-.2-.57-.34-.16-.14-.27-.31-.35-.5-.07-.2-.08-.43-.03-.7Z"/><path class="cls-45" d="M152.67,27.64l2.04-3.18,1.69,.35-.54,.83,1.51-.63,2.13,.44-2.83,1.28,.94,1.93-1.9-.39-.71-1.27-.64,.99-1.69-.35Zm1.65,.25l.69-1.07,.77,1.37,1.69,.35-.91-1.86,2.66-1.2-1.84-.38-1.75,.73,.63-.96-1.51-.31-1.94,3.02,1.5,.31Zm-1.22-.42l1.74-2.72,1.13,.23-.79,1.22,2.22-.93,1.26,.26-2.34,1.06,.82,1.71-1.26-.26-.88-1.57-.79,1.22-1.13-.23Z"/></g><polygon points="144.67 23.61 144.68 23.67 144.7 23.67 144.68 23.59 144.67 23.61"/><polygon points="144.71 23.61 144.71 23.63 144.73 23.64 144.74 23.63 144.71 23.61"/><path class="cls-45" d="M143.73,23.64l-.44-.1-.35,.27-.02,.16s.2,.08,.29,.12,.2-.01,.28,.01,.24-.47,.24-.47Z"/><polygon points="143.7 23.46 143.59 23.44 143.52 23.53 143.69 23.56 143.7 23.46"/></g></g><g><g><polygon points="68.5 110.03 66.17 107.74 63.68 109.87 62.41 106.86 59.3 107.87 59.27 104.6 56.01 104.35 57.24 101.32 54.33 99.84 56.62 97.51 54.49 95.03 57.5 93.75 56.49 90.64 59.76 90.62 60 87.36 63.04 88.58 64.52 85.67 66.85 87.96 69.33 85.83 70.61 88.84 73.71 87.83 73.74 91.1 77 91.35 75.77 94.38 78.69 95.86 76.4 98.19 78.53 100.67 75.51 101.95 76.53 105.05 73.26 105.08 73.01 108.34 69.98 107.12 68.5 110.03"/><g><polygon points="68.35 109.12 66.19 107 63.9 108.97 62.72 106.18 59.84 107.12 59.81 104.1 56.8 103.87 57.93 101.06 55.24 99.69 57.36 97.53 55.39 95.24 58.17 94.06 57.24 91.18 60.26 91.16 60.49 88.14 63.29 89.27 64.67 86.58 66.82 88.7 69.12 86.73 70.3 89.51 73.18 88.58 73.2 91.6 76.22 91.83 75.08 94.64 77.78 96.01 75.66 98.16 77.63 100.46 74.84 101.64 75.78 104.52 72.76 104.54 72.53 107.56 69.72 106.42 68.35 109.12"/><polygon class="cls-14" points="68.35 109.12 66.19 107 63.9 108.97 62.72 106.18 59.84 107.12 59.81 104.1 56.8 103.87 57.93 101.06 55.24 99.69 57.36 97.53 55.39 95.24 58.17 94.06 57.24 91.18 60.26 91.16 60.49 88.14 63.29 89.27 64.67 86.58 66.82 88.7 69.12 86.73 70.3 89.51 73.18 88.58 73.2 91.6 76.22 91.83 75.08 94.64 77.78 96.01 75.66 98.16 77.63 100.46 74.84 101.64 75.78 104.52 72.76 104.54 72.53 107.56 69.72 106.42 68.35 109.12"/></g><g><polygon points="62.05 95.65 62.05 95.71 62.07 95.71 62.06 95.64 62.05 95.65"/><polygon points="62.08 95.66 62.08 95.68 62.1 95.69 62.11 95.68 62.08 95.66"/><polygon points="61.24 95.4 61.15 95.37 61.07 95.44 61.21 95.48 61.24 95.4"/></g></g><text class="cls-41" transform="translate(59.55 97.95) rotate(18.83)"><tspan x="0" y="0">GO</tspan></text></g><g class="cls-37"><g><path class="cls-5" d="M42.07,105.38c-1.57,.48-4.61,.96-7.42-1.2-.62-.47-2.49-1.92-4.12-12.07-.29-1.83-1.37-9.5-.86-10.82,.23-.59,.7-1.08,1.42-1.45,.12-.37,.25-.72,.4-1.05,.31-.68,.9-1.2,1.63-1.42l16.86-5.17c.99-.3,2.07,0,2.75,.76,1.03,1.16,2.3,2.94,2.52,4.89,.94,1.83,2.5,6.48,3.58,10.19,2.45,8.47,1.81,9.34,1.38,9.92-.41,.55-.96,1.3-14.87,5.58-.28,.41-.86,.82-2.16,1.42h-.03c-.14,.08-.53,.25-1.07,.42Z"/><path class="cls-30" d="M53.9,78.47c-.07-.13-.11-.27-.12-.42-.16-1.66-1.42-3.29-2.15-4.11-.3-.33-.77-.47-1.21-.33l-16.86,5.17c-.32,.1-.58,.32-.72,.62-.22,.47-.38,.98-.51,1.52-.63,.22-1.13,.53-1.27,.89-.37,.98,1.38,18.78,4.5,21.19,3.12,2.4,6.62,.78,7.01,.61,0,0,1.5-.68,1.56-.95,0-.02-.02-.11-.07-.28,6.05-1.85,14.38-4.51,14.96-5.3,.9-1.23-3.5-15.57-5.11-18.62Z"/><g><path class="cls-12" d="M33.56,78.78l16.86-5.17c.44-.13,.91,0,1.21,.33,.73,.82,1.99,2.44,2.15,4.11,.01,.15,.05,.29,.12,.42,1.61,3.04,6.02,17.39,5.11,18.62-.75,1.02-14.44,5.16-19.44,6.65-1.05,.31-2.17-.19-2.61-1.17-2.02-4.51-7.01-16.83-4.12-23.17,.14-.3,.4-.52,.72-.62Z"/><path class="cls-29" d="M42.56,103.61s1.5-.68,1.56-.95c.07-.28-7.34-21.36-8.56-21.88s-4.14,.05-4.51,1.03,1.38,18.78,4.5,21.19,6.62,.78,7.01,.61Z"/><g><rect class="cls-22" x="33" y="83.36" width="2.04" height="3.09" transform="translate(-23.39 13.69) rotate(-17.04)"/><rect class="cls-40" x="33.3" y="83.8" width="1.39" height="2.1" transform="translate(-23.37 13.69) rotate(-17.04)"/></g><g><circle class="cls-26" cx="55.75" cy="94.64" r="1.66"/><circle class="cls-18" cx="55.75" cy="94.64" r="1.17"/></g><g><circle class="cls-26" cx="36.29" cy="88.3" r="1.37"/><circle class="cls-18" cx="36.29" cy="88.3" r=".97"/></g><circle class="cls-25" cx="48.93" cy="90.95" r="7.53"/><circle class="cls-2" cx="48.93" cy="90.95" r="5.54"/><g><ellipse class="cls-22" cx="42.9" cy="80.92" rx="1.04" ry="1.7" transform="translate(-21.83 16.12) rotate(-17.04)"/><g><circle class="cls-40" cx="42.72" cy="80.36" r=".4"/><circle class="cls-40" cx="43.08" cy="81.52" r=".4"/></g></g><g><rect class="cls-16" x="38.16" y="79.14" width="2.63" height="5.66" rx="1.23" ry="1.23" transform="translate(-22.29 15.16) rotate(-17.04)"/><g><rect class="cls-1" x="38.51" y="79.97" width="1.92" height="4.01" transform="translate(-22.29 15.16) rotate(-17.04)"/><line class="cls-21" x1="38.13" y1="80.28" x2="39.31" y2="84.12"/><line class="cls-21" x1="38.3" y1="80.23" x2="39.47" y2="84.07"/><line class="cls-21" x1="38.47" y1="80.18" x2="39.64" y2="84.02"/><line class="cls-21" x1="38.63" y1="80.13" x2="39.81" y2="83.96"/><line class="cls-21" x1="38.8" y1="80.08" x2="39.98" y2="83.91"/><line class="cls-21" x1="38.97" y1="80.03" x2="40.14" y2="83.86"/><line class="cls-21" x1="39.8" y1="79.77" x2="40.98" y2="83.61"/><line class="cls-21" x1="37.97" y1="80.34" x2="39.14" y2="84.17"/><line class="cls-21" x1="39.13" y1="79.98" x2="40.31" y2="83.81"/><line class="cls-21" x1="39.3" y1="79.93" x2="40.48" y2="83.76"/><line class="cls-21" x1="39.47" y1="79.87" x2="40.64" y2="83.71"/><line class="cls-21" x1="39.64" y1="79.82" x2="40.81" y2="83.66"/></g></g><rect class="cls-10" x="45.61" y="91.17" width="1.08" height="1.28" transform="translate(-24.88 17.55) rotate(-17.04)"/><ellipse cx="48.93" cy="90.95" rx="2.84" ry="2.27" transform="translate(-24.5 18.33) rotate(-17.04)"/><text class="cls-31" transform="translate(45.81 77.74) rotate(-17.04)"><tspan class="cls-36" x="0" y="0">P</tspan><tspan class="cls-34" x=".71" y="0">a</tspan><tspan x="1.48" y="0">ckman</tspan></text></g></g><circle class="cls-30" cx="50.05" cy="90.83" r=".66"/><circle class="cls-30" cx="49.09" cy="90.21" r=".15"/></g></svg>