<svg width="329" height="151" viewBox="0 0 329 151" fill="none" xmlns="http://www.w3.org/2000/svg">
<g clip-path="url(#clip0_1640_24264)">
<path fill-rule="evenodd" clip-rule="evenodd" d="M417.279 0.565767L402.471 3.71323L415.442 64.7363L417.279 0.565767ZM19.5272 85.1126L402.472 3.71522L415.478 64.904L32.5333 146.301L19.5272 85.1126ZM19.5595 85.281L32.5304 146.304L17.7227 149.451L19.5595 85.281Z" fill="white"/>
<path d="M96.8958 105.234L96.6755 114.311L91.3392 115.445C87.8377 116.132 86.2452 114.386 86.5603 110.199C86.6435 108.675 87.2031 107.286 88.2454 106.022C89.2973 104.651 90.8825 103.719 92.9853 103.232L96.9194 102.396L96.8585 105.25L96.8818 105.245L96.8958 105.234ZM90.7045 96.3316C84.6531 98.0087 80.8172 101.682 79.1892 107.353C78.122 112.254 78.6643 116.299 80.8212 119.513C81.806 121.005 83.0374 122.087 84.4998 122.761C85.9638 123.443 87.9338 123.594 90.4286 123.227L104.698 120.3L105.443 93.1988L90.7122 96.33L90.7045 96.3316Z" fill="#FF307B"/>
<path d="M118.909 109.589C115.407 110.276 113.814 108.53 114.13 104.343C114.213 102.819 114.772 101.43 115.815 100.166C116.842 98.8322 118.357 97.9158 120.375 97.4135L132.793 94.7741L132.999 87.3535L118.268 90.4847C112.216 92.1618 108.38 95.8351 106.752 101.506C105.693 106.405 106.227 110.452 108.384 113.666C109.369 115.158 110.601 116.24 112.063 116.914C113.527 117.596 115.497 117.748 117.992 117.38L132.261 114.453L132.471 106.706L118.909 109.589Z" fill="#FF307B"/>
<path d="M158.183 81.8506L149.092 83.783L143.214 94.0867L144.031 76.0978L135.703 77.8679L134.509 113.964L142.837 112.194L142.9 99.9669L149.801 110.713L157.365 109.106L149.52 97.0208L158.183 81.8506Z" fill="#FF307B"/>
<path d="M192.732 77.3484C191.018 75.8726 189.016 75.3781 186.71 75.8682L183.835 76.4793L183.817 76.5076C183.817 76.5076 180.823 77.0544 179.165 80.2485C177.527 78.7483 175.523 78.2461 173.147 78.7511L167.429 79.9665L167.434 79.9899L159.862 81.5993L159.075 108.734L167.426 106.959L167.965 87.2782L171.572 86.5115C172.032 86.4138 172.434 86.5074 172.771 86.7861C173.096 87.0508 173.262 87.4143 173.294 87.8716L172.653 105.847L180.981 104.077L181.646 86.0966C181.659 85.5075 181.621 84.9456 181.52 84.397L185.151 83.6254C185.61 83.5277 186.013 83.6212 186.349 83.8999C186.674 84.1647 186.841 84.5282 186.873 84.9855L186.232 102.961L194.559 101.191L195.224 83.2104C195.233 80.7657 194.394 78.8108 192.699 77.3472L192.732 77.3484Z" fill="#FF307B"/>
<path d="M214.404 80.2578L214.184 89.3344L208.848 90.4686C205.346 91.1559 203.754 89.41 204.069 85.223C204.152 83.699 204.712 82.3099 205.754 81.0462C206.806 79.6745 208.391 78.7432 210.494 78.2555L214.428 77.4193L214.367 80.2739L214.39 80.2689L214.404 80.2578ZM208.213 71.3553C202.161 73.0324 198.326 76.7057 196.698 82.3767C195.638 87.2755 196.173 91.3226 198.33 94.5363C199.314 96.0287 200.546 97.1104 202.008 97.7848C203.472 98.4669 205.442 98.6182 207.937 98.2507L222.207 95.3234L222.952 68.2224L208.221 71.3537L208.213 71.3553Z" fill="#FF307B"/>
<path d="M246.995 65.8154C245.296 64.3363 243.318 63.8368 241.051 64.3187L235.333 65.5341L235.338 65.5574L225.156 67.7216L224.338 94.8626L232.666 93.0924L233.259 73.4005L239.46 72.0824C239.936 71.9814 240.338 72.075 240.659 72.3569C240.968 72.625 241.135 72.9885 241.182 73.4425L240.518 91.4233L248.846 89.6532L249.51 71.6724C249.535 69.2244 248.696 67.2694 246.986 65.8092L246.995 65.8154Z" fill="#FF307B"/>
<path d="M44.6277 91.0262C44.6277 91.0262 44.6902 91.0602 44.6891 91.0921L44.2483 103.716C44.2483 103.716 44.2143 103.778 44.1824 103.777L41.7628 103.693L42.1235 93.3613C42.1702 92.0241 43.2905 90.9795 44.6277 91.0262Z" fill="#06C167"/>
<path d="M77.4205 98.8905C76.119 92.7674 70.1019 88.8598 63.9788 90.1613L46.4041 93.8969C47.7085 99.995 41.4615 106.957 47.4677 105.681L66.117 101.293C67.0284 101.099 67.9258 101.682 68.1195 102.594C68.3132 103.505 67.7305 104.402 66.819 104.596L47.9957 108.662L47.0807 132.551L57.8389 130.264L58.3104 117.926L67.8222 115.904C74.7632 114.429 79.3678 108.052 77.4222 98.8983L77.4205 98.8905Z" fill="#FF307B"/>
<path d="M46.4262 105.9L66.5339 101.21C68.2766 100.905 74.3246 100.247 77.368 106.903C77.982 104.583 78.0448 101.89 77.409 98.8989C76.1075 92.7758 70.0904 88.8681 63.9673 90.1696L44.5775 94.2911C44.4994 96.4898 44.3428 101.384 44.3428 101.384C39.5255 102.815 42.1978 106.807 46.4279 105.908L46.4262 105.9Z" fill="#121212"/>
</g>
<defs>
<clipPath id="clip0_1640_24264">
<rect width="426.916" height="62.5558" fill="white" transform="translate(0.204102 89.2197) rotate(-12)"/>
</clipPath>
</defs>
</svg>
