<svg width="298" height="122" viewBox="0 0 298 122" fill="none" xmlns="http://www.w3.org/2000/svg">
<g clip-path="url(#clip0_307_3781)">
<path fill-rule="evenodd" clip-rule="evenodd" d="M338.032 0.295254L326.059 2.8404L336.547 52.1857L338.032 0.295254ZM16.3969 68.6627L326.059 2.84201L336.576 52.3213L26.914 118.142L16.3969 68.6627ZM16.423 68.7988L26.9117 118.144L14.9377 120.689L16.423 68.7988Z" fill="white"/>
<path d="M78.9592 84.9335L78.7811 92.2731L74.466 93.1903C71.6345 93.7461 70.3468 92.3343 70.6016 88.9486C70.6688 87.7162 71.1214 86.5929 71.9642 85.571C72.8148 84.4619 74.0967 83.7088 75.7971 83.3144L78.9783 82.6382L78.929 84.9465L78.9479 84.9425L78.9592 84.9335ZM73.9527 77.7347C69.0593 79.0908 65.9575 82.0611 64.6411 86.647C63.7781 90.6096 64.2167 93.8809 65.9607 96.4796C66.7571 97.6864 67.7529 98.5611 68.9354 99.1064C70.1193 99.6581 71.7123 99.7803 73.7296 99.4832L85.2687 97.1161L85.8711 75.2013L73.959 77.7333L73.9527 77.7347Z" fill="#FF307B"/>
<path d="M96.7596 88.4548C93.9281 89.0106 92.6404 87.5988 92.8952 84.2131C92.9625 82.9807 93.415 81.8574 94.2578 80.8355C95.0886 79.7569 96.3137 79.0159 97.9458 78.6097L107.987 76.4754L108.153 70.4748L96.2413 73.0068C91.348 74.363 88.2462 77.3333 86.9297 81.9191C86.0731 85.8804 86.5053 89.153 88.2494 91.7517C89.0458 92.9585 90.0415 93.8332 91.2241 94.3786C92.4079 94.9302 94.0009 95.0525 96.0183 94.7553L107.557 92.3882L107.727 86.1237L96.7596 88.4548Z" fill="#FF307B"/>
<path d="M128.519 66.0251L121.167 67.5877L116.413 75.9196L117.074 61.3732L110.34 62.8045L109.374 91.9929L116.109 90.5616L116.16 80.6745L121.74 89.3645L127.857 88.0644L121.513 78.2922L128.519 66.0251Z" fill="#FF307B"/>
<path d="M156.456 62.3844C155.069 61.191 153.45 60.7912 151.586 61.1875L149.261 61.6816L149.246 61.7045C149.246 61.7045 146.825 62.1467 145.485 64.7295C144.16 63.5165 142.54 63.1103 140.619 63.5187L135.995 64.5015L135.999 64.5204L129.876 65.8219L129.24 87.7636L135.992 86.3282L136.429 70.414L139.345 69.794C139.717 69.715 140.042 69.7907 140.314 70.016C140.577 70.2301 140.712 70.5241 140.738 70.8939L140.219 85.4298L146.953 83.9984L147.491 69.4585C147.501 68.9822 147.471 68.5278 147.389 68.0842L150.325 67.4602C150.697 67.3812 151.022 67.4569 151.294 67.6822C151.557 67.8963 151.692 68.1902 151.718 68.56L151.199 83.0959L157.933 81.6645L158.471 67.1246C158.478 65.1478 157.8 63.5669 156.429 62.3835L156.456 62.3844Z" fill="#FF307B"/>
<path d="M173.981 64.7369L173.803 72.0765L169.488 72.9937C166.656 73.5495 165.368 72.1377 165.623 68.752C165.69 67.5196 166.143 66.3963 166.986 65.3744C167.836 64.2652 169.118 63.5121 170.819 63.1178L174 62.4416L173.951 64.7499L173.969 64.7459L173.981 64.7369ZM168.974 57.5381C164.081 58.8942 160.979 61.8645 159.663 66.4503C158.806 70.4117 159.238 73.6843 160.982 76.283C161.779 77.4898 162.774 78.3645 163.957 78.9098C165.141 79.4614 166.734 79.5837 168.751 79.2866L180.29 76.9195L180.893 55.0047L168.981 57.5367L168.974 57.5381Z" fill="#FF307B"/>
<path d="M200.335 53.0583C198.961 51.8622 197.361 51.4583 195.528 51.848L190.904 52.8308L190.908 52.8497L182.675 54.5997L182.013 76.5468L188.747 75.1154L189.227 59.1918L194.242 58.126C194.626 58.0443 194.952 58.12 195.211 58.348C195.461 58.5648 195.596 58.8587 195.634 59.2258L195.097 73.7657L201.831 72.3344L202.368 57.7945C202.389 55.8149 201.71 54.2341 200.327 53.0533L200.335 53.0583Z" fill="#FF307B"/>
<path d="M36.6939 73.4446C36.6939 73.4446 36.7445 73.4721 36.7436 73.4978L36.3872 83.7058C36.3872 83.7058 36.3596 83.7564 36.3339 83.7555L34.3773 83.6871L34.669 75.3328C34.7067 74.2516 35.6126 73.4068 36.6939 73.4446Z" fill="#06C167"/>
<path d="M63.211 79.804C62.1586 74.8526 57.2929 71.6928 52.3416 72.7452L38.1301 75.766C39.1849 80.6971 34.1333 86.327 38.9902 85.2947L54.0706 81.7469C54.8076 81.5902 55.5332 82.0614 55.6899 82.7985C55.8466 83.5355 55.3753 84.2612 54.6383 84.4178L39.4171 87.7059L38.6772 107.023L47.3766 105.174L47.7579 95.1968L55.4495 93.5619C61.0622 92.3689 64.7857 87.2122 63.2123 79.8103L63.211 79.804Z" fill="#FF307B"/>
<path d="M38.1482 85.4719L54.408 81.68C55.8171 81.4332 60.7078 80.9006 63.1688 86.2834C63.6653 84.4068 63.7161 82.2298 63.2019 79.8108C62.1495 74.8594 57.2838 71.6996 52.3325 72.752L36.6533 76.0848C36.5901 77.8627 36.4635 81.8203 36.4635 81.8203C32.5681 82.9775 34.729 86.2053 38.1496 85.4782L38.1482 85.4719Z" fill="#121212"/>
</g>
<defs>
<clipPath id="clip0_307_3781">
<rect width="345.218" height="50.5847" fill="white" transform="translate(0.771484 71.9839) rotate(-12)"/>
</clipPath>
</defs>
</svg>
