<svg width="113" height="25" viewBox="0 0 113 25" fill="none" xmlns="http://www.w3.org/2000/svg">
<path d="M33.8833 14.7695L32.9404 18.6968H30.4941C28.8941 18.672 28.3584 17.7654 28.887 15.9735C29.0656 15.3184 29.4405 14.766 30.0155 14.3127C30.6048 13.8134 31.3869 13.5548 32.3547 13.5371H34.1582L33.8654 14.773H33.8761L33.8833 14.7695ZM31.9976 10.3252C29.187 10.4952 27.1621 11.7382 25.9192 14.0542C24.9943 16.0869 24.855 17.8965 25.5014 19.4936C25.7943 20.2337 26.2335 20.818 26.8121 21.2465C27.3906 21.6785 28.2406 21.9264 29.3691 21.9973L35.901 22.0433L38.7545 10.3252H32.0012H31.9976Z" fill="#FF307B"/>
<path d="M43.1353 18.6962C41.5353 18.6714 40.9996 17.7648 41.5282 15.9729C41.7067 15.3178 42.0817 14.7653 42.6567 14.3121C43.2317 13.8269 43.9817 13.5684 44.9138 13.5365H50.6064L51.3885 10.3281H44.6352C41.8246 10.4981 39.7997 11.7411 38.5569 14.0571C37.6355 16.0898 37.4926 17.8994 38.139 19.4965C38.4319 20.2366 38.8711 20.8209 39.4497 21.2494C40.0282 21.6815 40.8782 21.9294 42.0067 22.0002L48.5386 22.0462L49.3529 18.6962H43.1353Z" fill="#FF307B"/>
<path d="M62.9484 10.2645H58.7807L55.2415 14.2024L57.2772 6.4541H53.4595L49.5703 22.0428H53.388L54.5558 16.7309L56.5808 22.0428H60.0485L57.7343 16.0616L62.9484 10.2645Z" fill="#FF307B"/>
<path d="M78.5236 11.5003C77.9094 10.7 77.0773 10.2998 76.0202 10.2998H74.7023L74.6916 10.3104C74.6916 10.3104 73.3274 10.2715 72.3024 11.5074C71.7239 10.7035 70.8917 10.2998 69.8025 10.2998H67.1812V10.3104H63.7099L60.835 22.0391H64.6634L66.7348 13.5295H68.3883C68.599 13.5295 68.7668 13.6074 68.8882 13.7596C69.0061 13.9048 69.0454 14.0784 69.0168 14.2802L67.0597 22.0391H70.8775L72.8453 14.2802C72.906 14.0252 72.9417 13.7773 72.9488 13.5295H74.613C74.8238 13.5295 74.9916 13.6074 75.113 13.7596C75.2309 13.9048 75.2702 14.0784 75.2416 14.2802L73.2845 22.0391H77.1022L79.07 14.2802C79.3022 13.2178 79.1165 12.29 78.5093 11.4968L78.5236 11.5003Z" fill="#FF307B"/>
<path d="M87.7552 14.7695L86.8124 18.6968H84.3661C82.7661 18.672 82.2304 17.7654 82.759 15.9735C82.9376 15.3184 83.3125 14.766 83.8875 14.3127C84.4768 13.8134 85.2589 13.5548 86.2267 13.5371H88.0302L87.7374 14.773H87.7481L87.7552 14.7695ZM85.8696 10.3252C83.059 10.4952 81.034 11.7382 79.7912 14.0542C78.8698 16.0869 78.727 17.8965 79.3734 19.4936C79.6662 20.2337 80.1055 20.818 80.6841 21.2465C81.2626 21.6785 82.1126 21.9264 83.2411 21.9973L89.773 22.0433L92.6265 10.3252H85.8732H85.8696Z" fill="#FF307B"/>
<path d="M103.401 11.5003C102.794 10.7 101.972 10.2998 100.933 10.2998H98.3118V10.3104H93.6441L90.7549 22.0391H94.5726L96.669 13.5295H99.5117C99.7296 13.5295 99.8974 13.6074 100.012 13.7596C100.122 13.9048 100.162 14.0784 100.14 14.2802L98.1725 22.0391H101.99L103.958 14.2802C104.197 13.2178 104.012 12.29 103.397 11.4968L103.401 11.5003Z" fill="#FF307B"/>
<path d="M12.2829 3.75654C12.2829 3.75654 12.3072 3.77713 12.3037 3.79088L10.9335 9.24051C10.9335 9.24051 10.9127 9.26458 10.8988 9.26115L9.8454 9.00071L10.9668 4.54066C11.112 3.9634 11.7008 3.61261 12.2829 3.75654Z" fill="#06C167"/>
<path d="M25.9361 10.2082C25.9361 7.42474 23.6612 5.16895 20.8541 5.16895H12.7973C12.8008 7.94177 9.41167 10.3923 12.1651 10.3923L20.7541 10.2082C21.172 10.2082 21.5112 10.5446 21.5112 10.9589C21.5112 11.3733 21.172 11.7097 20.7541 11.7097L12.1187 11.738L9.49023 22.0431H14.4222L15.7793 16.7206H20.1399C23.3219 16.7206 25.9361 14.3727 25.9361 10.2117V10.2082Z" fill="#FF307B"/>
<path d="M11.6866 10.3917L20.9434 10.2111C21.7362 10.2394 24.4504 10.5121 25.1647 13.6887C25.6504 12.7361 25.9289 11.571 25.9289 10.2111C25.9289 7.42767 23.654 5.17188 20.847 5.17188H11.958C11.7187 6.12094 11.1938 8.23508 11.1938 8.23508C8.9474 8.41215 9.74738 10.3953 11.6866 10.3953V10.3917Z" fill="#121212"/>
</svg>
