<svg width="61" height="25" viewBox="0 0 61 25" fill="none" xmlns="http://www.w3.org/2000/svg">
<path d="M15.373 7.50781H13.9238V14.6445H15.373V7.50781ZM5.2832 13.8242H10.1504V11.6914H11.4766V14.5078H12.9121V7.74023H11.4766V10.4336H10.1504V8.39648H5.2832V13.8242ZM6.71875 12.6895V9.57227H8.74219V12.6895H6.71875ZM7.04688 19.7031H15.373V15.1641H7.04688V19.7031ZM8.53711 18.4727V16.3535H13.8691V18.4727H8.53711ZM27.2676 7.49414H25.7637V11.9238H23.248V8.45117H21.7578V11.5273H18.9004V8.45117H17.3691V16.873H23.248V13.168H25.7637V19.8672H27.2676V7.49414ZM18.9004 15.6562V12.7168H21.7578V15.6562H18.9004ZM39.2305 8.41016H32.9277V9.66797H37.7334C37.7197 10.4268 37.6719 11.377 37.4258 12.6484L38.9297 12.7852C39.2168 11.2197 39.2168 9.98926 39.2305 9.14844V8.41016ZM32.1895 13.7695L32.3262 14.9863C34.4932 14.9795 37.4121 14.9316 39.9824 14.4668L39.9004 13.373C38.7041 13.5439 37.3916 13.6396 36.1133 13.6943V11.2266H34.6094V13.7422C33.7412 13.7559 32.9209 13.7627 32.1895 13.7695ZM34.0352 19.6074H42.5801V18.377H35.5664V15.9297H34.0352V19.6074ZM40.625 16.75H42.1836V12.6211H43.7832V11.3496H42.1836V7.49414H40.625V16.75ZM54.7207 7.49414H53.2168V19.8672H54.7207V7.49414ZM45.0957 9.80469H49.375V12.0059H45.1094V16.9414H46.1895C48.4111 16.9482 50.2568 16.8662 52.3555 16.5039L52.2188 15.2598C50.291 15.5811 48.6162 15.6836 46.668 15.6973V13.209H50.9199V8.57422H45.0957V9.80469Z" fill="#535353"/>
</svg>
