<?xml version="1.0" encoding="UTF-8"?><svg xmlns="http://www.w3.org/2000/svg" xmlns:xlink="http://www.w3.org/1999/xlink" viewBox="0 0 221.1 124.16"><defs><style>.cls-1,.cls-2,.cls-3,.cls-4,.cls-5,.cls-6,.cls-7,.cls-8,.cls-9,.cls-10,.cls-11,.cls-12,.cls-13,.cls-14,.cls-15,.cls-16,.cls-17,.cls-18,.cls-19,.cls-20,.cls-21,.cls-22,.cls-23,.cls-24,.cls-25{stroke-miterlimit:10;}.cls-1,.cls-3{stroke:#1fce65;}.cls-1,.cls-3,.cls-12,.cls-20{stroke-width:.46px;}.cls-1,.cls-7,.cls-11,.cls-26,.cls-19,.cls-23{fill:none;}.cls-27,.cls-5,.cls-9,.cls-14,.cls-15,.cls-16,.cls-21,.cls-24,.cls-25{fill:#fff;}.cls-28{fill:#fafafa;}.cls-2,.cls-4,.cls-6,.cls-9,.cls-10,.cls-11,.cls-12,.cls-13,.cls-15,.cls-16,.cls-17,.cls-18,.cls-20,.cls-21,.cls-22,.cls-23,.cls-25{stroke:#000;}.cls-2,.cls-6,.cls-12,.cls-17,.cls-29{fill:#1fce65;}.cls-2,.cls-7{stroke-width:.5px;}.cls-4,.cls-9{stroke-width:.25px;}.cls-5{stroke-width:.22px;}.cls-5,.cls-24{stroke:#171717;}.cls-6,.cls-18{stroke-width:.53px;}.cls-7{stroke:#e6e6e6;}.cls-30{clip-path:url(#clippath-2);}.cls-31{isolation:isolate;}.cls-32{font-family:AirstrikeAcademy, 'Airstrike Academy';font-size:9.42px;}.cls-32,.cls-33{fill:#7688ff;}.cls-8{stroke-width:.47px;}.cls-8,.cls-19{stroke:#fff;}.cls-10{fill:#fc6e4a;stroke-width:.36px;}.cls-34{filter:url(#drop-shadow-23);}.cls-11{stroke-width:.3px;}.cls-35{filter:url(#drop-shadow-17);}.cls-13,.cls-18,.cls-20{fill:#ff307b;}.cls-13,.cls-22,.cls-23{stroke-width:.59px;}.cls-36{fill:#ffce1c;}.cls-37{clip-path:url(#clippath-1);}.cls-38{filter:url(#drop-shadow-6);}.cls-39{fill:#ff9700;}.cls-40{filter:url(#drop-shadow-22);}.cls-14{stroke:#7688ff;stroke-width:.42px;}.cls-15{stroke-width:.23px;}.cls-41{fill:#171717;}.cls-42{mix-blend-mode:multiply;opacity:.29;}.cls-43{clip-path:url(#clippath);}.cls-16{stroke-width:.23px;}.cls-44{fill:#ff70fe;}.cls-45{clip-path:url(#clippath-3);}.cls-46{letter-spacing:-.17em;}.cls-17{stroke-width:.8px;}.cls-19{stroke-width:.9px;}.cls-21{stroke-width:.12px;}.cls-24{stroke-width:.2px;}.cls-47{fill:#144c2b;}.cls-25{stroke-width:.26px;}</style><filter id="drop-shadow-6" filterUnits="userSpaceOnUse"><feOffset dx="1.55" dy="1.55"/><feGaussianBlur result="blur" stdDeviation="0"/><feFlood flood-color="#000" flood-opacity=".38"/><feComposite in2="blur" operator="in"/><feComposite in="SourceGraphic"/></filter><filter id="drop-shadow-17" filterUnits="userSpaceOnUse"><feOffset dx="1.48" dy="1.48"/><feGaussianBlur result="blur-2" stdDeviation="0"/><feFlood flood-color="#000" flood-opacity=".38"/><feComposite in2="blur-2" operator="in"/><feComposite in="SourceGraphic"/></filter><clipPath id="clippath"><ellipse class="cls-26" cx="119.98" cy="90.58" rx="8.87" ry="10.37" transform="translate(-10.53 165.21) rotate(-66.82)"/></clipPath><clipPath id="clippath-1"><ellipse class="cls-26" cx="148.15" cy="94.27" rx="10.37" ry="8.87" transform="translate(-12.02 22.3) rotate(-8.27)"/></clipPath><filter id="drop-shadow-22" filterUnits="userSpaceOnUse"><feOffset dx="1.5" dy="1.5"/><feGaussianBlur result="blur-3" stdDeviation="0"/><feFlood flood-color="#000" flood-opacity=".38"/><feComposite in2="blur-3" operator="in"/><feComposite in="SourceGraphic"/></filter><clipPath id="clippath-2"><rect class="cls-26" x="84.93" y="21.91" width="62.67" height="9.26" transform="translate(-2.71 18.43) rotate(-8.96)"/></clipPath><clipPath id="clippath-3"><circle class="cls-26" cx="116.05" cy="42.75" r="11.2"/></clipPath><filter id="drop-shadow-23" filterUnits="userSpaceOnUse"><feOffset dx=".71" dy=".71"/><feGaussianBlur result="blur-4" stdDeviation="0"/><feFlood flood-color="#000" flood-opacity=".38"/><feComposite in2="blur-4" operator="in"/><feComposite in="SourceGraphic"/></filter></defs><g class="cls-31"><g id="Layer_1"><rect class="cls-27" x="-.05" y=".05" width="221.2" height="124.06"/><g><g><polygon class="cls-27" points="221.15 124.11 -.05 124.11 -.05 .05 24.82 .05 221.15 .05 221.15 124.11"/><line class="cls-7" x1="22.07" y1=".05" x2="22.07" y2="124.11"/><line class="cls-7" x1="221.15" y1=".05" x2="221.15" y2="124.11"/><line class="cls-7" x1="-.05" y1=".05" x2="-.05" y2="124.11"/><line class="cls-7" x1="44.19" y1=".05" x2="44.19" y2="124.11"/><line class="cls-7" x1="66.31" y1=".05" x2="66.31" y2="124.11"/><line class="cls-7" x1="88.43" y1=".05" x2="88.43" y2="124.11"/><line class="cls-7" x1="110.55" y1=".05" x2="110.55" y2="124.11"/><line class="cls-7" x1="132.67" y1=".05" x2="132.67" y2="124.11"/><line class="cls-7" x1="154.79" y1=".05" x2="154.79" y2="124.11"/><line class="cls-7" x1="176.91" y1=".05" x2="176.91" y2="124.11"/><line class="cls-7" x1="199.03" y1=".05" x2="199.03" y2="124.11"/></g><line class="cls-7" x1="221.15" y1=".05" x2="-.05" y2=".05"/><line class="cls-7" x1="221.15" y1="124.11" x2="-.05" y2="124.11"/><line class="cls-7" x1="221.15" y1="103.43" x2="-.05" y2="103.43"/><line class="cls-7" x1="221.15" y1="82.76" x2="-.05" y2="82.76"/><line class="cls-7" x1="221.15" y1="62.08" x2="-.05" y2="62.08"/><line class="cls-7" x1="221.15" y1="41.4" x2="-.05" y2="41.4"/><line class="cls-7" x1="221.15" y1="20.72" x2="-.05" y2="20.72"/></g><g><g class="cls-42"><rect class="cls-4" x="161.72" y="45.48" width="51.42" height="23.7" rx="10.53" ry="10.53" transform="translate(42.16 188.92) rotate(-59.18)"/><rect class="cls-22" x="164.1" y="47.37" width="46.56" height="20.09" rx="8.94" ry="8.94" transform="translate(42.07 188.92) rotate(-59.18)"/><path d="M195.28,42.93c-1.64,2.75-12.11,2.92-13.73,2.93-.14,0-.25,.07-.32,.19l-1.43,2.39c-.14,.24,.01,.56,.29,.59,7.41,.81,11.95-1.76,13.67-3.01,.28-.2,.65,.02,.6,.36-.28,2.11-.38,7.32,3.85,13.46,.16,.23,.51,.22,.66-.02l1.43-2.39c.07-.12,.08-.25,.01-.37-.76-1.43-5.58-10.73-3.95-13.48l2.3-3.86-.55-.33-.55-.33-2.3,3.86Z"/><path class="cls-11" d="M195.28,42.93c-1.64,2.75-12.11,2.92-13.73,2.93-.14,0-.25,.07-.32,.19l-1.43,2.39c-.14,.24,.01,.56,.29,.59,7.41,.81,11.95-1.76,13.67-3.01,.28-.2,.65,.02,.6,.36-.28,2.11-.38,7.32,3.85,13.46,.16,.23,.51,.22,.66-.02l1.43-2.39c.07-.12,.08-.25,.01-.37-.76-1.43-5.58-10.73-3.95-13.48l2.3-3.86-.55-.33-.55-.33-2.3,3.86Z"/><rect x="176.24" y="63.87" width="11.46" height="5.2" rx="2.6" ry="2.6" transform="translate(31.66 188.69) rotate(-59.18)"/><rect class="cls-23" x="176.24" y="63.87" width="11.46" height="5.2" rx="2.6" ry="2.6" transform="translate(31.66 188.69) rotate(-59.18)"/><rect class="cls-4" x="161.01" y="44.78" width="51.42" height="23.7" rx="10.53" ry="10.53" transform="translate(42.43 187.97) rotate(-59.18)"/><rect class="cls-22" x="163.39" y="46.66" width="46.56" height="20.09" rx="8.94" ry="8.94" transform="translate(42.33 187.96) rotate(-59.18)"/><path d="M194.57,42.22c-1.64,2.75-12.11,2.92-13.73,2.93-.14,0-.25,.07-.32,.19l-1.43,2.39c-.14,.24,.01,.56,.29,.59,7.41,.81,11.95-1.76,13.67-3.01,.28-.2,.65,.02,.6,.36-.28,2.11-.38,7.32,3.85,13.46,.16,.23,.51,.22,.66-.02l1.43-2.39c.07-.12,.08-.25,.01-.37-.76-1.43-5.58-10.73-3.95-13.48l2.3-3.86-.55-.33-.55-.33-2.3,3.86Z"/><path class="cls-11" d="M194.57,42.22c-1.64,2.75-12.11,2.92-13.73,2.93-.14,0-.25,.07-.32,.19l-1.43,2.39c-.14,.24,.01,.56,.29,.59,7.41,.81,11.95-1.76,13.67-3.01,.28-.2,.65,.02,.6,.36-.28,2.11-.38,7.32,3.85,13.46,.16,.23,.51,.22,.66-.02l1.43-2.39c.07-.12,.08-.25,.01-.37-.76-1.43-5.58-10.73-3.95-13.48l2.3-3.86-.55-.33-.55-.33-2.3,3.86Z"/><rect x="175.54" y="63.16" width="11.46" height="5.2" rx="2.6" ry="2.6" transform="translate(31.92 187.74) rotate(-59.18)"/><rect class="cls-23" x="175.54" y="63.16" width="11.46" height="5.2" rx="2.6" ry="2.6" transform="translate(31.92 187.74) rotate(-59.18)"/></g><g><g class="cls-42"><rect class="cls-4" x="161.76" y="45.48" width="51.42" height="23.7" rx="10.53" ry="10.53" transform="translate(42.18 188.95) rotate(-59.18)"/><rect class="cls-22" x="164.13" y="47.37" width="46.56" height="20.09" rx="8.94" ry="8.94" transform="translate(42.09 188.95) rotate(-59.18)"/><path d="M195.32,42.93c-1.64,2.75-12.11,2.92-13.73,2.93-.14,0-.25,.07-.32,.19l-1.43,2.39c-.14,.24,.01,.56,.29,.59,7.41,.81,11.95-1.76,13.67-3.01,.28-.2,.65,.02,.6,.36-.28,2.11-.38,7.32,3.85,13.46,.16,.23,.51,.22,.66-.02l1.43-2.39c.07-.12,.08-.25,.01-.37-.76-1.43-5.58-10.73-3.95-13.48l2.3-3.86-.55-.33-.55-.33-2.3,3.86Z"/><path class="cls-11" d="M195.32,42.93c-1.64,2.75-12.11,2.92-13.73,2.93-.14,0-.25,.07-.32,.19l-1.43,2.39c-.14,.24,.01,.56,.29,.59,7.41,.81,11.95-1.76,13.67-3.01,.28-.2,.65,.02,.6,.36-.28,2.11-.38,7.32,3.85,13.46,.16,.23,.51,.22,.66-.02l1.43-2.39c.07-.12,.08-.25,.01-.37-.76-1.43-5.58-10.73-3.95-13.48l2.3-3.86-.55-.33-.55-.33-2.3,3.86Z"/><rect x="176.28" y="63.87" width="11.46" height="5.2" rx="2.6" ry="2.6" transform="translate(31.67 188.72) rotate(-59.18)"/><rect class="cls-23" x="176.28" y="63.87" width="11.46" height="5.2" rx="2.6" ry="2.6" transform="translate(31.67 188.72) rotate(-59.18)"/></g><g><rect class="cls-9" x="161.05" y="44.78" width="51.42" height="23.7" rx="10.53" ry="10.53" transform="translate(42.44 188) rotate(-59.18)"/><rect class="cls-13" x="163.43" y="46.66" width="46.56" height="20.09" rx="8.94" ry="8.94" transform="translate(42.35 188) rotate(-59.18)"/><g><path class="cls-29" d="M194.61,42.22c-1.64,2.75-12.11,2.92-13.73,2.93-.14,0-.25,.07-.32,.19l-1.43,2.39c-.14,.24,.01,.56,.29,.59,7.41,.81,11.95-1.76,13.67-3.01,.28-.2,.65,.02,.6,.36-.28,2.11-.38,7.32,3.85,13.46,.16,.23,.51,.22,.66-.02l1.43-2.39c.07-.12,.08-.25,.01-.37-.76-1.43-5.58-10.73-3.95-13.48l2.3-3.86-.55-.33-.55-.33-2.3,3.86Z"/><path class="cls-11" d="M194.61,42.22c-1.64,2.75-12.11,2.92-13.73,2.93-.14,0-.25,.07-.32,.19l-1.43,2.39c-.14,.24,.01,.56,.29,.59,7.41,.81,11.95-1.76,13.67-3.01,.28-.2,.65,.02,.6,.36-.28,2.11-.38,7.32,3.85,13.46,.16,.23,.51,.22,.66-.02l1.43-2.39c.07-.12,.08-.25,.01-.37-.76-1.43-5.58-10.73-3.95-13.48l2.3-3.86-.55-.33-.55-.33-2.3,3.86Z"/></g><g><rect class="cls-36" x="175.57" y="63.16" width="11.46" height="5.2" rx="2.6" ry="2.6" transform="translate(31.94 187.77) rotate(-59.18)"/><rect class="cls-23" x="175.57" y="63.16" width="11.46" height="5.2" rx="2.6" ry="2.6" transform="translate(31.94 187.77) rotate(-59.18)"/></g></g></g></g><g class="cls-38"><rect class="cls-15" x="21.37" y="20.12" width="61.37" height="82.2" transform="translate(-3.81 3.46) rotate(-3.67)"/><rect class="cls-20" x="24.09" y="22.89" width="55.92" height="76.65" transform="translate(-3.81 3.46) rotate(-3.67)"/><rect class="cls-12" x="24.14" y="24.55" width="4.2" height="76.65" transform="translate(-3.97 1.81) rotate(-3.67)"/><g><circle class="cls-8" cx="53.91" cy="66.42" r="15.77"/><ellipse class="cls-3" cx="53.93" cy="66.42" rx="15.77" ry="6.11" transform="translate(-4.14 3.59) rotate(-3.67)"/><ellipse class="cls-1" cx="53.91" cy="66.42" rx="6.11" ry="15.77" transform="translate(-4.14 3.59) rotate(-3.67)"/><line class="cls-1" x1="52.9" y1="50.68" x2="54.92" y2="82.16"/><line class="cls-1" x1="38.17" y1="67.43" x2="69.65" y2="65.41"/></g><g><g><path d="M35.85,45.24l-.33-5.08,1.97-.13c.63-.04,1.1,.07,1.44,.33,.33,.26,.51,.66,.55,1.2,.04,.57-.09,1.01-.39,1.33-.3,.31-.74,.49-1.34,.53l-.68,.04,.11,1.69-1.33,.09Zm1.16-2.69l.49-.03c.24-.02,.41-.09,.5-.21,.09-.12,.13-.32,.11-.58-.02-.28-.08-.47-.19-.58-.11-.11-.27-.15-.49-.14l-.52,.03,.1,1.5Z"/><path d="M39.99,44.97l1.33-5.19,1.42-.09,1.97,4.98-1.36,.09-.38-.99-1.55,.1-.23,1.02-1.2,.08Zm2.02-3.75l-.39,1.72,1.03-.07-.61-1.65h-.03Z"/><path d="M46.62,44.63c-.69,.04-1.22-.02-1.58-.2l-.07-1.04c.5,.16,.98,.23,1.42,.2,.49-.03,.72-.21,.7-.52,0-.15-.05-.25-.14-.31s-.24-.1-.47-.14l-.36-.05c-.41-.05-.73-.19-.95-.41s-.34-.58-.37-1.08,.09-.89,.37-1.19c.28-.3,.71-.47,1.29-.51s1.06,.02,1.42,.17l.07,1.02c-.45-.13-.88-.19-1.29-.16-.43,.03-.64,.19-.62,.48,0,.13,.06,.23,.14,.29,.08,.06,.23,.11,.45,.14l.36,.05c.45,.06,.79,.2,1.02,.42s.35,.57,.38,1.06c.03,.54-.1,.97-.4,1.28-.3,.31-.76,.48-1.37,.52Z"/><path d="M50.54,44.38c-.69,.04-1.22-.02-1.58-.2l-.07-1.04c.5,.16,.98,.23,1.42,.2,.49-.03,.72-.21,.7-.52,0-.15-.05-.25-.14-.31s-.24-.1-.47-.14l-.36-.05c-.41-.05-.73-.19-.95-.41s-.34-.58-.37-1.08,.09-.89,.37-1.19c.28-.3,.71-.47,1.29-.51s1.06,.02,1.42,.17l.07,1.02c-.45-.13-.88-.19-1.29-.16-.43,.03-.64,.19-.62,.48,0,.13,.06,.23,.14,.29,.08,.06,.23,.11,.45,.14l.36,.05c.45,.06,.79,.2,1.02,.42s.35,.57,.38,1.06c.03,.54-.1,.97-.4,1.28-.3,.31-.76,.48-1.37,.52Z"/><path d="M53.1,44.13l-.33-5.08,1.97-.13c.63-.04,1.1,.07,1.44,.33,.33,.26,.51,.66,.55,1.2,.04,.57-.09,1.01-.39,1.33-.3,.31-.74,.49-1.34,.53l-.68,.04,.11,1.69-1.33,.09Zm1.16-2.69l.49-.03c.24-.02,.41-.09,.5-.21,.09-.12,.13-.32,.11-.58-.02-.28-.08-.47-.19-.58-.11-.11-.27-.15-.49-.14l-.52,.03,.1,1.5Z"/><path d="M59.69,43.79c-.68,.04-1.24-.13-1.69-.52-.45-.39-.7-1.01-.75-1.86v-.17c-.04-.44,0-.83,.1-1.17,.1-.34,.26-.62,.46-.84,.21-.21,.44-.38,.7-.49s.55-.18,.87-.2c.67-.04,1.23,.13,1.68,.52,.45,.39,.7,1.01,.75,1.86v.17c.04,.44,0,.83-.1,1.17-.1,.34-.26,.62-.46,.83-.21,.21-.44,.38-.7,.49s-.55,.18-.87,.2Zm-.04-1.04c.59-.04,.85-.53,.79-1.49l-.02-.26c-.03-.52-.13-.9-.29-1.12-.16-.22-.4-.33-.71-.31-.59,.04-.86,.53-.8,1.48l.02,.26c.03,.53,.13,.91,.3,1.14,.16,.22,.4,.32,.71,.3Z"/><path d="M62.71,43.51l-.33-5.08,1.99-.13c.61-.04,1.07,.06,1.38,.3,.31,.24,.49,.63,.52,1.17,.02,.33-.03,.6-.15,.81s-.3,.38-.56,.52v.03l1.2,2.12-1.38,.09-.98-1.8-.49,.03,.12,1.85-1.33,.09Zm1.14-2.79l.5-.03c.23-.01,.39-.08,.49-.21,.1-.12,.14-.31,.12-.55s-.08-.41-.19-.51c-.11-.1-.29-.15-.53-.13l-.48,.03,.09,1.41Z"/><path d="M68.31,43.15l-.26-4.06-1.25,.08-.07-1.02,3.83-.25,.07,1.02-1.24,.08,.26,4.06-1.34,.09Z"/></g><g><path class="cls-16" d="M35.43,44.85l-.3-4.75,1.97-.13c.63-.04,1.1,.06,1.43,.31,.33,.24,.51,.62,.54,1.12,.03,.53-.1,.95-.4,1.24-.3,.3-.75,.46-1.34,.5l-.68,.04,.1,1.57-1.33,.09Zm1.17-2.52l.49-.03c.24-.02,.41-.08,.5-.2,.09-.12,.13-.3,.11-.54-.02-.26-.08-.44-.18-.54-.11-.1-.27-.14-.49-.13l-.52,.03,.09,1.41Z"/><path class="cls-16" d="M39.57,44.58l1.36-4.85,1.42-.09,1.95,4.64-1.36,.09-.38-.92-1.55,.1-.24,.96-1.2,.08Zm2.04-3.51l-.4,1.61,1.03-.07-.6-1.54h-.03Z"/><path class="cls-16" d="M46.2,44.23c-.69,.04-1.22-.02-1.58-.18l-.06-.97c.5,.15,.98,.21,1.42,.18,.49-.03,.72-.2,.71-.49,0-.14-.05-.23-.14-.29s-.24-.1-.47-.13l-.36-.05c-.41-.05-.73-.18-.94-.38s-.34-.54-.37-1.01,.09-.83,.37-1.12c.28-.28,.71-.44,1.29-.48s1.06,.02,1.42,.16l.06,.95c-.45-.12-.88-.17-1.29-.14-.43,.03-.64,.18-.62,.45,0,.12,.05,.21,.14,.27,.08,.06,.23,.1,.45,.13l.36,.04c.45,.06,.79,.18,1.01,.39s.35,.53,.38,.99c.03,.51-.1,.91-.41,1.2-.3,.29-.76,.45-1.37,.49Z"/><path class="cls-16" d="M50.12,43.98c-.69,.04-1.22-.02-1.58-.18l-.06-.97c.5,.15,.98,.21,1.42,.18,.49-.03,.72-.2,.71-.49,0-.14-.05-.23-.14-.29s-.24-.1-.47-.13l-.36-.05c-.41-.05-.73-.18-.94-.38s-.34-.54-.37-1.01,.09-.83,.37-1.12c.28-.28,.71-.44,1.29-.48s1.06,.02,1.42,.16l.06,.95c-.45-.12-.88-.17-1.29-.14-.43,.03-.64,.18-.62,.45,0,.12,.05,.21,.14,.27,.08,.06,.23,.1,.45,.13l.36,.04c.45,.06,.79,.18,1.01,.39s.35,.53,.38,.99c.03,.51-.1,.91-.41,1.2-.3,.29-.76,.45-1.37,.49Z"/><path class="cls-16" d="M52.68,43.74l-.3-4.75,1.97-.13c.63-.04,1.1,.06,1.43,.31,.33,.24,.51,.62,.54,1.12,.03,.53-.1,.95-.4,1.24-.3,.3-.75,.46-1.34,.5l-.68,.04,.1,1.57-1.33,.09Zm1.17-2.52l.49-.03c.24-.02,.41-.08,.5-.2,.09-.12,.13-.3,.11-.54-.02-.26-.08-.44-.18-.54-.11-.1-.27-.14-.49-.13l-.52,.03,.09,1.41Z"/><path class="cls-16" d="M59.27,43.39c-.68,.04-1.24-.12-1.68-.48-.44-.36-.69-.94-.74-1.73v-.16c-.04-.41,0-.78,.11-1.1,.1-.32,.26-.58,.47-.78,.21-.2,.44-.35,.7-.46s.55-.17,.87-.19c.67-.04,1.23,.12,1.68,.48,.45,.36,.7,.94,.75,1.73v.16c.04,.41,0,.78-.11,1.1-.11,.32-.26,.58-.47,.78-.21,.2-.44,.36-.7,.46s-.55,.17-.87,.19Zm-.03-.97c.59-.04,.85-.5,.8-1.39l-.02-.24c-.03-.49-.13-.84-.28-1.05-.16-.21-.39-.3-.71-.28-.59,.04-.86,.5-.81,1.39l.02,.24c.03,.5,.13,.85,.29,1.06,.16,.21,.4,.3,.71,.28Z"/><path class="cls-16" d="M62.29,43.12l-.3-4.75,1.99-.13c.61-.04,1.07,.05,1.38,.27,.31,.22,.48,.59,.52,1.09,.02,.31-.03,.56-.15,.76s-.31,.36-.56,.49v.03l1.19,1.97-1.38,.09-.97-1.68-.49,.03,.11,1.73-1.33,.09Zm1.15-2.61l.5-.03c.23-.01,.39-.08,.49-.2,.1-.12,.14-.29,.12-.52s-.08-.39-.19-.48c-.11-.09-.29-.13-.53-.12l-.48,.03,.08,1.31Z"/><path class="cls-16" d="M67.89,42.76l-.24-3.79-1.25,.08-.06-.95,3.83-.25,.06,.95-1.24,.08,.24,3.79-1.34,.09Z"/></g></g></g><polygon class="cls-27" points="142.53 56.28 142.55 56.39 142.58 56.39 142.56 56.25 142.53 56.28"/><polygon class="cls-27" points="142.61 56.29 142.59 56.33 142.64 56.35 142.66 56.32 142.61 56.29"/><polygon class="cls-27" points="140.81 55.94 140.61 55.9 140.48 56.07 140.77 56.12 140.81 55.94"/><rect x="148.4" y="12.33" width="11.74" height="2.76" transform="translate(35.49 113.1) rotate(-45)"/><rect class="cls-44" x="147.97" y="11.9" width="11.74" height="2.76" transform="translate(35.67 112.67) rotate(-45)"/><rect x="153.17" y="22.78" width="11.74" height="2.76" transform="translate(2.68 -13.64) rotate(4.95)"/><rect class="cls-33" x="153.17" y="22.14" width="11.74" height="2.76" transform="translate(2.62 -13.64) rotate(4.95)"/><g class="cls-35"><path class="cls-24" d="M145.45,108.38c-5.31-.69-9.72-3.45-12.12-7.3-3.31,3.11-8.28,4.63-13.59,3.94-1.66-.22-3.3-.65-4.87-1.29-5.81-2.37-10.67-10.16-13.73-16.28-.24-.49-.43-1-.52-1.53-.52-3.06,1.4-5.7,4.19-6.57,4.27-1.33,12.32-3.45,18.29-2.67,1.31,.17,2.5,.48,3.56,.9,2.96,1.2,5.52,3.1,7.4,5.43l3.01,.59c2.45-1.86,5.5-3.1,8.77-3.51,1.13-.14,2.36-.13,3.67,.04,5.98,.78,13.21,4.9,16.99,7.29,.54,.34,1.02,.75,1.42,1.21l4.39,.86c1.57,.31,2.87,1.35,3.45,2.75h0c.65,1.56,1.35,3.12,2.11,4.67,1.08,2.2,.37,4.78-1.68,6.21h0c-1.68,1.16-3.66,1.03-5.39,.08-.75-.41-1.38-1-1.93-1.65l-2.92-3.45c-4.25,4.3-10.41,9.66-15.45,10.3-1.68,.21-3.38,.21-5.04,0Z"/><g><path class="cls-47" d="M163.57,92.31l7.86,1.59-.19-.19c.4,1.04,.75,2.1,1.16,3.14s.94,2.07,1.45,3.09c.16,.32,.63,.04,.47-.28-.47-.93-.96-1.87-1.35-2.84-.32-.8-.59-1.62-.89-2.42-.09-.26-.17-.68-.34-.9s-.53-.2-.77-.25l-2.42-.49-4.84-.98c-.35-.07-.49,.46-.15,.53h0Z"/><path class="cls-47" d="M129.83,86.13l7.86,1.59-.19-.19c1.3,3.4,2.78,6.74,4.42,9.99,.16,.32,.63,.04,.47-.28-1.48-2.93-2.83-5.93-4.03-8.99-.1-.27-.18-.71-.36-.93-.15-.19-.42-.18-.64-.22l-2.38-.48-5-1.01c-.35-.07-.49,.46-.15,.53h0Z"/><path d="M131.89,91.85c.36-.98,1.45-1.55,2.46-1.5,1.13,.06,2.11,.83,2.68,1.77,.22,.36,.78,.03,.56-.33-.7-1.16-1.93-2.06-3.32-2.1-1.3-.03-2.56,.75-3.01,1.98-.15,.39,.48,.56,.63,.17h0Z"/><g><path class="cls-2" d="M124.02,80.06c6.54,2.8,9.86,9.71,7.41,15.42-2.45,5.72-9.74,8.08-16.28,5.28-5.12-2.19-9.97-11.76-11.84-15.83-.46-1,.04-2.17,1.08-2.52,4.24-1.45,14.51-4.54,19.62-2.35Z"/><g class="cls-43"><ellipse class="cls-41" cx="119.98" cy="90.58" rx="8.87" ry="10.37" transform="translate(-10.53 165.21) rotate(-66.82)"/><rect class="cls-28" x="115.79" y="77.71" width="3.25" height="21.65" transform="translate(68.06 -49.99) rotate(33.37)"/><rect class="cls-28" x="118.63" y="80.74" width="1.85" height="21.65" transform="translate(70.08 -50.67) rotate(33.37)"/></g><circle class="cls-5" cx="106.82" cy="84.72" r=".78"/></g><path class="cls-2" d="M146.96,83.06c-7.04,1.02-12.03,6.84-11.13,13s7.33,10.31,14.37,9.29c5.51-.8,12.66-8.8,15.51-12.25,.7-.84,.52-2.11-.4-2.72-3.72-2.49-12.85-8.12-18.36-7.32Z"/><g class="cls-37"><ellipse class="cls-41" cx="148.15" cy="94.27" rx="10.37" ry="8.87" transform="translate(-12.02 22.3) rotate(-8.27)"/><rect class="cls-28" x="145.51" y="83.69" width="3.25" height="21.65" transform="translate(66.29 -60.55) rotate(29.75)"/><rect class="cls-28" x="142.94" y="82.24" width="1.85" height="21.65" transform="translate(222.59 245.24) rotate(-150.25)"/></g><circle class="cls-5" cx="162.38" cy="91.99" r=".78"/></g></g><g class="cls-40"><rect class="cls-27" x="93.83" y="26.07" width="8.01" height="3.46" transform="translate(-3.14 15.58) rotate(-8.96)"/><path class="cls-25" d="M145.27,19.76l-43.61,6.88-.36-1.99-7.82,1.23,.36,1.99-4.79,.75,4.85,30.77,15.49-2.44c2.95,1.52,6.37,2.17,9.89,1.61s6.58-2.22,8.92-4.58l21.92-3.46-4.85-30.77Z"/><rect class="cls-6" x="92.92" y="25.62" width="53.33" height="27.91" transform="translate(-4.7 19.11) rotate(-8.96)"/><g class="cls-30"><rect class="cls-10" x="170.49" y="93.3" width="53.33" height="27.91" transform="translate(-14.3 32.01) rotate(-8.96)"/></g><rect class="cls-18" x="91.2" y="25.76" width="53.33" height="5.8" transform="translate(-3.03 18.71) rotate(-8.96)"/><circle cx="118.01" cy="42.44" r="13.64"/><circle class="cls-17" cx="116.05" cy="42.75" r="13.64"/><rect x="133.19" y="24.31" width="7.94" height="2.85" rx=".8" ry=".8" transform="translate(-2.33 21.67) rotate(-8.96)"/><path class="cls-21" d="M135.33,25.69c-.98-.76-2.16-6.14-2.16-6.14,0,0,.37,5.5-.35,6.49-.73,1-2.08,1.8-2.08,1.8,0,0,2.91,.03,3.4,1.63,.5,1.59,1.04,4.26,1.04,4.26,0,0-.2-2.72-.17-4.38,.03-1.67,2.81-2.51,2.81-2.51,0,0-1.52-.39-2.5-1.15Z"/><path class="cls-21" d="M140.13,28.6c-.63-.49-1.4-3.97-1.4-3.97,0,0,.24,3.56-.23,4.2-.47,.65-1.34,1.17-1.34,1.17,0,0,1.88,.02,2.2,1.05,.32,1.03,.67,2.76,.67,2.76,0,0-.13-1.76-.11-2.84,.02-1.08,1.82-1.63,1.82-1.63,0,0-.98-.25-1.62-.74Z"/><g class="cls-45"><circle cx="116.05" cy="42.75" r="11.2"/><rect class="cls-27" x="101.57" y="37.37" width="26.2" height="5.57" transform="translate(4.41 91.19) rotate(-44.14)"/><rect class="cls-27" x="104.69" y="42.73" width="26.2" height="1.26" transform="translate(3.06 94.27) rotate(-44.14)"/></g><polygon class="cls-18" points="100.79 28.42 95.34 29.28 95.07 26.97 100.52 26.11 100.79 28.42"/></g><g><polygon points="35.85 115.58 32.25 112.98 29.35 116.34 27.02 112.56 23.05 114.55 22.35 110.16 17.92 110.5 18.95 106.17 14.73 104.78 17.33 101.17 13.97 98.27 17.75 95.95 15.76 91.98 20.15 91.27 19.82 86.84 24.14 87.87 25.54 83.65 29.14 86.26 32.04 82.89 34.36 86.68 38.33 84.68 39.04 89.07 43.47 88.74 42.44 93.06 46.66 94.46 44.05 98.06 47.42 100.96 43.63 103.29 45.63 107.26 41.24 107.96 41.57 112.39 37.25 111.36 35.85 115.58"/><g><polygon points="35.47 114.39 32.13 111.98 29.45 115.09 27.3 111.59 23.62 113.44 22.97 109.38 18.87 109.68 19.83 105.68 15.92 104.39 18.33 101.06 15.22 98.37 18.72 96.22 16.87 92.55 20.93 91.89 20.63 87.79 24.63 88.75 25.92 84.85 29.25 87.25 31.94 84.14 34.09 87.64 37.76 85.8 38.42 89.86 42.52 89.55 41.56 93.55 45.46 94.84 43.06 98.18 46.17 100.86 42.67 103.01 44.51 106.69 40.45 107.34 40.76 111.44 36.76 110.49 35.47 114.39"/><polygon class="cls-19" points="35.47 114.39 32.13 111.98 29.45 115.09 27.3 111.59 23.62 113.44 22.97 109.38 18.87 109.68 19.83 105.68 15.92 104.39 18.33 101.06 15.22 98.37 18.72 96.22 16.87 92.55 20.93 91.89 20.63 87.79 24.63 88.75 25.92 84.85 29.25 87.25 31.94 84.14 34.09 87.64 37.76 85.8 38.42 89.86 42.52 89.55 41.56 93.55 45.46 94.84 43.06 98.18 46.17 100.86 42.67 103.01 44.51 106.69 40.45 107.34 40.76 111.44 36.76 110.49 35.47 114.39"/></g><g><g><path class="cls-39" d="M19.63,99.43l2.39-3.75,3.37,.69c.2,.04,.35,.12,.46,.24,.11,.12,.19,.25,.24,.39s.07,.29,.07,.44c0,.15-.01,.28-.03,.4-.05,.23-.15,.42-.3,.59-.15,.17-.33,.3-.53,.4-.2,.1-.41,.17-.63,.21-.22,.03-.43,.03-.61,0l-1.71-.35-.74,1.16-1.97-.41Zm1.92,.29l.74-1.16,1.79,.37c.18,.04,.37,.04,.58,0,.21-.03,.41-.09,.6-.19,.19-.1,.35-.22,.49-.38,.14-.16,.23-.34,.28-.56,.02-.11,.03-.23,.03-.37,0-.14-.02-.27-.07-.41-.04-.13-.11-.25-.21-.36-.1-.11-.24-.18-.41-.21l-3.3-.68-2.27,3.57,1.75,.36Zm-1.42-.49l2.05-3.21,3.15,.65c.14,.03,.24,.09,.32,.17,.07,.09,.13,.19,.16,.3,.03,.11,.05,.22,.05,.34,0,.11-.01,.22-.03,.3-.04,.18-.12,.34-.24,.48s-.27,.24-.43,.32-.34,.14-.52,.16c-.18,.03-.35,.02-.51,0l-1.93-.4-.74,1.17-1.32-.27Zm2.83-2.12l-.58,.92,.78-.42,1.1,.23s.02,0,.04-.02c.02-.02,.04-.04,.07-.06,.03-.02,.05-.04,.07-.07,.02-.02,.03-.04,.03-.05l.02-.03s0-.02,0-.03c0-.03-.02-.06-.05-.11-.03-.04-.04-.07-.05-.07l-1.41-.29Zm1.31,.52l-1.15-.24-.15,.08,.09-.14,1.21,.25s0,.04,0,.05Zm0-.05s0,.04,0,.04h0m.03-.03h.02s-.01,0-.02,0h0Z"/><path class="cls-39" d="M29.78,101.52l-1.82-.38v-.38c-.1,.07-.2,.13-.29,.19-.09,.06-.16,.09-.2,.09l-3.31-.68c.03-.07,.05-.13,.08-.18,.03-.05,.05-.11,.08-.16l3.15-2.66s.09-.07,.16-.12c.07-.05,.15-.09,.24-.14,.09-.04,.17-.08,.25-.1,.08-.03,.15-.03,.2-.02l1.14,.24c.11,.02,.19,.07,.25,.15,.06,.08,.11,.17,.14,.26,.03,.1,.05,.2,.05,.3s.01,.18,.01,.26l-.14,3.34Zm.05-3.23c0-.08,0-.17-.01-.27s-.02-.21-.05-.31c-.02-.1-.06-.19-.11-.26-.05-.08-.12-.12-.21-.14l-1.14-.24s-.11,0-.19,.03c-.08,.03-.16,.06-.23,.1-.08,.04-.15,.08-.21,.13-.07,.05-.11,.08-.13,.11l.02-.03-3.15,2.65s-.03,.07-.05,.11c-.02,.04-.03,.08-.05,.12l3.18,.66s.12-.05,.24-.13c.11-.07,.23-.15,.34-.24v.49l1.62,.33,.14-3.1Zm-.34,2.86l-1.21-.25v-.78s-.05,.07-.12,.13c-.07,.06-.15,.13-.24,.2s-.17,.13-.25,.19c-.08,.05-.14,.09-.18,.1l-2.89-.6s.03-.06,.02-.04v-.02l3.08-2.51s.05-.05,.1-.09c.05-.04,.1-.07,.16-.1,.06-.03,.12-.06,.17-.08s.1-.03,.13-.03l1.14,.24s.08,.04,.11,.1c.03,.06,.05,.12,.06,.2,.01,.08,.02,.16,.02,.24,0,.08,0,.15,.01,.2l-.13,2.91Zm-2.55-1.52v.07l1.37,.28,.08-1.59-1.45,1.24Zm1.21-.77l-.04,.87-.79-.16,.83-.71Zm-.61,.66l.47,.1,.03-.52-.49,.42Z"/><path class="cls-39" d="M30.16,99.62c.05-.25,.16-.48,.32-.72,.17-.23,.37-.43,.6-.61s.49-.3,.77-.38c.28-.08,.56-.09,.83-.04l3.42,.7c-.32,.26-.61,.49-.88,.7-.27,.21-.53,.37-.77,.5l-1.87-.39c-.06-.01-.13,.02-.22,.1-.09,.08-.17,.17-.23,.27v-.02c-.04,.07-.06,.13-.07,.18-.01,.05,0,.11,0,.17,.01,.06,.03,.13,.06,.19,.03,.06,.06,.11,.1,.15,.04,.04,.08,.07,.12,.08l2.2,.45c-.25,.23-.51,.46-.78,.68-.27,.22-.54,.4-.81,.53l-.65-.13c-.32-.07-.62-.16-.92-.28-.29-.12-.54-.27-.75-.47-.21-.19-.36-.43-.46-.7-.1-.27-.11-.6-.03-.97v-.02Zm.1,.04c-.07,.35-.06,.66,.03,.92,.09,.26,.24,.48,.44,.66s.45,.33,.73,.45c.28,.11,.58,.2,.88,.26l.61,.13c.24-.11,.47-.26,.71-.46,.23-.19,.46-.39,.68-.59l-2.01-.41c-.06-.01-.11-.04-.16-.09-.05-.05-.09-.11-.13-.18-.04-.07-.06-.15-.08-.22-.02-.08-.02-.14,0-.21,0-.02,.02-.05,.03-.09,.02-.04,.04-.08,.06-.12h0s.07-.1,.12-.15c.05-.05,.1-.1,.15-.14,.05-.04,.11-.07,.16-.09,.05-.02,.1-.03,.14-.02l1.84,.38c.22-.12,.45-.27,.68-.45,.23-.17,.48-.37,.75-.59l-3.21-.66c-.27-.05-.53-.04-.8,.04-.26,.08-.51,.2-.73,.36-.22,.16-.41,.35-.57,.58-.15,.22-.26,.45-.31,.69v.02Zm.2,.04v-.02c.05-.21,.14-.42,.28-.62s.31-.38,.51-.53c.2-.15,.42-.26,.65-.33,.24-.07,.47-.08,.72-.03l2.8,.58c-.17,.14-.33,.27-.49,.39-.16,.12-.33,.23-.52,.33l-1.77-.36c-.06-.01-.12,0-.2,.02-.07,.02-.15,.06-.22,.11-.07,.05-.14,.1-.21,.17-.07,.07-.12,.13-.16,.21-.06,.09-.09,.18-.11,.26-.02,.08-.01,.18,.01,.28s.07,.2,.12,.3c.05,.09,.11,.17,.19,.24,.07,.07,.14,.11,.22,.13l1.62,.33c-.13,.13-.28,.26-.44,.39-.16,.13-.34,.24-.55,.34l-.54-.11c-.28-.06-.54-.14-.8-.24-.26-.1-.48-.24-.67-.4-.19-.16-.32-.36-.41-.59-.09-.23-.1-.51-.03-.82Z"/><path class="cls-39" d="M33.69,102.33l2.41-3.75,2,.41-.63,.97,1.78-.74,2.51,.52-3.34,1.51,1.11,2.28-2.24-.46-.84-1.49-.76,1.16-1.99-.41Zm1.94,.3l.81-1.26,.91,1.61,2,.41-1.07-2.2,3.14-1.41-2.17-.45-2.06,.86,.74-1.13-1.78-.37-2.29,3.56,1.77,.37Zm-1.44-.5l2.06-3.21,1.34,.28-.93,1.44,2.62-1.09,1.49,.31-2.76,1.25,.97,2.02-1.48-.31-1.04-1.85-.93,1.44-1.33-.27Z"/></g><polygon points="24.25 97.58 24.27 97.65 24.29 97.65 24.27 97.55 24.25 97.58"/><polygon points="24.3 97.58 24.3 97.61 24.33 97.62 24.34 97.6 24.3 97.58"/><path class="cls-39" d="M23.15,97.61l-.52-.11-.41,.32-.03,.19s.24,.09,.34,.14,.24-.01,.33,.01,.28-.55,.28-.55Z"/><polygon points="23.11 97.4 22.98 97.38 22.9 97.49 23.1 97.51 23.11 97.4"/></g></g><g><g class="cls-34"><ellipse class="cls-14" cx="151.99" cy="59.95" rx="10.9" ry="21.71" transform="translate(57.47 193.23) rotate(-76.18)"/><ellipse class="cls-14" cx="151.99" cy="59.95" rx="9.51" ry="20.06" transform="translate(57.47 193.23) rotate(-76.18)"/></g><g><text class="cls-32" transform="translate(134.15 56.48) rotate(17.33)"><tspan x="0" y="0">Tr</tspan><tspan class="cls-46" x="12.03" y="0">a</tspan><tspan x="17.31" y="0">vel</tspan></text><polygon class="cls-33" points="144.14 56.46 143.49 56.3 142.93 56.64 143.32 57.28 144.14 56.46"/></g></g></g></g></svg>