<?xml version="1.0" encoding="UTF-8"?><svg id="Layer_1" xmlns="http://www.w3.org/2000/svg" xmlns:xlink="http://www.w3.org/1999/xlink" viewBox="0 0 221.1 124.16"><defs><style>.cls-1,.cls-2,.cls-3,.cls-4,.cls-5,.cls-6,.cls-7,.cls-8,.cls-9{fill:#fff;}.cls-2,.cls-10,.cls-11,.cls-3,.cls-12,.cls-13,.cls-14,.cls-15,.cls-4,.cls-16,.cls-17,.cls-5,.cls-18,.cls-19,.cls-20,.cls-21,.cls-22,.cls-23,.cls-24,.cls-25,.cls-6,.cls-26,.cls-27,.cls-7,.cls-8,.cls-28,.cls-9{stroke-miterlimit:10;}.cls-2,.cls-10,.cls-3,.cls-12,.cls-13,.cls-14,.cls-15,.cls-4,.cls-16,.cls-17,.cls-5,.cls-19,.cls-20,.cls-21,.cls-22,.cls-23,.cls-24,.cls-25,.cls-6,.cls-26,.cls-27,.cls-7,.cls-8,.cls-28,.cls-9{stroke:#000;}.cls-2,.cls-16,.cls-27{stroke-width:.23px;}.cls-29{filter:url(#drop-shadow-33);}.cls-10,.cls-14,.cls-16,.cls-19,.cls-23{fill:#1fce65;}.cls-10,.cls-24{stroke-width:.53px;}.cls-11{stroke:#e6e6e6;}.cls-11,.cls-18,.cls-30,.cls-21,.cls-28{fill:none;}.cls-11,.cls-28{stroke-width:.5px;}.cls-31{clip-path:url(#clippath-2);}.cls-3{stroke-width:.25px;}.cls-12{stroke-width:.13px;}.cls-12,.cls-13,.cls-15,.cls-20,.cls-24,.cls-25{fill:#ff307b;}.cls-32{filter:url(#drop-shadow-35);}.cls-13{stroke-width:.26px;}.cls-14{font-size:6.57px;stroke-width:.23px;}.cls-14,.cls-33{font-family:ArchivoBlack-Regular, 'Archivo Black';}.cls-15,.cls-26{stroke-width:.36px;}.cls-34{filter:url(#drop-shadow-31);}.cls-4{stroke-width:.08px;}.cls-17{fill:#4cb863;stroke-width:.24px;}.cls-5{stroke-width:.23px;}.cls-18{stroke:#fff;stroke-width:.79px;}.cls-19{stroke-width:.18px;}.cls-35{filter:url(#drop-shadow-32);}.cls-36{clip-path:url(#clippath);}.cls-20{stroke-width:.33px;}.cls-21{stroke-width:.28px;}.cls-37{fill:#ff70fe;}.cls-22,.cls-25,.cls-7{stroke-width:.23px;}.cls-23{stroke-width:.8px;}.cls-38{fill:#7688ff;}.cls-39{filter:url(#drop-shadow-9);}.cls-6{stroke-width:.12px;}.cls-26{fill:#1caf57;}.cls-40{filter:url(#drop-shadow-36);}.cls-8{stroke-width:.14px;}.cls-33{fill:#fe71fb;font-size:8.98px;}.cls-9{stroke-width:.26px;}</style><filter id="drop-shadow-9" filterUnits="userSpaceOnUse"><feOffset dx="1.35" dy="1.35"/><feGaussianBlur result="blur" stdDeviation="0"/><feFlood flood-color="#000" flood-opacity=".38"/><feComposite in2="blur" operator="in"/><feComposite in="SourceGraphic"/></filter><filter id="drop-shadow-31" filterUnits="userSpaceOnUse"><feOffset dx="1.34" dy="1.34"/><feGaussianBlur result="blur-2" stdDeviation="0"/><feFlood flood-color="#000" flood-opacity=".38"/><feComposite in2="blur-2" operator="in"/><feComposite in="SourceGraphic"/></filter><clipPath id="clippath"><path class="cls-30" d="M201.15-15.84l-13.65-3.59c-.59-.16-.91-.89-.69-1.61l6.72-22.1c1.29-4.89,5.45-8.04,9.31-7.03l.29,.08c3.85,1.01,5.93,5.8,4.65,10.7l-5.24,22.5c-.17,.73-.8,1.21-1.39,1.05Z"/></clipPath><filter id="drop-shadow-32" filterUnits="userSpaceOnUse"><feOffset dx="1.5" dy="1.5"/><feGaussianBlur result="blur-3" stdDeviation="0"/><feFlood flood-color="#000" flood-opacity=".38"/><feComposite in2="blur-3" operator="in"/><feComposite in="SourceGraphic"/></filter><clipPath id="clippath-2"><circle class="cls-30" cx="114.2" cy="91.45" r="11.2"/></clipPath><filter id="drop-shadow-33" filterUnits="userSpaceOnUse"><feOffset dx="1.42" dy="1.42"/><feGaussianBlur result="blur-4" stdDeviation="0"/><feFlood flood-color="#000" flood-opacity=".38"/><feComposite in2="blur-4" operator="in"/><feComposite in="SourceGraphic"/></filter><filter id="drop-shadow-35" filterUnits="userSpaceOnUse"><feOffset dx="1.42" dy="1.42"/><feGaussianBlur result="blur-5" stdDeviation="0"/><feFlood flood-color="#000" flood-opacity=".38"/><feComposite in2="blur-5" operator="in"/><feComposite in="SourceGraphic"/></filter><filter id="drop-shadow-36" filterUnits="userSpaceOnUse"><feOffset dx=".94" dy=".94"/><feGaussianBlur result="blur-6" stdDeviation="0"/><feFlood flood-color="#000" flood-opacity=".38"/><feComposite in2="blur-6" operator="in"/><feComposite in="SourceGraphic"/></filter></defs><g><g><polygon class="cls-1" points="221.15 124.11 -.05 124.11 -.05 .05 24.82 .05 221.15 .05 221.15 124.11"/><line class="cls-11" x1="22.07" y1=".05" x2="22.07" y2="124.11"/><line class="cls-11" x1="221.15" y1=".05" x2="221.15" y2="124.11"/><line class="cls-11" x1="-.05" y1=".05" x2="-.05" y2="124.11"/><line class="cls-11" x1="44.19" y1=".05" x2="44.19" y2="124.11"/><line class="cls-11" x1="66.31" y1=".05" x2="66.31" y2="124.11"/><line class="cls-11" x1="88.43" y1=".05" x2="88.43" y2="124.11"/><line class="cls-11" x1="110.55" y1=".05" x2="110.55" y2="124.11"/><line class="cls-11" x1="132.67" y1=".05" x2="132.67" y2="124.11"/><line class="cls-11" x1="154.79" y1=".05" x2="154.79" y2="124.11"/><line class="cls-11" x1="176.91" y1=".05" x2="176.91" y2="124.11"/><line class="cls-11" x1="199.03" y1=".05" x2="199.03" y2="124.11"/></g><line class="cls-11" x1="221.15" y1=".05" x2="-.05" y2=".05"/><line class="cls-11" x1="221.15" y1="124.11" x2="-.05" y2="124.11"/><line class="cls-11" x1="221.15" y1="103.43" x2="-.05" y2="103.43"/><line class="cls-11" x1="221.15" y1="82.76" x2="-.05" y2="82.76"/><line class="cls-11" x1="221.15" y1="62.08" x2="-.05" y2="62.08"/><line class="cls-11" x1="221.15" y1="41.4" x2="-.05" y2="41.4"/><line class="cls-11" x1="221.15" y1="20.72" x2="-.05" y2="20.72"/></g><g class="cls-39"><path class="cls-5" d="M179.26,96.16c-.41,0-.82-.06-1.22-.18l-8.3-2.48c-1.47-.44-2.69-1.51-3.36-2.94-.73-1.57-.73-3.39-.02-5.02l4.85-11.09c-.62-.68-1.17-1.42-1.64-2.2l-16.36-5.37c-.75-.58-1.37-1.31-1.84-2.17-.71-1.31-.97-2.78-.76-4.23-.73,.19-1.54,.36-2.41,.36-.59,0-1.16-.08-1.69-.24-.52-.16-1.74-.52-3.79-3.57h0c-.73-1.09-.69-2.53,.1-3.58l.3-.4h0c-.41-.61-.39-1.41,.06-2l1.19-1.57c1.34-1.76,4.04-1.58,5.14,.34h0c.06,.11,.14,.23,.23,.35,.61-.15,1.43-.34,2.44-.44,.32-.03,.65-.05,.97-.05s.63,.02,.95,.05c1.26-1.82,3.37-2.97,5.65-2.97,.67,0,1.33,.1,1.97,.29l14.07,4.2c2-.96,4.19-1.47,6.42-1.47,2.33,0,4.65,.56,6.79,1.64,5.71,2.9,8.91,9.35,7.81,15.66-.89,5.1-4.27,9.22-8.89,11.15l-4.38,14.65c-.08,.27-.19,.54-.32,.79-.25,.5-.59,.94-1,1.32-.43,.39-.91,.69-1.44,.89-.5,.19-1.02,.28-1.54,.28h0Z"/><path class="cls-1" d="M185.58,53.35c-3.3-.99-6.7-.45-9.43,1.21l-14.78-4.41h0l-.51-.15c-2.01-.6-4.12,.54-4.72,2.55l-.26,.87c-.76-.39-1.9-.78-3.35-.62-2.27,.24-3.29,.94-3.93,.55-.91-.55-1.74-2-1.74-2l-.6,.8s1.43,2.14,2.11,2.34c1.75,.52,4.03-1.02,5.74-.61,.7,.17,1.13,.51,1.4,.84l-.56,1.87c-.76-.39-1.9-.78-3.35-.62-2.27,.24-3.29,.94-3.93,.55-.91-.55-1.74-2-1.74-2l-.6,.8s1.43,2.14,2.11,2.34c1.75,.52,4.03-1.02,5.74-.61,.7,.17,1.13,.51,1.4,.84l-.74,2.48c-.6,2.01,.54,4.12,2.55,4.72l.51,.15h0l14.79,4.43v-.03c.76,1.58,1.87,2.97,3.26,4.09l-5.72,13.06c-.68,1.56,0,3.34,1.44,3.78l8.3,2.48c.26,.08,.52,.06,.77-.03,.16-.06,.31-.16,.45-.28,.13-.12,.25-.27,.34-.45,.04-.09,.08-.18,.11-.28l4.83-16.16c3.72-1.06,6.84-3.93,8.03-7.91,1.85-6.2-1.67-12.73-7.87-14.58Z"/><g><g><path class="cls-17" d="M156.89,54.09s-1.66-1.59-4.37-1.31c-2.27,.24-3.29,.94-3.93,.55-.91-.55-1.74-2-1.74-2l-.6,.8s1.43,2.14,2.11,2.34c1.75,.52,4.03-1.02,5.74-.61,1.58,.39,1.83,1.65,1.83,1.65l.98-1.43Z"/><path class="cls-17" d="M155.94,57.26s-1.66-1.59-4.37-1.31c-2.27,.24-3.29,.94-3.93,.55-.91-.55-1.74-2-1.74-2l-.6,.8s1.43,2.14,2.11,2.34c1.75,.52,4.03-1.02,5.74-.61,1.58,.39,1.83,1.65,1.83,1.65l.98-1.43Z"/></g><g><path class="cls-13" d="M178.93,93.03l-8.3-2.48c-1.44-.43-2.12-2.21-1.44-3.78l6.23-14.23c.29-.67,.97-1.03,1.59-.85l7.61,2.27c.69,.2,1.05,1,.82,1.78l-4.85,16.24c-.23,.78-.98,1.24-1.66,1.04Z"/><path class="cls-25" d="M185.58,53.35c-3.3-.99-6.7-.45-9.43,1.21l-14.78-4.41-4.51,15.09,14.79,4.42v-.03c1.38,2.88,3.92,5.19,7.22,6.17,6.2,1.85,12.73-1.67,14.58-7.87s-1.67-12.73-7.87-14.58Z"/><circle class="cls-7" cx="182.29" cy="64.58" r="8.81"/><circle cx="182.29" cy="64.58" r="6.68"/><path class="cls-22" d="M159.33,49.21h0v15.74h0c-2.46,0-4.46-2-4.46-4.46v-6.82c0-2.46,2-4.46,4.46-4.46Z" transform="translate(22.91 -42.58) rotate(16.63)"/><g><rect class="cls-25" x="181.67" y="61.85" width="1.11" height="5.91" transform="translate(-8.91 94.36) rotate(-28.37)"/><rect class="cls-25" x="179.85" y="62.84" width="1.11" height="5.91" transform="translate(-9.59 93.62) rotate(-28.37)"/><rect class="cls-25" x="183.49" y="60.87" width="1.11" height="5.91" transform="translate(-8.23 95.11) rotate(-28.37)"/></g></g><path class="cls-22" d="M176.64,83.63l-7.44,3.14c-.68,1.56,0,3.34,1.44,3.78l8.3,2.48c.69,.2,1.43-.26,1.66-1.04l3.4-11.37-7.35,3.01Z"/><g><path class="cls-4" d="M162.65,49.39c-.38-.76,.49-4.46,.49-4.46,0,0-1.41,3.53-2.16,3.94-.75,.41-1.83,.5-1.83,.5,0,0,1.8,.89,1.63,2.03-.17,1.14-.62,2.96-.62,2.96,0,0,.68-1.75,1.2-2.78,.52-1.03,2.5-.73,2.5-.73,0,0-.83-.7-1.21-1.46Z"/><path class="cls-4" d="M165.26,52.13c-.25-.49,.32-2.89,.32-2.89,0,0-.91,2.29-1.4,2.55-.49,.26-1.18,.33-1.18,.33,0,0,1.16,.57,1.06,1.31-.11,.74-.4,1.92-.4,1.92,0,0,.44-1.13,.78-1.8,.33-.67,1.62-.47,1.62-.47,0,0-.54-.45-.78-.94Z"/></g></g></g><g class="cls-34"><g class="cls-36"><polygon points="219.13 -5.92 190.56 6.75 183.33 -24.41 211.91 -37.07 219.13 -5.92"/></g></g><g class="cls-35"><rect class="cls-1" x="91.99" y="74.76" width="8.01" height="3.46" transform="translate(-10.74 15.88) rotate(-8.96)"/><path class="cls-9" d="M143.43,68.46l-43.61,6.88-.36-1.99-7.82,1.23,.36,1.99-4.79,.75,4.85,30.77,15.49-2.44c2.95,1.52,6.37,2.17,9.89,1.61s6.58-2.22,8.92-4.58l21.92-3.46-4.85-30.77Z"/><rect class="cls-10" x="91.08" y="74.32" width="53.33" height="27.91" transform="translate(-12.31 19.41) rotate(-8.96)"/><rect class="cls-24" x="89.36" y="74.45" width="53.33" height="5.8" transform="translate(-10.63 19.01) rotate(-8.96)"/><circle cx="116.16" cy="91.14" r="13.64"/><circle class="cls-23" cx="114.2" cy="91.45" r="13.64"/><rect x="131.34" y="73" width="7.94" height="2.85" rx=".8" ry=".8" transform="translate(-9.94 21.98) rotate(-8.96)"/><path class="cls-6" d="M133.49,74.39c-.98-.76-2.16-6.14-2.16-6.14,0,0,.37,5.5-.35,6.49-.73,1-2.08,1.8-2.08,1.8,0,0,2.91,.03,3.4,1.63,.5,1.59,1.04,4.26,1.04,4.26,0,0-.2-2.72-.17-4.38,.03-1.67,2.81-2.51,2.81-2.51,0,0-1.52-.39-2.5-1.15Z"/><path class="cls-6" d="M138.28,77.3c-.63-.49-1.4-3.97-1.4-3.97,0,0,.24,3.56-.23,4.2-.47,.65-1.34,1.17-1.34,1.17,0,0,1.88,.02,2.2,1.05,.32,1.03,.67,2.76,.67,2.76,0,0-.13-1.76-.11-2.84,.02-1.08,1.82-1.63,1.82-1.63,0,0-.98-.25-1.62-.74Z"/><g class="cls-31"><circle cx="114.2" cy="91.45" r="11.2"/><rect class="cls-1" x="99.73" y="86.06" width="26.2" height="5.57" transform="translate(-30.02 103.65) rotate(-44.14)"/><rect class="cls-1" x="102.84" y="91.42" width="26.2" height="1.26" transform="translate(-31.37 106.73) rotate(-44.14)"/></g><polygon class="cls-24" points="98.94 77.11 93.49 77.97 93.23 75.66 98.68 74.8 98.94 77.11"/></g><g><path d="M79.47,26.62c-1.47-1.96-1.89-4.6-.96-6.89,.59-1.46,1.72-2.46,3.36-2.33,1.31,.11,2.43,.93,3.26,1.9,.23,.27,.48,.57,.59,.9,.22,.66-.36,1.04-.96,.91s-1.1-.66-1.53-1.06c-1.1-1.01-1.64-2.14-.8-3.55,1.31-2.19,3.72-3.86,5.99-4.9,.42-.19,.06-.82-.37-.63-2.41,1.11-5.1,2.97-6.37,5.38-.59,1.11-.57,2.29,.19,3.31,.61,.82,1.67,1.89,2.69,2.15,.89,.23,1.93-.28,1.94-1.28,.01-1.11-1.17-2.18-1.98-2.79-2.11-1.6-5.05-1.42-6.38,1.04-1.4,2.58-1.05,5.88,.69,8.2,.28,.37,.91,0,.63-.37h0Z"/><path class="cls-37" d="M78.52,25.85c-1.44-1.92-1.87-4.52-.94-6.76,.57-1.39,1.64-2.34,3.2-2.2,1.26,.11,2.34,.91,3.14,1.85,.2,.24,.46,.52,.55,.83,.16,.54-.26,.81-.75,.7-.57-.12-1.05-.64-1.45-1.02-1.05-.96-1.57-2.01-.77-3.35,1.29-2.17,3.68-3.81,5.93-4.84,.62-.28,.08-1.2-.53-.91-2.44,1.12-5.15,3.01-6.43,5.44-.61,1.16-.6,2.4,.19,3.48,.63,.86,1.73,1.95,2.79,2.23,.99,.26,2.15-.33,2.15-1.44,0-1.18-1.2-2.28-2.06-2.93-2.18-1.65-5.24-1.44-6.61,1.1-1.42,2.62-1.09,6.01,.69,8.37,.4,.54,1.32,.01,.91-.53h0Z"/></g><g><path d="M73.87,21.85c-1.25-.05-2.43-.73-3.1-1.79-.4-.64-.61-1.4-.19-2.09s1.17-.98,1.92-1.04c.28-.02,.71-.08,.95,.09,.37,.26,.11,.61-.15,.75-.18,.1-.39,.13-.58,.16-.74,.13-1.54,.19-1.94-.57-.34-.64-.39-1.46-.4-2.17-.01-.79,.09-1.56,.28-2.32,.06-.25-.32-.35-.38-.11-.22,.85-.33,1.72-.29,2.6,.03,.72,.1,1.54,.45,2.2,.31,.59,.87,.87,1.53,.86,.6,0,1.49-.09,1.88-.6,.33-.43,.19-.98-.3-1.19-.58-.24-1.4-.11-1.97,.1-.63,.23-1.18,.67-1.46,1.29s-.16,1.33,.16,1.95c.68,1.35,2.11,2.21,3.61,2.28,.25,.01,.25-.38,0-.4h0Z"/><path class="cls-38" d="M73.2,21.99c-1.22-.05-2.37-.71-3.02-1.75-.38-.61-.6-1.33-.19-1.99s1.12-.93,1.84-.99c.24-.02,.71-.09,.91,.08,.52,.45-.45,.7-.71,.74-.7,.13-1.46,.19-1.84-.53-.33-.62-.37-1.43-.39-2.12-.01-.78,.09-1.54,.28-2.3,.09-.36-.46-.52-.56-.15-.22,.86-.33,1.74-.3,2.62,.03,.74,.11,1.58,.46,2.24,.33,.62,.92,.91,1.61,.9,.63,0,1.53-.1,1.95-.62,.37-.47,.23-1.1-.32-1.34-.6-.26-1.45-.12-2.04,.09-.65,.23-1.22,.69-1.51,1.33-.31,.68-.17,1.4,.16,2.04,.7,1.38,2.16,2.26,3.68,2.32,.37,.02,.37-.56,0-.58h0Z"/></g><g class="cls-29"><path class="cls-3" d="M42.95,79.16c-.42,0-.85,0-1.3-.01-.16,0-.33,0-.44,0-2.06-.06-4.11-.24-6.25-.54-.99-.11-1.98-.26-2.9-.44h-.15l-.42-.12c-.34-.08-.66-.15-.95-.23l-2.24-.62,.04-.6c-.86-1.07-1.85-3.21-3.77-7.41-1.46-3.2-3.38-7.61-4.01-9.52-1.57-4.84,5.71-17.69,5.79-17.82l.19-.31,2.13-2.01c2.42-3.68,8.86-10.59,17.47-12.52,1.24-.28,2.33-.58,3.38-.87,2.28-.62,4.24-1.16,6.58-1.16,4.67,0,9.92,2.32,19.09,8.49,4.17-1.3,7.83-1.96,10.89-1.96,2,0,3.79,.28,5.33,.84,4.03,1.47,6.75,3.78,8.09,6.87,1.39,3.23,.89,6.73-.06,8.96-1.71,4.92-6.67,10.23-15.15,16.2l-.16,.12c-.67,.49-1.51,1.06-2.5,1.69-4.44,2.9-9.16,5.37-13.99,7.32-2.59,1.1-4.93,1.93-6.94,2.46l-2.52,.79-.62,.17c-2.14,.82-6.35,2.15-11.32,2.21-.48,0-1.76,0-1.76,0-.49,.02-.99,.02-1.52,.02Z"/><path class="cls-1" d="M90.45,34.99c-3.98-1.45-9.85-.38-15.69,1.58-17.57-12.01-18.8-8.88-27.98-6.82-8.23,1.84-14.13,8.75-15.9,11.59h0l-2.11,1.99c-1.52,2.44-6.4,12.67-5.5,15.44,1.1,3.37,7.35,17.04,7.33,15.94l.71,.25v.1c.27,.08,.59,.15,.93,.23h.02c.86,.19,1.9,.36,3.12,.5,2.23,.32,4.2,.47,5.95,.52,.09,0,.23,0,.4,0,.96,.02,1.86,.02,2.71,0,.51,0,1.09,0,1.77,0,4.73-.06,8.76-1.41,10.46-2.07,.46-.13,.74-.21,.74-.21l-.05-.08c.11-.05,.18-.08,.18-.08h0c.53-.14,1.06-.29,1.6-.44,.03,0,.06-.02,.1-.02,2.16-.5,4.72-1.41,7.36-2.53,4.38-1.76,8.93-4.07,13.53-7.08,.9-.57,1.69-1.11,2.34-1.58h0c8.89-6.25,13.06-11.23,14.35-15.09h0c.82-1.9,2.63-8.85-6.36-12.12Z"/><g><path class="cls-15" d="M36.23,65.37s-6.67-21.25-5.83-23.19,7.16-10.36,16.37-12.42c9.21-2.06,10.42-5.21,28.11,6.91-8.84,6.91-38.65,28.71-38.65,28.71Z"/><path class="cls-20" d="M29.59,43.44c-.11-.38-.62-.45-.83-.11-1.52,2.44-6.4,12.67-5.5,15.44,1.1,3.37,7.35,17.04,7.33,15.94-.03-1.65,1.79-6.52,3.11-7.56,2.12-1.68,1.68-2.79,1.68-2.79l-2.26-7.39c-.61-1.77-1.11-3.57-1.49-5.4l-2.05-8.13Z"/><path d="M35.87,64.2s14.6-15.31,20.77-19.13c6.18-3.82,24.8-13.36,33.8-10.09,9,3.27,7.19,10.23,6.36,12.12-.82,1.89-60.58,18.26-60.58,18.26l-.36-1.17Z"/><path class="cls-15" d="M35.66,65.88s28.17-33.44,54.33-28.98c7.54,2.18,14.54,9.99-8,25.62-22.53,15.63-44.43,14.26-50.7,12.54,.45-5,1.82-6.36,4.36-9.18Z"/><path d="M31.3,75.06s.23-3.45,.91-4.36c4.4-5.89,20.05-14.28,33.16-15.74,11.81-1.32,18.72,1.02,17.08,7.24-4.55,3.35-16.05,9.54-23.23,11.19-5.45,1.26-9.26,3.16-17.9,2.91-2.75-.08-6.03-.39-10.02-1.24Z"/><path class="cls-1" d="M41.32,76.3l.73-7.42,10.56-3.09,4.79,8.22s-6.36,1.83-9.49,2.05-5.89,.26-6.58,.24Z"/><path class="cls-26" d="M41.19,75.92l.38-2.15s11.53-1.23,14.3-2.38c.82,1.41,1.66,2.47,1.66,2.47,0,0-5.04,2.36-11.33,2.43s-5.01-.37-5.01-.37Z"/><path class="cls-19" d="M53.63,42.78l-.65-7.58,5.29-2.55c.31-.15,.61-.21,.88-.16,.27,.04,.51,.14,.73,.28,.21,.15,.4,.32,.56,.53,.16,.21,.28,.4,.37,.58,.17,.35,.24,.72,.21,1.11s-.13,.75-.3,1.1c-.16,.35-.38,.66-.64,.94-.26,.28-.54,.49-.84,.63l-2.69,1.3,.19,2.35-3.09,1.49Zm2.91-1.6l-.21-2.34,2.82-1.36c.28-.14,.55-.33,.8-.59,.25-.26,.46-.55,.61-.88,.16-.32,.25-.66,.28-1.02,.03-.36-.04-.71-.2-1.04-.08-.17-.2-.35-.34-.54s-.32-.35-.51-.48c-.19-.13-.42-.22-.66-.26-.25-.04-.51,0-.78,.14l-5.18,2.5,.62,7.21,2.75-1.33Zm-2.44,.81l-.56-6.49,4.95-2.39c.22-.1,.42-.14,.61-.09,.19,.04,.36,.12,.52,.24,.16,.12,.3,.25,.41,.41,.12,.16,.21,.3,.27,.44,.14,.29,.2,.59,.17,.9-.03,.31-.11,.61-.25,.89-.14,.28-.32,.53-.54,.76-.22,.22-.45,.4-.7,.52l-3.03,1.46,.21,2.35-2.08,1Zm1.65-5.81l.31,.7,.47-.23,1.73-.83s.02-.03,.02-.07c0-.04,.02-.09,.03-.15,.01-.06,.02-.11,.03-.16,0-.05,0-.09,0-.1v-.06s-.03-.02-.05-.04c-.04-.03-.09-.06-.17-.09s-.13-.04-.14-.03l-2.22,1.07Z"/></g></g><g class="cls-32"><path class="cls-3" d="M115.05,60.73c-2.44-.29-4.18-2.51-3.88-4.94l.57-4.77-.46-32.33c-.02-1.15,.99-2.06,2.13-1.92l27.12,3.26c1.15,.14,1.91,1.25,1.62,2.37l-8.12,31.3-.57,4.77c-.29,2.44-2.51,4.17-4.94,3.88l-13.47-1.62Z"/><path class="cls-1" d="M128.67,21.45l-4.06-.49-10.48-1.26,.45,31.43h0l-.13,1.1-.47,3.89c-.11,.88,.52,1.68,1.41,1.79l13.46,1.62c.88,.11,1.68-.52,1.79-1.41l.47-3.89,.13-1.1h0l7.89-30.42-10.48-1.26Z"/><g><polygon class="cls-16" points="131.09 53.15 138.98 22.73 128.5 21.47 124.45 20.98 113.97 19.72 114.42 51.15 131.09 53.15"/><path class="cls-27" d="M113.9,53.23h16.78v3.92c0,.89-.72,1.61-1.61,1.61h-13.56c-.89,0-1.61-.72-1.61-1.61v-3.92h0Z" transform="translate(7.57 -14.21) rotate(6.86)"/><rect class="cls-2" x="114.3" y="52.15" width="16.78" height="1.11" transform="translate(7.18 -14.28) rotate(6.86)"/><polygon points="128.5 21.47 122.01 52.06 131.08 53.15 138.98 22.73 128.5 21.47"/><text class="cls-14" transform="translate(131.84 45.7) rotate(-75.44)"><tspan x="0" y="0">WASH</tspan></text><polygon class="cls-1" points="131.29 21.93 124.49 52.24 122.02 51.95 128.49 21.59 131.29 21.93"/><line class="cls-28" x1="126.66" y1="21.25" x2="118.75" y2="51.67"/><line class="cls-28" x1="121.71" y1="20.58" x2="120.84" y2="52"/></g></g><g class="cls-40"><path class="cls-8" d="M51.68,104.08c-.74-.09-1.38-.46-1.82-.99l-2.01-.24c-1.52-.18-2.61-1.57-2.42-3.09l2.56-21.23c.18-1.53,1.58-2.62,3.1-2.44l11.4,1.37c1.17,.14,2.08,.99,2.37,2.07l3.35,.4,.21,.07c.38,.12,2.32,.88,2.86,3.8,.27,1.14,2.94,4.51,4.41,4.69l12.24,1.47c2.62,.31,4.49,2.7,4.17,5.32l-1,8.31c-.23,1.88-1.95,3.23-3.83,3.01l-25.75-3.1c-.58,.54-1.39,.84-2.23,.74l-2.01-.24c-.56,.41-1.26,.62-2,.53l-3.59-.43Z"/><path class="cls-1" d="M87.64,92.29l-12.24-1.47c-2.84-.34-6.12-4.89-6.43-6.58-.32-1.69-1.27-1.99-1.27-1.99l-4.14-.5-1.12-.13v.09c0-.08,0-.15-.02-.23h.03l.14-1.18c.03-.25-.15-.47-.39-.5l-11.4-1.37c-.25-.03-.47,.15-.5,.39l-.14,1.18h.03c-.03,.07-.05,.14-.06,.22l-2.24,18.63-.07,.55-.08,.65c-.03,.24,.14,.45,.38,.48l3.44,.41-.03,.29c-.03,.26,.15,.5,.41,.53l3.59,.43c.26,.03,.5-.15,.53-.41l.03-.29,3.44,.41c.24,.03,.45-.14,.48-.38l.07-.56,13.87,1.67,13.57,1.63c.6,.07,1.15-.36,1.23-.96l1-8.31c.16-1.34-.79-2.55-2.13-2.71Z"/><g><g><rect class="cls-1" x="48.94" y="80.08" width="12.37" height="20.93" rx="1.47" ry="1.47" transform="translate(11.22 -5.94) rotate(6.86)"/><path d="M47.76,99.58h12.37v.85c0,.43-.35,.79-.79,.79h-10.8c-.43,0-.79-.35-.79-.79v-.85h0Z" transform="translate(12.39 -5.73) rotate(6.86)"/><path d="M51.04,79.11h10.75c.45,0,.81,.36,.81,.81v.83h-12.37v-.83c0-.45,.36-.81,.81-.81Z" transform="translate(9.96 -6.17) rotate(6.86)"/></g><rect x="51.56" y="100.54" width="4.57" height="1.44" rx=".72" ry=".72" transform="translate(12.49 -5.71) rotate(6.86)"/><path d="M87.64,92.29l-12.24-1.47c-2.84-.34-6.12-4.89-6.43-6.58-.32-1.69-1.27-1.99-1.27-1.99l-4.14-.5-1.12-.13-2.33,19.36,13.87,1.67,13.57,1.63c.6,.07,1.15-.36,1.23-.96l1-8.31c.16-1.34-.79-2.55-2.13-2.71Zm-24.7,7.48c-.03,.25-.26,.43-.51,.4l-.44-.05c-.25-.03-.43-.26-.4-.51l.1-.86c.03-.25,.26-.43,.51-.4l.44,.05c.25,.03,.43,.26,.4,.51l-.1,.86Zm1.9-15.78c-.03,.25-.26,.43-.51,.4l-.44-.05c-.25-.03-.43-.26-.4-.51l.1-.86c.03-.25,.26-.43,.51-.4l.44,.05c.25,.03,.43,.26,.4,.51l-.1,.86Zm1.29-.71c.03-.25,.26-.43,.51-.4l.44,.05c.25,.03,.43,.26,.4,.51l-.1,.86c-.03,.25-.26,.43-.51,.4l-.44-.05c-.25-.03-.43-.26-.4-.51l.1-.86Zm-.55,16.8c-.03,.25-.26,.43-.51,.4l-.44-.05c-.25-.03-.43-.26-.4-.51l.1-.86c.03-.25,.26-.43,.51-.4l.44,.05c.25,.03,.43,.26,.4,.51l-.1,.86Zm2.63,.32c-.03,.25-.26,.43-.51,.4l-.44-.05c-.25-.03-.43-.26-.4-.51l.1-.86c.03-.25,.26-.43,.51-.4l.44,.05c.25,.03,.43,.26,.4,.51l-.1,.86Zm2.63,.32c-.03,.25-.26,.43-.51,.4l-.44-.05c-.25-.03-.43-.26-.4-.51l.1-.86c.03-.25,.26-.43,.51-.4l.44,.05c.25,.03,.43,.26,.4,.51l-.1,.86Zm2.63,.32c-.03,.25-.26,.43-.51,.4l-.44-.05c-.25-.03-.43-.26-.4-.51l.1-.86c.03-.25,.26-.43,.51-.4l.44,.05c.25,.03,.43,.26,.4,.51l-.1,.86Zm2.63,.32c-.03,.25-.26,.43-.51,.4l-.44-.05c-.25-.03-.43-.26-.4-.51l.1-.86c.03-.25,.26-.43,.51-.4l.44,.05c.25,.03,.43,.26,.4,.51l-.1,.86Zm2.63,.32c-.03,.25-.26,.43-.51,.4l-.44-.05c-.25-.03-.43-.26-.4-.51l.1-.86c.03-.25,.26-.43,.51-.4l.44,.05c.25,.03,.43,.26,.4,.51l-.1,.86Zm2.63,.32c-.03,.25-.26,.43-.51,.4l-.44-.05c-.25-.03-.43-.26-.4-.51l.1-.86c.03-.25,.26-.43,.51-.4l.44,.05c.25,.03,.43,.26,.4,.51l-.1,.86Zm2.63,.32c-.03,.25-.26,.43-.51,.4l-.44-.05c-.25-.03-.43-.26-.4-.51l.1-.86c.03-.25,.26-.43,.51-.4l.44,.05c.25,.03,.43,.26,.4,.51l-.1,.86Zm2.63,.32c-.03,.25-.26,.43-.51,.4l-.44-.05c-.25-.03-.43-.26-.4-.51l.1-.86c.03-.25,.26-.43,.51-.4l.44,.05c.25,.03,.43,.26,.4,.51l-.1,.86Z"/><rect class="cls-12" x="49.07" y="80.34" width="6.68" height="18.98" transform="translate(11.11 -5.62) rotate(6.86)"/><g><path class="cls-1" d="M81.99,97.19s-.05,.09-.1,.14c-.04,.06-.09,.12-.14,.17-.05,.06-.1,.11-.14,.15s-.08,.06-.09,.06l-1.04-.13-.27,.64,.08-.38,1.06,.13-.55,.51-.67-.08-.34,.79-.64-.08,.92-2.15,1.92,.23Z"/><path class="cls-1" d="M82.17,97.21l.65,.08-.92,2.15-.65-.08,.92-2.15Z"/><path class="cls-1" d="M82.09,99.47l.92-2.15,.64,.08-.69,1.6,1.07,.13s-.01,.02-.05,.07c-.04,.04-.08,.1-.13,.15-.05,.06-.1,.12-.16,.17s-.1,.1-.13,.13l-1.48-.18Z"/><path class="cls-1" d="M85.96,99.93l.51-1.21-1.06,1.14-.24-.03-.03-1.28-.51,1.21-.65-.08,.92-2.15,.81,.1,.04,1.14,.96-1.02,.82,.1-.92,2.15-.64-.08Z"/></g><g><g><path d="M55.97,98.9l.1-.84s.02-.07,.05-.09c.03-.02,.06-.04,.09-.05,.04-.01,.07-.02,.11-.02,.04,0,.07,0,.11,0,.06,0,.12,.03,.17,.06,.05,.03,.09,.07,.13,.11,.03,.04,.06,.09,.08,.14,.02,.05,.02,.09,.02,.14l-.06,.52,.43,.18-.04,.35-1.18-.5Zm.68-.08l-.2,.03,.06-.53h0l-.02-.03-.02-.02s-.01,0-.02,0h-.02s-.02,0-.03,.01-.02,.01-.02,.02l-.05,.38,.34,.14Z"/><path d="M57.4,97.33h-.26s.03,.02,.05,.04c.02,.02,.05,.04,.08,.06s.05,.04,.07,.07c.02,.02,.04,.04,.04,.05l-.09,.78h-.02l-.98-.8s-.02-.01-.03-.03-.03-.03-.04-.04c-.01-.01-.02-.03-.03-.04,0-.01-.01-.03-.01-.04l.04-.31s.01-.02,.03-.03c.02,0,.04-.01,.07-.02s.05,0,.08-.01c.03,0,.05,0,.07,0h1l-.04,.33Zm-.36,.37l.04-.37h-.55l.48,.37h.02Z"/><path d="M56.88,96.88c-.07,0-.15-.03-.22-.07-.07-.03-.14-.08-.2-.13-.06-.05-.1-.11-.14-.17s-.05-.13-.04-.19l.09-.76c.05,.04,.1,.08,.15,.13,.05,.04,.09,.09,.13,.14l-.06,.48s0,.03,.01,.05c.01,.02,.03,.04,.05,.06,.02,.02,.04,.04,.07,.05,.03,.02,.05,.03,.08,.04l.05,.02s.03,0,.04,0c.03,0,.06,0,.1,0,.03,0,.07-.02,.1-.04s.06-.03,.08-.05c.02-.02,.03-.04,.04-.06l.05-.44s.1,.07,.15,.12,.1,.09,.14,.14l-.02,.15c0,.08-.03,.15-.05,.22-.03,.07-.06,.13-.11,.18-.05,.05-.11,.09-.19,.12-.08,.03-.17,.03-.28,.02h0Z"/><path d="M56.38,95.47l.04-.35,.53,.22-.47-.67,.05-.39,.53,.71,.65-.28-.05,.4-.59,.29,.53,.23-.04,.35-1.18-.5Z"/><path d="M57.84,93.6l-.66-.28,.63,.58-.02,.13-.7,.02,.66,.28-.04,.35-1.18-.5,.05-.44,.62-.02-.56-.52,.05-.45,1.18,.5-.04,.35Z"/><path d="M58.02,92.17h-.26s.03,.02,.05,.04c.02,.02,.05,.04,.08,.06s.05,.04,.07,.07c.02,.02,.04,.04,.04,.05l-.09,.78h-.02l-.98-.8s-.02-.01-.03-.03-.03-.03-.04-.04c-.01-.01-.02-.03-.03-.04,0-.01-.01-.03-.01-.04l.04-.31s.01-.02,.03-.03c.02,0,.04-.01,.07-.02s.05,0,.08-.01c.03,0,.05,0,.07,0h1l-.04,.33Zm-.36,.37l.04-.37h-.55l.48,.37h.02Z"/><path d="M56.89,91.26l.05-.44,.7-.02-.66-.28,.04-.35,1.18,.5-.05,.45-.7,.02,.66,.28-.04,.35-1.18-.5Z"/></g><g><path d="M57.94,98.07s.05,.03,.08,.05,.06,.05,.09,.08c.03,.03,.06,.05,.08,.08,.02,.02,.03,.04,.03,.05l-.07,.57,.35,.15-.22,.07,.08-.69,.28,.3-.04,.37,.43,.19-.04,.35-1.18-.5,.13-1.05Z"/><path d="M58.88,97.1c.08,.05,.14,.1,.19,.16,.05,.06,.1,.13,.12,.2,.03,.07,.04,.15,.03,.22l-.03,.22c0,.07-.02,.13-.04,.18-.02,.06-.05,.1-.09,.14s-.09,.07-.15,.08c-.06,.02-.13,.02-.22,.01-.02,0-.04,0-.06,0-.02,0-.04,0-.06-.01-.08-.02-.16-.05-.23-.1-.07-.04-.14-.1-.2-.16-.06-.06-.1-.12-.13-.19s-.04-.14-.03-.2l.03-.27c.02-.14,.06-.25,.14-.32,.08-.07,.19-.1,.34-.08,.02,0,.04,0,.06,.01,.02,0,.04,0,.07,.02,.08,.02,.16,.05,.24,.1Zm-.27,.85h.01s.06,0,.09,0c.03,0,.06-.01,.09-.03,.03-.01,.05-.03,.07-.04,.02-.02,.03-.04,.03-.06l.02-.15s0-.03-.01-.05c-.01-.02-.02-.05-.04-.08-.02-.03-.04-.05-.06-.08-.02-.03-.05-.05-.07-.06l-.03-.02s-.02,0-.02,0h-.04v-.02h-.08s-.05-.02-.07-.02c-.02,0-.05,0-.07,.01s-.04,.02-.05,.04-.02,.04-.03,.07l-.02,.18s0,.04,.01,.06c.01,.02,.02,.05,.04,.07,.02,.03,.04,.05,.06,.07,.02,.02,.05,.04,.07,.05,.02,0,.03,.02,.05,.02,.02,0,.03,.01,.04,.01,0,0,0,0,.02,0Z"/><path d="M58.11,96.67l.1-.82s.02-.08,.05-.1,.06-.04,.09-.05,.08-.01,.12-.01c.04,0,.08,0,.12,0,.08,0,.14,.03,.19,.07,.05,.04,.08,.08,.11,.13,.02,.05,.04,.1,.05,.16,0,.06,0,.11,0,.16l.51-.31-.05,.4-.48,.32,.02,.02,.4,.17-.04,.35-1.18-.5Zm.43-.62s-.02,0-.03,0c0,0-.01,.01-.02,.03l-.04,.37,.35,.15h-.21l.06-.48s0-.03-.03-.04c-.02-.01-.04-.02-.05-.02h-.03Z"/><path d="M58.39,94.34s.05,.03,.08,.05,.06,.05,.09,.08c.03,.03,.06,.05,.08,.08,.02,.02,.03,.04,.03,.05l-.07,.57,.35,.15-.23,.09,.09-.71,.28,.3-.04,.37,.13,.06,.08-.71h.02l.03,.03,.03,.02h.01s.04,.04,.06,.06c.02,.02,.04,.04,.06,.06s.04,.04,.05,.05c.01,.02,.02,.02,.02,.03l-.11,.93-1.18-.5,.13-1.05Z"/><path d="M58.51,93.34l.05-.38,1,.78s.02,.02,.03,.03c.01,.01,.03,.03,.04,.04,.01,.01,.03,.03,.04,.04,0,.01,.01,.03,.01,.04l-.04,.3s-.01,.02-.03,.03c-.02,0-.04,.01-.06,.02-.03,0-.05,0-.08,0-.03,0-.05,0-.07,0h-1l.04-.33h.83l-.76-.6Z"/><path d="M58.69,91.82s.05,.03,.08,.05,.06,.05,.09,.08c.03,.03,.06,.05,.08,.08,.02,.02,.03,.04,.03,.05l-.07,.57,.35,.15h-.21l.08-.63,.28,.3-.04,.37,.13,.06,.08-.71h.02l.03,.03,.03,.02h.01s.04,.04,.06,.06c.02,.02,.04,.04,.06,.06s.04,.04,.05,.05c.01,.02,.02,.02,.02,.03l-.11,.93-1.18-.5,.13-1.05Z"/><path d="M58.71,91.72l.1-.82s.02-.08,.05-.1,.06-.04,.09-.05,.08-.01,.12-.01c.04,0,.08,0,.12,0,.08,0,.14,.03,.19,.07,.05,.04,.08,.08,.11,.13,.02,.05,.04,.1,.05,.16,0,.06,0,.11,0,.16l.51-.31-.05,.4-.48,.32,.02,.02,.4,.17-.04,.35-1.18-.5Zm.43-.62s-.02,0-.03,0c0,0-.01,.01-.02,.03l-.04,.37,.35,.15-.22,.11,.07-.59s0-.03-.03-.04c-.02-.01-.04-.02-.05-.02h-.03Z"/></g></g><polygon points="53.55 80.41 48.74 98.95 50.74 99.19 55.61 80.66 53.55 80.41"/><line class="cls-21" x1="56.31" y1="80.74" x2="51.77" y2="99.31"/></g></g><g><polygon points="154.13 39.36 151.36 36.64 148.42 39.17 146.9 35.59 143.21 36.8 143.18 32.92 139.31 32.62 140.77 29.02 137.31 27.26 140.02 24.49 137.5 21.55 141.07 20.03 139.87 16.34 143.75 16.31 144.05 12.44 147.64 13.9 149.4 10.44 152.17 13.16 155.12 10.63 156.63 14.2 160.32 13 160.36 16.88 164.23 17.18 162.77 20.78 166.23 22.53 163.51 25.3 166.04 28.25 162.46 29.76 163.67 33.45 159.79 33.49 159.49 37.36 155.89 35.9 154.13 39.36"/><g><polygon points="153.96 38.28 151.39 35.77 148.67 38.1 147.27 34.79 143.85 35.91 143.82 32.32 140.24 32.04 141.59 28.71 138.39 27.09 140.9 24.52 138.56 21.8 141.87 20.4 140.76 16.98 144.35 16.95 144.62 13.37 147.95 14.72 149.58 11.52 152.14 14.03 154.87 11.69 156.27 15 159.69 13.89 159.72 17.48 163.3 17.75 161.95 21.08 165.15 22.71 162.63 25.27 164.97 28 161.66 29.4 162.78 32.82 159.19 32.85 158.91 36.43 155.58 35.08 153.96 38.28"/><polygon class="cls-18" points="153.96 38.28 151.39 35.77 148.67 38.1 147.27 34.79 143.85 35.91 143.82 32.32 140.24 32.04 141.59 28.71 138.39 27.09 140.9 24.52 138.56 21.8 141.87 20.4 140.76 16.98 144.35 16.95 144.62 13.37 147.95 14.72 149.58 11.52 152.14 14.03 154.87 11.69 156.27 15 159.69 13.89 159.72 17.48 163.3 17.75 161.95 21.08 165.15 22.71 162.63 25.27 164.97 28 161.66 29.4 162.78 32.82 159.19 32.85 158.91 36.43 155.58 35.08 153.96 38.28"/></g><g><polygon points="146.47 22.29 146.47 22.36 146.5 22.36 146.49 22.28 146.47 22.29"/><polygon points="146.52 22.3 146.51 22.32 146.53 22.34 146.54 22.32 146.52 22.3"/><polygon points="145.51 21.99 145.4 21.95 145.32 22.04 145.48 22.09 145.51 21.99"/></g></g><text class="cls-33" transform="translate(143.74 25.38) rotate(18.83)"><tspan x="0" y="0">MT</tspan></text><path d="M196.31,95.29l-16.43,11.78c-.16,.11-.13,.45,.11,.42l19.84-2.09c.23-.02,.29-.28,.11-.42l-10.29-7.84c-.17-.13-.36,.09-.33,.25,.48,2.67,1.05,5.32,1.71,7.96,.32,1.29,.67,2.56,1.03,3.84,.18,.62,.29,1.48,1.07,1.5,.1,0,.19-.07,.22-.17,1.7-5.36,3.36-10.74,4.97-16.13,.08-.28-.35-.4-.43-.12-1.44,4.83-2.92,9.65-4.43,14.45-.08,.25-.16,.5-.24,.75-.11,.34-.14,.79-.5,.33-.3-.37-.39-1.35-.52-1.82-.32-1.16-.62-2.32-.91-3.48-.58-2.39-1.09-4.8-1.53-7.22l-.33,.25,10.29,7.84,.11-.42-19.84,2.09,.11,.42,16.43-11.78c.23-.17,0-.56-.23-.39h0Z"/><path d="M199.78,86.6c-2.63-.47-5.3-.42-7.93-.89-.2-.04-.41,.22-.22,.38,2.04,1.72,3.49,3.98,5.53,5.7,.13,.11,.41,.05,.38-.16l-.81-6.72c-.03-.22-.28-.3-.42-.11-.82,1.14-1.6,2.31-2.34,3.5-.35,.57-.7,1.15-1.04,1.73-.19,.33-.58,.83-.21,1.17,.08,.07,.18,.08,.27,.04,2.64-1.32,5.26-2.65,7.87-4.01,.26-.13,.03-.52-.23-.39-2.61,1.36-5.24,2.7-7.87,4.01l.27,.04c-.14-.13,.69-1.34,.79-1.5,.3-.51,.61-1.01,.93-1.5,.62-.97,1.26-1.92,1.93-2.86l-.42-.11,.81,6.72,.38-.16c-2.04-1.72-3.49-3.98-5.53-5.7l-.22,.38c2.63,.47,5.3,.42,7.93,.89,.28,.05,.4-.38,.12-.43h0Z"/></svg>