<svg width="25" height="25" viewBox="0 0 25 25" fill="none" xmlns="http://www.w3.org/2000/svg">
<path fill-rule="evenodd" clip-rule="evenodd" d="M18.1567 11.6667H13.6886V7.19857C13.6886 6.99543 13.6079 6.80061 13.4642 6.65696C13.3206 6.51332 13.1258 6.43262 12.9226 6.43262C12.7195 6.43262 12.5246 6.51332 12.381 6.65696C12.2373 6.80061 12.1567 6.99543 12.1567 7.19857V11.6667H7.68856C7.48542 11.6667 7.2906 11.7474 7.14695 11.891C7.00331 12.0346 6.92261 12.2295 6.92261 12.4326C6.92261 12.6358 7.00331 12.8306 7.14695 12.9742C7.2906 13.1179 7.48542 13.1986 7.68856 13.1986H12.1567V17.6667C12.1567 17.8698 12.2373 18.0646 12.381 18.2083C12.5246 18.3519 12.7195 18.4326 12.9226 18.4326C13.1258 18.4326 13.3206 18.3519 13.4642 18.2083C13.6079 18.0646 13.6886 17.8698 13.6886 17.6667V13.1986H18.1567C18.3598 13.1986 18.5546 13.1179 18.6983 12.9742C18.8419 12.8306 18.9226 12.6358 18.9226 12.4326C18.9226 12.2295 18.8419 12.0346 18.6983 11.891C18.5546 11.7474 18.3598 11.6667 18.1567 11.6667Z" fill="#808080"/>
</svg>
