<svg width="113" height="25" viewBox="0 0 113 25" fill="none" xmlns="http://www.w3.org/2000/svg">
<path d="M34.0979 14.4072L33.155 18.3345H30.7087C29.1087 18.3097 28.573 17.4031 29.1016 15.6112C29.2802 14.9561 29.6551 14.4037 30.2301 13.9504C30.8194 13.4511 31.6015 13.1925 32.5693 13.1748H34.3728L34.08 14.4107H34.0907L34.0979 14.4072ZM32.2122 9.96289C29.4016 10.1329 27.3767 11.3759 26.1338 13.6919C25.2089 15.7246 25.0696 17.5341 25.716 19.1313C26.0088 19.8714 26.4481 20.4557 27.0267 20.8842C27.6052 21.3162 28.4552 21.5641 29.5837 21.6349L36.1156 21.681L38.9691 9.96289H32.2158H32.2122Z" fill="#FF307B"/>
<path d="M43.3501 18.3346C41.7502 18.3098 41.2145 17.4032 41.743 15.6114C41.9216 14.9562 42.2966 14.4038 42.8715 13.9505C43.4465 13.4653 44.1965 13.2068 45.1286 13.175H50.8213L51.6034 9.96655H44.8501C42.0394 10.1365 40.0145 11.3795 38.7717 13.6955C37.8503 15.7282 37.7074 17.5378 38.3538 19.1349C38.6467 19.8751 39.086 20.4594 39.6645 20.8879C40.2431 21.3199 41.093 21.5678 42.2216 21.6386L48.7535 21.6846L49.5677 18.3346H43.3501Z" fill="#FF307B"/>
<path d="M63.1635 9.90258H58.9958L55.4566 13.8405L57.4923 6.09216H53.6745L49.7854 21.6809H53.6031L54.7709 16.369L56.7959 21.6809H60.2636L57.9494 15.6997L63.1635 9.90258Z" fill="#FF307B"/>
<path d="M78.7387 11.1388C78.1244 10.3385 77.2923 9.93835 76.2352 9.93835H74.9174L74.9067 9.94898C74.9067 9.94898 73.5425 9.91002 72.5175 11.1459C71.9389 10.3421 71.1068 9.93835 70.0176 9.93835H67.3963V9.94898H63.9249L61.05 21.6777H64.8785L66.9498 13.168H68.6034C68.8141 13.168 68.9819 13.2459 69.1033 13.3982C69.2212 13.5434 69.2605 13.7169 69.2319 13.9188L67.2748 21.6777H71.0926L73.0603 13.9188C73.1211 13.6638 73.1568 13.4159 73.1639 13.168H74.8281C75.0388 13.168 75.2067 13.2459 75.3281 13.3982C75.446 13.5434 75.4852 13.7169 75.4567 13.9188L73.4996 21.6777H77.3173L79.2851 13.9188C79.5173 12.8564 79.3315 11.9286 78.7244 11.1353L78.7387 11.1388Z" fill="#FF307B"/>
<path d="M87.9698 14.4072L87.027 18.3345H84.5807C82.9807 18.3097 82.445 17.4031 82.9736 15.6112C83.1522 14.9561 83.5271 14.4037 84.1021 13.9504C84.6914 13.4511 85.4735 13.1925 86.4413 13.1748H88.2448L87.952 14.4107H87.9627L87.9698 14.4072ZM86.0842 9.96289C83.2736 10.1329 81.2486 11.3759 80.0058 13.6919C79.0844 15.7246 78.9416 17.5341 79.588 19.1313C79.8808 19.8714 80.3201 20.4557 80.8987 20.8842C81.4772 21.3162 82.3272 21.5641 83.4557 21.6349L89.9876 21.681L92.8411 9.96289H86.0878H86.0842Z" fill="#FF307B"/>
<path d="M103.616 11.1388C103.009 10.3385 102.187 9.93835 101.148 9.93835H98.5269V9.94898H93.8592L90.97 21.6777H94.7877L96.884 13.168H99.7268C99.9447 13.168 100.113 13.2459 100.227 13.3982C100.338 13.5434 100.377 13.7169 100.355 13.9188L98.3876 21.6777H102.205L104.173 13.9188C104.412 12.8564 104.227 11.9286 103.612 11.1353L103.616 11.1388Z" fill="#FF307B"/>
<path d="M12.498 3.39472C12.498 3.39472 12.5223 3.41532 12.5188 3.42906L11.1485 8.8787C11.1485 8.8787 11.1278 8.90276 11.1139 8.89933L10.0605 8.63889L11.1819 4.17885C11.3271 3.60159 11.9159 3.25079 12.498 3.39472Z" fill="#06C167"/>
<path d="M26.1509 9.84625C26.1509 7.0628 23.876 4.80701 21.069 4.80701H13.0121C13.0157 7.57983 9.62652 10.0304 12.38 10.0304L20.969 9.84625C21.3868 9.84625 21.7261 10.1827 21.7261 10.597C21.7261 11.0113 21.3868 11.3478 20.969 11.3478L12.3336 11.3761L9.70508 21.6812H14.637L15.9942 16.3587H20.3547C23.5367 16.3587 26.1509 14.0108 26.1509 9.84979V9.84625Z" fill="#FF307B"/>
<path d="M11.9014 10.0297L21.1583 9.84906C21.9511 9.87739 24.6653 10.1501 25.3795 13.3266C25.8652 12.374 26.1438 11.2089 26.1438 9.84906C26.1438 7.06561 23.8689 4.80981 21.0618 4.80981H12.1728C11.9336 5.75888 11.4086 7.87302 11.4086 7.87302C9.16225 8.05009 9.96222 10.0332 11.9014 10.0332V10.0297Z" fill="#121212"/>
</svg>
