<svg width="25" height="25" viewBox="0 0 25 25" fill="none" xmlns="http://www.w3.org/2000/svg">
<path fill-rule="evenodd" clip-rule="evenodd" d="M17.1606 7.33786C17.1607 7.98068 17.0341 8.61722 16.7882 9.21113C16.5423 9.80505 16.1817 10.3447 15.7273 10.7993C15.2728 11.2539 14.7332 11.6145 14.1393 11.8606C13.5454 12.1066 12.9089 12.2333 12.2661 12.2334C10.9679 12.2335 9.72276 11.7179 8.80468 10.8C7.88659 9.8821 7.37074 8.63709 7.37061 7.33886C7.37054 6.69604 7.49709 6.0595 7.74303 5.46559C7.98896 4.87167 8.34947 4.33201 8.80397 3.87743C9.72186 2.95934 10.9669 2.44349 12.2651 2.44336C13.5633 2.44323 14.8085 2.95882 15.7265 3.87672C16.6446 4.79461 17.1605 6.03962 17.1606 7.33786ZM12.2656 13.7309C5.21661 13.7309 2.47461 18.2169 2.47461 20.3039C2.47461 22.3899 8.31161 22.9459 12.2656 22.9459C16.2196 22.9459 22.0566 22.3899 22.0566 20.3039C22.0566 18.2169 19.3146 13.7309 12.2656 13.7309Z" fill="#121212"/>
</svg>
