<?xml version="1.0" encoding="UTF-8"?><svg id="Layer_1" xmlns="http://www.w3.org/2000/svg" xmlns:xlink="http://www.w3.org/1999/xlink" viewBox="0 0 221.1 124.16"><defs><style>.cls-1,.cls-2,.cls-3,.cls-4,.cls-5,.cls-6,.cls-7{fill:#fff;}.cls-8{fill:#69e6ed;}.cls-9{fill:#fa8cd5;}.cls-10{stroke-width:.22px;}.cls-10,.cls-11,.cls-2,.cls-12,.cls-3,.cls-13,.cls-4,.cls-5,.cls-14,.cls-15,.cls-16,.cls-6,.cls-7,.cls-17,.cls-18,.cls-19,.cls-20,.cls-21,.cls-22,.cls-23{stroke-miterlimit:10;}.cls-10,.cls-11,.cls-2,.cls-3,.cls-13,.cls-4,.cls-5,.cls-14,.cls-15,.cls-16,.cls-6,.cls-7,.cls-17,.cls-18,.cls-19,.cls-21,.cls-22,.cls-23{stroke:#000;}.cls-10,.cls-11,.cls-14,.cls-19,.cls-21{fill:#ff307b;}.cls-11{stroke-width:.42px;}.cls-2{stroke-width:.17px;}.cls-12{stroke:#e6e6e6;stroke-width:.5px;}.cls-12,.cls-16,.cls-24,.cls-17,.cls-20{fill:none;}.cls-3{stroke-width:.1px;}.cls-25{filter:url(#drop-shadow-55);}.cls-13{stroke-width:.15px;}.cls-26{filter:url(#drop-shadow-56);}.cls-4{stroke-width:.25px;}.cls-5{stroke-width:.3px;}.cls-14,.cls-18{stroke-width:.24px;}.cls-27{filter:url(#drop-shadow-34);}.cls-15{stroke-width:.33px;}.cls-15,.cls-28,.cls-22,.cls-23{fill:#1fce65;}.cls-16{stroke-width:.12px;}.cls-29{clip-path:url(#clippath);}.cls-6{stroke-width:.17px;}.cls-7{stroke-width:.24px;}.cls-30{fill:#7688ff;}.cls-17{stroke-width:.46px;}.cls-17,.cls-20{stroke-linecap:round;}.cls-18{fill:#1caf57;}.cls-31{fill:#ffcd1c;}.cls-19{stroke-width:.14px;}.cls-20{stroke:#1fce65;stroke-width:.79px;}.cls-21{stroke-width:.31px;}.cls-32{filter:url(#drop-shadow-42);}.cls-22{stroke-width:.18px;}.cls-23{stroke-width:.12px;}</style><filter id="drop-shadow-34" filterUnits="userSpaceOnUse"><feOffset dx=".96" dy=".96"/><feGaussianBlur result="blur" stdDeviation="0"/><feFlood flood-color="#000" flood-opacity=".38"/><feComposite in2="blur" operator="in"/><feComposite in="SourceGraphic"/></filter><filter id="drop-shadow-42" filterUnits="userSpaceOnUse"><feOffset dx="1.37" dy="1.37"/><feGaussianBlur result="blur-2" stdDeviation="0"/><feFlood flood-color="#000" flood-opacity=".38"/><feComposite in2="blur-2" operator="in"/><feComposite in="SourceGraphic"/></filter><clipPath id="clippath"><path class="cls-24" d="M179.07,95.58l-13.91-3.66c-.6-.16-.92-.91-.7-1.64l6.85-22.52c1.31-4.99,5.56-8.19,9.48-7.16l.3,.08c3.93,1.03,6.05,5.91,4.74,10.9l-5.34,22.93c-.17,.74-.81,1.23-1.41,1.07Z"/></clipPath><filter id="drop-shadow-55" filterUnits="userSpaceOnUse"><feOffset dx="1.41" dy="1.41"/><feGaussianBlur result="blur-3" stdDeviation="0"/><feFlood flood-color="#000" flood-opacity=".38"/><feComposite in2="blur-3" operator="in"/><feComposite in="SourceGraphic"/></filter><filter id="drop-shadow-56" filterUnits="userSpaceOnUse"><feOffset dx="1.7" dy="1.7"/><feGaussianBlur result="blur-4" stdDeviation="0"/><feFlood flood-color="#000" flood-opacity=".38"/><feComposite in2="blur-4" operator="in"/><feComposite in="SourceGraphic"/></filter></defs><g><g><polygon class="cls-1" points="221.15 124.11 -.05 124.11 -.05 .05 24.82 .05 221.15 .05 221.15 124.11"/><line class="cls-12" x1="22.07" y1=".05" x2="22.07" y2="124.11"/><line class="cls-12" x1="221.15" y1=".05" x2="221.15" y2="124.11"/><line class="cls-12" x1="-.05" y1=".05" x2="-.05" y2="124.11"/><line class="cls-12" x1="44.19" y1=".05" x2="44.19" y2="124.11"/><line class="cls-12" x1="66.31" y1=".05" x2="66.31" y2="124.11"/><line class="cls-12" x1="88.43" y1=".05" x2="88.43" y2="124.11"/><line class="cls-12" x1="110.55" y1=".05" x2="110.55" y2="124.11"/><line class="cls-12" x1="132.67" y1=".05" x2="132.67" y2="124.11"/><line class="cls-12" x1="154.79" y1=".05" x2="154.79" y2="124.11"/><line class="cls-12" x1="176.91" y1=".05" x2="176.91" y2="124.11"/><line class="cls-12" x1="199.03" y1=".05" x2="199.03" y2="124.11"/></g><line class="cls-12" x1="221.15" y1=".05" x2="-.05" y2=".05"/><line class="cls-12" x1="221.15" y1="124.11" x2="-.05" y2="124.11"/><line class="cls-12" x1="221.15" y1="103.43" x2="-.05" y2="103.43"/><line class="cls-12" x1="221.15" y1="82.76" x2="-.05" y2="82.76"/><line class="cls-12" x1="221.15" y1="62.08" x2="-.05" y2="62.08"/><line class="cls-12" x1="221.15" y1="41.4" x2="-.05" y2="41.4"/><line class="cls-12" x1="221.15" y1="20.72" x2="-.05" y2="20.72"/></g><g class="cls-27"><path class="cls-2" d="M109.96,58.12c-.29,0-.58,0-.88,0-.11,0-.22,0-.3,0-1.4-.04-2.8-.16-4.25-.37-.67-.07-1.35-.18-1.97-.3h-.1l-.28-.08c-.23-.05-.45-.1-.65-.16l-1.52-.42,.03-.41c-.58-.73-1.26-2.18-2.57-5.04-.99-2.17-2.3-5.18-2.73-6.48-1.07-3.29,3.89-12.04,3.94-12.12l.13-.21,1.45-1.37c1.64-2.5,6.03-7.21,11.89-8.52,.85-.19,1.59-.39,2.3-.59,1.55-.42,2.88-.79,4.47-.79,3.18,0,6.75,1.58,12.98,5.78,2.84-.89,5.32-1.34,7.41-1.34,1.36,0,2.58,.19,3.62,.57,2.74,1,4.59,2.57,5.5,4.68,.95,2.2,.6,4.58-.04,6.1-1.17,3.35-4.54,6.96-10.3,11.02l-.11,.08c-.45,.33-1.03,.72-1.7,1.15-3.02,1.97-6.23,3.65-9.52,4.98-1.76,.75-3.36,1.31-4.72,1.67l-1.72,.54-.42,.12c-1.46,.56-4.32,1.46-7.7,1.5-.33,0-1.2,0-1.2,0-.33,.01-.68,.02-1.03,.02Z"/><path class="cls-1" d="M142.27,28.07c-2.71-.98-6.7-.26-10.67,1.08-11.95-8.17-12.79-6.04-19.03-4.64-5.6,1.25-9.61,5.95-10.82,7.88h0l-1.43,1.35c-1.04,1.66-4.35,8.62-3.74,10.5,.75,2.3,5,11.59,4.99,10.85l.48,.17v.07c.18,.05,.4,.1,.63,.15h.01c.59,.13,1.29,.25,2.12,.34,1.52,.22,2.86,.32,4.05,.35,.06,0,.16,0,.27,0,.65,.01,1.27,.01,1.84,0,.35,0,.74,0,1.2,0,3.22-.04,5.96-.96,7.12-1.41,.31-.09,.5-.14,.5-.14l-.03-.05c.07-.03,.12-.05,.12-.05h0c.36-.09,.72-.19,1.09-.3l.07-.02c1.47-.34,3.21-.96,5.01-1.72,2.98-1.2,6.08-2.77,9.2-4.81,.61-.39,1.15-.75,1.59-1.08h0c6.05-4.25,8.88-7.64,9.76-10.26h0c.56-1.29,1.79-6.02-4.33-8.25Z"/><g><path class="cls-14" d="M105.39,48.74s-4.54-14.46-3.96-15.78,4.87-7.05,11.13-8.45c6.26-1.4,7.09-3.54,19.12,4.7-6.02,4.7-26.29,19.53-26.29,19.53Z"/><path class="cls-10" d="M100.88,33.82c-.08-.26-.42-.31-.56-.08-1.04,1.66-4.35,8.62-3.74,10.5,.75,2.3,5,11.59,4.99,10.85-.02-1.12,1.22-4.43,2.11-5.14,1.44-1.14,1.14-1.9,1.14-1.9l-1.54-5.03c-.42-1.2-.75-2.43-1.01-3.67l-1.39-5.53Z"/><path d="M105.15,47.94s9.93-10.41,14.13-13.01,16.87-9.09,22.99-6.86,4.89,6.96,4.33,8.24c-.56,1.29-41.2,12.42-41.2,12.42l-.25-.79Z"/><path class="cls-14" d="M105,49.09s19.16-22.74,36.96-19.72c5.13,1.48,9.89,6.8-5.44,17.43-15.33,10.63-30.22,9.7-34.49,8.53,.31-3.4,1.24-4.33,2.97-6.24Z"/><path d="M102.04,55.33s.16-2.35,.62-2.97c2.99-4.01,13.64-9.71,22.56-10.71,8.03-.9,12.74,.69,11.62,4.93-3.09,2.28-10.92,6.49-15.8,7.61-3.7,.85-6.3,2.15-12.18,1.98-1.87-.06-4.1-.27-6.82-.84Z"/><path class="cls-1" d="M108.86,56.17l.49-5.05,7.18-2.1,3.26,5.59s-4.33,1.25-6.46,1.4-4.01,.18-4.48,.16Z"/><path class="cls-18" d="M108.76,55.92l.26-1.46s7.84-.84,9.73-1.62c.56,.96,1.13,1.68,1.13,1.68,0,0-3.43,1.6-7.71,1.66s-3.41-.25-3.41-.25Z"/><path class="cls-23" d="M117.23,33.37l-.44-5.16,3.6-1.74c.21-.1,.41-.14,.6-.11,.18,.03,.35,.09,.49,.19,.15,.1,.27,.22,.38,.36,.11,.14,.19,.27,.25,.39,.12,.24,.16,.49,.14,.75s-.09,.51-.2,.75c-.11,.24-.26,.45-.44,.64-.18,.19-.37,.33-.57,.43l-1.83,.88,.13,1.6-2.1,1.02Zm1.98-1.09l-.14-1.59,1.92-.92c.19-.09,.37-.23,.54-.4,.17-.18,.31-.38,.42-.6,.11-.22,.17-.45,.19-.7,.02-.24-.02-.48-.14-.71-.06-.12-.13-.24-.23-.36s-.21-.24-.35-.33c-.13-.09-.28-.15-.45-.18-.17-.03-.35,0-.53,.09l-3.53,1.7,.42,4.9,1.87-.9Zm-1.66,.55l-.38-4.42,3.37-1.63c.15-.07,.29-.09,.42-.06,.13,.03,.25,.08,.36,.16,.11,.08,.2,.17,.28,.28,.08,.11,.14,.21,.19,.3,.1,.2,.13,.4,.11,.61-.02,.21-.08,.41-.17,.6-.09,.19-.22,.36-.36,.52-.15,.15-.31,.27-.48,.35l-2.06,1,.14,1.6-1.41,.68Zm1.12-3.95l.21,.48,.32-.16,1.18-.57s.01-.02,.02-.05c0-.03,.01-.06,.02-.1,0-.04,.01-.07,.02-.11,0-.04,0-.06,0-.07v-.04s-.02-.01-.03-.03c-.02-.02-.06-.04-.12-.06s-.09-.03-.1-.02l-1.51,.73Z"/></g></g><g class="cls-32"><path class="cls-5" d="M164.59,94.08c-.84-.22-1.54-.77-1.98-1.55-.48-.86-.58-1.91-.28-2.89l6.84-22.48c.11-.43,.25-.85,.4-1.26s.04-.83-.23-1.15c-2.36-2.72-3.85-6.1-4.27-9.66-.08-.71-.78-1.18-1.46-.98-.12,.04-.24,.07-.35,.11-1.59,.49-3.39,1.04-5.24,.55-.42-.11-1.7-.45-4.21-3.93l-.45-.62c-.29-.4-.29-.93,0-1.33l1.17-1.65c.28-.4,.28-.94,0-1.33v-.02c-.3-.4-.3-.93-.02-1.33l2.17-3.07c.48-.67,1.49-.64,1.92,.06l.86,1.4c.22,.36,.54,.78,.85,1.14,.29,.33,.75,.46,1.18,.33h.04c.83-.26,1.97-.59,3.49-.8,.68-.09,1.36-.12,2.03-.08,.4,.02,.78-.18,1.01-.52,4.19-6.17,11.96-9.19,19.33-7.25,9.53,2.5,15.25,12.29,12.74,21.82-1.5,5.7-5.64,10.2-11.06,12.21-.41,.15-.7,.51-.76,.94-.07,.47-.17,.94-.29,1.4l-5.34,22.9c-.23,.99-.84,1.85-1.67,2.35-.76,.46-1.64,.59-2.47,.37l-13.91-3.66Z"/><path class="cls-1" d="M197.94,56.99c2.2-8.36-2.8-16.91-11.15-19.1-7.31-1.92-14.77,1.66-17.99,8.18-.95-.29-2.13-.47-3.51-.28-3.07,.43-4.41,1.42-5.31,.93-1.26-.7-2.44-2.64-2.44-2.64l-.78,1.11s2.04,2.83,2.97,3.08c2.4,.63,5.42-1.57,7.75-1.08,.28,.06,.52,.14,.75,.23-.2,.53-.38,1.07-.52,1.63-.11,.43-.2,.87-.28,1.3-.9-.25-2-.38-3.26-.21-3.07,.43-4.41,1.42-5.31,.93-1.26-.7-2.44-2.64-2.44-2.64l-.78,1.11s2.04,2.83,2.97,3.08c2.4,.63,5.42-1.57,7.75-1.08,.34,.07,.64,.18,.9,.3-.39,4.99,1.66,9.79,5.32,12.99-.52,.89-.95,1.87-1.23,2.95l-6.85,22.52c-.22,.74,.09,1.48,.7,1.64l13.91,3.66c.6,.16,1.24-.33,1.41-1.07l5.34-22.93c.29-1.12,.41-2.22,.37-3.29,5.54-1.23,10.21-5.43,11.75-11.3Z"/><g><path class="cls-15" d="M171.27,47.37s-2.32-2.08-5.99-1.57c-3.07,.43-4.41,1.42-5.31,.93-1.26-.7-2.44-2.64-2.44-2.64l-.78,1.11s2.04,2.83,2.97,3.08c2.4,.63,5.42-1.57,7.75-1.08,2.17,.45,2.55,2.16,2.55,2.16l1.26-1.98Z"/><path class="cls-15" d="M170.13,51.71s-2.32-2.08-5.99-1.57c-3.07,.43-4.41,1.42-5.31,.93-1.26-.7-2.44-2.64-2.44-2.64l-.78,1.11s2.04,2.83,2.97,3.08c2.4,.63,5.42-1.57,7.75-1.08,2.17,.45,2.55,2.16,2.55,2.16l1.26-1.98Z"/></g><g><g class="cls-29"><path class="cls-21" d="M179.07,95.58l-13.91-3.66c-.6-.16-.92-.91-.7-1.64l6.85-22.52c1.31-4.99,5.56-8.19,9.48-7.16l.3,.08c3.93,1.03,6.05,5.91,4.74,10.9l-5.34,22.93c-.17,.74-.81,1.23-1.41,1.07Z"/><polygon points="197.4 105.69 168.28 118.6 160.91 86.85 190.03 73.94 197.4 105.69"/></g><circle class="cls-11" cx="182.82" cy="53.02" r="15.64"/><circle class="cls-7" cx="182.82" cy="53.02" r="12.05"/><g><g><path class="cls-6" d="M183.73,53.42s2.83,1.92,4.56,1.71,6.52-2.83,3.51-7.81-5.28-.94-5.83,.81-2.18,3.51-2.46,3.77-.32,1.19,.21,1.52Z"/><path class="cls-19" d="M184.63,53.04s2.43,1.35,3.9,1.11,5.51-2.42,2.88-6.09c-2.62-3.67-4.5-.5-4.94,.86s-1.8,2.76-2.04,2.97-.26,.92,.2,1.15Z"/></g><g><path class="cls-6" d="M183.29,52.42s1.54-3.06,1.11-4.75c-.44-1.69-3.64-6.1-8.19-2.48-4.55,3.62-.26,5.36,1.55,5.68s3.76,1.71,4.05,1.96,1.22,.17,1.49-.41Z"/><path class="cls-19" d="M182.8,51.58s1.02-2.59,.6-4.01c-.42-1.43-3.11-5.15-6.41-2.08s.08,4.53,1.48,4.79,2.97,1.43,3.21,1.64,.95,.14,1.12-.35Z"/></g><g><path class="cls-6" d="M182.12,52.51s-3.08-1.5-4.76-1.04c-1.68,.46-6.05,3.73-2.37,8.23,3.69,4.5,5.36,.18,5.65-1.63s1.66-3.78,1.9-4.08,.15-1.22-.43-1.48Z"/><path class="cls-19" d="M181.29,53.01s-2.6-.99-4.02-.55-5.1,3.18-1.99,6.44c3.12,3.26,4.53-.14,4.77-1.55,.24-1.41,1.39-2.99,1.6-3.23s.12-.95-.36-1.11Z"/></g><g><path class="cls-6" d="M182.61,53.43s-1.71,2.97-1.37,4.68c.34,1.71,3.3,6.3,8.05,2.93,4.75-3.37,.55-5.34-1.23-5.75s-3.66-1.91-3.94-2.18-1.21-.23-1.51,.32Z"/><path class="cls-19" d="M183.05,54.3s-1.17,2.53-.82,3.97,2.82,5.31,6.29,2.43c3.47-2.89,.17-4.53-1.22-4.87s-2.89-1.6-3.11-1.82-.94-.19-1.14,.28Z"/></g><circle class="cls-13" cx="183.13" cy="53.36" r="2.14"/></g><circle class="cls-16" cx="182.82" cy="53.14" r="12.08"/><circle class="cls-16" cx="182.93" cy="52.95" r="8.42"/><circle class="cls-16" cx="182.93" cy="52.95" r="5.79"/><line class="cls-16" x1="171.24" y1="49.88" x2="194.61" y2="56.02"/><line class="cls-16" x1="186" y1="41.27" x2="179.8" y2="64.83"/></g><path class="cls-3" d="M197.37,47.26c-.35-.64,.29-3.85,.29-3.85,0,0-1.11,3.08-1.74,3.45-.63,.37-1.56,.48-1.56,.48,0,0,1.57,.71,1.46,1.7-.11,.98-.45,2.56-.45,2.56,0,0,.54-1.52,.95-2.42,.41-.9,2.13-.7,2.13-.7,0,0-.73-.58-1.08-1.22Z"/><path class="cls-3" d="M199.11,50.82c-.3-.55,.25-3.28,.25-3.28,0,0-.94,2.62-1.48,2.93-.54,.31-1.33,.41-1.33,.41,0,0,1.34,.6,1.24,1.44-.09,.84-.38,2.18-.38,2.18,0,0,.46-1.3,.81-2.06,.35-.77,1.81-.59,1.81-.59,0,0-.62-.49-.92-1.04Z"/></g><g><path d="M76.21,106.21c-.81-2.24-2.21-4.18-3.02-6.42-.03-.08-.18-.11-.19,0-.4,2.26-1.17,4.43-1.58,6.69-.01,.08,.07,.17,.15,.11l4.65-3.46c.08-.06,.05-.18-.05-.19-1.22-.12-2.44-.21-3.67-.25-.6-.02-1.2-.03-1.8-.03-.25,0-.67-.05-.73,.28,0,.05,0,.09,.05,.11,2.1,1.4,4.21,2.78,6.34,4.14,.11,.07,.21-.1,.1-.17-2.12-1.36-4.24-2.74-6.34-4.14l.05,.11c.05-.26,1.27-.12,1.47-.12,.5,0,1.01,.02,1.51,.05,1.01,.05,2.02,.12,3.02,.22l-.05-.19-4.65,3.46,.15,.11c.4-2.26,1.17-4.43,1.58-6.69h-.19c.81,2.24,2.21,4.18,3.02,6.42,.04,.12,.24,.07,.19-.05h0Z"/><path d="M63.74,104.67c2.03-3.61,2.97-7.66,5-11.26,.08-.15-.09-.33-.24-.24-3.43,2.04-7.15,3.49-10.58,5.53-.12,.07-.11,.29,.04,.32l9.84,2.18c.14,.03,.29-.12,.2-.26-1.18-1.68-2.41-3.32-3.7-4.92-.66-.83-1.34-1.64-2.03-2.44-.32-.38-.76-1.11-1.34-.8-.05,.03-.09,.09-.09,.15,.55,4.36,1.14,8.72,1.77,13.08,.03,.22,.37,.13,.34-.09-.57-3.94-1.11-7.88-1.61-11.83-.03-.26-.32-1.32,.21-.81,.32,.31,.59,.68,.88,1.02,.61,.71,1.2,1.44,1.79,2.17,1.21,1.52,2.37,3.07,3.49,4.66l.2-.26-9.84-2.18,.04,.32c3.43-2.04,7.15-3.49,10.58-5.53l-.24-.24c-2.03,3.61-2.97,7.66-5,11.26-.11,.2,.19,.37,.3,.18h0Z"/></g><g><rect x="97.1" y="16.09" width="5.19" height="2.8" transform="translate(77.14 -81.18) rotate(67.17)"/><rect class="cls-9" x="97.53" y="15.52" width="5.19" height="2.8" transform="translate(76.88 -81.93) rotate(67.17)"/></g><g><rect x="87.59" y="23.08" width="5.19" height="2.8" transform="translate(182.81 12.06) rotate(157.17)"/><rect class="cls-8" x="88.16" y="23.51" width="5.19" height="2.8" transform="translate(184.07 12.67) rotate(157.17)"/></g><g><rect x="189.63" y="19.83" width="5.02" height="2.71" transform="translate(16.05 100.94) rotate(-30.66)"/><rect class="cls-8" x="189.03" y="19.5" width="5.02" height="2.71" transform="translate(16.14 100.59) rotate(-30.66)"/></g><g><rect x="196.72" y="30.75" width="4.14" height="2.24" transform="translate(4.17 -19.68) rotate(5.73)"/><rect class="cls-9" x="196.49" y="30.23" width="4.14" height="2.24" transform="translate(4.12 -19.66) rotate(5.73)"/></g><g><rect x="175.3" y="19.67" width="5.22" height="2.82" transform="translate(40.87 -94.31) rotate(33.34)"/><rect class="cls-9" x="175.34" y="18.95" width="5.22" height="2.82" transform="translate(40.48 -94.45) rotate(33.34)"/></g><g class="cls-25"><path class="cls-4" d="M11.69,78.12L56.88,20.36c1.4-1.79,3.95-1.79,5.34,.02l44.6,57.76c1.92,2.48,.3,6.27-2.68,6.27H14.36c-2.99,0-4.6-3.82-2.66-6.29Z"/><g><polygon points="59.38 22.18 20.86 80.71 59.38 80.71 97.42 80.71 59.38 22.18"/><polygon class="cls-28" points="59.38 22.18 59.38 80.71 69.12 80.71 59.38 22.18"/><polygon class="cls-1" points="59.54 23.11 70.24 80.71 73.98 80.71 59.54 23.11"/><polygon class="cls-28" points="44.01 45.54 52.3 45.54 52.3 60.45 34.19 60.45 44.01 45.54"/><line class="cls-20" x1="59.21" y1="22.44" x2="15.93" y2="81.25"/><line class="cls-20" x1="59.54" y1="22.42" x2="102.57" y2="81.25"/></g></g><g class="cls-26"><path class="cls-4" d="M119.55,110.2c-1.49,0-3.01-.17-4.62-.53-3.32-.73-4.78-2.48-5.43-3.83-.69-1.44-.7-2.89-.52-4.05-3.4,.65-9.32,1.41-19.82,2.19h-.28c-5.52-.14-8.64-3.19-9.71-5.99-.74-1.94-.4-4.21-.18-5.23,0-4.31,4.56-8.37,9.24-10.54,2.87-1.33,4.95-2.5,6.24-3.28-.35-1.88-.43-4.3,.81-6.01,.86-1.19,2.18-1.84,3.73-1.84,7.29,0,11.45,1.38,12.38,4.11,1.36-.16,2.55-.24,3.56-.24,1.61,0,2.83,.2,3.78,.62,1.67,.08,3.15,.9,4.15,2.29,.03-.11,.07-.21,.11-.32,.06-.17,.12-.33,.16-.51,1.12-4.48,6.7-4.48,8.8-4.48,.64,0,1.34,.02,2.1,.06,1.33,.07,3.93,.53,5.53,2.87,1.57-.85,2.37-1.05,3.09-1.05,.66,0,1.29,.2,1.81,.57,.12,.08,.23,.18,.34,.28,.38,.23,1.19,.77,2.55,1.88,2.83,2.3,3.87,9.35,3.79,12.62,0,.1,0,.19-.02,.29,0,.04,0,.07,.01,.11,.38,4.84-.74,7.95-3.43,9.54-.46,.27-1.2,.57-3.28,1.4-3.04,1.21-7.64,3.05-11.64,5.06-5.06,2.53-8.85,4-13.24,4h0Z"/><path class="cls-1" d="M148.32,90.43c0-.09-.05-.17-.08-.24,.04-.15,.07-.31,.08-.46,.08-3.37-1.1-9.02-2.74-10.35-1.65-1.33-2.35-1.73-2.35-1.73,0,0,.72,.89,.83,1.82-.38-.93-.85-1.87-1.24-2.16-.38-.27-2.52,.96-4.76,2.4-.18-1.94-.93-4.09-4.16-4.26-5.8-.31-7.61,.71-8,2.27-.39,1.57-1.49,2.59,1.1,5.96,0,0-1.77,1.18-4.02,2.76-.04-.2-.09-.4-.14-.57h0c-.16-.57-.33-.96-.33-.96h0c-.25-1.22-.9-3.27-1.55-4.73-.91-2.03-2.62-1.79-2.94-1.74-1.14-1.03-5.22-.68-9.27,0,.08-.86,.13-1.71-.03-2.29-.47-1.71-6.35-2.23-9.7-2.23s-1.29,6.29-1.29,6.29c0,0-2.73,1.98-8.29,4.57-4.07,1.89-7.83,5.33-7.59,8.25h0s-.62,2.35-.02,3.94c.61,1.59,2.61,4.06,7.13,4.18,0,0,21.16-1.57,22.98-3.12l.05-.04c-.17,.96-.14,1.93,.25,2.79h-.01s-2.4,4.85,3.32,6.11c5.72,1.25,9.78-.13,15.98-3.24,6.21-3.11,13.89-5.86,14.76-6.37,.86-.51,2.45-1.73,2.04-6.86Z"/><g><path d="M132.44,83.51s9.53-6.8,10.36-6.2,2,4.22,2,4.22l-1.12,3.89-11.24-1.92Z"/><path d="M99.36,80.46s16.17-4.23,18.64-2c2.47,2.23,1.18,5.12,1.18,5.12l-9.29,1.71-10.53-4.82Z"/><g><path class="cls-22" d="M88.95,101.16s21.16-1.57,22.98-3.12c2.43-2.07,9.58-7.35,10.68-8.88s-.11-4.24-.11-4.24l-40.66,8.12s-.62,2.35-.02,3.94c.61,1.59,2.61,4.06,7.13,4.18Z"/><g><path class="cls-4" d="M97.71,80.22s-2.06-6.29,1.29-6.29,9.23,.53,9.7,2.23c.47,1.71-.88,5.65,.53,5.88s10-.82,9.65-2c-.35-1.18-1.21-1.53-.88-1.59s2.03-.29,2.94,1.74c.91,2.03,1.8,5.22,1.65,5.7s-8.7,5.25-11.29,8.55c-5.88,1.53-22.27,4.64-27.37,1.53-5.1-3.1-.08-8.59,5.49-11.18,5.57-2.59,8.29-4.57,8.29-4.57Z"/><line class="cls-17" x1="94.35" y1="84.55" x2="99.61" y2="86.67"/><line class="cls-17" x1="95.42" y1="83.16" x2="100.67" y2="85.28"/><line class="cls-17" x1="96.98" y1="81.77" x2="102.24" y2="83.89"/><path d="M111.3,94.43l.63,3.61s8.32-6.47,9.5-7.68,2.06-1.48,1.4-4.49c-.23,.01-.08-.01-.77,.46s-6.51,4.35-7.38,5.02-3.1,2.8-3.38,3.08Z"/></g></g><g><path class="cls-22" d="M112.21,100.8s-2.4,4.85,3.32,6.1,9.78-.13,15.98-3.24c6.21-3.11,13.89-5.86,14.76-6.37s2.45-1.73,2.04-6.86c-.41-5.13-36.11,10.37-36.11,10.37Z"/><path class="cls-4" d="M126.98,83.69s-11.76,7.84-13.33,10.27c-1.57,2.43-3.92,7.92,2.2,9.41s14.35-3.22,18.35-4.86,14.04-5.41,14.12-8.78c.08-3.37-1.1-9.02-2.74-10.35s-2.35-1.73-2.35-1.73c0,0,1.73,2.12,.24,3.22s-4.23,2.36-5.1,1.97,1.33-7.06-4.47-7.38-7.61,.71-8,2.27-1.49,2.59,1.1,5.96Z"/><line class="cls-17" x1="125.32" y1="87.67" x2="130.75" y2="89.29"/><line class="cls-17" x1="126.5" y1="86.23" x2="131.93" y2="87.86"/><line class="cls-17" x1="127.8" y1="84.8" x2="133.23" y2="86.42"/></g></g></g><g><g><path d="M36.23,37.47c-1.02-2.31-3.18-4.06-5.67-4.51-1.19-.21-2.49-.19-3.51,.53-.95,.67-1.52,1.77-1.67,2.9-.17,1.29,.1,2.92,.86,4,.52,.74,1.44,1.03,2.16,.38,.94-.86,.54-2.36,.25-3.42s-.86-2.06-1.96-2.44c-1.36-.47-3-.01-4.32,.4-1.66,.52-3.21,1.32-4.61,2.33-.37,.27-.01,.9,.37,.63,2-1.45,4.52-2.66,7.03-2.8,1.65-.1,2.5,.82,2.87,2.35,.14,.57,.57,1.96-.05,2.37-.95,.64-1.4-.6-1.62-1.29-.42-1.32-.47-2.81,.32-4,.83-1.25,2.29-1.49,3.69-1.24,2.34,.41,4.29,2.02,5.24,4.18,.19,.43,.81,.06,.63-.37h0Z"/><path class="cls-30" d="M36.32,36.1c-1.03-2.35-3.24-4.13-5.77-4.59-1.23-.22-2.58-.19-3.64,.55-.99,.69-1.6,1.84-1.75,3.03-.18,1.33,.11,2.98,.88,4.11,.57,.84,1.63,1.14,2.42,.41,.99-.9,.6-2.45,.29-3.58-.31-1.13-.91-2.17-2.08-2.56-1.4-.47-3.05-.02-4.4,.4-1.67,.52-3.24,1.32-4.65,2.35-.55,.4-.02,1.31,.53,.91,1.98-1.43,4.46-2.63,6.94-2.78,1.58-.09,2.35,.77,2.71,2.22,.14,.56,.52,1.75,0,2.21-.74,.64-1.19-.75-1.34-1.21-.4-1.27-.46-2.72,.31-3.87s2.17-1.39,3.5-1.16c2.3,.4,4.21,1.98,5.14,4.1,.27,.62,1.19,.08,.91-.53h0Z"/></g><g><path d="M34.55,30.81c.63-1.24,.63-2.75-.04-3.98-.33-.61-.83-1.18-1.53-1.33s-1.4,.06-1.95,.48c-.49,.37-.94,.94-1.14,1.52-.19,.54,.05,1.12,.68,1.13s1.05-.59,1.38-1.05c.41-.56,.64-1.21,.32-1.87-.34-.71-1.09-1.22-1.74-1.62-.76-.48-1.6-.83-2.46-1.06-.25-.06-.35,.32-.11,.38,1.07,.28,2.08,.76,2.97,1.43,.43,.33,.94,.73,1.08,1.28,.15,.63-.32,1.19-.7,1.64-.17,.2-.35,.4-.61,.46-.19,.04-.32,0-.41-.17-.11-.19-.05-.36,.04-.56,.22-.48,.58-.94,1-1.24,.47-.34,1.1-.51,1.67-.34s.95,.68,1.21,1.17c.58,1.09,.57,2.44,.02,3.53-.12,.23,.23,.43,.34,.2h0Z"/><path class="cls-31" d="M35.15,30.39c.65-1.27,.65-2.82-.04-4.07-.34-.62-.87-1.22-1.59-1.38s-1.45,.05-2.02,.49c-.51,.39-.97,.97-1.18,1.58s.08,1.24,.77,1.25,1.11-.61,1.46-1.09c.43-.59,.65-1.27,.32-1.96s-1.11-1.24-1.77-1.66c-.77-.48-1.61-.84-2.49-1.07-.36-.09-.52,.46-.15,.56,1.06,.28,2.06,.75,2.94,1.41,.41,.31,.92,.71,1.04,1.24,.14,.59-.32,1.13-.68,1.55-.15,.18-.32,.38-.56,.43-.41,.08-.41-.31-.28-.59,.21-.46,.56-.91,.97-1.21,.45-.33,1.05-.5,1.6-.33s.9,.65,1.15,1.13c.56,1.06,.56,2.37,.02,3.44-.17,.33,.33,.62,.5,.29h0Z"/></g></g></svg>