<?xml version="1.0" encoding="UTF-8"?><svg id="Layer_1" xmlns="http://www.w3.org/2000/svg" xmlns:xlink="http://www.w3.org/1999/xlink" viewBox="0 0 221.1 124.16"><defs><style>.cls-1{stroke-width:.13px;}.cls-1,.cls-2,.cls-3,.cls-4,.cls-5,.cls-6,.cls-7,.cls-8,.cls-9,.cls-10,.cls-11,.cls-12,.cls-13,.cls-14,.cls-15,.cls-16,.cls-17,.cls-18,.cls-19,.cls-20,.cls-21,.cls-22,.cls-23,.cls-24,.cls-25,.cls-26,.cls-27,.cls-28,.cls-29,.cls-30{stroke-miterlimit:10;}.cls-1,.cls-2,.cls-3,.cls-4,.cls-5,.cls-6,.cls-7,.cls-9,.cls-10,.cls-11,.cls-12,.cls-13,.cls-14,.cls-15,.cls-16,.cls-17,.cls-18,.cls-19,.cls-20,.cls-21,.cls-22,.cls-23,.cls-24,.cls-25,.cls-26,.cls-27,.cls-28,.cls-29,.cls-30{stroke:#000;}.cls-1,.cls-31,.cls-7,.cls-10,.cls-11,.cls-14,.cls-15,.cls-17,.cls-18,.cls-19,.cls-20,.cls-21,.cls-22,.cls-23,.cls-24,.cls-29,.cls-30{fill:#fff;}.cls-32,.cls-15{font-family:AppleSDGothicNeoR00, AppleSDGothicNeoR00;font-size:1.25px;}.cls-2,.cls-3,.cls-8{fill:none;}.cls-2,.cls-10,.cls-12{stroke-width:.17px;}.cls-3{stroke-width:.35px;}.cls-4,.cls-6,.cls-21{stroke-width:.19px;}.cls-33{fill:#69e6ed;}.cls-34{fill:#fa8cd5;}.cls-5{stroke-width:.39px;}.cls-5,.cls-25,.cls-28{fill:#1fce65;}.cls-35{letter-spacing:-.03em;}.cls-6,.cls-12,.cls-16,.cls-27{fill:#ff307b;}.cls-36{filter:url(#drop-shadow-54);}.cls-7{font-family:ArchivoBlack-Regular, 'Archivo Black';font-size:5.2px;stroke-width:.07px;}.cls-8{stroke:#e6e6e6;stroke-width:.5px;}.cls-9{fill:#5cc6d2;}.cls-9,.cls-17{stroke-width:.06px;}.cls-11{stroke-width:.25px;}.cls-13{fill:#4cb863;stroke-width:.2px;}.cls-14{stroke-width:.19px;}.cls-37{letter-spacing:-.05em;}.cls-15,.cls-23,.cls-30{stroke-width:.16px;}.cls-16{stroke-width:.16px;}.cls-18{stroke-width:.16px;}.cls-19{stroke-width:.16px;}.cls-20{stroke-width:.19px;}.cls-38,.cls-23{font-size:1.35px;}.cls-38,.cls-23,.cls-24,.cls-30{font-family:AppleSDGothicNeoH00, AppleSDGothicNeoH00;}.cls-39{filter:url(#drop-shadow-51);}.cls-22{stroke-width:.07px;}.cls-40{fill:#353535;}.cls-41{fill:#ff70fe;}.cls-24{stroke-width:.11px;}.cls-24,.cls-30{font-size:5.45px;}.cls-25{stroke-width:.17px;}.cls-42{fill:#7688ff;}.cls-26{fill:#0d4c26;stroke-width:.14px;}.cls-27{stroke-width:.22px;}.cls-43{fill:#f1f1f1;}.cls-44{filter:url(#drop-shadow-52);}.cls-45{letter-spacing:.02em;}.cls-28,.cls-29{stroke-width:.07px;}.cls-46{fill:#05080a;}.cls-47{letter-spacing:0em;}.cls-48{filter:url(#drop-shadow-53);}</style><filter id="drop-shadow-51" filterUnits="userSpaceOnUse"><feOffset dx="1.55" dy="1.55"/><feGaussianBlur result="blur" stdDeviation="0"/><feFlood flood-color="#000" flood-opacity=".38"/><feComposite in2="blur" operator="in"/><feComposite in="SourceGraphic"/></filter><filter id="drop-shadow-52" filterUnits="userSpaceOnUse"><feOffset dx="1.18" dy="1.18"/><feGaussianBlur result="blur-2" stdDeviation="0"/><feFlood flood-color="#000" flood-opacity=".38"/><feComposite in2="blur-2" operator="in"/><feComposite in="SourceGraphic"/></filter><filter id="drop-shadow-53" filterUnits="userSpaceOnUse"><feOffset dx="1.17" dy="1.17"/><feGaussianBlur result="blur-3" stdDeviation="0"/><feFlood flood-color="#000" flood-opacity=".38"/><feComposite in2="blur-3" operator="in"/><feComposite in="SourceGraphic"/></filter><filter id="drop-shadow-54" filterUnits="userSpaceOnUse"><feOffset dx="1.13" dy="1.13"/><feGaussianBlur result="blur-4" stdDeviation="0"/><feFlood flood-color="#000" flood-opacity=".38"/><feComposite in2="blur-4" operator="in"/><feComposite in="SourceGraphic"/></filter></defs><g><g><polygon class="cls-31" points="221.15 124.11 -.05 124.11 -.05 .05 24.82 .05 221.15 .05 221.15 124.11"/><line class="cls-8" x1="22.07" y1=".05" x2="22.07" y2="124.11"/><line class="cls-8" x1="221.15" y1=".05" x2="221.15" y2="124.11"/><line class="cls-8" x1="-.05" y1=".05" x2="-.05" y2="124.11"/><line class="cls-8" x1="44.19" y1=".05" x2="44.19" y2="124.11"/><line class="cls-8" x1="66.31" y1=".05" x2="66.31" y2="124.11"/><line class="cls-8" x1="88.43" y1=".05" x2="88.43" y2="124.11"/><line class="cls-8" x1="110.55" y1=".05" x2="110.55" y2="124.11"/><line class="cls-8" x1="132.67" y1=".05" x2="132.67" y2="124.11"/><line class="cls-8" x1="154.79" y1=".05" x2="154.79" y2="124.11"/><line class="cls-8" x1="176.91" y1=".05" x2="176.91" y2="124.11"/><line class="cls-8" x1="199.03" y1=".05" x2="199.03" y2="124.11"/></g><line class="cls-8" x1="221.15" y1=".05" x2="-.05" y2=".05"/><line class="cls-8" x1="221.15" y1="124.11" x2="-.05" y2="124.11"/><line class="cls-8" x1="221.15" y1="103.43" x2="-.05" y2="103.43"/><line class="cls-8" x1="221.15" y1="82.76" x2="-.05" y2="82.76"/><line class="cls-8" x1="221.15" y1="62.08" x2="-.05" y2="62.08"/><line class="cls-8" x1="221.15" y1="41.4" x2="-.05" y2="41.4"/><line class="cls-8" x1="221.15" y1="20.72" x2="-.05" y2="20.72"/></g><g class="cls-39"><path class="cls-11" d="M49.56,97.93c.41,0,.81-.06,1.2-.19l44.07-13.22c.55-.16,.96-.62,1.06-1.18l1.03-5.38c.17-.88-.45-1.72-1.35-1.81h0c-.1-.12-.22-.24-.34-.35l-21.29-19.14c-.25-.23-.42-.53-.48-.86-.72-3.98-5.38-29.87-5.38-29.87-.39-2.14-2.25-3.7-4.43-3.7-.49,0-.98,.08-1.45,.24l-42.34,14.43c-2.1,.72-3.38,2.9-2.97,5.09l5.71,30.42c.06,.32,.16,.63,.28,.93s.18,.6,.12,.9l-.39,1.95c-.11,.56,.1,1.14,.55,1.5l21.08,16.65s.08,.06,.11,.1l2.48,2.4c.73,.7,1.68,1.09,2.7,1.09h0Z"/><path class="cls-31" d="M21.03,39.84l42.34-14.43c.81-.28,1.67,.23,1.82,1.07l5.46,30.35c.06,.34,0,.68-.18,.96,.16,.02,.32,.07,.45,.18l22.4,20.13c.28,.25,.3,.63,.15,.92l.24,.02-.53,2.76-43.21,12.96c-.28,.1-.59,.03-.81-.17l-2.65-2.56-20.5-16.2,.6-3.01c-.39-.18-.7-.54-.79-1l-5.71-30.42c-.13-.68,.26-1.36,.92-1.58Z"/><g><polygon points="93.71 79.05 93.18 81.82 49.97 94.78 26.01 75.85 26.73 72.23 93.71 79.05"/><path class="cls-5" d="M27.65,72.9l42.09-14.5c.65-.22,1.04-.89,.92-1.57l-5.46-30.35c-.15-.84-1.02-1.35-1.82-1.07l-42.34,14.43c-.66,.22-1.05,.9-.92,1.58l5.71,30.42c.16,.84,1.02,1.34,1.83,1.06Z"/><path class="cls-5" d="M49.97,94.78l43.09-15.36c.56-.2,.7-.92,.26-1.32l-22.4-20.13c-.21-.19-.5-.25-.76-.16l-42.96,14.01c-.56,.18-.72,.9-.3,1.31l22.27,21.48c.21,.21,.53,.27,.81,.17Z"/><polygon points="27.28 69.22 68.82 55.98 63.73 27.98 22.37 41.87 27.28 69.22"/><g><path d="M66.75,61.32l2.45-.86c.16-.06,.41,0,.55,.11l.77,.67c.14,.12,.11,.26-.05,.32l-2.46,.86c-.17,.06-.41,0-.55-.11l-.76-.67c-.14-.12-.11-.26,.05-.32Z"/><path d="M68.56,62.9l2.47-.87c.17-.06,.41,0,.55,.11l1.78,1.55c.14,.12,.12,.27-.05,.33l-2.48,.87c-.17,.06-.41,0-.55-.11l-1.77-1.56c-.14-.12-.11-.27,.05-.32Z"/><path d="M64.77,64.23l2.48-.87c.17-.06,.41,0,.55,.11l1.77,1.56c.14,.12,.11,.27-.05,.33l-2.49,.88c-.17,.06-.41,0-.55-.11l-1.75-1.57c-.14-.12-.11-.27,.06-.33Z"/><path d="M65.69,66.71l-2.5,.88c-.17,.06-.41,0-.55-.12l-1.74-1.58c-.13-.12-.11-.27,.06-.33l2.48-.87c.17-.06,.41,0,.55,.11l1.75,1.57c.14,.12,.11,.27-.06,.33Z"/><path d="M61.86,68.06l-2.51,.88c-.17,.06-.41,0-.55-.12l-1.72-1.59c-.13-.12-.1-.27,.06-.33l2.49-.88c.17-.06,.41,0,.55,.11l1.74,1.58c.14,.12,.11,.27-.06,.33Z"/><path d="M58.02,69.41l-2.52,.89c-.17,.06-.41,0-.55-.12l-1.71-1.6c-.13-.12-.1-.27,.07-.33l2.5-.88c.17-.06,.41,0,.54,.12l1.72,1.59c.13,.12,.11,.27-.06,.33Z"/><path d="M54.16,70.77l-2.53,.89c-.17,.06-.41,0-.55-.12l-1.69-1.61c-.13-.12-.1-.27,.07-.33l2.51-.88c.17-.06,.41,0,.54,.12l1.7,1.6c.13,.12,.1,.27-.07,.33Z"/><path d="M50.28,72.14l-2.54,.89c-.17,.06-.42,0-.55-.12l-1.67-1.62c-.13-.12-.1-.27,.07-.33l2.52-.89c.17-.06,.41,0,.54,.12l1.69,1.61c.13,.13,.1,.28-.07,.34Z"/><path d="M41.72,72.32l2.53-.89c.17-.06,.41,0,.54,.12l1.67,1.62c.13,.13,.1,.28-.07,.34l-2.55,.9c-.17,.06-.42,0-.54-.12l-1.66-1.63c-.13-.13-.09-.28,.08-.34Z"/><path d="M37.83,73.68l2.54-.89c.17-.06,.41,0,.54,.12l1.65,1.63c.13,.13,.09,.28-.08,.34l-2.56,.9c-.17,.06-.42,0-.54-.12l-1.64-1.64c-.13-.13-.09-.28,.08-.34Z"/><path d="M33.92,75.06l2.55-.9c.17-.06,.41,0,.54,.12l1.63,1.64c.13,.13,.09,.28-.08,.34l-2.57,.9c-.17,.06-.42,0-.54-.12l-1.62-1.65c-.13-.13-.09-.28,.08-.34Z"/><path d="M71.38,65.39l2.48-.88c.17-.06,.42,0,.56,.11l1.81,1.58c.14,.12,.12,.27-.05,.33l-2.5,.88c-.17,.06-.42,0-.56-.12l-1.8-1.58c-.14-.12-.12-.27,.05-.33Z"/><path d="M67.57,66.73l2.49-.88c.17-.06,.42,0,.55,.11l1.8,1.59c.14,.12,.12,.27-.05,.33l-2.51,.89c-.17,.06-.42,0-.56-.12l-1.78-1.59c-.14-.12-.11-.27,.05-.33Z"/><path d="M68.52,69.25l-2.52,.89c-.17,.06-.42,0-.56-.12l-1.77-1.6c-.14-.12-.11-.27,.06-.33l2.5-.88c.17-.06,.42,0,.55,.12l1.78,1.6c.14,.12,.11,.27-.05,.33Z"/><path d="M64.66,70.61l-2.53,.89c-.17,.06-.42,0-.56-.12l-1.75-1.61c-.14-.12-.11-.27,.06-.33l2.51-.89c.17-.06,.42,0,.55,.12l1.76,1.61c.14,.13,.11,.28-.06,.34Z"/><path d="M60.79,71.98l-2.53,.9c-.17,.06-.42,0-.55-.12l-1.73-1.63c-.13-.13-.1-.28,.07-.34l2.52-.89c.17-.06,.42,0,.55,.12l1.75,1.62c.14,.13,.11,.28-.06,.34Z"/><path d="M56.91,73.36l-2.55,.9c-.17,.06-.42,0-.55-.12l-1.72-1.64c-.13-.13-.1-.28,.07-.34l2.53-.89c.17-.06,.42,0,.55,.12l1.73,1.63c.14,.13,.11,.28-.06,.34Z"/><path d="M53,74.74l-2.55,.9c-.17,.06-.42,0-.55-.12l-1.7-1.65c-.13-.13-.1-.28,.07-.34l2.54-.9c.17-.06,.42,0,.55,.12l1.71,1.64c.13,.13,.1,.28-.07,.34Z"/><path d="M44.36,74.92l2.55-.9c.17-.06,.42,0,.55,.12l1.7,1.65c.13,.13,.1,.28-.07,.34l-2.57,.91c-.17,.06-.42,0-.55-.12l-1.68-1.66c-.13-.13-.1-.28,.08-.34Z"/><path d="M40.44,76.3l2.56-.9c.17-.06,.42,0,.55,.12l1.68,1.66c.13,.13,.1,.28-.08,.35l-2.58,.91c-.17,.06-.42,0-.55-.12l-1.67-1.67c-.13-.13-.09-.28,.08-.34Z"/><path d="M36.51,77.69l2.57-.91c.17-.06,.42,0,.54,.12l1.66,1.67c.13,.13,.09,.29-.08,.35l-2.59,.92c-.17,.06-.42,0-.55-.13l-1.65-1.68c-.13-.13-.09-.28,.08-.34Z"/><path d="M74.26,67.91l2.5-.89c.17-.06,.42,0,.56,.12l1.84,1.6c.14,.13,.12,.28-.04,.34l-2.51,.89c-.17,.06-.42,0-.57-.12l-1.83-1.61c-.14-.12-.12-.27,.05-.33Z"/><path d="M70.41,69.27l2.51-.89c.17-.06,.42,0,.56,.12l1.83,1.61c.14,.13,.12,.28-.05,.34l-2.52,.9c-.17,.06-.42,0-.56-.12l-1.81-1.62c-.14-.13-.12-.28,.05-.33Z"/><path d="M71.4,71.83l-2.53,.9c-.17,.06-.42,0-.56-.12l-1.8-1.63c-.14-.13-.11-.28,.06-.34l2.52-.89c.17-.06,.42,0,.56,.12l1.81,1.62c.14,.13,.12,.28-.05,.34Z"/><path d="M67.51,73.21l-2.54,.91c-.17,.06-.42,0-.56-.12l-1.78-1.64c-.14-.13-.11-.28,.06-.34l2.53-.9c.17-.06,.42,0,.56,.12l1.79,1.63c.14,.13,.12,.28-.06,.34Z"/><path d="M63.61,74.6l-2.55,.91c-.17,.06-.42,0-.56-.12l-1.76-1.65c-.14-.13-.11-.28,.06-.34l2.54-.9c.17-.06,.42,0,.56,.12l1.78,1.64c.14,.13,.11,.28-.06,.34Z"/><path d="M59.7,75.99l-2.56,.91c-.17,.06-.42,0-.56-.12l-1.75-1.66c-.13-.13-.1-.28,.07-.34l2.55-.9c.17-.06,.42,0,.56,.12l1.76,1.65c.14,.13,.11,.28-.06,.34Z"/><path d="M55.77,77.39l-2.57,.92c-.17,.06-.42,0-.56-.13l-1.73-1.67c-.13-.13-.1-.28,.07-.34l2.56-.91c.17-.06,.42,0,.55,.12l1.74,1.67c.14,.13,.11,.29-.07,.35Z"/><path d="M47.05,77.56l2.57-.91c.17-.06,.42,0,.55,.12l1.73,1.68c.13,.13,.1,.29-.07,.35l-2.58,.92c-.17,.06-.42,0-.56-.13l-1.71-1.68c-.13-.13-.1-.29,.07-.35Z"/><path d="M43.1,78.96l2.58-.91c.17-.06,.42,0,.55,.12l1.71,1.69c.13,.13,.1,.29-.07,.35l-2.59,.92c-.17,.06-.42,0-.56-.13l-1.69-1.7c-.13-.13-.1-.29,.08-.35Z"/><path d="M39.14,80.36l2.59-.92c.17-.06,.42,0,.55,.13l1.69,1.7c.13,.13,.1,.29-.08,.35l-2.6,.93c-.18,.06-.42,0-.55-.13l-1.68-1.71c-.13-.13-.09-.29,.08-.35Z"/><path d="M77.18,70.48l2.52-.9c.17-.06,.42,0,.57,.12l1.87,1.63c.15,.13,.13,.28-.04,.34l-2.53,.91c-.17,.06-.43,0-.57-.12l-1.86-1.64c-.14-.13-.12-.28,.05-.34Z"/><path d="M73.31,71.86l2.53-.9c.17-.06,.42,0,.57,.12l1.86,1.64c.15,.13,.12,.28-.05,.34l-2.54,.91c-.17,.06-.43,0-.57-.12l-1.84-1.65c-.14-.13-.12-.28,.05-.34Z"/><path d="M69.37,73.58c-.14-.13-.12-.28,.05-.34l2.54-.9c.17-.06,.42,0,.57,.12l1.84,1.65c.14,.13,.12,.28-.05,.34l-2.55,.91c-.17,.06-.43,0-.57-.12l-1.83-1.66Z"/><path d="M70.41,75.85l-14.41,5.16c-.17,.06-.43,0-.56-.13l-1.76-1.7c-.14-.13-.1-.29,.07-.35l14.33-5.11c.17-.06,.42,0,.56,.12l1.82,1.66c.14,.13,.12,.28-.05,.35Z"/><path d="M49.78,80.24l2.59-.92c.17-.06,.42,0,.56,.13l1.75,1.7c.14,.13,.11,.29-.07,.35l-2.6,.93c-.18,.06-.43,0-.56-.13l-1.74-1.71c-.13-.13-.1-.29,.07-.35Z"/><path d="M45.81,81.66l2.6-.93c.17-.06,.42,0,.56,.13l1.74,1.72c.14,.13,.1,.29-.07,.36l-2.61,.93c-.18,.06-.43,0-.56-.13l-1.72-1.72c-.13-.13-.1-.29,.08-.35Z"/><path d="M41.81,83.08l2.61-.93c.17-.06,.42,0,.56,.13l1.72,1.73c.13,.13,.1,.3-.08,.36l-2.62,.94c-.18,.06-.43,0-.56-.13l-1.7-1.74c-.13-.13-.1-.29,.08-.36Z"/><path d="M62.98,62.64l2.46-.86c.17-.06,.41,0,.54,.11l.76,.67c.14,.12,.11,.26-.05,.32l-2.47,.87c-.17,.06-.41,0-.55-.11l-.76-.68c-.13-.12-.11-.26,.06-.32Z"/><path d="M62.91,64.21l-2.48,.87c-.17,.06-.41,0-.54-.11l-.75-.68c-.13-.12-.11-.27,.06-.32l2.47-.87c.17-.06,.41,0,.54,.11l.76,.68c.13,.12,.11,.27-.06,.32Z"/><path d="M59.1,65.54l-2.49,.87c-.17,.06-.41,0-.54-.11l-.74-.68c-.13-.12-.1-.27,.06-.33l2.48-.87c.17-.06,.41,0,.54,.11l.75,.68c.13,.12,.11,.27-.06,.33Z"/><path d="M55.28,66.88l-2.5,.88c-.17,.06-.41,0-.54-.12l-.74-.69c-.13-.12-.1-.27,.07-.33l2.49-.87c.17-.06,.41,0,.54,.11l.74,.69c.13,.12,.1,.27-.06,.33Z"/><path d="M51.45,68.23l-2.51,.88c-.17,.06-.41,0-.54-.12l-.73-.69c-.13-.12-.1-.27,.07-.33l2.5-.88c.17-.06,.41,0,.54,.11l.73,.69c.13,.12,.1,.27-.07,.33Z"/><path d="M47.6,69.57l-2.52,.88c-.17,.06-.41,0-.54-.12l-.72-.7c-.13-.12-.09-.27,.08-.33l2.51-.88c.17-.06,.41,0,.54,.12l.73,.69c.13,.12,.1,.27-.07,.33Z"/><path d="M40.04,70.66l2.52-.88c.17-.06,.41,0,.54,.12l.72,.7c.13,.12,.09,.27-.08,.33l-2.53,.89c-.17,.06-.41,0-.54-.12l-.71-.7c-.13-.12-.09-.27,.08-.33Z"/><path d="M36.16,72.02l2.53-.89c.17-.06,.41,0,.54,.12l.71,.7c.13,.13,.09,.28-.08,.34l-2.54,.89c-.17,.06-.41,0-.54-.12l-.71-.71c-.13-.13-.09-.27,.08-.33Z"/><path d="M32.27,73.38l2.54-.89c.17-.06,.41,0,.53,.12l.7,.71c.13,.13,.09,.28-.08,.34l-2.55,.89c-.17,.06-.41,0-.54-.12l-.7-.71c-.12-.13-.09-.28,.09-.34Z"/><path class="cls-26" d="M56.88,82.81l15.88-5.7c.19-.07,.48,0,.65,.14l4.99,4.53c.17,.15,.14,.33-.05,.41l-16.09,5.83c-.2,.07-.49,0-.66-.15l-4.79-4.65c-.16-.15-.12-.33,.07-.4Z"/></g><polygon class="cls-31" points="38.14 65.76 42.46 64.38 50.08 32.56 44.1 34.59 38.14 65.76"/><polygon class="cls-31" points="32.43 67.58 34.98 66.76 41.81 35.37 37.83 36.73 32.43 67.58"/></g></g><g class="cls-44"><g><g><text class="cls-30" transform="translate(101.84 35.71) rotate(16.05)"><tspan x="0" y="0">ICN</tspan></text><text class="cls-30" transform="translate(119.27 40.73) rotate(16.05)"><tspan x="0" y="0">JFK</tspan></text></g><g><g><text class="cls-23" transform="translate(101.57 44.08) rotate(16.05)"><tspan x="0" y="0">Date</tspan></text><text class="cls-15" transform="translate(100.13 45.27) rotate(16.05)"><tspan x="0" y="0">22/08/26</tspan></text></g><g><text class="cls-23" transform="translate(111.54 46.95) rotate(16.05)"><tspan x="0" y="0">Flight</tspan></text><text class="cls-15" transform="translate(111.19 48.45) rotate(16.05)"><tspan x="0" y="0">A9322</tspan></text></g><g><text class="cls-23" transform="translate(122.16 50) rotate(16.05)"><tspan x="0" y="0">Gate</tspan></text><text class="cls-15" transform="translate(122.03 51.57) rotate(16.05)"><tspan x="0" y="0">D09</tspan></text></g></g><g><g><text class="cls-23" transform="translate(100.29 48.86) rotate(16.05)"><tspan x="0" y="0">Seat</tspan></text><text class="cls-15" transform="translate(100.42 50.5) rotate(16.05)"><tspan x="0" y="0">C11</tspan></text></g><g><text class="cls-23" transform="translate(110.4 51.77) rotate(16.05)"><tspan x="0" y="0">Code</tspan></text><text class="cls-15" transform="translate(111.18 53.6) rotate(16.05)"><tspan x="0" y="0">7</tspan></text></g><g><text class="cls-23" transform="translate(120.7 54.74) rotate(16.05)"><tspan x="0" y="0">Time</tspan></text><text class="cls-15" transform="translate(120.37 56.24) rotate(16.05)"><tspan x="0" y="0">14:50</tspan></text></g></g></g><rect class="cls-1" x="89.24" y="24.19" width="48.81" height="40.22" rx="5.27" ry="5.27" transform="translate(39.65 141.27) rotate(-73.95)"/><g><g><rect class="cls-19" x="95.3" y="21.66" width="36.69" height="45.28" rx="5.62" ry="5.62" transform="translate(16.68 -29.7) rotate(16.05)"/><rect class="cls-43" x="95.11" y="37.96" width="36.51" height="14.66" transform="translate(16.94 -29.58) rotate(16.05)"/><g><rect class="cls-25" x="98.42" y="27.58" width="36.69" height="11.8" transform="translate(13.81 -30.98) rotate(16.05)"/><g><text class="cls-24" transform="translate(103.06 31.47) rotate(16.05)"><tspan x="0" y="0">ICN</tspan></text><text class="cls-24" transform="translate(120.49 36.48) rotate(16.05)"><tspan x="0" y="0">JFK</tspan></text></g><path d="M118.25,33.56l-1.06-.3-.61-1.39-.06,1.19-.73-.21-.32-.59-.23,.37,.22,.44v.04l-.44,.26v.44l.58-.32,.73,.21-.58,1.04,1.25-.85,1.06,.3c.13,.04,.27-.04,.31-.17l.04-.15c.04-.13-.04-.27-.17-.31Z"/></g></g><g><rect x="96.62" y="51.56" width=".24" height="6.58" transform="translate(18.94 -24.61) rotate(16.05)"/><rect x="97.22" y="51.73" width=".24" height="6.58" transform="translate(19.01 -24.77) rotate(16.05)"/><rect x="97.72" y="51.87" width=".24" height="6.58" transform="translate(19.07 -24.9) rotate(16.05)"/><rect x="108.69" y="55.02" width=".16" height="6.58" transform="translate(20.36 -27.8) rotate(16.05)"/><rect x="109.18" y="55.16" width=".16" height="6.58" transform="translate(20.42 -27.93) rotate(16.05)"/><rect x="111.65" y="55.87" width=".16" height="6.58" transform="translate(20.71 -28.59) rotate(16.05)"/><rect x="117.1" y="57.44" width=".16" height="6.58" transform="translate(21.36 -30.03) rotate(16.05)"/><rect x="117.91" y="57.67" width=".16" height="6.58" transform="translate(21.46 -30.25) rotate(16.05)"/><rect x="121.18" y="58.61" width=".16" height="6.58" transform="translate(21.84 -31.11) rotate(16.05)"/><rect x="121.71" y="58.77" width=".16" height="6.58" transform="translate(21.91 -31.26) rotate(16.05)"/><rect x="122.34" y="58.95" width=".16" height="6.58" transform="translate(21.98 -31.42) rotate(16.05)"/><rect x="119.33" y="58.08" width=".16" height="6.58" transform="translate(21.62 -30.62) rotate(16.05)"/><rect x="109.74" y="55.32" width=".16" height="6.58" transform="translate(20.49 -28.08) rotate(16.05)"/><rect x="105.66" y="54.16" width=".24" height="6.58" transform="translate(20.01 -27.01) rotate(16.05)"/><rect x="98.25" y="52.15" width="1.09" height="6.58" transform="translate(19.18 -25.16) rotate(16.05)"/><rect x="100.21" y="52.71" width="1.09" height="6.58" transform="translate(19.41 -25.68) rotate(16.05)"/><rect x="99.56" y="52.41" width=".29" height="6.58" transform="translate(19.29 -25.4) rotate(16.05)"/><rect x="104.58" y="53.89" width=".5" height="6.58" transform="translate(19.9 -26.76) rotate(16.05)"/><rect x="101.76" y="53.04" width=".29" height="6.58" transform="translate(19.55 -25.98) rotate(16.05)"/><rect x="103.46" y="53.53" width=".29" height="6.58" transform="translate(19.75 -26.43) rotate(16.05)"/><rect x="102.7" y="53.34" width=".45" height="6.58" transform="translate(19.67 -26.25) rotate(16.05)"/><rect x="106.54" y="54.44" width=".45" height="6.58" transform="translate(20.13 -27.27) rotate(16.05)"/><rect x="107.26" y="54.65" width=".45" height="6.58" transform="translate(20.21 -27.46) rotate(16.05)"/><rect x="116.11" y="57.22" width=".6" height="6.58" transform="translate(21.27 -29.83) rotate(16.05)"/><rect x="119.89" y="58.32" width=".73" height="6.58" transform="translate(21.73 -30.85) rotate(16.05)"/><rect x="113.31" y="56.39" width=".45" height="6.58" transform="translate(20.93 -29.07) rotate(16.05)"/><rect x="114.1" y="56.62" width=".45" height="6.58" transform="translate(21.02 -29.28) rotate(16.05)"/><rect x="114.9" y="56.85" width=".45" height="6.58" transform="translate(21.12 -29.49) rotate(16.05)"/><rect x="112.2" y="56.07" width=".45" height="6.58" transform="translate(20.8 -28.77) rotate(16.05)"/><rect x="110.24" y="55.55" width=".75" height="6.58" transform="translate(20.58 -28.29) rotate(16.05)"/></g><g><g><text class="cls-38" transform="translate(102.8 39.83) rotate(16.05)"><tspan x="0" y="0">Date</tspan></text><text class="cls-32" transform="translate(101.36 41.02) rotate(16.05)"><tspan x="0" y="0">22/08/26</tspan></text></g><g><text class="cls-38" transform="translate(112.76 42.7) rotate(16.05)"><tspan x="0" y="0">Flight</tspan></text><text class="cls-32" transform="translate(112.41 44.2) rotate(16.05)"><tspan x="0" y="0">A9322</tspan></text></g><g><text class="cls-38" transform="translate(123.39 45.76) rotate(16.05)"><tspan x="0" y="0">Gate</tspan></text><text class="cls-32" transform="translate(123.25 47.32) rotate(16.05)"><tspan x="0" y="0">D09</tspan></text></g></g><g><g><text class="cls-38" transform="translate(101.52 44.62) rotate(16.05)"><tspan x="0" y="0">Seat</tspan></text><text class="cls-32" transform="translate(101.64 46.25) rotate(16.05)"><tspan x="0" y="0">C11</tspan></text></g><g><text class="cls-38" transform="translate(111.62 47.52) rotate(16.05)"><tspan x="0" y="0">Code</tspan></text><text class="cls-32" transform="translate(112.4 49.35) rotate(16.05)"><tspan x="0" y="0">7</tspan></text></g><g><text class="cls-38" transform="translate(121.92 50.49) rotate(16.05)"><tspan x="0" y="0">Time</tspan></text><text class="cls-32" transform="translate(121.59 51.99) rotate(16.05)"><tspan x="0" y="0">14:50</tspan></text></g></g></g></g><g><path class="cls-18" d="M130.04,83.82c-.94-.23-1.86-.41-2.75-.54-.88-8.23-1.37-12.7-1.45-13.31-.23-1.74-.8-2.58-1.64-3.34l-.09-.74c-.1-.85-.86-1.46-1.72-1.37-.25-.14-.53-.26-.82-.36,.44-.89,.5-1.97,.08-2.94-.61-1.41-2.03-2.25-3.54-2.08-.37,.04-.73,.14-1.07,.3l-1.66,.77c-.22-.35-.5-.67-.85-.93l-2.02-1.52c-.7-.53-1.56-.76-2.43-.67-1,.11-1.9,.65-2.47,1.48-.9,1.32-.78,3.03,.2,4.21l-.23,.23c-.59,.6-.91,1.43-.89,2.27,.01,.32,.09,.63,.19,.93-.8,.14-1.36,.88-1.28,1.69l.08,.73c-.66,.93-1.03,1.87-.89,3.61,.12,1.38,2.44,22.6,2.54,23.5l.15,1.35,1.19,.66c.53,.29,3.47,1.71,9.63,1.05,1.48-.16,2.87-.41,4.14-.75,1.35,.15,3.15,.11,5.16-.11,.38-.04,.76-.09,1.15-.14,4.36-.6,6.7-1.49,7.92-2.45,.6-.02,1.1-.44,1.22-1.03l.21-1.04c.11-.55,.48-2.09,.61-2.64l.02-.07c.81-3.81-5.12-5.86-8.72-6.74Z"/><g><path class="cls-18" d="M123.38,69.8c-.19-1.46-.58-1.59-1.12-2.11-.54-.52-.61-1.19-.61-1.19l-7.14,.77-7.14,.77s.07,.68-.34,1.3c-.41,.62-.77,.84-.64,2.3,.12,1.46,2.72,25.18,2.72,25.18,0,0,2.62,1.45,8.68,.79,6.06-.66,8.31-2.63,8.31-2.63,0,0-2.53-23.72-2.72-25.18Z"/><ellipse class="cls-46" cx="128.74" cy="95.08" rx="7.64" ry="1.47" transform="translate(-11.81 18.53) rotate(-7.87)"/><ellipse class="cls-46" cx="114.53" cy="67.46" rx="7.2" ry="1.99" transform="translate(-6.59 12.71) rotate(-6.17)"/><g><path class="cls-46" d="M115.21,66.21c3.95-.32,7.11,.21,7.23,1.26,.12,1.12-3.28,2.41-7.59,2.88-4.31,.47-7.91-.06-8.03-1.19-.11-1.05,2.87-2.25,6.79-2.78-4.19,.56-7.37,1.87-7.24,3.03,.13,1.23,3.95,1.83,8.52,1.33s8.18-1.89,8.04-3.12c-.13-1.16-3.51-1.75-7.72-1.41Z"/><path class="cls-46" d="M115.16,66.22c-.12,0-.23,.02-.35,.03,.12-.01,.23-.02,.35-.03Z"/><path class="cls-46" d="M113.65,66.38c.12-.02,.23-.03,.35-.04-.12,.01-.23,.03-.35,.04Z"/></g><path class="cls-12" d="M117.43,94.27c3.22-.35,6.11-1.53,8.29-2.81-.35-3.29-1.57-14.77-2.06-19.12-2.25,.87-5.17,1.56-8.4,1.9s-6.23,.3-8.61-.06c.46,4.36,1.72,15.83,2.08,19.12,2.44,.64,5.48,1.32,8.7,.97Z"/><ellipse class="cls-40" cx="114.52" cy="67.35" rx="6.16" ry="1.51" transform="translate(-6.58 12.71) rotate(-6.17)"/><text class="cls-7" transform="translate(109.73 83.69) rotate(-6.17) scale(.95 1)"><tspan class="cls-37" x="0" y="0">T</tspan><tspan x="3.49" y="0">a</tspan><tspan class="cls-35" x="6.95" y="0">k</tspan><tspan class="cls-47" x="10.24" y="0">e</tspan><tspan x=".17" y="4.49">Ca</tspan><tspan class="cls-45" x="7.68" y="4.49">r</tspan><tspan class="cls-47" x="10.07" y="4.49">e</tspan></text><g><path class="cls-29" d="M113.55,66.44l-1.27-.42-.52,1.79,1.27,.42c.47,.15,.97-.12,1.11-.61h0c.14-.49-.12-1.02-.6-1.17Z"/><path class="cls-28" d="M111,65.61l1.27,.42-.52,1.79-1.27-.42c-.47-.15-.74-.68-.6-1.17h0c.14-.49,.64-.77,1.11-.61Z"/></g><g><path class="cls-29" d="M116.23,63.5l1.21-.56-.74-1.72-1.21,.56c-.45,.21-.65,.76-.45,1.24h0c.2,.47,.73,.69,1.18,.48Z"/><path class="cls-28" d="M118.65,62.38l-1.21,.56-.74-1.72,1.21-.56c.45-.21,.98,0,1.18,.48h0c.2,.47,0,1.03-.45,1.24Z"/></g><g><path class="cls-29" d="M112.34,60.18l-1.09-.82-1.03,1.52,1.09,.82c.4,.3,.96,.21,1.25-.21h0c.29-.42,.19-1.01-.21-1.31Z"/><path class="cls-28" d="M110.17,58.55l1.09,.82-1.03,1.52-1.09-.82c-.4-.3-.5-.89-.21-1.31h0c.29-.42,.84-.51,1.25-.21Z"/></g><g><path class="cls-17" d="M109.7,62.78l-.56,.57,.81,.72,.56-.57c.21-.21,.2-.55-.03-.75h0c-.22-.2-.57-.19-.78,.02Z"/><path class="cls-9" d="M108.58,63.92l.56-.57,.81,.72-.56,.57c-.21,.21-.56,.22-.78,.02h0c-.22-.2-.23-.53-.03-.75Z"/></g><g><path class="cls-17" d="M118.45,65.07l-.68,.43,.63,.88,.68-.43c.25-.16,.31-.49,.14-.73h0c-.17-.24-.52-.31-.77-.15Z"/><path class="cls-9" d="M117.1,65.94l.68-.43,.63,.88-.68,.43c-.25,.16-.59,.09-.77-.15h0c-.17-.24-.11-.57,.14-.73Z"/></g><g><path class="cls-10" d="M121.85,87.19l-.66,2.8s5.34,4.22,15.43,3.92c.16-.77,.68-2.94,.68-2.94l-15.45-3.78Z"/><ellipse class="cls-10" cx="129.58" cy="89.08" rx="2.08" ry="7.95" transform="translate(12.04 193.54) rotate(-76.13)"/><line class="cls-2" x1="122.84" y1="88.59" x2="122.28" y2="90.7"/><line class="cls-2" x1="122.15" y1="87.98" x2="121.55" y2="90.28"/><line class="cls-2" x1="123.74" y1="89.13" x2="123.2" y2="91.18"/><line class="cls-2" x1="124.64" y1="89.61" x2="124.1" y2="91.67"/><line class="cls-2" x1="125.5" y1="90" x2="124.97" y2="92"/><line class="cls-2" x1="126.38" y1="90.33" x2="125.86" y2="92.33"/><line class="cls-2" x1="127.27" y1="90.59" x2="126.73" y2="92.64"/><line class="cls-2" x1="128.12" y1="90.85" x2="127.58" y2="92.89"/><line class="cls-2" x1="128.88" y1="91.05" x2="128.36" y2="93.06"/><line class="cls-2" x1="129.67" y1="91.24" x2="129.14" y2="93.25"/><line class="cls-2" x1="130.59" y1="91.41" x2="130.06" y2="93.42"/><line class="cls-2" x1="131.55" y1="91.6" x2="131.02" y2="93.61"/><line class="cls-2" x1="132.46" y1="91.71" x2="131.93" y2="93.72"/><line class="cls-2" x1="133.26" y1="91.82" x2="132.73" y2="93.83"/><line class="cls-2" x1="134.04" y1="91.86" x2="133.51" y2="93.87"/><line class="cls-2" x1="134.81" y1="91.87" x2="134.28" y2="93.88"/><line class="cls-2" x1="135.63" y1="91.78" x2="135.12" y2="93.9"/><line class="cls-2" x1="136.44" y1="91.64" x2="135.93" y2="93.92"/></g></g></g><g class="cls-48"><path class="cls-20" d="M150.58,98.45c-.93-.08-1.75-.51-2.33-1.15l-2.52-.21c-1.91-.16-3.34-1.84-3.19-3.75l2.18-26.72c.16-1.92,1.85-3.36,3.77-3.2l14.34,1.17c1.47,.12,2.66,1.14,3.07,2.47l4.21,.34,.27,.07c.48,.13,2.94,.99,3.77,4.62,.39,1.41,3.9,5.51,5.75,5.66l15.41,1.26c3.29,.27,5.75,3.17,5.49,6.46l-.85,10.46c-.19,2.37-2.28,4.15-4.65,3.95l-32.41-2.64c-.7,.71-1.7,1.12-2.76,1.03l-2.52-.21c-.68,.54-1.55,.83-2.48,.76l-4.53-.37Z"/><path class="cls-31" d="M195.07,81.94l-15.41-1.26c-3.57-.29-7.9-5.83-8.38-7.94-.48-2.1-1.69-2.44-1.69-2.44l-5.21-.42-1.41-.11v.12c0-.1-.01-.19-.03-.28h.04l.12-1.49c.03-.31-.21-.58-.51-.61l-14.35-1.17c-.31-.03-.58,.21-.61,.51l-.12,1.49h.04c-.03,.09-.06,.18-.07,.28l-1.91,23.45-.06,.69-.07,.82c-.02,.3,.2,.56,.5,.59l4.34,.35-.03,.36c-.03,.33,.22,.61,.54,.64l4.53,.37c.33,.03,.61-.22,.64-.54l.03-.36,4.34,.35c.3,.02,.56-.2,.59-.5l.06-.7,17.46,1.42,17.08,1.39c.76,.06,1.43-.5,1.49-1.26l.85-10.46c.14-1.68-1.12-3.16-2.8-3.29Z"/><g><g><rect class="cls-31" x="146.5" y="68.21" width="15.52" height="26.24" rx="1.47" ry="1.47" transform="translate(7.11 -12.26) rotate(4.66)"/><path d="M145.49,92.7h15.52v1.27c0,.43-.35,.79-.79,.79h-13.94c-.43,0-.79-.35-.79-.79v-1.27h0Z" transform="translate(8.12 -12.13) rotate(4.66)"/><path d="M148.4,66.93h13.89c.45,0,.81,.36,.81,.81v1.24h-15.52v-1.24c0-.45,.36-.81,.81-.81Z" transform="translate(6.03 -12.39) rotate(4.66)"/></g><rect x="150.29" y="93.9" width="5.73" height="1.81" rx=".86" ry=".86" transform="translate(8.2 -12.12) rotate(4.66)"/><path d="M195.07,81.94l-15.41-1.26c-3.57-.29-7.9-5.83-8.38-7.94-.48-2.1-1.69-2.44-1.69-2.44l-5.21-.42-1.41-.11-1.99,24.37,17.46,1.42,17.08,1.39c.76,.06,1.43-.5,1.49-1.26l.85-10.46c.14-1.68-1.12-3.16-2.8-3.29Zm-30.58,10.57c-.03,.32-.3,.55-.62,.53l-.55-.04c-.32-.03-.55-.3-.53-.62l.09-1.08c.03-.32,.3-.55,.62-.53l.55,.04c.32,.03,.55,.3,.53,.62l-.09,1.08Zm1.62-19.86c-.03,.32-.3,.55-.62,.53l-.55-.04c-.32-.03-.55-.3-.53-.62l.09-1.08c.03-.32,.3-.55,.62-.53l.55,.04c.32,.03,.55,.3,.53,.62l-.09,1.08Zm1.58-.95c.03-.32,.3-.55,.62-.53l.55,.04c.32,.03,.55,.3,.53,.62l-.09,1.08c-.03,.32-.3,.55-.62,.53l-.55-.04c-.32-.03-.55-.3-.53-.62l.09-1.08Zm.12,21.08c-.03,.32-.3,.55-.62,.53l-.55-.04c-.32-.03-.55-.3-.53-.62l.09-1.08c.03-.32,.3-.55,.62-.53l.55,.04c.32,.03,.55,.3,.53,.62l-.09,1.08Zm3.32,.27c-.03,.32-.3,.55-.62,.53l-.55-.04c-.32-.03-.55-.3-.53-.62l.09-1.08c.03-.32,.3-.55,.62-.53l.55,.04c.32,.03,.55,.3,.53,.62l-.09,1.08Zm3.32,.27c-.03,.32-.3,.55-.62,.53l-.55-.04c-.32-.03-.55-.3-.53-.62l.09-1.08c.03-.32,.3-.55,.62-.53l.55,.04c.32,.03,.55,.3,.53,.62l-.09,1.08Zm3.32,.27c-.03,.32-.3,.55-.62,.53l-.55-.04c-.32-.03-.55-.3-.53-.62l.09-1.08c.03-.32,.3-.55,.62-.53l.55,.04c.32,.03,.55,.3,.53,.62l-.09,1.08Zm3.32,.27c-.03,.32-.3,.55-.62,.53l-.55-.04c-.32-.03-.55-.3-.53-.62l.09-1.08c.03-.32,.3-.55,.62-.53l.55,.04c.32,.03,.55,.3,.53,.62l-.09,1.08Zm3.32,.27c-.03,.32-.3,.55-.62,.53l-.55-.04c-.32-.03-.55-.3-.53-.62l.09-1.08c.03-.32,.3-.55,.62-.53l.55,.04c.32,.03,.55,.3,.53,.62l-.09,1.08Zm3.32,.27c-.03,.32-.3,.55-.62,.53l-.55-.04c-.32-.03-.55-.3-.53-.62l.09-1.08c.03-.32,.3-.55,.62-.53l.55,.04c.32,.03,.55,.3,.53,.62l-.09,1.08Zm3.32,.27c-.03,.32-.3,.55-.62,.53l-.55-.04c-.32-.03-.55-.3-.53-.62l.09-1.08c.03-.32,.3-.55,.62-.53l.55,.04c.32,.03,.55,.3,.53,.62l-.09,1.08Zm3.32,.27c-.03,.32-.3,.55-.62,.53l-.55-.04c-.32-.03-.55-.3-.53-.62l.09-1.08c.03-.32,.3-.55,.62-.53l.55,.04c.32,.03,.55,.3,.53,.62l-.09,1.08Z"/><rect class="cls-16" x="146.63" y="68.66" width="8.38" height="23.8" transform="translate(7.04 -11.98) rotate(4.66)"/><g><path class="cls-31" d="M188.23,88.36s-.06,.11-.12,.19c-.05,.08-.11,.15-.17,.22-.06,.07-.12,.14-.17,.19s-.09,.08-.11,.08l-1.31-.11-.31,.81,.09-.48,1.34,.11-.67,.67-.84-.07-.39,1.01-.81-.07,1.05-2.74,2.42,.2Z"/><path class="cls-31" d="M188.46,88.37l.82,.07-1.04,2.74-.82-.07,1.04-2.74Z"/><path class="cls-31" d="M188.47,91.2l1.05-2.74,.81,.07-.78,2.04,1.35,.11s-.02,.03-.06,.09c-.04,.06-.09,.12-.15,.2-.06,.08-.12,.15-.19,.22s-.12,.13-.16,.17l-1.87-.15Z"/><path class="cls-31" d="M193.34,91.6l.58-1.54-1.28,1.49-.3-.02-.1-1.6-.58,1.54-.82-.07,1.05-2.74,1.02,.08,.1,1.43,1.15-1.32,1.03,.08-1.05,2.74-.81-.07Z"/></g><g><g><path d="M155.71,91.75l.09-1.06s.02-.08,.05-.11c.03-.03,.07-.05,.12-.06,.04-.02,.09-.02,.14-.03,.05,0,.09,0,.13,0,.08,0,.15,.03,.22,.06,.06,.04,.12,.08,.17,.13,.05,.05,.08,.11,.1,.17,.02,.06,.03,.12,.03,.17l-.05,.65,.54,.21-.04,.45-1.5-.57Zm.85-.13l-.25,.05,.05-.67s0,0-.01-.01c0,0-.02-.01-.03-.02l-.03-.02s-.02-.01-.02-.01h-.03s-.02,0-.04,.02-.03,.02-.03,.02l-.04,.47,.43,.16Z"/><path d="M157.42,89.72l-.33,.02s.03,.02,.06,.04c.03,.02,.06,.05,.1,.07s.07,.05,.1,.08c.03,.03,.05,.04,.05,.06l-.08,.98h-.03l-1.26-.95s-.03-.01-.04-.03-.04-.03-.05-.05c-.02-.02-.03-.04-.05-.05-.01-.02-.02-.03-.02-.04l.03-.39s.01-.03,.04-.04c.02-.01,.05-.02,.08-.03s.06-.01,.1-.02c.03,0,.06,0,.09-.01l1.25-.05-.03,.41Zm-.43,.49l.04-.47-.69,.03,.62,.44h.03Z"/><path d="M156.75,89.18c-.09,0-.19-.03-.28-.07-.1-.04-.18-.09-.26-.15-.07-.06-.13-.13-.18-.21s-.06-.16-.06-.24l.08-.96c.07,.05,.13,.1,.2,.15,.06,.05,.12,.11,.17,.17l-.05,.6s0,.04,.02,.07c.01,.02,.03,.05,.06,.07,.03,.02,.05,.04,.09,.06,.03,.02,.06,.03,.1,.05,.02,0,.04,.01,.06,.02s.04,0,.05,.01c.04,0,.08,0,.12-.01,.04-.01,.08-.03,.12-.05s.07-.04,.09-.07c.03-.03,.04-.05,.04-.08l.05-.56c.06,.04,.13,.09,.19,.14s.12,.11,.18,.17l-.02,.18c0,.09-.03,.19-.05,.28-.03,.09-.07,.17-.13,.24-.06,.07-.14,.12-.23,.16-.09,.04-.21,.05-.35,.04h0Z"/><path d="M156.06,87.43l.04-.44,.67,.26-.63-.82,.04-.49,.7,.86,.8-.38-.04,.5-.73,.39,.67,.26-.04,.45-1.5-.57Z"/><path d="M157.8,85.03l-.84-.32,.81,.7v.16l-.89,.06,.84,.32-.04,.45-1.5-.57,.05-.56,.78-.06-.72-.63,.05-.56,1.5,.57-.04,.44Z"/><path d="M157.95,83.22l-.33,.02s.03,.02,.06,.04c.03,.02,.06,.05,.1,.07s.07,.05,.1,.08c.03,.03,.05,.04,.05,.06l-.08,.98h-.03l-1.26-.95s-.03-.01-.04-.03-.04-.03-.05-.05c-.02-.02-.03-.04-.05-.05-.01-.02-.02-.03-.02-.04l.03-.39s.01-.03,.04-.04c.02-.01,.05-.02,.08-.03s.06-.01,.1-.02c.03,0,.06,0,.09-.01l1.25-.05-.03,.41Zm-.43,.49l.04-.47-.69,.03,.62,.44h.03Z"/><path d="M156.49,82.13l.05-.56,.87-.06-.84-.32,.04-.44,1.5,.57-.05,.56-.87,.06,.84,.32-.04,.45-1.5-.57Z"/></g><g><path d="M158.14,90.62s.06,.04,.1,.06,.08,.06,.12,.09c.04,.03,.07,.06,.1,.09,.03,.03,.04,.05,.04,.06l-.06,.72,.44,.17-.28,.1,.07-.87,.36,.36-.04,.46,.55,.21-.04,.44-1.5-.57,.11-1.32Z"/><path d="M159.27,89.36c.1,.05,.18,.12,.25,.19,.07,.07,.13,.16,.16,.24,.04,.09,.06,.18,.05,.27l-.02,.27c0,.08-.02,.16-.05,.23-.02,.07-.06,.13-.1,.18s-.11,.09-.18,.11c-.07,.02-.16,.03-.27,.02-.02,0-.05,0-.07,0-.02,0-.05,0-.08-.02-.1-.02-.2-.06-.3-.11-.1-.05-.18-.11-.25-.19-.07-.07-.13-.15-.17-.24s-.06-.17-.05-.25l.03-.34c.01-.18,.07-.31,.16-.41,.09-.09,.23-.13,.42-.12,.03,0,.05,0,.08,0,.03,0,.06,0,.09,.02,.11,.02,.21,.06,.31,.11Zm-.29,1.07h.02s.07,0,.11,0c.04,0,.07-.02,.11-.04,.03-.02,.06-.04,.08-.06,.02-.02,.03-.05,.04-.08l.02-.19s0-.03-.02-.06c-.01-.03-.03-.06-.06-.1-.02-.03-.05-.07-.08-.1-.03-.03-.06-.06-.09-.07l-.03-.02s-.02,0-.03,0h-.03l-.02-.02h0s-.03,0-.05-.01c-.02,0-.03,0-.05,0-.03,0-.06,0-.09,0-.03,0-.06,0-.08,.02s-.05,.03-.06,.05-.03,.05-.03,.09l-.02,.23s0,.05,.02,.08c.01,.03,.03,.06,.06,.09,.02,.03,.05,.06,.08,.09,.03,.03,.06,.05,.1,.06,.02,0,.04,.02,.06,.03,.02,0,.04,.01,.05,.02,0,0,0,0,.02,0Z"/><path d="M158.29,88.85l.08-1.03c0-.06,.02-.1,.05-.13s.07-.05,.12-.07,.1-.02,.15-.02c.05,0,.1,0,.15,0,.1,0,.18,.03,.24,.08,.06,.04,.11,.1,.14,.16,.03,.06,.05,.13,.07,.2,.01,.07,.02,.14,.02,.2l.62-.41-.04,.5-.59,.43,.02,.03,.51,.2-.04,.45-1.5-.57Zm.51-.8s-.03,0-.04,0c-.01,0-.02,.01-.02,.03l-.04,.47,.44,.17-.26,.02,.05-.62s0-.04-.03-.05c-.03-.01-.05-.02-.07-.02h-.03Z"/><path d="M158.52,85.92s.06,.04,.1,.06,.08,.06,.12,.09c.04,.03,.07,.06,.1,.09,.03,.03,.04,.05,.04,.06l-.06,.72,.44,.17-.28,.12,.07-.9,.36,.36-.04,.46,.17,.07,.07-.89h.02l.04,.04s.03,.02,.04,.02h.02s.05,.05,.08,.08c.03,.03,.06,.05,.08,.08s.05,.05,.07,.07c.02,.02,.03,.03,.03,.03l-.1,1.17-1.5-.57,.11-1.32Z"/><path d="M158.63,84.66l.04-.48,1.29,.93s.03,.02,.04,.04c.02,.02,.04,.03,.06,.05,.02,.02,.04,.04,.05,.05,.01,.02,.02,.03,.02,.04l-.03,.38s-.01,.03-.04,.04c-.02,0-.05,.02-.08,.03-.03,0-.06,.01-.1,.02-.03,0-.06,0-.09,.01l-1.25,.04,.03-.4,1.04-.03-.98-.73Z"/><path d="M158.78,82.75s.06,.04,.1,.06,.08,.06,.12,.09c.04,.03,.07,.06,.1,.09,.03,.03,.04,.05,.04,.06l-.06,.72,.44,.17h-.27l.06-.78,.36,.36-.04,.46,.17,.07,.07-.89h.02l.04,.04s.03,.02,.04,.02h.02s.05,.05,.08,.08c.03,.03,.06,.05,.08,.08s.05,.05,.07,.07c.02,.02,.03,.03,.03,.03l-.1,1.17-1.5-.57,.11-1.32Z"/><path d="M158.79,82.63l.08-1.03c0-.06,.02-.1,.05-.13s.07-.05,.12-.07,.1-.02,.15-.02c.05,0,.1,0,.15,0,.1,0,.18,.03,.24,.08,.06,.04,.11,.1,.14,.16,.03,.06,.05,.13,.07,.2,.01,.07,.02,.14,.02,.2l.62-.41-.04,.5-.59,.43,.02,.03,.51,.2-.04,.45-1.5-.57Zm.51-.8s-.03,0-.04,0c-.01,0-.02,.01-.02,.03l-.04,.47,.44,.17-.27,.14,.06-.74s0-.04-.03-.05c-.03-.01-.05-.02-.07-.02h-.03Z"/></g></g><polygon points="151.79 68.7 146.65 92.16 149.17 92.37 154.38 68.91 151.79 68.7"/><line class="cls-3" x1="155.26" y1="68.98" x2="150.47" y2="92.47"/></g></g><g class="cls-36"><path class="cls-14" d="M177.45,63.11c-.34,0-.69-.05-1.02-.15l-6.94-2.07c-1.23-.37-2.25-1.26-2.81-2.46-.61-1.31-.61-2.84-.02-4.2l4.06-9.27c-.51-.57-.98-1.19-1.38-1.84l-13.68-4.49c-.63-.48-1.15-1.1-1.54-1.82-.59-1.1-.81-2.33-.63-3.54-.61,.16-1.29,.3-2.02,.3-.49,0-.97-.07-1.41-.2-.43-.13-1.45-.43-3.17-2.99h0c-.61-.91-.58-2.12,.09-2.99l.25-.33h0c-.34-.51-.32-1.18,.05-1.67l1-1.31c1.12-1.47,3.38-1.33,4.29,.28h0c.05,.09,.12,.19,.19,.29,.51-.13,1.19-.28,2.04-.37,.27-.03,.54-.04,.81-.04s.53,.01,.79,.04c1.06-1.52,2.82-2.49,4.73-2.49,.56,0,1.11,.08,1.65,.24l11.76,3.51c1.67-.81,3.51-1.23,5.36-1.23,1.95,0,3.89,.47,5.67,1.37,4.78,2.43,7.45,7.82,6.53,13.1-.75,4.27-3.57,7.71-7.43,9.32l-3.66,12.25c-.07,.23-.16,.45-.26,.66-.21,.42-.49,.79-.83,1.1-.36,.33-.76,.58-1.2,.75-.42,.16-.85,.24-1.28,.24h0Z"/><path class="cls-31" d="M182.73,27.31c-2.76-.83-5.6-.37-7.89,1.01l-12.36-3.69h0l-.43-.13c-1.68-.5-3.45,.45-3.95,2.13l-.22,.73c-.63-.33-1.59-.65-2.8-.52-1.9,.2-2.75,.79-3.29,.46-.76-.46-1.45-1.67-1.45-1.67l-.51,.67s1.2,1.79,1.76,1.96c1.46,.44,3.37-.86,4.8-.51,.58,.14,.94,.43,1.17,.7l-.47,1.57c-.63-.33-1.59-.65-2.8-.52-1.9,.2-2.75,.79-3.29,.46-.76-.46-1.45-1.67-1.45-1.67l-.51,.67s1.2,1.79,1.76,1.96c1.46,.44,3.37-.86,4.8-.51,.58,.14,.94,.43,1.17,.7l-.62,2.07c-.5,1.68,.45,3.45,2.13,3.95l.43,.13h0l12.37,3.7v-.02c.63,1.32,1.57,2.49,2.73,3.42l-4.78,10.92c-.57,1.31,0,2.8,1.2,3.16l6.94,2.07c.22,.06,.44,.05,.64-.03,.14-.05,.26-.13,.38-.23,.11-.1,.21-.23,.28-.37,.04-.07,.07-.15,.09-.23l4.04-13.51c3.11-.89,5.72-3.28,6.72-6.61,1.55-5.18-1.4-10.64-6.58-12.19Z"/><g><g><path class="cls-13" d="M158.74,27.93s-1.39-1.33-3.66-1.09c-1.9,.2-2.75,.79-3.29,.46-.76-.46-1.45-1.67-1.45-1.67l-.51,.67s1.2,1.79,1.76,1.96c1.46,.44,3.37-.86,4.8-.51,1.32,.32,1.53,1.38,1.53,1.38l.82-1.19Z"/><path class="cls-13" d="M157.95,30.58s-1.39-1.33-3.66-1.09c-1.9,.2-2.75,.79-3.29,.46-.76-.46-1.45-1.67-1.45-1.67l-.51,.67s1.2,1.79,1.76,1.96c1.46,.44,3.37-.86,4.8-.51,1.32,.32,1.53,1.38,1.53,1.38l.82-1.19Z"/></g><g><path class="cls-27" d="M177.17,60.49l-6.94-2.07c-1.21-.36-1.78-1.85-1.2-3.16l5.21-11.9c.25-.56,.81-.86,1.33-.71l6.36,1.9c.57,.17,.88,.84,.69,1.49l-4.06,13.58c-.19,.65-.82,1.04-1.39,.87Z"/><path class="cls-6" d="M182.73,27.31c-2.76-.83-5.6-.37-7.89,1.01l-12.36-3.69-3.77,12.62,12.37,3.7v-.02c1.15,2.41,3.28,4.34,6.04,5.16,5.18,1.55,10.64-1.4,12.19-6.58s-1.4-10.64-6.58-12.19Z"/><circle class="cls-21" cx="179.98" cy="36.7" r="7.36"/><circle cx="179.98" cy="36.7" r="5.59"/><path class="cls-4" d="M160.45,23.85h.33v13.16h-.33c-1.88,0-3.4-1.52-3.4-3.4v-6.37c0-1.88,1.52-3.4,3.4-3.4Z" transform="translate(15.36 -44.21) rotate(16.63)"/><g><rect class="cls-6" x="179.46" y="34.42" width=".93" height="4.94" transform="translate(4.08 89.92) rotate(-28.37)"/><rect class="cls-6" x="177.94" y="35.24" width=".93" height="4.94" transform="translate(3.51 89.29) rotate(-28.37)"/><rect class="cls-6" x="180.98" y="33.6" width=".93" height="4.94" transform="translate(4.65 90.54) rotate(-28.37)"/></g></g><path class="cls-4" d="M175.25,52.63l-6.22,2.63c-.57,1.31,0,2.8,1.2,3.16l6.94,2.07c.57,.17,1.2-.22,1.39-.87l2.84-9.51-6.15,2.52Z"/><g><path class="cls-22" d="M163.56,24c-.32-.64,.41-3.73,.41-3.73,0,0-1.18,2.95-1.8,3.29-.63,.34-1.53,.42-1.53,.42,0,0,1.5,.74,1.37,1.69-.14,.95-.52,2.48-.52,2.48,0,0,.57-1.46,1-2.32,.43-.86,2.09-.61,2.09-.61,0,0-.69-.58-1.01-1.22Z"/><path class="cls-22" d="M165.74,26.29c-.21-.41,.26-2.42,.26-2.42,0,0-.76,1.91-1.17,2.13-.41,.22-.99,.27-.99,.27,0,0,.97,.48,.88,1.1-.09,.62-.34,1.6-.34,1.6,0,0,.37-.95,.65-1.5,.28-.56,1.35-.39,1.35-.39,0,0-.45-.38-.66-.79Z"/></g></g></g><g><rect x="65.46" y="14.86" width="9.16" height="2.15" transform="translate(18.31 65.77) rotate(-56.74)"/><rect class="cls-41" x="65.95" y="14.98" width="9.16" height="2.15" transform="translate(18.43 66.23) rotate(-56.74)"/><rect x="70.77" y="22.09" width="9.16" height="2.15" transform="translate(-2.21 9.07) rotate(-6.79)"/><rect class="cls-42" x="71" y="22.43" width="9.16" height="2.15" transform="translate(-2.25 9.1) rotate(-6.79)"/></g><path d="M108.21,104.21c-.66-1.83-1.81-3.42-2.47-5.25-.02-.07-.14-.09-.16,0-.33,1.85-.96,3.62-1.29,5.47-.01,.06,.06,.14,.12,.09l3.81-2.83c.07-.05,.04-.15-.04-.15-1-.1-2-.17-3-.2-.49-.02-.98-.02-1.48-.02-.2,0-.55-.04-.59,.23,0,.04,0,.07,.04,.09,1.72,1.14,3.45,2.27,5.19,3.39,.09,.06,.17-.09,.08-.14-1.74-1.11-3.47-2.24-5.19-3.39l.04,.09c.04-.21,1.04-.1,1.2-.1,.41,0,.83,.02,1.24,.04,.83,.04,1.65,.1,2.47,.18l-.04-.15-3.81,2.83,.12,.09c.33-1.85,.96-3.62,1.29-5.47h-.16c.66,1.83,1.81,3.42,2.47,5.25,.04,.1,.2,.06,.16-.04h0Z"/><path d="M98.01,102.95c1.66-2.95,2.43-6.27,4.09-9.22,.07-.12-.07-.27-.2-.2-2.81,1.67-5.85,2.86-8.66,4.52-.1,.06-.09,.23,.03,.26l8.05,1.78c.11,.02,.24-.1,.16-.21-.97-1.38-1.97-2.72-3.03-4.03-.54-.68-1.1-1.34-1.66-2-.27-.31-.63-.9-1.1-.65-.04,.02-.08,.08-.07,.12,.45,3.57,.93,7.14,1.45,10.7,.03,.18,.3,.1,.28-.08-.46-3.23-.9-6.45-1.32-9.69-.03-.21-.26-1.08,.17-.66,.26,.25,.48,.56,.72,.83,.5,.58,.99,1.18,1.46,1.78,.99,1.24,1.94,2.52,2.86,3.82l.16-.21-8.05-1.78,.03,.26c2.81-1.67,5.85-2.86,8.66-4.52l-.2-.2c-1.66,2.95-2.43,6.27-4.09,9.22-.09,.16,.16,.31,.25,.14h0Z"/><g><rect x="169.76" y="104.92" width="5.19" height="2.8" transform="translate(121.77 -89.77) rotate(43.87)"/><rect class="cls-34" x="169.93" y="104.23" width="5.19" height="2.8" transform="translate(121.34 -90.08) rotate(43.87)"/></g><g><rect x="154.13" y="104.69" width="5.19" height="2.8" transform="translate(342.33 143.08) rotate(157.17)"/><rect class="cls-33" x="154.7" y="105.12" width="5.19" height="2.8" transform="translate(343.59 143.69) rotate(157.17)"/></g><g><rect x="197.27" y="70.36" width="5.02" height="2.71" transform="translate(-8.65 111.9) rotate(-30.66)"/><rect class="cls-33" x="196.67" y="70.02" width="5.02" height="2.71" transform="translate(-8.56 111.55) rotate(-30.66)"/></g><g><rect x="204.37" y="81.27" width="4.14" height="2.24" transform="translate(9.25 -20.19) rotate(5.73)"/><rect class="cls-34" x="204.13" y="80.75" width="4.14" height="2.24" transform="translate(9.2 -20.17) rotate(5.73)"/></g><g><rect x="182.94" y="70.2" width="5.22" height="2.82" transform="translate(69.89 -90.2) rotate(33.34)"/><rect class="cls-34" x="182.99" y="69.48" width="5.22" height="2.82" transform="translate(69.51 -90.34) rotate(33.34)"/></g></svg>