<?xml version="1.0" encoding="UTF-8"?><svg id="Layer_1" xmlns="http://www.w3.org/2000/svg" xmlns:xlink="http://www.w3.org/1999/xlink" viewBox="0 0 221.1 124.16"><defs><style>.cls-1{stroke-width:.06px;}.cls-1,.cls-2,.cls-3,.cls-4,.cls-5,.cls-6,.cls-7,.cls-8,.cls-9,.cls-10,.cls-11,.cls-12{fill:#fff;}.cls-1,.cls-3,.cls-13,.cls-14,.cls-15,.cls-16,.cls-17,.cls-18,.cls-5,.cls-19,.cls-20,.cls-21,.cls-22,.cls-23,.cls-24,.cls-6,.cls-25,.cls-7,.cls-8,.cls-9,.cls-26,.cls-10,.cls-11,.cls-12,.cls-27,.cls-28,.cls-29,.cls-30,.cls-31,.cls-32,.cls-33{stroke-miterlimit:10;}.cls-1,.cls-3,.cls-13,.cls-14,.cls-17,.cls-18,.cls-5,.cls-19,.cls-21,.cls-22,.cls-23,.cls-25,.cls-8,.cls-10,.cls-11,.cls-12,.cls-27,.cls-28,.cls-29,.cls-31,.cls-32,.cls-33{stroke:#000;}.cls-34{filter:url(#drop-shadow-43);}.cls-35{fill:#fafafa;}.cls-36{letter-spacing:-.09em;}.cls-3{stroke-width:.2px;}.cls-13{stroke-width:.42px;}.cls-13,.cls-21,.cls-23,.cls-27,.cls-28,.cls-31{fill:#ff307b;}.cls-14,.cls-21,.cls-26{stroke-width:.09px;}.cls-14,.cls-24,.cls-32,.cls-33{fill:#d82a71;}.cls-15,.cls-16,.cls-18,.cls-20,.cls-22,.cls-37{fill:none;}.cls-15,.cls-24,.cls-6,.cls-7,.cls-9,.cls-26,.cls-30{stroke:#171717;}.cls-15,.cls-7{stroke-width:.08px;}.cls-16{stroke:#e6e6e6;stroke-width:.5px;}.cls-38{clip-path:url(#clippath-2);}.cls-17{stroke-width:.15px;}.cls-39{letter-spacing:-.07em;}.cls-18{stroke-width:.35px;}.cls-40{filter:url(#drop-shadow-44);}.cls-4{font-family:AirstrikeCondensed, 'Airstrike Condensed';font-size:3.06px;}.cls-5{stroke-width:.3px;}.cls-19{stroke-width:.33px;}.cls-19,.cls-25,.cls-29{fill:#1fce65;}.cls-41{clip-path:url(#clippath-1);}.cls-20{stroke:#fff;stroke-width:.81px;}.cls-42{letter-spacing:-.07em;}.cls-22{stroke-width:.12px;}.cls-23,.cls-33{stroke-width:.39px;}.cls-24{stroke-width:.1px;}.cls-6{stroke-width:.17px;}.cls-25{stroke-width:.4px;}.cls-43{filter:url(#drop-shadow-45);}.cls-44{fill:#171717;}.cls-45{filter:url(#drop-shadow-41);}.cls-8{stroke-width:.31px;}.cls-46{clip-path:url(#clippath);}.cls-9{stroke-width:.21px;}.cls-26,.cls-30{fill:#d8d8d8;}.cls-10{stroke-width:.17px;}.cls-47{font-family:AirstrikeAcademy, 'Airstrike Academy';font-size:5.82px;}.cls-47,.cls-48{fill:#ffca2c;}.cls-11{stroke-width:.24px;}.cls-49{fill:#7688ff;}.cls-12{stroke-width:.07px;}.cls-27,.cls-32{stroke-width:.19px;}.cls-50{fill:#ffcd1c;}.cls-28{stroke-width:.14px;}.cls-29{stroke-width:.39px;}.cls-30{stroke-width:.1px;}.cls-51{letter-spacing:0em;}.cls-31{stroke-width:.31px;}.cls-52{fill:#144c2b;}.cls-53{letter-spacing:-.1em;}</style><filter id="drop-shadow-41" filterUnits="userSpaceOnUse"><feOffset dx="1.37" dy="1.37"/><feGaussianBlur result="blur" stdDeviation="0"/><feFlood flood-color="#000" flood-opacity=".38"/><feComposite in2="blur" operator="in"/><feComposite in="SourceGraphic"/></filter><clipPath id="clippath"><path class="cls-37" d="M178.62,101.97l-13.91-3.66c-.6-.16-.92-.91-.7-1.64l6.85-22.52c1.31-4.99,5.56-8.19,9.48-7.16l.3,.08c3.93,1.03,6.05,5.91,4.74,10.9l-5.34,22.93c-.17,.74-.81,1.23-1.41,1.07Z"/></clipPath><filter id="drop-shadow-43" filterUnits="userSpaceOnUse"><feOffset dx="1.15" dy="1.15"/><feGaussianBlur result="blur-2" stdDeviation="0"/><feFlood flood-color="#000" flood-opacity=".38"/><feComposite in2="blur-2" operator="in"/><feComposite in="SourceGraphic"/></filter><clipPath id="clippath-1"><ellipse class="cls-37" cx="118.62" cy="39.09" rx="6.91" ry="8.08" transform="translate(62.37 150.6) rotate(-81.47)"/></clipPath><clipPath id="clippath-2"><ellipse class="cls-37" cx="140.58" cy="36.32" rx="8.08" ry="6.91" transform="translate(-3.04 57.63) rotate(-22.92)"/></clipPath><filter id="drop-shadow-44" filterUnits="userSpaceOnUse"><feOffset dx="2.08" dy="2.08"/><feGaussianBlur result="blur-3" stdDeviation="0"/><feFlood flood-color="#000" flood-opacity=".38"/><feComposite in2="blur-3" operator="in"/><feComposite in="SourceGraphic"/></filter><filter id="drop-shadow-45" filterUnits="userSpaceOnUse"><feOffset dx="1.2" dy="1.2"/><feGaussianBlur result="blur-4" stdDeviation="0"/><feFlood flood-color="#000" flood-opacity=".38"/><feComposite in2="blur-4" operator="in"/><feComposite in="SourceGraphic"/></filter></defs><g><g><polygon class="cls-2" points="221.15 124.11 -.05 124.11 -.05 .05 24.82 .05 221.15 .05 221.15 124.11"/><line class="cls-16" x1="22.07" y1=".05" x2="22.07" y2="124.11"/><line class="cls-16" x1="221.15" y1=".05" x2="221.15" y2="124.11"/><line class="cls-16" x1="-.05" y1=".05" x2="-.05" y2="124.11"/><line class="cls-16" x1="44.19" y1=".05" x2="44.19" y2="124.11"/><line class="cls-16" x1="66.31" y1=".05" x2="66.31" y2="124.11"/><line class="cls-16" x1="88.43" y1=".05" x2="88.43" y2="124.11"/><line class="cls-16" x1="110.55" y1=".05" x2="110.55" y2="124.11"/><line class="cls-16" x1="132.67" y1=".05" x2="132.67" y2="124.11"/><line class="cls-16" x1="154.79" y1=".05" x2="154.79" y2="124.11"/><line class="cls-16" x1="176.91" y1=".05" x2="176.91" y2="124.11"/><line class="cls-16" x1="199.03" y1=".05" x2="199.03" y2="124.11"/></g><line class="cls-16" x1="221.15" y1=".05" x2="-.05" y2=".05"/><line class="cls-16" x1="221.15" y1="124.11" x2="-.05" y2="124.11"/><line class="cls-16" x1="221.15" y1="103.43" x2="-.05" y2="103.43"/><line class="cls-16" x1="221.15" y1="82.76" x2="-.05" y2="82.76"/><line class="cls-16" x1="221.15" y1="62.08" x2="-.05" y2="62.08"/><line class="cls-16" x1="221.15" y1="41.4" x2="-.05" y2="41.4"/><line class="cls-16" x1="221.15" y1="20.72" x2="-.05" y2="20.72"/></g><g class="cls-45"><path class="cls-5" d="M164.14,100.47c-.84-.22-1.54-.77-1.98-1.55-.48-.86-.58-1.91-.28-2.89l6.84-22.48c.11-.43,.25-.85,.4-1.26s.04-.83-.23-1.15c-2.36-2.72-3.85-6.1-4.27-9.66-.08-.71-.78-1.18-1.46-.98-.12,.04-.24,.07-.35,.11-1.59,.49-3.39,1.04-5.24,.55-.42-.11-1.7-.45-4.21-3.93l-.45-.62c-.29-.4-.29-.93,0-1.33l1.17-1.65c.28-.4,.28-.94,0-1.33v-.02c-.3-.4-.3-.93-.02-1.33l2.17-3.07c.48-.67,1.49-.64,1.92,.06l.86,1.4c.22,.36,.54,.78,.85,1.14,.29,.33,.75,.46,1.18,.33h.04c.83-.26,1.97-.59,3.49-.8,.68-.09,1.36-.12,2.03-.08,.4,.02,.78-.18,1.01-.52,4.19-6.17,11.96-9.19,19.33-7.25,9.53,2.5,15.25,12.29,12.74,21.82-1.5,5.7-5.64,10.2-11.06,12.21-.41,.15-.7,.51-.76,.94-.07,.47-.17,.94-.29,1.4l-5.34,22.9c-.23,.99-.84,1.85-1.67,2.35-.76,.46-1.64,.59-2.47,.37l-13.91-3.66Z"/><path class="cls-2" d="M197.5,63.38c2.2-8.36-2.8-16.91-11.15-19.1-7.31-1.92-14.77,1.66-17.99,8.18-.95-.29-2.13-.47-3.51-.28-3.07,.43-4.41,1.42-5.31,.93-1.26-.7-2.44-2.64-2.44-2.64l-.78,1.11s2.04,2.83,2.97,3.08c2.4,.63,5.42-1.57,7.75-1.08,.28,.06,.52,.14,.75,.23-.2,.53-.38,1.07-.52,1.63-.11,.43-.2,.87-.28,1.3-.9-.25-2-.38-3.26-.21-3.07,.43-4.41,1.42-5.31,.93-1.26-.7-2.44-2.64-2.44-2.64l-.78,1.11s2.04,2.83,2.97,3.08c2.4,.63,5.42-1.57,7.75-1.08,.34,.07,.64,.18,.9,.3-.39,4.99,1.66,9.79,5.32,12.99-.52,.89-.95,1.87-1.23,2.95l-6.85,22.52c-.22,.74,.09,1.48,.7,1.64l13.91,3.66c.6,.16,1.24-.33,1.41-1.07l5.34-22.93c.29-1.12,.41-2.22,.37-3.29,5.54-1.23,10.21-5.43,11.75-11.3Z"/><g><path class="cls-19" d="M170.83,53.76s-2.32-2.08-5.99-1.57c-3.07,.43-4.41,1.42-5.31,.93-1.26-.7-2.44-2.64-2.44-2.64l-.78,1.11s2.04,2.83,2.97,3.08c2.4,.63,5.42-1.57,7.75-1.08,2.17,.45,2.55,2.16,2.55,2.16l1.26-1.98Z"/><path class="cls-19" d="M169.68,58.09s-2.32-2.08-5.99-1.57c-3.07,.43-4.41,1.42-5.31,.93-1.26-.7-2.44-2.64-2.44-2.64l-.78,1.11s2.04,2.83,2.97,3.08c2.4,.63,5.42-1.57,7.75-1.08,2.17,.45,2.55,2.16,2.55,2.16l1.26-1.98Z"/></g><g><g class="cls-46"><path class="cls-31" d="M178.62,101.97l-13.91-3.66c-.6-.16-.92-.91-.7-1.64l6.85-22.52c1.31-4.99,5.56-8.19,9.48-7.16l.3,.08c3.93,1.03,6.05,5.91,4.74,10.9l-5.34,22.93c-.17,.74-.81,1.23-1.41,1.07Z"/><polygon points="196.95 112.08 167.83 124.98 160.47 93.23 189.58 80.33 196.95 112.08"/></g><circle class="cls-13" cx="182.37" cy="59.41" r="15.64"/><circle class="cls-11" cx="182.37" cy="59.41" r="12.05"/><g><g><path class="cls-10" d="M183.28,59.81s2.83,1.92,4.56,1.71c1.73-.22,6.52-2.83,3.51-7.81-3.01-4.98-5.28-.94-5.83,.81s-2.18,3.51-2.46,3.77-.32,1.19,.21,1.52Z"/><path class="cls-28" d="M184.18,59.43s2.43,1.35,3.9,1.11,5.51-2.42,2.88-6.09c-2.62-3.67-4.5-.5-4.94,.86s-1.8,2.76-2.04,2.97-.26,.92,.2,1.15Z"/></g><g><path class="cls-10" d="M182.84,58.81s1.54-3.06,1.11-4.75c-.44-1.69-3.64-6.1-8.19-2.48-4.55,3.62-.26,5.36,1.55,5.68s3.76,1.71,4.05,1.96,1.22,.17,1.49-.41Z"/><path class="cls-28" d="M182.35,57.97s1.02-2.59,.6-4.01-3.11-5.15-6.41-2.08,.08,4.53,1.48,4.79,2.97,1.43,3.21,1.64,.95,.14,1.12-.35Z"/></g><g><path class="cls-10" d="M181.67,58.9s-3.08-1.5-4.76-1.04-6.05,3.73-2.37,8.23c3.69,4.5,5.36,.18,5.65-1.63s1.66-3.78,1.9-4.08,.15-1.22-.43-1.48Z"/><path class="cls-28" d="M180.84,59.4s-2.6-.99-4.02-.55-5.1,3.18-1.99,6.44,4.53-.14,4.77-1.55c.24-1.41,1.39-2.99,1.6-3.23s.12-.95-.36-1.11Z"/></g><g><path class="cls-10" d="M182.16,59.82s-1.71,2.97-1.37,4.68c.34,1.71,3.3,6.3,8.05,2.93s.55-5.34-1.23-5.75-3.66-1.91-3.94-2.18-1.21-.23-1.51,.32Z"/><path class="cls-28" d="M182.6,60.69s-1.17,2.53-.82,3.97c.34,1.45,2.82,5.31,6.29,2.43,3.47-2.89,.17-4.53-1.22-4.87s-2.89-1.6-3.11-1.82-.94-.19-1.14,.28Z"/></g><circle class="cls-17" cx="182.68" cy="59.75" r="2.14"/></g><circle class="cls-22" cx="182.37" cy="59.53" r="12.08"/><circle class="cls-22" cx="182.48" cy="59.34" r="8.42"/><circle class="cls-22" cx="182.48" cy="59.34" r="5.79"/><line class="cls-22" x1="170.79" y1="56.27" x2="194.16" y2="62.41"/><line class="cls-22" x1="185.55" y1="47.65" x2="179.36" y2="71.22"/></g><path class="cls-12" d="M196.92,53.65c-.35-.64,.29-3.85,.29-3.85,0,0-1.11,3.08-1.74,3.45-.63,.37-1.56,.48-1.56,.48,0,0,1.57,.71,1.46,1.7-.11,.98-.45,2.56-.45,2.56,0,0,.54-1.52,.95-2.42,.41-.9,2.13-.7,2.13-.7,0,0-.73-.58-1.08-1.22Z"/><path class="cls-1" d="M198.66,57.21c-.3-.55,.25-3.28,.25-3.28,0,0-.94,2.62-1.48,2.93-.54,.31-1.33,.41-1.33,.41,0,0,1.34,.6,1.24,1.44-.09,.84-.38,2.18-.38,2.18,0,0,.46-1.3,.81-2.06,.35-.77,1.81-.59,1.81-.59,0,0-.62-.49-.92-1.04Z"/></g><g class="cls-34"><path class="cls-9" d="M141.33,47.48c-4.14,.52-8-.68-10.57-3.12-1.88,2.99-5.33,5.12-9.46,5.65-1.3,.16-2.62,.16-3.93-.01-4.85-.64-10.05-5.55-13.55-9.56-.28-.32-.52-.67-.69-1.05-.99-2.21-.07-4.57,1.86-5.78,2.95-1.85,8.6-5.03,13.26-5.62,1.02-.13,1.98-.13,2.86-.02,2.46,.33,4.77,1.25,6.64,2.64l2.38-.15c1.48-1.88,3.53-3.42,5.91-4.38,.82-.33,1.75-.56,2.77-.69,4.66-.59,10.92,1.09,14.24,2.15,.48,.15,.92,.37,1.31,.63l3.48-.21c1.24-.08,2.43,.45,3.14,1.39h0c.79,1.04,1.63,2.08,2.51,3.1,1.24,1.45,1.22,3.53-.04,5.01h0c-1.03,1.21-2.56,1.5-4.05,1.12-.64-.16-1.24-.48-1.78-.86l-2.88-2.03c-2.36,4.08-5.94,9.33-9.61,10.8-1.23,.49-2.5,.83-3.8,.99Z"/><g><path class="cls-52" d="M151.81,31.8l6.23-.35-.18-.11c.5,.71,.98,1.44,1.49,2.14s1.11,1.38,1.7,2.04c.18,.21,.48-.1,.3-.3-1-1.13-1.86-2.29-2.72-3.52-.13-.18-.25-.45-.42-.59-.15-.13-.34-.07-.53-.06l-1.93,.11-3.94,.22c-.27,.02-.28,.44,0,.43h0Z"/><path class="cls-52" d="M125.17,33.79l3.67-.21,1.89-.11c.35-.02,.5-.06,.73,.2,.21,.24,.38,.52,.57,.78,1.41,1.91,2.91,3.75,4.48,5.53,.18,.21,.48-.1,.3-.3-1.71-1.94-3.34-3.96-4.86-6.05-.32-.44-.34-.64-.89-.61l-1.89,.11-4.01,.23c-.27,.02-.28,.44,0,.43h0Z"/><path d="M127.85,37.69c.08-.79,.76-1.42,1.51-1.6,.88-.21,1.8,.19,2.42,.79,.23,.23,.59-.13,.36-.36-.77-.75-1.9-1.19-2.97-.91-.96,.25-1.72,1.08-1.82,2.08-.03,.32,.48,.32,.51,0h0Z"/><g><path class="cls-29" d="M119.6,30.36c5.48,.82,9.34,5.37,8.63,10.16-.72,4.79-5.75,8.01-11.23,7.18-4.29-.64-9.83-6.9-12.04-9.59-.54-.66-.39-1.64,.32-2.11,2.91-1.93,10.04-6.28,14.32-5.64Z"/><g class="cls-41"><ellipse class="cls-44" cx="118.62" cy="39.09" rx="6.91" ry="8.08" transform="translate(62.37 150.6) rotate(-81.47)"/><rect class="cls-35" x="115.03" y="29.62" width="2.53" height="16.86" transform="translate(18.36 -35.31) rotate(18.72)"/><rect class="cls-35" x="117.78" y="31.48" width="1.44" height="16.86" transform="translate(19.08 -35.92) rotate(18.72)"/></g><circle class="cls-6" cx="107.55" cy="37.26" r=".6"/></g><path class="cls-29" d="M137.47,28.1c-5.11,2.16-7.72,7.53-5.83,11.99,1.89,4.46,7.56,6.33,12.66,4.17,3.99-1.69,7.8-9.12,9.28-12.29,.36-.77-.03-1.69-.83-1.97-3.29-1.15-11.28-3.59-15.28-1.9Z"/><g class="cls-38"><ellipse class="cls-44" cx="140.58" cy="36.32" rx="8.08" ry="6.91" transform="translate(-3.04 57.63) rotate(-22.92)"/><rect class="cls-35" x="138.6" y="28.27" width="2.53" height="16.86" transform="translate(14.39 -35.16) rotate(15.1)"/><rect class="cls-35" x="136.39" y="27.82" width="1.44" height="16.86" transform="translate(260.05 106.95) rotate(-164.9)"/></g><circle class="cls-6" cx="150.85" cy="31.8" r=".6"/></g></g><g><path d="M81.32,35.77c-.71-1.81-.66-3.86,.17-5.63,.42-.88,1.03-1.76,1.85-2.32,.93-.63,2.1-.61,3.1-.14,.91,.43,1.59,1.24,2.08,2.1,.24,.42,.48,.89,.55,1.37,.12,.82-.66,1.08-1.27,.65-.4-.28-.67-.73-.93-1.14-.3-.47-.62-.97-.76-1.52-.3-1.2,.48-2.11,1.39-2.78,1.91-1.4,4.2-2.26,6.53-2.63,.46-.07,.26-.77-.19-.7-1.43,.22-2.81,.63-4.13,1.23-1.23,.55-2.56,1.26-3.49,2.26-.85,.91-1.13,2.04-.67,3.21,.39,.99,1.15,2.41,2.17,2.87,.93,.43,2.05-.05,2.1-1.14,.05-1.12-.75-2.37-1.45-3.18-.8-.93-1.91-1.58-3.14-1.67s-2.38,.51-3.21,1.45c-1.88,2.12-2.41,5.26-1.38,7.89,.17,.43,.87,.24,.7-.19h0Z"/><path class="cls-49" d="M80.61,34.78c-.69-1.77-.66-3.77,.16-5.5,.87-1.84,2.61-3.41,4.71-2.4,.89,.42,1.55,1.2,2.02,2.04,.22,.4,.46,.85,.53,1.31,.1,.68-.5,.85-1.01,.5-.38-.27-.64-.71-.88-1.09-.3-.46-.6-.95-.74-1.48-.29-1.12,.47-1.97,1.31-2.6,1.89-1.4,4.18-2.25,6.49-2.61,.67-.11,.39-1.13-.28-1.02-1.44,.23-2.84,.64-4.17,1.24-1.24,.56-2.59,1.28-3.53,2.29-.88,.95-1.19,2.15-.72,3.37,.4,1.04,1.19,2.48,2.25,2.97s2.31-.07,2.35-1.28-.77-2.45-1.5-3.3c-.83-.97-1.98-1.63-3.26-1.72s-2.47,.53-3.33,1.5c-1.92,2.16-2.47,5.37-1.42,8.05,.25,.63,1.27,.35,1.02-.28h0Z"/></g><g><path d="M77.21,29.67c-1.2-.4-2.17-1.38-2.51-2.61-.2-.72-.18-1.48,.4-2.02s1.46-.62,2.22-.46c.31,.06,1.09,.23,.86,.74-.19,.41-.88,.28-1.23,.24-.84-.1-1.47-.44-1.54-1.36-.09-1.38,.46-2.87,1.15-4.05,.13-.22-.21-.42-.34-.2-.43,.73-.76,1.51-.97,2.34-.18,.71-.34,1.52-.2,2.25,.12,.62,.51,1.07,1.11,1.26s1.52,.37,2.06,.01c.42-.27,.54-.82,.17-1.19-.46-.47-1.38-.56-2-.52-1.43,.1-2.41,1.2-2.18,2.64,.25,1.54,1.41,2.81,2.88,3.3,.24,.08,.35-.3,.11-.38h0Z"/><path class="cls-50" d="M76.53,29.62c-1.17-.39-2.11-1.35-2.45-2.54-.19-.69-.18-1.42,.37-1.93s1.4-.59,2.13-.43c.24,.05,.98,.19,.8,.61-.16,.36-.85,.23-1.15,.19-.79-.1-1.39-.4-1.44-1.27-.09-1.37,.46-2.84,1.14-4,.19-.32-.31-.61-.5-.29-.43,.74-.77,1.53-.97,2.36-.18,.73-.34,1.56-.2,2.3,.13,.65,.55,1.12,1.18,1.33s1.57,.37,2.13,0c.47-.31,.6-.92,.19-1.33-.48-.48-1.42-.58-2.06-.54-1.5,.1-2.51,1.25-2.26,2.75,.26,1.57,1.44,2.87,2.94,3.36,.35,.12,.51-.44,.15-.56h0Z"/></g><path d="M169.17,22.69l-11.12-9.55c-.11-.1-.33,0-.27,.16l4.88,13.62c.04,.12,.24,.18,.3,.04l3.76-8.6c.07-.15-.07-.29-.22-.22-1.78,.79-3.53,1.63-5.25,2.54-.84,.44-1.67,.9-2.5,1.37-.42,.24-1.08,.48-.95,1.06,.02,.07,.09,.11,.16,.12,4.07,.28,8.14,.52,12.22,.73,.21,.01,.21-.32,0-.33-3.67-.19-7.33-.4-11-.65-.2-.01-.49,.01-.68-.05l-.27-.02c.02-.17,.1-.28,.24-.33,.3-.27,.78-.44,1.13-.64,.75-.42,1.52-.83,2.28-1.23,1.57-.82,3.17-1.58,4.79-2.3l-.22-.22-3.76,8.6,.3,.04-4.88-13.62-.27,.16,11.12,9.55c.16,.14,.39-.09,.23-.23h0Z"/><path d="M178.17,28.09c-.35-2.49-1.39-4.79-1.75-7.28-.02-.12-.17-.08-.21,0-.9,2.25-2.16,4.32-3.06,6.57-.04,.1,.08,.15,.16,.12l5.55-2.58c.09-.04,.05-.17-.03-.19-1.22-.39-2.46-.73-3.7-1.03-.62-.15-1.25-.29-1.88-.42-.26-.05-.68-.2-.83,.12-.02,.04-.02,.09,.02,.13,1.87,1.89,3.76,3.77,5.66,5.63,.1,.1,.25-.05,.15-.15-1.69-1.65-3.37-3.32-5.03-5-.1-.1-.19-.19-.29-.29s-.33-.23-.12-.31c.16-.07,.68,.13,.85,.17,.57,.12,1.15,.26,1.72,.4,1.14,.28,2.27,.6,3.39,.96l-.03-.19-5.55,2.58,.16,.12c.9-2.25,2.16-4.32,3.06-6.57h-.21c.35,2.49,1.39,4.79,1.75,7.28,.02,.14,.22,.08,.21-.06h0Z"/><g class="cls-40"><g><path class="cls-8" d="M43.53,102.26c-3.24,.79-9.49,1.41-14.94-3.32-1.2-1.04-4.84-4.19-6.94-25.01-.38-3.75-1.65-19.45-.47-22.09,.53-1.18,1.56-2.11,3.07-2.78,.28-.74,.59-1.43,.94-2.08,.71-1.34,1.98-2.32,3.48-2.69l34.87-8.5c2.04-.5,4.2,.24,5.5,1.87,1.96,2.47,4.33,6.24,4.53,10.24,1.7,3.82,4.32,13.46,6.06,21.13,3.97,17.5,2.56,19.2,1.63,20.32-.89,1.07-2.11,2.53-30.88,9.58-.62,.8-1.85,1.57-4.56,2.62l-.07,.03c-.3,.11-1.1,.41-2.22,.69Z"/><path class="cls-2" d="M70.75,48.99c-.12-.27-.18-.56-.19-.86-.13-3.39-2.5-6.85-3.88-8.59-.57-.72-1.51-1.04-2.42-.82l-34.87,8.5c-.65,.16-1.22,.58-1.53,1.17-.49,.94-.89,1.95-1.22,3.03-1.31,.37-2.37,.94-2.69,1.67-.87,1.94,.58,38.32,6.63,43.57,6.05,5.25,13.35,2.38,14.16,2.07,0,0,3.13-1.21,3.29-1.74,.01-.03-.03-.23-.11-.57,12.52-3.04,29.74-7.46,31.03-9,1.98-2.39-5.27-32.05-8.19-38.42Z"/><g><path class="cls-23" d="M29.38,47.23l34.87-8.5c.9-.22,1.85,.1,2.42,.82,1.39,1.75,3.75,5.2,3.88,8.59,.01,.3,.07,.59,.19,.86,2.92,6.37,10.17,36.04,8.19,38.42-1.65,1.99-29.94,8.78-40.28,11.21-2.18,.51-4.38-.64-5.16-2.68-3.58-9.4-12.24-35.01-5.64-47.55,.31-.59,.87-1.01,1.53-1.17Z"/><path class="cls-33" d="M44.73,98.73s3.13-1.21,3.29-1.74c.17-.56-12.38-44.26-14.8-45.46s-8.41-.38-9.28,1.56,.58,38.32,6.63,43.57c6.05,5.25,13.35,2.38,14.16,2.07Z"/><g><rect class="cls-24" x="27.52" y="56.58" width="4.15" height="6.28" transform="translate(-13.31 8.71) rotate(-13.7)"/><rect class="cls-44" x="28.15" y="57.47" width="2.84" height="4.28" transform="translate(-13.28 8.7) rotate(-13.7)"/></g><g><circle class="cls-21" cx="72.6" cy="82.07" r="3.37"/><circle class="cls-14" cx="72.6" cy="82.07" r="2.39"/></g><g><circle class="cls-21" cx="33.81" cy="66.88" r="2.78"/><circle class="cls-14" cx="33.81" cy="66.88" r="1.97"/></g><circle class="cls-27" cx="59.18" cy="73.77" r="15.32"/><circle class="cls-32" cx="59.18" cy="73.77" r="11.27"/><g><ellipse class="cls-24" cx="48.1" cy="52.68" rx="2.13" ry="3.46" transform="translate(-11.11 12.89) rotate(-13.7)"/><g><circle class="cls-44" cx="47.82" cy="51.53" r=".8"/><circle class="cls-44" cx="48.4" cy="53.92" r=".8"/></g></g><g><rect class="cls-26" x="38.35" y="48.65" width="5.35" height="11.51" rx="1.23" ry="1.23" transform="translate(-11.72 11.27) rotate(-13.7)"/><g><rect class="cls-7" x="39.07" y="50.33" width="3.91" height="8.16" transform="translate(-11.72 11.27) rotate(-13.7)"/><line class="cls-15" x1="38.5" y1="50.82" x2="40.43" y2="58.75"/><line class="cls-15" x1="38.85" y1="50.74" x2="40.78" y2="58.66"/><line class="cls-15" x1="39.19" y1="50.65" x2="41.12" y2="58.58"/><line class="cls-15" x1="39.54" y1="50.57" x2="41.47" y2="58.5"/><line class="cls-15" x1="39.88" y1="50.48" x2="41.81" y2="58.41"/><line class="cls-15" x1="40.23" y1="50.4" x2="42.16" y2="58.33"/><line class="cls-15" x1="41.95" y1="49.98" x2="43.89" y2="57.91"/><line class="cls-15" x1="38.16" y1="50.9" x2="40.09" y2="58.83"/><line class="cls-15" x1="40.57" y1="50.32" x2="42.5" y2="58.24"/><line class="cls-15" x1="40.92" y1="50.23" x2="42.85" y2="58.16"/><line class="cls-15" x1="41.26" y1="50.15" x2="43.2" y2="58.08"/><line class="cls-15" x1="41.61" y1="50.06" x2="43.54" y2="57.99"/></g></g><rect class="cls-30" x="52.32" y="73.88" width="2.2" height="2.6" transform="translate(-16.29 14.79) rotate(-13.7)"/><ellipse cx="59.18" cy="73.77" rx="5.78" ry="4.62" transform="translate(-15.79 16.12) rotate(-13.7)"/><text class="cls-4" transform="translate(54.29 46.46) rotate(-13.7)"><tspan class="cls-42" x="0" y="0">P</tspan><tspan class="cls-36" x="1.45" y="0">a</tspan><tspan x="3.02" y="0">ckman</tspan></text></g></g><circle class="cls-2" cx="61.47" cy="73.66" r="1.34"/><circle class="cls-2" cx="59.59" cy="72.29" r=".3"/></g><g class="cls-43"><path class="cls-3" d="M82.11,92.33c-.94-.17-1.72-.69-2.25-1.39l-2.54-.46c-1.93-.35-3.21-2.19-2.86-4.12l4.84-26.9c.35-1.94,2.21-3.23,4.14-2.88l14.44,2.6c1.48,.27,2.59,1.42,2.87,2.81l4.24,.76,.26,.1c.48,.18,2.89,1.29,3.37,5.06,.26,1.47,3.42,5.97,5.28,6.31l15.51,2.79c3.32,.6,5.53,3.78,4.93,7.09l-1.89,10.53c-.43,2.39-2.72,3.98-5.11,3.55l-32.63-5.87c-.78,.65-1.83,.97-2.9,.77l-2.54-.46c-.74,.48-1.66,.69-2.59,.52l-4.56-.82Z"/><path class="cls-2" d="M128.87,79.95l-15.51-2.79c-3.6-.65-7.44-6.7-7.72-8.88-.28-2.18-1.47-2.64-1.47-2.64l-5.25-.94-1.42-.25-.02,.12c.02-.1,.02-.19,0-.29h.04l.27-1.49c.06-.31-.15-.61-.46-.67l-14.44-2.6c-.31-.06-.61,.15-.67,.46l-.27,1.5h.04c-.04,.09-.08,.18-.09,.28l-4.25,23.6-.12,.69-.15,.83c-.05,.3,.15,.59,.45,.64l4.36,.79-.06,.36c-.06,.33,.16,.65,.49,.7l4.56,.82c.33,.06,.65-.16,.7-.49l.06-.36,4.36,.79c.3,.05,.59-.15,.64-.45l.13-.71,17.57,3.16,17.19,3.09c.77,.14,1.5-.37,1.64-1.14l1.89-10.53c.3-1.69-.82-3.31-2.51-3.62Z"/><g><g><rect class="cls-2" x="79.61" y="61.94" width="15.82" height="26.75" rx="1.47" ry="1.47" transform="translate(14.72 -14.31) rotate(10.2)"/><path d="M77.36,86.75h15.82v1.31c0,.43-.35,.79-.79,.79h-14.24c-.43,0-.79-.35-.79-.79v-1.31h0Z" transform="translate(16.89 -13.71) rotate(10.2)"/><path d="M82.85,60.81h14.19c.45,0,.81,.36,.81,.81v1.28h-15.82v-1.28c0-.45,.36-.81,.81-.81Z" transform="translate(12.37 -14.95) rotate(10.2)"/></g><rect x="82.16" y="87.97" width="5.84" height="1.84" rx=".86" ry=".86" transform="translate(17.08 -13.66) rotate(10.2)"/><path d="M128.87,79.95l-15.51-2.79c-3.6-.65-7.44-6.7-7.72-8.88-.28-2.18-1.47-2.64-1.47-2.64l-5.25-.94-1.42-.25-4.41,24.53,17.57,3.16,17.19,3.09c.77,.14,1.5-.37,1.64-1.14l1.89-10.53c.3-1.69-.82-3.31-2.51-3.62Zm-32.07,7.71c-.06,.32-.36,.53-.68,.47l-.55-.1c-.32-.06-.53-.36-.47-.68l.19-1.08c.06-.32,.36-.53,.68-.47l.55,.1c.32,.06,.53,.36,.47,.68l-.19,1.08Zm3.6-19.99c-.06,.32-.36,.53-.68,.47l-.55-.1c-.32-.06-.53-.36-.47-.68l.19-1.08c.06-.32,.36-.53,.68-.47l.55,.1c.32,.06,.53,.36,.47,.68l-.19,1.08Zm1.7-.81c.06-.32,.36-.53,.68-.47l.55,.1c.32,.06,.53,.36,.47,.68l-.19,1.08c-.06,.32-.36,.53-.68,.47l-.55-.1c-.32-.06-.53-.36-.47-.68l.19-1.08Zm-1.96,21.4c-.06,.32-.36,.53-.68,.47l-.55-.1c-.32-.06-.53-.36-.47-.68l.19-1.08c.06-.32,.36-.53,.68-.47l.55,.1c.32,.06,.53,.36,.47,.68l-.19,1.08Zm3.34,.6c-.06,.32-.36,.53-.68,.47l-.55-.1c-.32-.06-.53-.36-.47-.68l.19-1.08c.06-.32,.36-.53,.68-.47l.55,.1c.32,.06,.53,.36,.47,.68l-.19,1.08Zm3.34,.6c-.06,.32-.36,.53-.68,.47l-.55-.1c-.32-.06-.53-.36-.47-.68l.19-1.08c.06-.32,.36-.53,.68-.47l.55,.1c.32,.06,.53,.36,.47,.68l-.19,1.08Zm3.34,.6c-.06,.32-.36,.53-.68,.47l-.55-.1c-.32-.06-.53-.36-.47-.68l.19-1.08c.06-.32,.36-.53,.68-.47l.55,.1c.32,.06,.53,.36,.47,.68l-.19,1.08Zm3.34,.6c-.06,.32-.36,.53-.68,.47l-.55-.1c-.32-.06-.53-.36-.47-.68l.19-1.08c.06-.32,.36-.53,.68-.47l.55,.1c.32,.06,.53,.36,.47,.68l-.19,1.08Zm3.34,.6c-.06,.32-.36,.53-.68,.47l-.55-.1c-.32-.06-.53-.36-.47-.68l.19-1.08c.06-.32,.36-.53,.68-.47l.55,.1c.32,.06,.53,.36,.47,.68l-.19,1.08Zm3.34,.6c-.06,.32-.36,.53-.68,.47l-.55-.1c-.32-.06-.53-.36-.47-.68l.19-1.08c.06-.32,.36-.53,.68-.47l.55,.1c.32,.06,.53,.36,.47,.68l-.19,1.08Zm3.34,.6c-.06,.32-.36,.53-.68,.47l-.55-.1c-.32-.06-.53-.36-.47-.68l.19-1.08c.06-.32,.36-.53,.68-.47l.55,.1c.32,.06,.53,.36,.47,.68l-.19,1.08Zm3.34,.6c-.06,.32-.36,.53-.68,.47l-.55-.1c-.32-.06-.53-.36-.47-.68l.19-1.08c.06-.32,.36-.53,.68-.47l.55,.1c.32,.06,.53,.36,.47,.68l-.19,1.08Z"/><rect class="cls-25" x="79.83" y="62.07" width="8.55" height="24.27" transform="translate(14.47 -13.72) rotate(10.2)"/><g><path class="cls-2" d="M121.3,85.79s-.08,.1-.14,.18c-.06,.07-.12,.14-.19,.21-.07,.07-.13,.13-.19,.17s-.1,.07-.12,.07l-1.32-.24-.39,.79,.14-.48,1.34,.24-.74,.61-.85-.15-.49,.99-.82-.15,1.34-2.68,2.43,.44Z"/><path class="cls-2" d="M121.52,85.83l.82,.15-1.33,2.68-.82-.15,1.33-2.68Z"/><path class="cls-2" d="M121.26,88.7l1.34-2.68,.82,.15-1,2,1.35,.24s-.02,.03-.07,.08c-.05,.05-.11,.12-.17,.19-.07,.07-.14,.14-.21,.21s-.13,.12-.18,.15l-1.88-.34Z"/><path class="cls-2" d="M126.16,89.59l.74-1.51-1.44,1.38-.3-.05,.05-1.63-.74,1.51-.82-.15,1.34-2.68,1.03,.19-.04,1.46,1.3-1.23,1.04,.19-1.34,2.68-.82-.15Z"/></g><g><g><path d="M87.97,86.03l.19-1.07s.03-.08,.07-.11c.04-.02,.08-.04,.12-.05,.05-.01,.1-.01,.15-.01,.05,0,.1,0,.13,.01,.08,.01,.15,.04,.22,.09,.06,.04,.11,.09,.15,.15,.04,.06,.07,.12,.09,.18,.02,.06,.02,.12,.01,.17l-.12,.65,.53,.26-.08,.45-1.46-.73Zm.88-.05l-.26,.03,.12-.67s0,0-.01-.01c0,0-.02-.01-.03-.02l-.03-.02s-.02-.01-.02-.01h-.03s-.02,0-.04,.01-.03,.02-.03,.02l-.09,.48,.42,.21Z"/><path d="M89.9,84.14h-.34s.03,.01,.06,.04c.03,.02,.06,.05,.09,.08s.06,.06,.09,.09c.03,.03,.04,.05,.05,.06l-.18,.98h-.03l-1.19-1.09s-.03-.02-.04-.03-.03-.04-.05-.06c-.02-.02-.03-.04-.04-.06-.01-.02-.02-.03-.01-.05l.07-.39s.02-.03,.04-.04c.02,0,.05-.02,.08-.02s.07,0,.1,0c.04,0,.06,0,.09,0l1.28,.07-.07,.42Zm-.48,.45l.08-.47-.7-.04,.59,.51h.03Z"/><path d="M89.28,83.52c-.09-.02-.19-.05-.28-.1-.09-.05-.17-.11-.24-.18-.07-.07-.12-.15-.16-.23s-.05-.17-.04-.25l.17-.96c.07,.06,.13,.12,.18,.17,.06,.06,.11,.12,.16,.19l-.11,.61s0,.04,.01,.07c.01,.03,.03,.05,.05,.08,.02,.03,.05,.05,.08,.07,.03,.02,.06,.04,.09,.06,.02,0,.04,.02,.06,.03s.04,.01,.05,.02c.04,0,.08,0,.12,0,.04,0,.09-.02,.13-.04s.07-.04,.1-.06c.03-.02,.05-.05,.05-.08l.1-.56c.06,.05,.12,.1,.18,.16s.12,.12,.16,.19l-.03,.19c-.02,.1-.04,.19-.08,.28-.04,.09-.09,.16-.16,.23-.07,.06-.15,.11-.25,.14-.1,.03-.22,.03-.36,0h0Z"/><path d="M88.75,81.69l.08-.45,.66,.33-.55-.9,.09-.5,.63,.95,.85-.31-.09,.5-.77,.33,.66,.33-.08,.45-1.46-.73Z"/><path d="M90.75,79.42l-.82-.41,.75,.79-.03,.16-.89-.03,.82,.41-.08,.45-1.46-.73,.1-.56,.8,.02-.67-.71,.1-.57,1.46,.73-.08,.45Z"/><path d="M91.08,77.6h-.34s.03,.01,.06,.04c.03,.02,.06,.05,.09,.08s.06,.06,.09,.09c.03,.03,.04,.05,.05,.06l-.18,.98h-.03l-1.19-1.09s-.03-.02-.04-.03-.03-.04-.05-.06c-.02-.02-.03-.04-.04-.06-.01-.02-.02-.03-.01-.05l.07-.39s.02-.03,.04-.04c.02,0,.05-.02,.08-.02s.07,0,.1,0c.04,0,.06,0,.09,0l1.28,.07-.07,.42Zm-.48,.45l.08-.47-.7-.04,.59,.51h.03Z"/><path d="M89.71,76.35l.1-.56,.89,.02-.82-.41,.08-.44,1.46,.73-.1,.57-.89-.02,.82,.41-.08,.45-1.46-.73Z"/></g><g><path d="M90.55,85.12s.06,.04,.1,.07,.08,.07,.11,.1c.04,.04,.07,.07,.1,.1,.03,.03,.04,.06,.04,.07l-.13,.72,.43,.21-.29,.07,.16-.88,.33,.41-.08,.46,.54,.27-.08,.45-1.46-.73,.24-1.33Z"/><path d="M91.81,83.96c.09,.06,.17,.14,.24,.22,.06,.08,.11,.17,.14,.26,.03,.1,.04,.19,.02,.28l-.05,.27c-.02,.09-.04,.16-.07,.23-.03,.07-.07,.13-.12,.17s-.12,.08-.19,.09c-.08,.02-.17,.02-.28,0-.02,0-.05,0-.07-.02-.02,0-.05-.01-.08-.02-.1-.03-.2-.08-.29-.14-.09-.06-.17-.13-.24-.21-.07-.08-.12-.16-.15-.26s-.04-.18-.03-.26l.06-.35c.03-.18,.1-.31,.2-.4,.1-.09,.25-.11,.44-.08,.03,0,.05,.01,.08,.02,.03,0,.06,.01,.09,.02,.11,.03,.21,.08,.3,.15Zm-.4,1.06h.02s.07,.01,.11,0c.04,0,.08-.01,.11-.03,.03-.01,.06-.03,.09-.05,.02-.02,.04-.05,.04-.08l.03-.19s0-.04-.01-.07c-.01-.03-.03-.07-.05-.1-.02-.04-.05-.07-.08-.11-.03-.03-.06-.06-.09-.08l-.03-.02s-.02-.01-.03-.01l-.03-.02h-.03s-.03-.02-.05-.02c-.02,0-.03,0-.05-.01-.03,0-.06,0-.09,0-.03,0-.06,0-.09,.01s-.05,.02-.07,.05-.03,.05-.04,.09l-.04,.23s0,.05,.01,.08c.01,.03,.03,.07,.05,.1,.02,.03,.05,.07,.08,.09,.03,.03,.06,.06,.09,.07,.02,.01,.04,.02,.06,.03,.02,0,.04,.02,.05,.02,0,0,0,0,.02,0Z"/><path d="M90.87,83.35l.19-1.04c.01-.06,.03-.1,.07-.13s.08-.05,.12-.06,.1-.01,.15,0c.05,0,.1,0,.15,.02,.1,.02,.18,.05,.23,.1,.06,.05,.1,.11,.13,.17,.03,.07,.04,.14,.05,.21,0,.07,0,.14,0,.2l.67-.35-.09,.5-.64,.38,.02,.03,.5,.25-.08,.45-1.46-.73Zm.6-.76s-.03,0-.04,0c-.01,0-.02,.01-.02,.03l-.08,.47,.43,.21h-.27l.11-.62s0-.04-.03-.06c-.02-.01-.05-.02-.07-.03h-.03Z"/><path d="M91.4,80.39s.06,.04,.1,.07,.08,.07,.11,.1c.04,.04,.07,.07,.1,.1,.03,.03,.04,.06,.04,.07l-.13,.72,.43,.21-.29,.09,.16-.9,.33,.41-.08,.46,.17,.08,.16-.89,.02,.02,.04,.03s.02,.02,.03,.03l.02,.02s.04,.04,.07,.07c.03,.03,.05,.06,.08,.09s.04,.05,.06,.07c.02,.02,.02,.03,.02,.03l-.21,1.17-1.46-.73,.24-1.33Z"/><path d="M91.63,79.13l.09-.48,1.21,1.07s.02,.02,.04,.04c.02,.02,.03,.04,.05,.06,.02,.02,.03,.04,.04,.06,.01,.02,.02,.03,.01,.05l-.07,.38s-.02,.03-.04,.04c-.02,0-.05,.01-.08,.02-.03,0-.07,0-.1,0-.03,0-.06,0-.09,0l-1.28-.08,.07-.41,1.06,.08-.92-.83Z"/><path d="M91.97,77.21s.06,.04,.1,.07,.08,.07,.11,.1c.04,.04,.07,.07,.1,.1,.03,.03,.04,.06,.04,.07l-.13,.72,.43,.21h-.27l.14-.81,.33,.41-.08,.46,.17,.08,.16-.89,.02,.02,.04,.03s.02,.02,.03,.03l.02,.02s.04,.04,.07,.07c.03,.03,.05,.06,.08,.09s.04,.05,.06,.07c.02,.02,.02,.03,.02,.03l-.21,1.17-1.46-.73,.24-1.33Z"/><path d="M91.99,77.08l.19-1.04c.01-.06,.03-.1,.07-.13s.08-.05,.12-.06,.1-.01,.15,0c.05,0,.1,0,.15,.02,.1,.02,.18,.05,.23,.1,.06,.05,.1,.11,.13,.17,.03,.07,.04,.14,.05,.21,0,.07,0,.14,0,.2l.67-.35-.09,.5-.64,.38,.02,.03,.5,.25-.08,.45-1.46-.73Zm.6-.76s-.03,0-.04,0c-.01,0-.02,.01-.02,.03l-.08,.47,.43,.21-.29,.12,.13-.74s0-.04-.03-.06c-.02-.01-.05-.02-.07-.03h-.03Z"/></g></g><polygon points="86.25 62.26 78.73 85.56 81.27 86.02 88.87 62.73 86.25 62.26"/><line class="cls-18" x1="89.75" y1="62.89" x2="82.58" y2="86.25"/></g></g><g><g><polygon points="166.27 102.2 162.27 102.11 161.83 106.09 158.18 104.46 156.25 107.97 153.49 105.07 150.37 107.58 148.93 103.85 145.08 104.96 145.18 100.96 141.2 100.52 142.82 96.87 139.32 94.94 142.21 92.18 139.71 89.06 143.44 87.62 142.33 83.77 146.33 83.87 146.76 79.89 150.42 81.51 152.35 78.01 155.11 80.9 158.23 78.4 159.67 82.13 163.52 81.02 163.42 85.02 167.4 85.45 165.78 89.11 169.28 91.04 166.38 93.8 168.89 96.92 165.16 98.36 166.27 102.2"/><g><polygon points="165.38 101.52 161.68 101.43 161.27 105.11 157.89 103.61 156.1 106.85 153.55 104.17 150.66 106.49 149.33 103.03 145.77 104.07 145.86 100.36 142.18 99.96 143.68 96.58 140.44 94.79 143.12 92.24 140.8 89.35 144.25 88.02 143.22 84.46 146.92 84.55 147.33 80.87 150.71 82.37 152.5 79.13 155.05 81.81 157.94 79.49 159.27 82.94 162.83 81.91 162.74 85.61 166.42 86.02 164.92 89.4 168.16 91.19 165.48 93.74 167.8 96.63 164.35 97.96 165.38 101.52"/><polygon class="cls-20" points="165.38 101.52 161.68 101.43 161.27 105.11 157.89 103.61 156.1 106.85 153.55 104.17 150.66 106.49 149.33 103.03 145.77 104.07 145.86 100.36 142.18 99.96 143.68 96.58 140.44 94.79 143.12 92.24 140.8 89.35 144.25 88.02 143.22 84.46 146.92 84.55 147.33 80.87 150.71 82.37 152.5 79.13 155.05 81.81 157.94 79.49 159.27 82.94 162.83 81.91 162.74 85.61 166.42 86.02 164.92 89.4 168.16 91.19 165.48 93.74 167.8 96.63 164.35 97.96 165.38 101.52"/></g><g><polygon points="148.48 94.76 148.52 94.81 148.54 94.79 148.48 94.74 148.48 94.76"/><polygon points="148.52 94.74 148.52 94.76 148.55 94.75 148.55 94.73 148.52 94.74"/><polygon points="147.54 95.21 147.43 95.26 147.43 95.38 147.59 95.3 147.54 95.21"/></g></g><text class="cls-47" transform="translate(147.7 97.98) rotate(-24.29)"><tspan class="cls-39" x="0" y="0">P</tspan><tspan class="cls-53" x="3.43" y="0">a</tspan><tspan class="cls-51" x="7.08" y="0">ck</tspan></text></g><polygon points="148.96 95.22 149.02 95.35 149.11 95.28 149.11 95.17 148.96 95.22"/><polygon class="cls-48" points="149.2 95.29 148.78 95.45 148.87 95.92 149.21 95.76 149.2 95.29"/><polygon points="149.83 94.69 149.71 94.74 149.75 94.8 149.86 94.79 149.83 94.69"/><polygon points="149.81 94.77 149.88 94.87 149.92 94.8 149.9 94.74 149.81 94.77"/></svg>