<?xml version="1.0" encoding="UTF-8"?><svg id="Layer_1" xmlns="http://www.w3.org/2000/svg" xmlns:xlink="http://www.w3.org/1999/xlink" viewBox="0 0 221.1 124.16"><defs><style>.cls-1{filter:url(#drop-shadow-50);}.cls-2{fill:#54cdd8;}.cls-3,.cls-4,.cls-5,.cls-6,.cls-7,.cls-8{fill:#fff;}.cls-9{filter:url(#drop-shadow-49);}.cls-4{stroke-width:.25px;}.cls-4,.cls-10,.cls-11,.cls-12,.cls-13,.cls-14,.cls-15,.cls-5,.cls-16,.cls-6,.cls-17,.cls-18,.cls-19,.cls-7,.cls-20,.cls-21,.cls-22,.cls-8{stroke-miterlimit:10;}.cls-4,.cls-10,.cls-11,.cls-12,.cls-14,.cls-15,.cls-5,.cls-6,.cls-17,.cls-18,.cls-19,.cls-7,.cls-20,.cls-21,.cls-22,.cls-8{stroke:#000;}.cls-10,.cls-11,.cls-12,.cls-19,.cls-22{fill:#1fce65;}.cls-10,.cls-5{stroke-width:.25px;}.cls-11,.cls-14{stroke-width:.51px;}.cls-23{fill:#e1eefb;}.cls-12{stroke-width:.38px;}.cls-13{stroke:#e6e6e6;stroke-width:.5px;}.cls-13,.cls-16,.cls-24,.cls-20,.cls-21{fill:none;}.cls-14,.cls-15,.cls-18,.cls-25{fill:#ff307b;}.cls-26{clip-path:url(#clippath-2);}.cls-15{stroke-width:.77px;}.cls-16{stroke:#fff;stroke-width:.77px;}.cls-27{clip-path:url(#clippath-1);}.cls-6{stroke-width:.18px;}.cls-17{fill:#fc6e4a;stroke-width:.35px;}.cls-28{filter:url(#drop-shadow-46);}.cls-18{stroke-width:.15px;}.cls-29{filter:url(#drop-shadow-47);}.cls-19{stroke-width:.07px;}.cls-30{clip-path:url(#clippath);}.cls-7{stroke-width:.12px;}.cls-31{fill:#7688ff;}.cls-20{stroke-linecap:round;stroke-width:.46px;}.cls-21{stroke-width:.33px;}.cls-32{fill:#ffcd1c;}.cls-33{filter:url(#drop-shadow-48);}.cls-22{stroke-width:.18px;}.cls-8{stroke-width:.17px;}</style><filter id="drop-shadow-46" filterUnits="userSpaceOnUse"><feOffset dx="1.7" dy="1.7"/><feGaussianBlur result="blur" stdDeviation="0"/><feFlood flood-color="#000" flood-opacity=".38"/><feComposite in2="blur" operator="in"/><feComposite in="SourceGraphic"/></filter><filter id="drop-shadow-47" filterUnits="userSpaceOnUse"><feOffset dx="1.45" dy="1.45"/><feGaussianBlur result="blur-2" stdDeviation="0"/><feFlood flood-color="#000" flood-opacity=".38"/><feComposite in2="blur-2" operator="in"/><feComposite in="SourceGraphic"/></filter><clipPath id="clippath"><rect class="cls-24" x="44.18" y="23.2" width="60.54" height="8.95" transform="translate(-4.05 15.55) rotate(-11.61)"/></clipPath><clipPath id="clippath-1"><circle class="cls-24" cx="74.96" cy="43.33" r="10.82"/></clipPath><filter id="drop-shadow-48" filterUnits="userSpaceOnUse"><feOffset dx="1.29" dy="1.29"/><feGaussianBlur result="blur-3" stdDeviation="0"/><feFlood flood-color="#000" flood-opacity=".38"/><feComposite in2="blur-3" operator="in"/><feComposite in="SourceGraphic"/></filter><filter id="drop-shadow-49" filterUnits="userSpaceOnUse"><feOffset dx="1.13" dy="1.13"/><feGaussianBlur result="blur-4" stdDeviation="0"/><feFlood flood-color="#000" flood-opacity=".38"/><feComposite in2="blur-4" operator="in"/><feComposite in="SourceGraphic"/></filter><filter id="drop-shadow-50" filterUnits="userSpaceOnUse"><feOffset dx=".9" dy=".9"/><feGaussianBlur result="blur-5" stdDeviation="0"/><feFlood flood-color="#000" flood-opacity=".34"/><feComposite in2="blur-5" operator="in"/><feComposite in="SourceGraphic"/></filter><clipPath id="clippath-2"><circle class="cls-24" cx="106.44" cy="69.93" r="15.91"/></clipPath></defs><g><g><polygon class="cls-3" points="221.15 124.11 -.05 124.11 -.05 .05 24.82 .05 221.15 .05 221.15 124.11"/><line class="cls-13" x1="22.07" y1=".05" x2="22.07" y2="124.11"/><line class="cls-13" x1="221.15" y1=".05" x2="221.15" y2="124.11"/><line class="cls-13" x1="-.05" y1=".05" x2="-.05" y2="124.11"/><line class="cls-13" x1="44.19" y1=".05" x2="44.19" y2="124.11"/><line class="cls-13" x1="66.31" y1=".05" x2="66.31" y2="124.11"/><line class="cls-13" x1="88.43" y1=".05" x2="88.43" y2="124.11"/><line class="cls-13" x1="110.55" y1=".05" x2="110.55" y2="124.11"/><line class="cls-13" x1="132.67" y1=".05" x2="132.67" y2="124.11"/><line class="cls-13" x1="154.79" y1=".05" x2="154.79" y2="124.11"/><line class="cls-13" x1="176.91" y1=".05" x2="176.91" y2="124.11"/><line class="cls-13" x1="199.03" y1=".05" x2="199.03" y2="124.11"/></g><line class="cls-13" x1="221.15" y1=".05" x2="-.05" y2=".05"/><line class="cls-13" x1="221.15" y1="124.11" x2="-.05" y2="124.11"/><line class="cls-13" x1="221.15" y1="103.43" x2="-.05" y2="103.43"/><line class="cls-13" x1="221.15" y1="82.76" x2="-.05" y2="82.76"/><line class="cls-13" x1="221.15" y1="62.08" x2="-.05" y2="62.08"/><line class="cls-13" x1="221.15" y1="41.4" x2="-.05" y2="41.4"/><line class="cls-13" x1="221.15" y1="20.72" x2="-.05" y2="20.72"/></g><g class="cls-28"><path class="cls-5" d="M165.81,105.29c-1.49,.15-3.01,.14-4.65-.05-3.37-.38-5.01-1.98-5.79-3.25-.83-1.36-1-2.8-.93-3.97-3.31,.99-9.13,2.36-19.49,4.21l-.14,.03h-.14c-5.51,.44-8.92-2.28-10.27-4.96-.93-1.85-.83-4.15-.72-5.19-.44-4.29,3.68-8.8,8.11-11.44,2.72-1.62,4.67-2.99,5.87-3.9-.54-1.83-.87-4.23,.19-6.06,.73-1.27,1.98-2.05,3.52-2.21,7.25-.75,11.53,.2,12.73,2.82,1.34-.3,2.51-.5,3.51-.6,1.6-.17,2.84-.1,3.82,.23,1.67-.09,3.22,.58,4.36,1.85,.02-.11,.05-.22,.07-.33,.04-.17,.08-.34,.11-.53,.65-4.57,6.2-5.14,8.29-5.36,.64-.07,1.33-.12,2.1-.16,1.33-.06,3.96,.12,5.79,2.29,1.48-1.01,2.25-1.29,2.96-1.36,.66-.07,1.3,.07,1.86,.39,.12,.07,.25,.15,.37,.24,.4,.19,1.26,.65,2.73,1.6,3.06,1.99,4.81,8.91,5.07,12.16,0,.1,.01,.19,.01,.29,0,.04,.02,.07,.02,.11,.88,4.77,.08,7.99-2.43,9.84-.43,.31-1.14,.69-3.12,1.73-2.9,1.52-7.29,3.82-11.06,6.23-4.77,3.04-8.39,4.89-12.76,5.34h0Z"/><path class="cls-3" d="M192.39,82.67c-.02-.09-.07-.16-.11-.24,.03-.16,.04-.31,.03-.47-.27-3.36-2.02-8.86-3.79-10.01-1.78-1.16-2.52-1.47-2.52-1.47,0,0,.81,.82,1.01,1.73-.48-.88-1.03-1.78-1.45-2.02-.4-.23-2.41,1.22-4.49,2.87-.38-1.91-1.34-3.97-4.58-3.81-5.8,.28-7.49,1.48-7.72,3.08-.23,1.6-1.22,2.73,1.7,5.82,0,0-1.64,1.35-3.72,3.16-.06-.2-.13-.39-.19-.56h0c-.21-.55-.43-.92-.43-.92h0c-.38-1.19-1.23-3.16-2.03-4.55-1.12-1.92-2.79-1.52-3.1-1.42-1.24-.91-5.26-.14-9.22,.94,0-.87-.04-1.71-.26-2.27-.64-1.65-6.55-1.57-9.88-1.23s-.64,6.39-.64,6.39c0,0-2.51,2.25-7.78,5.4-3.85,2.3-7.25,6.1-6.7,8.99h0s-.38,2.41,.39,3.92c.77,1.52,3.01,3.77,7.53,3.42,0,0,20.89-3.74,22.54-5.46l.04-.04c-.07,.97,.06,1.93,.53,2.75h0s-1.89,5.07,3.93,5.73c5.82,.66,9.71-1.13,15.57-4.87,5.86-3.73,13.22-7.25,14.02-7.85,.81-.6,2.26-1.97,1.33-7.03Z"/><g><path d="M175.89,77.42s8.78-7.74,9.67-7.23,2.42,3.99,2.42,3.99l-.71,3.99-11.38-.76Z"/><path d="M142.67,77.78s15.65-5.87,18.34-3.9c2.69,1.97,1.7,4.97,1.7,4.97l-9.07,2.65-10.97-3.72Z"/><g><path class="cls-22" d="M134.44,99.44s20.89-3.74,22.54-5.46c2.21-2.31,8.78-8.3,9.71-9.93,.94-1.63-.55-4.2-.55-4.2l-39.61,12.25s-.38,2.41,.39,3.92,3.01,3.77,7.53,3.42Z"/><g><path class="cls-5" d="M141.01,77.71s-2.69-6.05,.64-6.39,9.24-.42,9.88,1.23c.64,1.65-.3,5.71,1.13,5.8s9.86-1.85,9.39-2.98c-.47-1.13-1.36-1.4-1.04-1.49s1.99-.5,3.1,1.42c1.12,1.92,2.33,5.01,2.22,5.5s-8.12,6.12-10.35,9.66c-5.69,2.13-21.68,6.9-27.07,4.34s-.96-8.54,4.31-11.68c5.27-3.15,7.78-5.4,7.78-5.4Z"/><line class="cls-20" x1="138.11" y1="82.37" x2="143.56" y2="83.93"/><line class="cls-20" x1="139.03" y1="80.87" x2="144.47" y2="82.44"/><line class="cls-20" x1="140.44" y1="79.33" x2="145.89" y2="80.9"/><path d="M155.98,90.45l.99,3.52s7.62-7.29,8.66-8.61c1.05-1.32,1.9-1.68,.93-4.61-.23,.03-.08,0-.72,.53s-6.03,4.99-6.82,5.75-2.8,3.11-3.04,3.41Z"/></g></g><g><path class="cls-22" d="M157.54,96.69s-1.89,5.07,3.93,5.73c5.82,.66,9.71-1.13,15.57-4.87s13.22-7.25,14.02-7.85,2.26-1.97,1.33-7.03-34.85,14.02-34.85,14.02Z"/><path class="cls-5" d="M170.48,78.16s-10.89,9.01-12.21,11.59c-1.31,2.58-3.09,8.28,3.15,9.13,6.24,.85,13.94-4.67,17.75-6.72,3.81-2.05,13.41-6.82,13.14-10.19s-2.02-8.86-3.79-10.01-2.52-1.47-2.52-1.47c0,0,1.93,1.93,.56,3.17-1.37,1.25-3.97,2.79-4.87,2.48s.6-7.16-5.2-6.88c-5.8,.28-7.49,1.48-7.72,3.08-.23,1.6-1.22,2.73,1.7,5.82Z"/><line class="cls-20" x1="169.24" y1="82.28" x2="174.8" y2="83.34"/><line class="cls-20" x1="170.27" y1="80.74" x2="175.83" y2="81.79"/><line class="cls-20" x1="171.41" y1="79.18" x2="176.97" y2="80.23"/></g></g></g><g class="cls-29"><rect class="cls-3" x="52.85" y="28.04" width="7.73" height="3.34" transform="translate(-4.82 12.02) rotate(-11.61)"/><path class="cls-4" d="M102.14,19.84l-41.78,8.58-.43-1.9-7.49,1.54,.43,1.9-4.59,.94,6.06,29.47,14.84-3.05c2.91,1.34,6.25,1.81,9.62,1.11s6.25-2.44,8.4-4.82l20.99-4.31-6.06-29.47Z"/><rect class="cls-14" x="52.48" y="26.63" width="51.52" height="26.96" transform="translate(-6.47 16.57) rotate(-11.61)"/><g class="cls-30"><rect class="cls-17" x="130.35" y="88.46" width="51.52" height="26.96" transform="translate(-17.32 33.51) rotate(-11.61)"/></g><rect class="cls-11" x="50.33" y="26.85" width="51.52" height="5.61" transform="translate(-4.41 15.92) rotate(-11.61)"/><circle cx="76.84" cy="42.95" r="13.18"/><circle class="cls-15" cx="74.96" cy="43.33" r="13.18"/><rect x="90.74" y="24.59" width="7.67" height="2.76" rx=".8" ry=".8" transform="translate(-3.29 19.57) rotate(-11.61)"/><path class="cls-7" d="M92.81,26.01c-.98-.69-2.36-5.82-2.36-5.82,0,0,.61,5.29-.05,6.28-.66,1-1.92,1.83-1.92,1.83,0,0,2.81-.1,3.36,1.42,.55,1.51,1.19,4.06,1.19,4.06,0,0-.32-2.61-.36-4.22-.04-1.61,2.6-2.55,2.6-2.55,0,0-1.48-.31-2.46-1Z"/><path class="cls-7" d="M97.56,28.6c-.63-.44-1.52-3.77-1.52-3.77,0,0,.39,3.42-.03,4.07-.43,.65-1.24,1.19-1.24,1.19,0,0,1.82-.06,2.17,.92,.36,.98,.77,2.63,.77,2.63,0,0-.2-1.69-.23-2.73-.03-1.04,1.68-1.65,1.68-1.65,0,0-.96-.2-1.59-.65Z"/><g class="cls-27"><circle cx="74.96" cy="43.33" r="10.82"/><rect class="cls-3" x="60.87" y="38.19" width="25.31" height="5.38" transform="translate(-6.61 66.48) rotate(-46.79)"/><rect class="cls-3" x="64.02" y="43.23" width="25.31" height="1.22" transform="translate(-7.78 69.7) rotate(-46.79)"/></g><polygon class="cls-11" points="59.6 30.18 54.38 31.25 54.02 29.04 59.24 27.96 59.6 30.18"/></g><g class="cls-33"><path class="cls-5" d="M180.53,60.59c-.79,0-1.51-.14-2.21-.27-.23-.04-.47-.09-.73-.13-7.89-1.29-34.03-5.72-38.52-8.31-4.17-2.41-6.69-5.88-6.75-9.29-.02-1.5,.44-4.33,3.8-6.42,.46-.29,.98-.54,1.58-.76l3.34-1.55c4.72-10.68,6.45-11.39,7.5-11.82,.69-.28,2.19-.94,4.21-1.85,1.28-.58,2.65-.87,4.05-.87,.63,0,1.27,.06,1.89,.18,19.66,3.82,21.05,6.94,21.8,8.62,1.61,3.63,1.33,11.12,.98,15.58,.28,.7,1.18,2.49,3.2,5.72,.63,.7,1.1,1.51,1.41,2.41,.77,2.3,1.49,4.48-1.12,6.81-.09,.08-.19,.17-.3,.27-1.17,1.11-2.56,1.67-4.14,1.67h0Z"/><path class="cls-3" d="M184.36,53.9c-.19-.57-.5-1.04-.91-1.43-1.5-2.4-4.34-7.1-4.25-8.27,.08-.92,.99-11.6-.69-15.38-1.35-3.03-15.19-5.99-20.59-7.04-1.38-.27-2.8-.1-4.08,.47-1.56,.7-3.65,1.63-4.63,2.03-1.68,.69-6.56,11.98-6.56,11.98l-5.03,2.34c-.41,.15-.8,.32-1.15,.53-4.58,2.85-1.53,7.63,3.05,10.28,4.58,2.65,40,8.44,40,8.44,2.01,.33,3.1,.8,4.32-.36,1.22-1.16,1.44-.85,.52-3.6Z"/><g><path class="cls-10" d="M179.2,44.2c.08-.92,.99-11.6-.69-15.38-1.35-3.03-15.19-5.99-20.59-7.04-1.38-.27-2.8-.1-4.08,.47-1.56,.7-3.65,1.63-4.63,2.03-1.68,.69-6.56,11.98-6.56,11.98l-6.18,2.87,24.19,11.7,23.7,3.06s-5.28-8.11-5.16-9.7Z"/><path d="M179.52,57.86s-35.42-5.8-40-8.44c-4.58-2.65-7.63-7.43-3.05-10.28,4.58-2.85,15.26,.41,19.23,3.36,3.97,2.95,11.9,7.74,18.11,7.99,6.21,.25,9.64,.66,10.55,3.41,.92,2.75,.7,2.44-.52,3.6-1.22,1.16-2.32,.7-4.32,.36Z"/><path d="M149.78,36.92c8.91,2.32,17.2,7.36,26.67,6.97,.16,0,.16-.25,0-.24-9.45,.39-17.72-4.65-26.6-6.96-.15-.04-.22,.19-.06,.23h0Z"/><path class="cls-18" d="M148.8,30.45s-2.47,3.08-.99,3.56,9.11-3.05,9.11-3.05c0,0-6.22,1.84-7.31,1.82-.76-.02-2,.34-.8-2.33Z"/></g></g><g><polygon points="189.8 39.94 186.74 37.74 184.28 40.59 182.31 37.38 178.95 39.07 178.35 35.35 174.59 35.63 175.47 31.97 171.89 30.78 174.1 27.73 171.25 25.27 174.46 23.3 172.76 19.93 176.48 19.33 176.2 15.58 179.87 16.45 181.05 12.88 184.11 15.08 186.57 12.23 188.54 15.44 191.9 13.75 192.5 17.47 196.26 17.19 195.38 20.85 198.96 22.04 196.75 25.09 199.6 27.55 196.39 29.52 198.09 32.89 194.37 33.48 194.65 37.24 190.98 36.37 189.8 39.94"/><g><polygon points="189.47 38.93 186.65 36.89 184.37 39.53 182.55 36.56 179.43 38.12 178.88 34.68 175.4 34.94 176.21 31.55 172.9 30.46 174.94 27.63 172.31 25.35 175.28 23.53 173.71 20.42 177.15 19.86 176.89 16.39 180.28 17.2 181.38 13.89 184.2 15.93 186.48 13.29 188.3 16.26 191.42 14.69 191.97 18.14 195.45 17.88 194.64 21.27 197.95 22.36 195.9 25.19 198.54 27.46 195.57 29.29 197.14 32.4 193.7 32.96 193.96 36.43 190.57 35.62 189.47 38.93"/><polygon class="cls-16" points="189.47 38.93 186.65 36.89 184.37 39.53 182.55 36.56 179.43 38.12 178.88 34.68 175.4 34.94 176.21 31.55 172.9 30.46 174.94 27.63 172.31 25.35 175.28 23.53 173.71 20.42 177.15 19.86 176.89 16.39 180.28 17.2 181.38 13.89 184.2 15.93 186.48 13.29 188.3 16.26 191.42 14.69 191.97 18.14 195.45 17.88 194.64 21.27 197.95 22.36 195.9 25.19 198.54 27.46 195.57 29.29 197.14 32.4 193.7 32.96 193.96 36.43 190.57 35.62 189.47 38.93"/></g><g><g><path class="cls-31" d="M176.04,26.25l2.03-3.18,2.85,.59c.17,.03,.3,.1,.39,.2,.09,.1,.16,.21,.2,.33s.06,.25,.06,.38c0,.13,0,.24-.03,.34-.04,.19-.12,.36-.25,.5-.13,.14-.28,.26-.45,.34-.17,.09-.35,.15-.54,.17-.19,.03-.36,.03-.52,0l-1.45-.3-.63,.98-1.67-.34Zm1.63,.25l.62-.99,1.52,.31c.15,.03,.32,.03,.49,0,.18-.03,.35-.08,.51-.16,.16-.08,.3-.19,.42-.32,.12-.13,.2-.29,.24-.47,.02-.09,.03-.2,.03-.31,0-.12-.02-.23-.06-.34-.04-.11-.1-.21-.18-.3-.09-.09-.2-.15-.35-.18l-2.79-.58-1.93,3.02,1.48,.31Zm-1.2-.42l1.74-2.72,2.67,.55c.12,.02,.21,.07,.27,.15,.06,.07,.11,.16,.13,.25,.03,.09,.04,.19,.04,.29,0,.1-.01,.18-.03,.26-.03,.16-.1,.29-.21,.41s-.23,.21-.37,.27-.29,.11-.44,.14c-.15,.02-.3,.02-.43,0l-1.64-.34-.63,.99-1.12-.23Zm2.4-1.79l-.49,.78,.66-.36,.93,.19s.01,0,.03-.02c.02-.02,.04-.03,.06-.05,.02-.02,.04-.04,.06-.06,.02-.02,.03-.03,.03-.04l.02-.02s0-.01,0-.03c0-.02-.02-.05-.04-.09-.02-.04-.04-.06-.05-.06l-1.2-.25Zm1.11,.44l-.98-.2-.12,.07,.07-.12,1.03,.21s0,.03,0,.04Zm0-.04s0,.03,0,.04h0m.03-.03h.01s0,0-.01,0h0Z"/><path class="cls-31" d="M184.65,28.03l-1.54-.32v-.33c-.09,.06-.17,.11-.24,.16-.08,.05-.14,.07-.17,.08l-2.81-.58c.02-.06,.04-.11,.07-.16,.02-.05,.05-.09,.07-.14l2.67-2.25s.07-.06,.14-.1c.06-.04,.13-.08,.2-.12,.07-.04,.14-.07,.21-.09,.07-.02,.13-.03,.17-.02l.97,.2c.09,.02,.16,.06,.22,.13,.05,.07,.09,.14,.12,.22,.03,.08,.04,.17,.05,.25s0,.16,.01,.22l-.12,2.83Zm.04-2.73c0-.06,0-.14-.01-.23s-.02-.18-.04-.26c-.02-.08-.05-.16-.1-.22-.04-.07-.1-.11-.18-.12l-.97-.2s-.09,0-.16,.02c-.07,.02-.13,.05-.2,.08-.07,.03-.13,.07-.18,.11-.06,.04-.09,.07-.11,.09l.02-.02-2.67,2.25s-.03,.06-.04,.09c-.01,.03-.03,.07-.04,.1l2.7,.56s.11-.05,.2-.11c.1-.06,.19-.13,.29-.21v.41l1.37,.28,.12-2.63Zm-.29,2.43l-1.03-.21v-.66s-.04,.06-.1,.11c-.06,.05-.13,.11-.2,.17s-.15,.11-.22,.16c-.07,.05-.12,.07-.15,.08l-2.45-.5s.02-.05,.02-.04v-.02l2.61-2.13s.05-.04,.09-.07c.04-.03,.09-.06,.14-.09,.05-.03,.1-.05,.15-.07s.08-.03,.11-.02l.97,.2s.07,.04,.1,.08c.02,.05,.04,.1,.05,.17,.01,.07,.02,.13,.02,.2,0,.07,0,.13,0,.17l-.11,2.47Zm-2.16-1.29v.06l1.16,.24,.07-1.35-1.23,1.05Zm1.02-.65l-.03,.74-.67-.14,.7-.6Zm-.52,.56l.4,.08,.02-.44-.42,.35Z"/><path class="cls-31" d="M184.97,26.41c.04-.21,.13-.41,.27-.61,.14-.2,.31-.37,.51-.51s.41-.25,.65-.32c.24-.07,.47-.08,.71-.03l2.9,.6c-.27,.22-.52,.42-.74,.59-.23,.18-.45,.32-.65,.42l-1.59-.33s-.11,.02-.19,.09c-.08,.07-.14,.14-.2,.23h0s-.06,.09-.07,.14c0,.04,0,.09,0,.15,.01,.05,.03,.11,.05,.16,.02,.05,.05,.09,.09,.13,.04,.04,.07,.06,.11,.07l1.87,.39c-.21,.2-.43,.39-.66,.58-.23,.19-.46,.34-.68,.45l-.55-.11c-.27-.06-.53-.13-.78-.23-.25-.1-.46-.23-.64-.4-.18-.16-.31-.36-.39-.59-.08-.23-.09-.51-.03-.82h0Zm.08,.02c-.06,.3-.05,.56,.03,.78,.08,.22,.2,.41,.38,.56s.38,.28,.62,.38c.24,.1,.49,.17,.74,.22l.52,.11c.2-.09,.4-.22,.6-.39,.2-.16,.39-.33,.58-.5l-1.71-.35s-.09-.04-.14-.08c-.04-.04-.08-.09-.11-.15-.03-.06-.05-.12-.07-.19-.02-.06-.02-.12,0-.17,0-.02,.01-.04,.03-.07,.02-.03,.03-.06,.05-.1h0s.06-.08,.1-.13c.04-.04,.08-.08,.13-.12,.05-.03,.09-.06,.13-.08,.04-.02,.08-.02,.12-.02l1.56,.32c.19-.11,.38-.23,.58-.38,.2-.15,.41-.32,.64-.5l-2.72-.56c-.23-.05-.45-.04-.68,.03-.22,.07-.43,.17-.62,.31-.19,.14-.35,.3-.48,.49-.13,.19-.22,.38-.26,.58h0Zm.18,.05h0c.04-.19,.11-.37,.23-.54s.26-.32,.43-.45c.17-.13,.35-.22,.55-.28,.2-.06,.4-.07,.61-.03l2.37,.49c-.14,.12-.28,.23-.42,.33-.14,.1-.28,.19-.44,.28l-1.5-.31s-.1,0-.17,.02c-.06,.02-.13,.05-.19,.09-.06,.04-.12,.09-.18,.14-.06,.06-.1,.11-.14,.18-.05,.08-.08,.15-.09,.22-.01,.07-.01,.15,.01,.24s.06,.17,.1,.25c.04,.08,.1,.15,.16,.21,.06,.06,.12,.09,.19,.11l1.37,.28c-.11,.11-.24,.22-.38,.33-.14,.11-.29,.21-.46,.29l-.46-.09c-.23-.05-.46-.12-.68-.2-.22-.09-.41-.2-.57-.34-.16-.14-.27-.31-.35-.5-.07-.2-.08-.43-.03-.7Z"/><path class="cls-31" d="M187.97,28.71l2.04-3.18,1.69,.35-.54,.83,1.51-.63,2.13,.44-2.83,1.28,.94,1.93-1.9-.39-.71-1.27-.64,.99-1.69-.35Zm1.65,.25l.69-1.07,.77,1.37,1.69,.35-.91-1.86,2.66-1.2-1.84-.38-1.75,.73,.63-.96-1.51-.31-1.94,3.02,1.5,.31Zm-1.22-.42l1.74-2.72,1.13,.23-.79,1.22,2.22-.93,1.26,.26-2.34,1.06,.82,1.71-1.26-.26-.88-1.57-.79,1.22-1.13-.23Z"/></g><polygon points="179.97 24.68 179.98 24.74 180 24.74 179.98 24.66 179.97 24.68"/><polygon points="180.01 24.68 180 24.7 180.03 24.71 180.04 24.7 180.01 24.68"/><path class="cls-31" d="M179.03,24.71l-.44-.1-.35,.27-.02,.16s.2,.08,.29,.12,.2-.01,.28,.01,.24-.47,.24-.47Z"/><polygon points="179 24.53 178.89 24.51 178.82 24.6 178.98 24.63 179 24.53"/></g></g><g><path d="M39.43,32c-.35-2.47-1.92-4.7-4.16-5.82-1.1-.55-2.41-.91-3.62-.48-1.1,.39-1.95,1.3-2.4,2.36-.49,1.18-.64,2.72-.27,3.96,.26,.85,1.01,1.48,1.91,1.1,1.15-.49,1.21-1.93,1.25-3,.04-1.17-.15-2.35-1.14-3.09-1.13-.84-2.77-.87-4.11-.84-1.82,.03-3.6,.38-5.31,1.01-.43,.16-.25,.86,.19,.7,2.35-.86,5.34-1.44,7.81-.73,1.59,.46,1.91,1.73,1.82,3.24-.03,.61-.02,1.67-.67,2-1.13,.57-1.19-1.2-1.21-1.77-.03-1.35,.33-2.77,1.39-3.67,1.18-1.01,2.67-.8,3.98-.15,2.09,1.04,3.5,3.09,3.83,5.39,.07,.46,.76,.26,.7-.19h0Z"/><path class="cls-31" d="M39.88,30.7c-.36-2.5-1.97-4.79-4.24-5.92-1.14-.57-2.49-.94-3.74-.5-1.15,.41-2.05,1.37-2.52,2.48-.5,1.21-.65,2.78-.27,4.05,.29,.95,1.16,1.64,2.16,1.2,1.21-.54,1.29-2,1.34-3.14,.04-1.22-.17-2.45-1.21-3.22-1.16-.86-2.83-.9-4.22-.88-1.83,.03-3.64,.38-5.35,1.01-.63,.23-.36,1.26,.28,1.02,2.33-.85,5.28-1.44,7.72-.73,1.52,.44,1.78,1.64,1.7,3.07-.03,.54,0,1.57-.59,1.86-.93,.45-.94-1.18-.95-1.63-.03-1.3,.31-2.68,1.35-3.55,1.13-.95,2.54-.74,3.77-.12,2.06,1.03,3.43,3.03,3.75,5.29,.1,.67,1.12,.39,1.02-.28h0Z"/></g><g><path d="M39.61,25.14c.94-1.03,1.34-2.48,1.03-3.84-.15-.64-.45-1.3-1.04-1.65s-1.3-.38-1.92-.17-1.24,.64-1.63,1.17c-.33,.44-.35,1.05,.22,1.29,.63,.26,1.25-.25,1.71-.61,.53-.42,.91-.95,.81-1.66-.12-.8-.74-1.52-1.27-2.11-.6-.66-1.3-1.21-2.07-1.66-.22-.13-.42,.21-.2,.34,1.15,.67,2.28,1.65,2.91,2.84,.21,.4,.35,.86,.14,1.29-.16,.33-.48,.57-.77,.79s-.69,.54-1.07,.43c-.64-.19,.02-.89,.27-1.11,.52-.46,1.19-.8,1.9-.73,.82,.07,1.31,.65,1.54,1.4,.4,1.29,.05,2.72-.86,3.71-.17,.19,.11,.47,.28,.28h0Z"/><path class="cls-32" d="M40.3,24.89c.96-1.05,1.38-2.53,1.05-3.93-.15-.67-.48-1.34-1.08-1.71s-1.35-.4-1.99-.18-1.28,.66-1.69,1.21c-.36,.48-.35,1.18,.28,1.42,.66,.26,1.3-.24,1.79-.63,.55-.44,.95-1,.84-1.73-.12-.83-.75-1.57-1.29-2.17-.6-.66-1.31-1.22-2.09-1.67-.32-.19-.61,.31-.29,.5,1.13,.66,2.25,1.63,2.88,2.81,.2,.37,.33,.8,.14,1.2-.15,.32-.46,.55-.73,.75-.25,.18-.67,.55-1,.42-.51-.2,.1-.77,.31-.96,.5-.44,1.15-.77,1.83-.71,.78,.07,1.23,.62,1.45,1.33,.39,1.26,.05,2.66-.84,3.62-.25,.27,.16,.69,.41,.41h0Z"/></g><g><path d="M90.85,103.86l-9.56-8.21c-.1-.08-.29,0-.23,.14l4.2,11.71c.04,.1,.2,.15,.26,.03l3.23-7.39c.06-.13-.06-.25-.19-.19-1.53,.68-3.03,1.41-4.51,2.19-.72,.38-1.44,.77-2.15,1.18-.36,.21-.93,.41-.82,.91,.01,.06,.08,.1,.14,.1,3.5,.24,7,.45,10.51,.63,.18,0,.18-.27,0-.28-3.15-.16-6.31-.34-9.46-.56-.17-.01-.42,.01-.58-.04l-.23-.02c.01-.15,.08-.24,.21-.29,.26-.23,.67-.38,.97-.55,.65-.36,1.3-.71,1.96-1.06,1.35-.7,2.73-1.36,4.12-1.98l-.19-.19-3.23,7.39,.26,.03-4.2-11.71-.23,.14,9.56,8.21c.14,.12,.34-.08,.2-.2h0Z"/><path d="M98.59,108.51c-.3-2.14-1.2-4.12-1.5-6.26-.01-.1-.15-.07-.18,0-.78,1.93-1.86,3.72-2.63,5.65-.03,.08,.07,.13,.13,.1l4.77-2.22c.08-.04,.05-.15-.02-.17-1.05-.33-2.11-.63-3.18-.89-.54-.13-1.07-.25-1.61-.36-.23-.05-.59-.17-.71,.1-.02,.04-.02,.08,.01,.11,1.61,1.63,3.23,3.24,4.87,4.85,.08,.08,.21-.05,.13-.13-1.45-1.42-2.89-2.85-4.33-4.3l-.25-.25c-.08-.08-.29-.19-.11-.27,.14-.06,.58,.12,.73,.15,.49,.11,.99,.22,1.48,.34,.98,.24,1.95,.52,2.92,.82l-.02-.17-4.77,2.22,.13,.1c.78-1.93,1.86-3.72,2.63-5.65h-.18c.3,2.14,1.2,4.12,1.5,6.26,.02,.12,.19,.07,.18-.05h0Z"/></g><g class="cls-9"><path class="cls-6" d="M35.88,99.34c-.88,.15-1.74-.05-2.44-.51l-2.39,.41c-1.81,.31-3.54-.91-3.86-2.72l-4.38-25.34c-.32-1.82,.91-3.56,2.73-3.88l13.6-2.35c1.4-.24,2.74,.42,3.44,1.56l3.99-.69h.27c.48,.01,2.97,.21,4.61,3.39,.7,1.21,4.94,4.18,6.7,3.88l14.61-2.53c3.12-.54,6.1,1.56,6.64,4.68l1.71,9.91c.39,2.25-1.12,4.4-3.37,4.79l-30.73,5.31c-.48,.83-1.31,1.44-2.32,1.62l-2.39,.41c-.5,.66-1.24,1.14-2.12,1.3l-4.29,.74Z"/><path class="cls-3" d="M73.23,73.35l-14.61,2.53c-3.39,.59-8.73-3.52-9.68-5.36-.95-1.84-2.15-1.86-2.15-1.86l-4.94,.85-1.33,.23,.02,.11c-.02-.09-.05-.18-.09-.26h.04l-.24-1.42c-.05-.29-.33-.49-.62-.44l-13.6,2.35c-.29,.05-.49,.33-.44,.62l.24,1.41h.04c0,.08-.01,.17,0,.26l3.84,22.23,.11,.65,.13,.78c.05,.28,.32,.47,.6,.42l4.11-.71,.06,.34c.05,.31,.35,.52,.66,.47l4.29-.74c.31-.05,.52-.35,.47-.66l-.06-.34,4.11-.71c.28-.05,.47-.32,.42-.6l-.12-.67,16.55-2.86,16.19-2.8c.72-.12,1.2-.81,1.08-1.53l-1.71-9.91c-.28-1.59-1.79-2.66-3.39-2.39Z"/><g><g><rect class="cls-3" x="27.74" y="69.98" width="14.88" height="25.16" rx="1.47" ry="1.47" transform="translate(-13.55 7.2) rotate(-9.81)"/><path d="M29.78,93.33h14.88v1.19c0,.43-.35,.79-.79,.79h-13.31c-.43,0-.79-.35-.79-.79v-1.19h0Z" transform="translate(-15.53 7.72) rotate(-9.81)"/><path d="M26.37,68.9h13.25c.45,0,.81,.36,.81,.81v1.16h-14.88v-1.16c0-.45,.36-.81,.81-.81Z" transform="translate(-11.43 6.64) rotate(-9.81)"/></g><rect x="34.65" y="94.47" width="5.5" height="1.73" rx=".8" ry=".8" transform="translate(-15.7 7.77) rotate(-9.81)"/><path d="M73.23,73.35l-14.61,2.53c-3.39,.59-8.73-3.52-9.68-5.36-.95-1.84-2.15-1.86-2.15-1.86l-4.94,.85-1.33,.23,4,23.1,16.55-2.86,16.19-2.8c.72-.12,1.2-.81,1.08-1.53l-1.71-9.91c-.28-1.59-1.79-2.66-3.39-2.39Zm-25.87,17.14c.05,.3-.15,.59-.45,.64l-.52,.09c-.3,.05-.59-.15-.64-.45l-.18-1.02c-.05-.3,.15-.59,.45-.64l.52-.09c.3-.05,.59,.15,.64,.45l.18,1.02Zm-3.26-18.83c.05,.3-.15,.59-.45,.64l-.52,.09c-.3,.05-.59-.15-.64-.45l-.18-1.02c-.05-.3,.15-.59,.45-.64l.52-.09c.3-.05,.59,.15,.64,.45l.18,1.02Zm1.24-1.27c-.05-.3,.15-.59,.45-.64l.52-.09c.3-.05,.59,.15,.64,.45l.18,1.02c.05,.3-.15,.59-.45,.64l-.52,.09c-.3,.05-.59-.15-.64-.45l-.18-1.02Zm5.16,19.55c.05,.3-.15,.59-.45,.64l-.52,.09c-.3,.05-.59-.15-.64-.45l-.18-1.02c-.05-.3,.15-.59,.45-.64l.52-.09c.3-.05,.59,.15,.64,.45l.18,1.02Zm3.14-.54c.05,.3-.15,.59-.45,.64l-.52,.09c-.3,.05-.59-.15-.64-.45l-.18-1.02c-.05-.3,.15-.59,.45-.64l.52-.09c.3-.05,.59,.15,.64,.45l.18,1.02Zm3.14-.54c.05,.3-.15,.59-.45,.64l-.52,.09c-.3,.05-.59-.15-.64-.45l-.18-1.02c-.05-.3,.15-.59,.45-.64l.52-.09c.3-.05,.59,.15,.64,.45l.18,1.02Zm3.14-.54c.05,.3-.15,.59-.45,.64l-.52,.09c-.3,.05-.59-.15-.64-.45l-.18-1.02c-.05-.3,.15-.59,.45-.64l.52-.09c.3-.05,.59,.15,.64,.45l.18,1.02Zm3.14-.54c.05,.3-.15,.59-.45,.64l-.52,.09c-.3,.05-.59-.15-.64-.45l-.18-1.02c-.05-.3,.15-.59,.45-.64l.52-.09c.3-.05,.59,.15,.64,.45l.18,1.02Zm3.14-.54c.05,.3-.15,.59-.45,.64l-.52,.09c-.3,.05-.59-.15-.64-.45l-.18-1.02c-.05-.3,.15-.59,.45-.64l.52-.09c.3-.05,.59,.15,.64,.45l.18,1.02Zm3.14-.54c.05,.3-.15,.59-.45,.64l-.52,.09c-.3,.05-.59-.15-.64-.45l-.18-1.02c-.05-.3,.15-.59,.45-.64l.52-.09c.3-.05,.59,.15,.64,.45l.18,1.02Zm3.14-.54c.05,.3-.15,.59-.45,.64l-.52,.09c-.3,.05-.59-.15-.64-.45l-.18-1.02c-.05-.3,.15-.59,.45-.64l.52-.09c.3-.05,.59,.15,.64,.45l.18,1.02Zm3.14-.54c.05,.3-.15,.59-.45,.64l-.52,.09c-.3,.05-.59-.15-.64-.45l-.18-1.02c-.05-.3,.15-.59,.45-.64l.52-.09c.3-.05,.59,.15,.64,.45l.18,1.02Z"/><rect class="cls-12" x="27.79" y="71.26" width="8.04" height="22.83" transform="translate(-13.62 6.63) rotate(-9.81)"/><g><path class="cls-3" d="M68.42,80.94c-.01,.05-.03,.12-.06,.2-.03,.08-.06,.17-.1,.25-.04,.08-.07,.15-.11,.22s-.07,.09-.09,.1l-1.24,.21-.09,.83-.04-.47,1.27-.22-.46,.78-.8,.14-.12,1.03-.77,.13,.32-2.8,2.29-.4Z"/><path class="cls-3" d="M68.63,80.91l.77-.13-.31,2.8-.77,.13,.31-2.8Z"/><path class="cls-3" d="M69.32,83.53l.32-2.8,.77-.13-.24,2.08,1.28-.22s0,.03-.03,.09c-.03,.06-.06,.14-.09,.22-.04,.08-.08,.17-.12,.25s-.08,.15-.11,.19l-1.77,.31Z"/><path class="cls-3" d="M73.93,82.73l.17-1.57-.83,1.69-.28,.05-.48-1.46-.17,1.57-.77,.13,.32-2.8,.97-.17,.44,1.3,.75-1.51,.98-.17-.32,2.8-.77,.13Z"/></g><g><g><path d="M39.03,91.89l-.17-1.01s0-.08,.02-.12c.02-.03,.05-.06,.09-.09,.04-.02,.08-.04,.13-.06,.05-.01,.09-.02,.12-.03,.08-.01,.15-.01,.22,0,.07,.02,.13,.05,.18,.08,.05,.04,.1,.08,.13,.13,.04,.05,.06,.1,.07,.15l.11,.62,.55,.06,.07,.42-1.53-.17Zm.76-.33l-.22,.11-.11-.63s0,0-.01,0c0,0-.02,0-.03-.01h-.03s-.02-.02-.03-.02h-.03s-.02,.02-.03,.03-.02,.02-.02,.03l.08,.45,.44,.05Z"/><path d="M40.13,89.59l-.3,.1s.03,0,.07,.02c.03,.01,.07,.03,.11,.04s.07,.03,.11,.05c.03,.02,.05,.03,.06,.04l.16,.93h-.03l-1.4-.57s-.03,0-.05-.02-.04-.02-.06-.03c-.02-.01-.04-.02-.05-.04-.02-.01-.03-.03-.03-.04l-.06-.37s0-.03,.02-.05c.02-.01,.04-.03,.07-.04s.06-.03,.09-.04c.03-.01,.06-.02,.08-.03l1.15-.35,.07,.39Zm-.28,.55l-.08-.44-.63,.19,.68,.26h.03Z"/><path d="M39.38,89.25c-.09,.02-.18,.02-.28,0-.1-.01-.19-.04-.27-.08-.08-.04-.16-.09-.22-.15s-.1-.13-.11-.21l-.16-.91c.08,.03,.15,.06,.22,.09,.07,.03,.13,.07,.2,.11l.1,.57s.02,.04,.03,.06c.02,.02,.04,.04,.07,.05,.03,.01,.06,.03,.1,.04,.03,0,.07,.02,.1,.02,.02,0,.04,0,.06,0s.04,0,.05,0c.03,0,.07-.02,.11-.04,.04-.02,.07-.05,.1-.07s.05-.06,.07-.09c.02-.03,.02-.06,.02-.08l-.09-.53c.07,.02,.14,.05,.21,.08s.14,.07,.21,.12l.03,.18c.02,.09,.02,.18,.02,.27,0,.09-.03,.17-.07,.25-.04,.08-.1,.14-.18,.2-.08,.06-.18,.1-.32,.12h0Z"/><path d="M38.32,87.79l-.07-.42,.69,.08-.78-.61-.08-.47,.86,.63,.65-.55,.08,.47-.58,.54,.69,.08,.07,.42-1.53-.17Z"/><path d="M39.36,85.14l-.86-.09,.92,.45,.03,.15-.8,.26,.86,.09,.07,.42-1.53-.17-.09-.53,.71-.24-.82-.41-.09-.53,1.53,.17,.07,.42Z"/><path d="M39.07,83.43l-.3,.1s.03,0,.07,.02c.03,.01,.07,.03,.11,.04s.07,.03,.11,.05c.03,.02,.05,.03,.06,.04l.16,.93h-.03l-1.4-.57s-.03,0-.05-.02-.04-.02-.06-.03c-.02-.01-.04-.02-.05-.04-.02-.01-.03-.03-.03-.04l-.06-.37s0-.03,.02-.05c.02-.01,.04-.03,.07-.04s.06-.03,.09-.04c.03-.01,.06-.02,.08-.03l1.15-.35,.07,.39Zm-.28,.55l-.08-.44-.63,.19,.68,.26h.03Z"/><path d="M37.46,82.77l-.09-.53,.8-.27-.86-.1-.07-.42,1.53,.17,.09,.53-.8,.27,.86,.09,.07,.42-1.53-.17Z"/></g><g><path d="M41.02,90.25s.06,.02,.11,.03,.09,.03,.14,.06c.05,.02,.08,.04,.12,.06,.03,.02,.05,.04,.05,.05l.12,.68,.45,.05-.23,.15-.14-.83,.42,.25,.08,.44,.56,.06,.07,.42-1.53-.17-.22-1.25Z"/><path d="M41.76,88.82c.1,.03,.2,.07,.28,.12,.08,.05,.15,.11,.21,.19,.06,.07,.09,.15,.11,.24l.04,.26c.01,.08,.02,.16,.01,.23,0,.07-.02,.14-.05,.19s-.08,.11-.14,.15c-.06,.04-.15,.07-.25,.09-.02,0-.05,0-.07,0-.02,0-.05,0-.08,0-.1,0-.2,0-.3-.03-.1-.03-.19-.06-.28-.11-.08-.05-.16-.11-.21-.18s-.09-.14-.11-.22l-.06-.33c-.03-.17-.01-.3,.05-.41,.06-.11,.18-.18,.36-.21,.03,0,.05,0,.08-.01,.03,0,.05,0,.08,0,.1,0,.21,0,.31,.03Zm-.02,1.07h.02s.07-.02,.1-.04c.03-.02,.06-.04,.09-.06,.03-.02,.05-.05,.06-.07,.01-.03,.02-.05,.01-.08l-.03-.18s-.01-.03-.03-.05c-.02-.02-.05-.05-.08-.07-.03-.03-.06-.05-.1-.07-.04-.02-.07-.04-.11-.05h-.04s-.02-.01-.03-.01h-.03s-.01,0-.02,0h0s-.03,0-.05,0c-.02,0-.03,0-.05,0-.03,0-.06,.01-.09,.02-.03,0-.05,.02-.07,.04s-.04,.04-.05,.06-.01,.06,0,.09l.04,.22s.02,.05,.04,.07c.02,.02,.05,.05,.08,.07,.03,.02,.06,.04,.1,.06,.04,.02,.07,.03,.1,.04,.02,0,.05,0,.07,0,.02,0,.04,0,.05,0,0,0,0,0,.02,0Z"/><path d="M40.73,88.58l-.17-.98c0-.05,0-.1,.02-.13s.05-.07,.09-.09,.08-.04,.13-.06c.05-.01,.09-.02,.14-.03,.09-.02,.17-.01,.24,.02,.07,.03,.12,.06,.17,.11,.05,.05,.08,.11,.11,.17,.03,.06,.05,.12,.06,.18l.48-.53,.08,.47-.44,.54,.03,.02,.52,.06,.07,.42-1.53-.17Zm.28-.87s-.03,0-.04,.01c0,0-.01,.02,0,.04l.08,.44,.45,.05-.24,.08-.1-.59s-.02-.04-.05-.04c-.03,0-.05,0-.07,0h-.03Z"/><path d="M40.25,85.8s.06,.02,.11,.03,.09,.03,.14,.06c.05,.02,.08,.04,.12,.06,.03,.02,.05,.04,.05,.05l.12,.68,.45,.05-.23,.18-.15-.85,.42,.25,.08,.44,.17,.02-.15-.84h.03l.04,.02s.03,0,.04,.01h.02s.05,.03,.09,.05c.03,.02,.07,.04,.1,.05s.06,.03,.08,.05c.02,.01,.03,.02,.03,.02l.19,1.11-1.53-.17-.22-1.25Z"/><path d="M40.04,84.61l-.08-.45,1.42,.56s.03,.01,.05,.02c.02,.01,.04,.02,.06,.03,.02,.01,.04,.02,.06,.04,.02,.01,.03,.03,.03,.04l.06,.36s0,.03-.02,.05c-.02,.01-.04,.03-.07,.04-.03,.01-.06,.03-.09,.04-.03,.01-.06,.02-.08,.03l-1.15,.34-.07-.38,.96-.27-1.08-.44Z"/><path d="M39.73,82.8s.06,.02,.11,.03,.09,.03,.14,.06c.05,.02,.08,.04,.12,.06,.03,.02,.05,.04,.05,.05l.12,.68,.45,.05-.25,.08-.13-.75,.42,.25,.08,.44,.17,.02-.15-.84h.03l.04,.02s.03,0,.04,.01h.02s.05,.03,.09,.05c.03,.02,.07,.04,.1,.05s.06,.03,.08,.05c.02,.01,.03,.02,.03,.02l.19,1.11-1.53-.17-.22-1.25Z"/><path d="M39.71,82.68l-.17-.98c0-.05,0-.1,.02-.13s.05-.07,.09-.09,.08-.04,.13-.06c.05-.01,.09-.02,.14-.03,.09-.02,.17-.01,.24,.02,.07,.03,.12,.06,.17,.11,.05,.05,.08,.11,.11,.17,.03,.06,.05,.12,.06,.18l.48-.53,.08,.47-.44,.54,.03,.02,.52,.06,.07,.42-1.53-.17Zm.28-.87s-.03,0-.04,.01c0,0-.01,.02,0,.04l.08,.44,.45,.05-.22,.2-.12-.7s-.02-.04-.05-.04c-.03,0-.05,0-.07,0h-.03Z"/></g></g><polygon points="29.86 71.42 30.72 94.44 33.1 94.03 32.32 71 29.86 71.42"/><line class="cls-21" x1="33.16" y1="70.85" x2="34.34" y2="93.81"/></g></g><g class="cls-1"><circle class="cls-8" cx="103.93" cy="79.51" r="17.16"/><g><circle cx="103.93" cy="79.51" r="15.91"/><g class="cls-26"><g><path class="cls-2" d="M107.81,76.83h0c-.7-1.04-.54-3.17-.53-3.22h0l-3.37-.89s-.91,1.98-2.05,2.54h0c-1.06,.29-1.94,1.12-2.24,2.26l-1.74,6.61,9.05,2.38,1.74-6.61c.3-1.14-.06-2.3-.85-3.07Z"/><rect class="cls-25" x="104.06" y="70.6" width="3.84" height="2.19" rx=".73" ry=".73" transform="translate(21.7 -24.58) rotate(14.72)"/><rect class="cls-25" x="103.65" y="72.84" width="3.84" height=".87" rx=".38" ry=".38" transform="translate(22.09 -24.42) rotate(14.72)"/><path class="cls-23" d="M99.93,85.13s.99-6.58,1.98-7.55,1.81-1.74,1.81-1.74l1.1,.29s-1.17,1.42-1.5,2.19-1.89,7.2-1.89,7.2l-1.5-.39Z"/><path class="cls-23" d="M106.45,77.33c-.25-.02-.44,.23-.33,.45,.08,.16,.12,.37,.1,.62-.08,.72,.11,1.75,.53,1.56s.87-1.56,.58-2.19c-.14-.31-.52-.41-.87-.44Z"/></g></g><g><path class="cls-19" d="M95.53,86.37c-.57,1.09-1.53,1.31-2.81,.51-.63-.39-.94-.6-1.55-1.03,.85-1.2,1.28-1.8,2.13-3,.54,.38,.81,.56,1.37,.91,1.12,.7,1.43,1.52,.87,2.61Zm-2.74-.48c.15,.1,.22,.14,.37,.24,.48,.3,.86,.21,1.12-.25l.16-.28c.27-.46,.17-.82-.27-1.1-.14-.09-.21-.13-.35-.22-.41,.64-.62,.97-1.04,1.61Z"/><path class="cls-19" d="M99.51,87.97c-.18,.13-.41,.19-.68,.18,.13,.7,.2,1.05,.36,1.76-.58-.19-.87-.3-1.44-.52-.09-.61-.12-.91-.18-1.52-.18-.07-.27-.11-.45-.19-.22,.49-.32,.74-.54,1.23-.5-.22-.75-.34-1.24-.58,.65-1.32,.98-1.98,1.62-3.3,.83,.41,1.25,.59,2.1,.92,.25,.1,.45,.22,.59,.38,.15,.16,.24,.34,.27,.53,.04,.2,.02,.39-.04,.58-.07,.21-.2,.39-.38,.51Zm-.84-1.16c-.04-.09-.1-.15-.19-.18-.3-.12-.45-.18-.75-.32-.11,.25-.16,.37-.27,.62,.31,.13,.46,.2,.77,.32,.09,.04,.18,.04,.27,0,.09-.04,.15-.1,.18-.19,.03-.09,.03-.18,0-.26Z"/><path class="cls-19" d="M99.87,90.13c.43-1.41,.65-2.11,1.08-3.52,.46,.14,.69,.21,1.16,.33-.37,1.43-.55,2.14-.92,3.56-.53-.14-.79-.21-1.31-.37Z"/><path class="cls-19" d="M105.13,91.25c-.63-.8-.92-1.2-1.45-2.03-.13,.7-.19,1.05-.32,1.76-.49-.09-.74-.14-1.23-.25,.32-1.44,.48-2.15,.8-3.59,.41,.09,.62,.13,1.03,.21,.49,.83,.75,1.23,1.33,2.04,.09-.72,.13-1.08,.22-1.8,.44,.05,.66,.08,1.1,.11-.12,1.47-.18,2.2-.3,3.67-.48-.04-.72-.06-1.19-.12Z"/><path class="cls-19" d="M109.98,87.76c.6-.03,.9-.05,1.51-.11-.48,.66-.74,.98-1.28,1.61,.63,.84,.97,1.25,1.68,2.04-.65,.07-.98,.09-1.63,.12-.38-.52-.57-.79-.92-1.32-.28,.22-.43,.32-.72,.53,0,.33,0,.49,0,.82-.55,0-.83-.01-1.37-.04,.07-1.47,.11-2.2,.19-3.67,.48,.02,.72,.03,1.21,.03,0,.63,0,.94,0,1.57,.57-.63,.84-.95,1.35-1.6Z"/></g><path class="cls-3" d="M99.02,70.57c-.27-.5,.23-3,.23-3,0,0-.86,2.4-1.36,2.69-.49,.29-1.22,.38-1.22,.38,0,0,1.23,.55,1.14,1.32-.09,.77-.35,2-.35,2,0,0,.42-1.19,.74-1.89,.32-.7,1.66-.54,1.66-.54,0,0-.57-.45-.85-.95Z"/><path class="cls-3" d="M112.87,79.75c-.27-.5,.23-3,.23-3,0,0-.86,2.4-1.36,2.69-.49,.29-1.22,.38-1.22,.38,0,0,1.23,.55,1.14,1.32-.09,.77-.35,2-.35,2,0,0,.42-1.19,.74-1.89,.32-.7,1.66-.54,1.66-.54,0,0-.57-.45-.85-.95Z"/></g></g></svg>