<svg width="25" height="25" viewBox="0 0 25 25" fill="none" xmlns="http://www.w3.org/2000/svg">
<path fill-rule="evenodd" clip-rule="evenodd" d="M19.5021 12.675C19.2538 12.6318 18.9985 12.6889 18.7923 12.8336C18.5862 12.9784 18.446 13.199 18.4027 13.4469C18.1561 14.8617 17.4166 16.1438 16.3149 17.0669C15.2132 17.99 13.8202 18.4945 12.3821 18.4913C9.01253 18.4913 6.27112 15.754 6.27112 12.3887C6.27112 9.02417 9.01253 6.28685 12.3821 6.28685C13.914 6.28685 15.3548 6.85155 16.4811 7.87182L15.6954 8.6564C15.5926 8.75865 15.5202 8.88737 15.4863 9.02825C15.4524 9.16912 15.4583 9.31662 15.5034 9.45434C15.5485 9.59205 15.6309 9.71458 15.7416 9.80829C15.8523 9.902 15.9868 9.96321 16.1302 9.98512L19.4665 10.4992C19.5884 10.518 19.713 10.5078 19.8301 10.4694C19.9473 10.4311 20.0538 10.3657 20.1409 10.2785C20.2281 10.1914 20.2934 10.0849 20.3316 9.96786C20.3698 9.85078 20.3798 9.72636 20.3608 9.60469L19.8467 6.27419C19.8246 6.13107 19.7632 5.99686 19.6694 5.88645C19.5756 5.77603 19.4529 5.69373 19.3151 5.64868C19.1773 5.60362 19.0296 5.59757 18.8886 5.6312C18.7475 5.66483 18.6186 5.73683 18.516 5.8392L17.8253 6.52966C16.3491 5.1516 14.4029 4.38613 12.3821 4.38868C7.9646 4.38868 4.37012 7.9778 4.37012 12.3887C4.37012 16.8003 7.9646 20.3887 12.3821 20.3887C16.2855 20.3887 19.6043 17.6063 20.2752 13.7728C20.3184 13.5248 20.2613 13.2699 20.1163 13.064C19.9713 12.8582 19.7504 12.7182 19.5021 12.675Z" fill="white"/>
</svg>
