<?xml version="1.0" encoding="UTF-8"?><svg id="Layer_1" xmlns="http://www.w3.org/2000/svg" xmlns:xlink="http://www.w3.org/1999/xlink" viewBox="0 0 221.1 124.16"><defs><style>.cls-1,.cls-2,.cls-3,.cls-4,.cls-5,.cls-6,.cls-7,.cls-8,.cls-9,.cls-10,.cls-11,.cls-12,.cls-13,.cls-14,.cls-15,.cls-16,.cls-17,.cls-18,.cls-19,.cls-20,.cls-21,.cls-22,.cls-23,.cls-24,.cls-25,.cls-26,.cls-27,.cls-28,.cls-29,.cls-30,.cls-31,.cls-32,.cls-33{stroke-miterlimit:10;}.cls-1,.cls-2,.cls-3,.cls-4,.cls-5,.cls-6,.cls-7,.cls-8,.cls-9,.cls-10,.cls-12,.cls-13,.cls-14,.cls-15,.cls-16,.cls-17,.cls-18,.cls-20,.cls-21,.cls-22,.cls-23,.cls-24,.cls-25,.cls-26,.cls-27,.cls-28,.cls-29,.cls-30,.cls-31,.cls-32,.cls-33{stroke:#000;}.cls-1,.cls-34,.cls-3,.cls-7,.cls-14,.cls-17,.cls-24,.cls-25,.cls-29,.cls-30,.cls-31,.cls-33{fill:#fff;}.cls-1,.cls-3{font-size:6.55px;}.cls-1,.cls-3,.cls-7,.cls-35{font-family:AppleSDGothicNeoH00, AppleSDGothicNeoH00;}.cls-1,.cls-7,.cls-24{stroke-width:.19px;}.cls-2{fill:#1cad56;}.cls-2,.cls-23{stroke-width:.21px;}.cls-36,.cls-26{fill:#0d4c26;}.cls-3{stroke-width:.14px;}.cls-4,.cls-6,.cls-18,.cls-20,.cls-22{fill:#ff307b;}.cls-4,.cls-27{stroke-width:.59px;}.cls-5{stroke-width:.39px;}.cls-5,.cls-9,.cls-16,.cls-27,.cls-28{fill:#1fce65;}.cls-6,.cls-32{stroke-width:.23px;}.cls-7,.cls-35{font-size:1.62px;}.cls-8,.cls-22,.cls-30{stroke-width:.15px;}.cls-9{stroke-width:.21px;}.cls-10,.cls-16,.cls-33{stroke-width:.11px;}.cls-11{stroke:#e6e6e6;stroke-width:.5px;}.cls-11,.cls-12,.cls-13,.cls-15,.cls-19{fill:none;}.cls-12{stroke-width:.32px;}.cls-13{stroke-width:.23px;}.cls-37{letter-spacing:-.06em;}.cls-14{stroke-width:.25px;}.cls-15{stroke-width:.1px;}.cls-38{filter:url(#drop-shadow-39);}.cls-17{stroke-width:.21px;}.cls-18{stroke-width:.13px;}.cls-19{stroke:#fff;stroke-width:.81px;}.cls-20{font-size:4.23px;stroke-width:.14px;}.cls-20,.cls-28{font-family:ArchivoBlack-Regular, 'Archivo Black';}.cls-21{fill:#1ca352;stroke-width:.39px;}.cls-39,.cls-24{font-family:AppleSDGothicNeoR00, AppleSDGothicNeoR00;font-size:1.5px;}.cls-40{letter-spacing:0em;}.cls-23{fill:#fff4d7;}.cls-41{filter:url(#drop-shadow-41);}.cls-42{letter-spacing:-.02em;}.cls-43{filter:url(#drop-shadow-40);}.cls-44{fill:#ff70fe;}.cls-45{fill:#ffca2c;font-family:AirstrikeAcademy, 'Airstrike Academy';font-size:5.82px;}.cls-46{fill:#7688ff;}.cls-25{stroke-width:.19px;}.cls-26{stroke-width:.14px;}.cls-47{fill:#f1f1f1;}.cls-28{font-size:3.08px;stroke-width:.11px;}.cls-29{stroke-width:.16px;}.cls-48{fill:#770c3d;}.cls-49{filter:url(#drop-shadow-29);}.cls-31{stroke-width:.16px;}.cls-50{filter:url(#drop-shadow-42);}.cls-32{fill:#ff1776;}</style><filter id="drop-shadow-29" filterUnits="userSpaceOnUse"><feOffset dx="1.55" dy="1.55"/><feGaussianBlur result="blur" stdDeviation="0"/><feFlood flood-color="#000" flood-opacity=".38"/><feComposite in2="blur" operator="in"/><feComposite in="SourceGraphic"/></filter><filter id="drop-shadow-39" filterUnits="userSpaceOnUse"><feOffset dx=".91" dy=".91"/><feGaussianBlur result="blur-2" stdDeviation="0"/><feFlood flood-color="#000" flood-opacity=".38"/><feComposite in2="blur-2" operator="in"/><feComposite in="SourceGraphic"/></filter><filter id="drop-shadow-40" filterUnits="userSpaceOnUse"><feOffset dx=".66" dy=".66"/><feGaussianBlur result="blur-3" stdDeviation="0"/><feFlood flood-color="#000" flood-opacity=".38"/><feComposite in2="blur-3" operator="in"/><feComposite in="SourceGraphic"/></filter><filter id="drop-shadow-41" filterUnits="userSpaceOnUse"><feOffset dx="1.42" dy="1.42"/><feGaussianBlur result="blur-4" stdDeviation="0"/><feFlood flood-color="#000" flood-opacity=".38"/><feComposite in2="blur-4" operator="in"/><feComposite in="SourceGraphic"/></filter><filter id="drop-shadow-42" filterUnits="userSpaceOnUse"><feOffset dx="1.52" dy="1.52"/><feGaussianBlur result="blur-5" stdDeviation="0"/><feFlood flood-color="#000" flood-opacity=".38"/><feComposite in2="blur-5" operator="in"/><feComposite in="SourceGraphic"/></filter></defs><g><g><polygon class="cls-34" points="221.15 124.11 -.05 124.11 -.05 .05 24.82 .05 221.15 .05 221.15 124.11"/><line class="cls-11" x1="22.07" y1=".05" x2="22.07" y2="124.11"/><line class="cls-11" x1="221.15" y1=".05" x2="221.15" y2="124.11"/><line class="cls-11" x1="-.05" y1=".05" x2="-.05" y2="124.11"/><line class="cls-11" x1="44.19" y1=".05" x2="44.19" y2="124.11"/><line class="cls-11" x1="66.31" y1=".05" x2="66.31" y2="124.11"/><line class="cls-11" x1="88.43" y1=".05" x2="88.43" y2="124.11"/><line class="cls-11" x1="110.55" y1=".05" x2="110.55" y2="124.11"/><line class="cls-11" x1="132.67" y1=".05" x2="132.67" y2="124.11"/><line class="cls-11" x1="154.79" y1=".05" x2="154.79" y2="124.11"/><line class="cls-11" x1="176.91" y1=".05" x2="176.91" y2="124.11"/><line class="cls-11" x1="199.03" y1=".05" x2="199.03" y2="124.11"/></g><line class="cls-11" x1="221.15" y1=".05" x2="-.05" y2=".05"/><line class="cls-11" x1="221.15" y1="124.11" x2="-.05" y2="124.11"/><line class="cls-11" x1="221.15" y1="103.43" x2="-.05" y2="103.43"/><line class="cls-11" x1="221.15" y1="82.76" x2="-.05" y2="82.76"/><line class="cls-11" x1="221.15" y1="62.08" x2="-.05" y2="62.08"/><line class="cls-11" x1="221.15" y1="41.4" x2="-.05" y2="41.4"/><line class="cls-11" x1="221.15" y1="20.72" x2="-.05" y2="20.72"/></g><g class="cls-49"><path class="cls-14" d="M167.35,91.39c-.41,0-.81-.06-1.2-.19l-44.07-13.22c-.55-.16-.96-.62-1.06-1.18l-1.03-5.38c-.17-.88,.45-1.72,1.35-1.81h0c.1-.12,.22-.24,.34-.35l21.29-19.14c.25-.23,.42-.53,.48-.86,.72-3.98,5.38-29.87,5.38-29.87,.39-2.14,2.25-3.7,4.43-3.7,.49,0,.98,.08,1.45,.24l42.34,14.43c2.1,.72,3.38,2.9,2.97,5.09l-5.71,30.42c-.06,.32-.16,.63-.28,.93s-.18,.6-.12,.9l.39,1.95c.11,.56-.1,1.14-.55,1.5l-21.08,16.65s-.08,.06-.11,.1l-2.48,2.4c-.73,.7-1.68,1.09-2.7,1.09h0Z"/><path class="cls-34" d="M195.88,33.3l-42.34-14.43c-.81-.28-1.67,.23-1.82,1.07l-5.46,30.35c-.06,.34,0,.68,.18,.96-.16,.02-.32,.07-.45,.18l-22.4,20.13c-.28,.25-.3,.63-.15,.92l-.24,.02,.53,2.76,43.21,12.96c.28,.1,.59,.03,.81-.17l2.65-2.56,20.5-16.2-.6-3.01c.39-.18,.7-.54,.79-1l5.71-30.42c.13-.68-.26-1.36-.92-1.58Z"/><g><polygon points="123.2 72.52 123.73 75.28 166.94 88.25 190.9 69.32 190.18 65.7 123.2 72.52"/><path class="cls-5" d="M189.26,66.36l-42.09-14.5c-.65-.22-1.04-.89-.92-1.57l5.46-30.35c.15-.84,1.02-1.35,1.82-1.07l42.34,14.43c.66,.22,1.05,.9,.92,1.58l-5.71,30.42c-.16,.84-1.02,1.34-1.83,1.06Z"/><path class="cls-5" d="M166.94,88.25l-43.09-15.36c-.56-.2-.7-.92-.26-1.32l22.4-20.13c.21-.19,.5-.25,.76-.16l42.96,14.01c.56,.18,.72,.9,.3,1.31l-22.27,21.48c-.21,.21-.53,.27-.81,.17Z"/><polygon points="189.63 62.68 148.09 49.45 153.18 21.44 194.54 35.33 189.63 62.68"/><g><path d="M150.15,54.78l-2.45-.86c-.16-.06-.41,0-.55,.11l-.77,.67c-.14,.12-.11,.26,.05,.32l2.46,.86c.17,.06,.41,0,.55-.11l.76-.67c.14-.12,.11-.26-.05-.32Z"/><path d="M148.35,56.37l-2.47-.87c-.17-.06-.41,0-.55,.11l-1.78,1.55c-.14,.12-.12,.27,.05,.33l2.48,.87c.17,.06,.41,0,.55-.11l1.77-1.56c.14-.12,.11-.27-.05-.32Z"/><path d="M152.14,57.7l-2.48-.87c-.17-.06-.41,0-.55,.11l-1.77,1.56c-.14,.12-.11,.27,.05,.33l2.49,.88c.17,.06,.41,0,.55-.11l1.75-1.57c.14-.12,.11-.27-.06-.33Z"/><path d="M151.22,60.17l2.5,.88c.17,.06,.41,0,.55-.12l1.74-1.58c.13-.12,.11-.27-.06-.33l-2.48-.87c-.17-.06-.41,0-.55,.11l-1.75,1.57c-.14,.12-.11,.27,.06,.33Z"/><path d="M155.05,61.52l2.51,.88c.17,.06,.41,0,.55-.12l1.72-1.59c.13-.12,.1-.27-.06-.33l-2.49-.88c-.17-.06-.41,0-.55,.11l-1.74,1.58c-.14,.12-.11,.27,.06,.33Z"/><path d="M158.89,62.88l2.52,.89c.17,.06,.41,0,.55-.12l1.71-1.6c.13-.12,.1-.27-.07-.33l-2.5-.88c-.17-.06-.41,0-.54,.12l-1.72,1.59c-.13,.12-.11,.27,.06,.33Z"/><path d="M162.75,64.24l2.53,.89c.17,.06,.41,0,.55-.12l1.69-1.61c.13-.12,.1-.27-.07-.33l-2.51-.88c-.17-.06-.41,0-.54,.12l-1.7,1.6c-.13,.12-.1,.27,.07,.33Z"/><path d="M166.63,65.6l2.54,.89c.17,.06,.42,0,.55-.12l1.67-1.62c.13-.12,.1-.27-.07-.33l-2.52-.89c-.17-.06-.41,0-.54,.12l-1.69,1.61c-.13,.13-.1,.28,.07,.34Z"/><path d="M175.19,65.78l-2.53-.89c-.17-.06-.41,0-.54,.12l-1.67,1.62c-.13,.13-.1,.28,.07,.34l2.55,.9c.17,.06,.42,0,.54-.12l1.66-1.63c.13-.13,.09-.28-.08-.34Z"/><path d="M179.08,67.15l-2.54-.89c-.17-.06-.41,0-.54,.12l-1.65,1.63c-.13,.13-.09,.28,.08,.34l2.56,.9c.17,.06,.42,0,.54-.12l1.64-1.64c.13-.13,.09-.28-.08-.34Z"/><path d="M182.99,68.52l-2.55-.9c-.17-.06-.41,0-.54,.12l-1.63,1.64c-.13,.13-.09,.28,.08,.34l2.57,.9c.17,.06,.42,0,.54-.12l1.62-1.65c.13-.13,.09-.28-.08-.34Z"/><path d="M145.53,58.85l-2.48-.88c-.17-.06-.42,0-.56,.11l-1.81,1.58c-.14,.12-.12,.27,.05,.33l2.5,.88c.17,.06,.42,0,.56-.12l1.8-1.58c.14-.12,.12-.27-.05-.33Z"/><path d="M149.34,60.2l-2.49-.88c-.17-.06-.42,0-.55,.11l-1.8,1.59c-.14,.12-.12,.27,.05,.33l2.51,.89c.17,.06,.42,0,.56-.12l1.78-1.59c.14-.12,.11-.27-.05-.33Z"/><path d="M148.39,62.71l2.52,.89c.17,.06,.42,0,.56-.12l1.77-1.6c.14-.12,.11-.27-.06-.33l-2.5-.88c-.17-.06-.42,0-.55,.12l-1.78,1.6c-.14,.12-.11,.27,.05,.33Z"/><path d="M152.24,64.08l2.53,.89c.17,.06,.42,0,.56-.12l1.75-1.61c.14-.12,.11-.27-.06-.33l-2.51-.89c-.17-.06-.42,0-.55,.12l-1.76,1.61c-.14,.13-.11,.28,.06,.34Z"/><path d="M156.12,65.45l2.53,.9c.17,.06,.42,0,.55-.12l1.73-1.63c.13-.13,.1-.28-.07-.34l-2.52-.89c-.17-.06-.42,0-.55,.12l-1.75,1.62c-.14,.13-.11,.28,.06,.34Z"/><path d="M160,66.82l2.55,.9c.17,.06,.42,0,.55-.12l1.72-1.64c.13-.13,.1-.28-.07-.34l-2.53-.89c-.17-.06-.42,0-.55,.12l-1.73,1.63c-.14,.13-.11,.28,.06,.34Z"/><path d="M163.9,68.21l2.55,.9c.17,.06,.42,0,.55-.12l1.7-1.65c.13-.13,.1-.28-.07-.34l-2.54-.9c-.17-.06-.42,0-.55,.12l-1.71,1.64c-.13,.13-.1,.28,.07,.34Z"/><path d="M172.54,68.38l-2.55-.9c-.17-.06-.42,0-.55,.12l-1.7,1.65c-.13,.13-.1,.28,.07,.34l2.57,.91c.17,.06,.42,0,.55-.12l1.68-1.66c.13-.13,.1-.28-.08-.34Z"/><path d="M176.46,69.76l-2.56-.9c-.17-.06-.42,0-.55,.12l-1.68,1.66c-.13,.13-.1,.28,.08,.35l2.58,.91c.17,.06,.42,0,.55-.12l1.67-1.67c.13-.13,.09-.28-.08-.34Z"/><path d="M180.4,71.15l-2.57-.91c-.17-.06-.42,0-.54,.12l-1.66,1.67c-.13,.13-.09,.29,.08,.35l2.59,.92c.17,.06,.42,0,.55-.13l1.65-1.68c.13-.13,.09-.28-.08-.34Z"/><path d="M142.65,61.38l-2.5-.89c-.17-.06-.42,0-.56,.12l-1.84,1.6c-.14,.13-.12,.28,.04,.34l2.51,.89c.17,.06,.42,0,.57-.12l1.83-1.61c.14-.12,.12-.27-.05-.33Z"/><path d="M146.49,62.74l-2.51-.89c-.17-.06-.42,0-.56,.12l-1.83,1.61c-.14,.13-.12,.28,.05,.34l2.52,.9c.17,.06,.42,0,.56-.12l1.81-1.62c.14-.13,.12-.28-.05-.33Z"/><path d="M145.51,65.29l2.53,.9c.17,.06,.42,0,.56-.12l1.8-1.63c.14-.13,.11-.28-.06-.34l-2.52-.89c-.17-.06-.42,0-.56,.12l-1.81,1.62c-.14,.13-.12,.28,.05,.34Z"/><path d="M149.39,66.67l2.54,.91c.17,.06,.42,0,.56-.12l1.78-1.64c.14-.13,.11-.28-.06-.34l-2.53-.9c-.17-.06-.42,0-.56,.12l-1.79,1.63c-.14,.13-.12,.28,.06,.34Z"/><path d="M153.29,68.06l2.55,.91c.17,.06,.42,0,.56-.12l1.76-1.65c.14-.13,.11-.28-.06-.34l-2.54-.9c-.17-.06-.42,0-.56,.12l-1.78,1.64c-.14,.13-.11,.28,.06,.34Z"/><path d="M157.21,69.46l2.56,.91c.17,.06,.42,0,.56-.12l1.75-1.66c.13-.13,.1-.28-.07-.34l-2.55-.9c-.17-.06-.42,0-.56,.12l-1.76,1.65c-.14,.13-.11,.28,.06,.34Z"/><path d="M161.14,70.85l2.57,.92c.17,.06,.42,0,.56-.13l1.73-1.67c.13-.13,.1-.28-.07-.34l-2.56-.91c-.17-.06-.42,0-.55,.12l-1.74,1.67c-.14,.13-.11,.29,.07,.35Z"/><path d="M169.86,71.02l-2.57-.91c-.17-.06-.42,0-.55,.12l-1.73,1.68c-.13,.13-.1,.29,.07,.35l2.58,.92c.17,.06,.42,0,.56-.13l1.71-1.68c.13-.13,.1-.29-.07-.35Z"/><path d="M173.81,72.42l-2.58-.91c-.17-.06-.42,0-.55,.12l-1.71,1.69c-.13,.13-.1,.29,.07,.35l2.59,.92c.17,.06,.42,0,.56-.13l1.69-1.7c.13-.13,.1-.29-.08-.35Z"/><path d="M177.77,73.82l-2.59-.92c-.17-.06-.42,0-.55,.13l-1.69,1.7c-.13,.13-.1,.29,.08,.35l2.6,.93c.18,.06,.42,0,.55-.13l1.68-1.71c.13-.13,.09-.29-.08-.35Z"/><path d="M139.73,63.94l-2.52-.9c-.17-.06-.42,0-.57,.12l-1.87,1.63c-.15,.13-.13,.28,.04,.34l2.53,.91c.17,.06,.43,0,.57-.12l1.86-1.64c.14-.13,.12-.28-.05-.34Z"/><path d="M143.6,65.32l-2.53-.9c-.17-.06-.42,0-.57,.12l-1.86,1.64c-.15,.13-.12,.28,.05,.34l2.54,.91c.17,.06,.43,0,.57-.12l1.84-1.65c.14-.13,.12-.28-.05-.34Z"/><path d="M147.53,67.05c.14-.13,.12-.28-.05-.34l-2.54-.9c-.17-.06-.42,0-.57,.12l-1.84,1.65c-.14,.13-.12,.28,.05,.34l2.55,.91c.17,.06,.43,0,.57-.12l1.83-1.66Z"/><path d="M146.5,69.32l14.41,5.16c.17,.06,.43,0,.56-.13l1.76-1.7c.14-.13,.1-.29-.07-.35l-14.33-5.11c-.17-.06-.42,0-.56,.12l-1.82,1.66c-.14,.13-.12,.28,.05,.35Z"/><path d="M167.13,73.71l-2.59-.92c-.17-.06-.42,0-.56,.13l-1.75,1.7c-.14,.13-.11,.29,.07,.35l2.6,.93c.18,.06,.43,0,.56-.13l1.74-1.71c.13-.13,.1-.29-.07-.35Z"/><path d="M171.1,75.12l-2.6-.93c-.17-.06-.42,0-.56,.13l-1.74,1.72c-.14,.13-.1,.29,.07,.36l2.61,.93c.18,.06,.43,0,.56-.13l1.72-1.72c.13-.13,.1-.29-.08-.35Z"/><path d="M175.09,76.54l-2.61-.93c-.17-.06-.42,0-.56,.13l-1.72,1.73c-.13,.13-.1,.3,.08,.36l2.62,.94c.18,.06,.43,0,.56-.13l1.7-1.74c.13-.13,.1-.29-.08-.36Z"/><path d="M153.93,56.1l-2.46-.86c-.17-.06-.41,0-.54,.11l-.76,.67c-.14,.12-.11,.26,.05,.32l2.47,.87c.17,.06,.41,0,.55-.11l.76-.68c.13-.12,.11-.26-.06-.32Z"/><path d="M154,57.67l2.48,.87c.17,.06,.41,0,.54-.11l.75-.68c.13-.12,.11-.27-.06-.32l-2.47-.87c-.17-.06-.41,0-.54,.11l-.76,.68c-.13,.12-.11,.27,.06,.32Z"/><path d="M157.8,59.01l2.49,.87c.17,.06,.41,0,.54-.11l.74-.68c.13-.12,.1-.27-.06-.33l-2.48-.87c-.17-.06-.41,0-.54,.11l-.75,.68c-.13,.12-.11,.27,.06,.33Z"/><path d="M161.62,60.35l2.5,.88c.17,.06,.41,0,.54-.12l.74-.69c.13-.12,.1-.27-.07-.33l-2.49-.87c-.17-.06-.41,0-.54,.11l-.74,.69c-.13,.12-.1,.27,.06,.33Z"/><path d="M165.46,61.69l2.51,.88c.17,.06,.41,0,.54-.12l.73-.69c.13-.12,.1-.27-.07-.33l-2.5-.88c-.17-.06-.41,0-.54,.11l-.73,.69c-.13,.12-.1,.27,.07,.33Z"/><path d="M169.3,63.04l2.52,.88c.17,.06,.41,0,.54-.12l.72-.7c.13-.12,.09-.27-.08-.33l-2.51-.88c-.17-.06-.41,0-.54,.12l-.73,.69c-.13,.12-.1,.27,.07,.33Z"/><path d="M176.87,64.13l-2.52-.88c-.17-.06-.41,0-.54,.12l-.72,.7c-.13,.12-.09,.27,.08,.33l2.53,.89c.17,.06,.41,0,.54-.12l.71-.7c.13-.12,.09-.27-.08-.33Z"/><path d="M180.75,65.48l-2.53-.89c-.17-.06-.41,0-.54,.12l-.71,.7c-.13,.13-.09,.28,.08,.34l2.54,.89c.17,.06,.41,0,.54-.12l.71-.71c.13-.13,.09-.27-.08-.33Z"/><path d="M184.64,66.84l-2.54-.89c-.17-.06-.41,0-.53,.12l-.7,.71c-.13,.13-.09,.28,.08,.34l2.55,.89c.17,.06,.41,0,.54-.12l.7-.71c.12-.13,.09-.28-.09-.34Z"/><path class="cls-26" d="M160.02,76.28l-15.88-5.7c-.19-.07-.48,0-.65,.14l-4.99,4.53c-.17,.15-.14,.33,.05,.41l16.09,5.83c.2,.07,.49,0,.66-.15l4.79-4.65c.16-.15,.12-.33-.07-.4Z"/></g><polygon class="cls-34" points="178.77 59.22 174.45 57.85 166.83 26.02 172.81 28.05 178.77 59.22"/><polygon class="cls-34" points="184.48 61.04 181.93 60.23 175.09 28.84 179.08 30.19 184.48 61.04"/></g></g><path d="M49.84,21.65l-11.91,8.54c-.12,.08-.1,.32,.08,.3l14.38-1.51c.17-.02,.21-.2,.08-.3l-7.46-5.68c-.13-.1-.26,.06-.24,.18,.35,1.94,.76,3.86,1.24,5.77,.23,.93,.48,1.86,.75,2.78,.13,.45,.21,1.07,.78,1.08,.07,0,.14-.05,.16-.12,1.23-3.89,2.43-7.79,3.6-11.7,.06-.2-.25-.29-.31-.09-1.04,3.5-2.12,6.99-3.21,10.47-.06,.18-.11,.36-.17,.54-.08,.25-.1,.57-.37,.24-.22-.27-.28-.98-.38-1.32-.23-.84-.45-1.68-.66-2.52-.42-1.73-.79-3.48-1.11-5.23l-.24,.18,7.46,5.68,.08-.3-14.38,1.51,.08,.3,11.91-8.54c.17-.12,0-.4-.16-.28h0Z"/><path d="M55.65,15.39c-2.5-.24-4.98,.22-7.48-.03-.12-.01-.13,.14-.05,.2,1.97,1.41,3.69,3.12,5.66,4.53,.08,.06,.17-.04,.16-.12l-1.19-6c-.02-.09-.15-.1-.19-.03-.66,1.1-1.29,2.21-1.88,3.35-.29,.57-.58,1.14-.85,1.72-.11,.24-.36,.62-.08,.83,.04,.03,.09,.04,.13,.02,2.28-1.37,4.55-2.76,6.81-4.16,.12-.07,0-.26-.11-.18-2.02,1.26-4.06,2.51-6.1,3.74-.12,.07-.24,.14-.36,.21-.1,.06-.25,.21-.27,.01-.01-.08,.19-.41,.23-.5,.06-.12,.12-.24,.17-.36,.25-.5,.5-1,.76-1.5,.55-1.04,1.13-2.06,1.73-3.07l-.19-.03,1.19,6,.16-.12c-1.97-1.41-3.69-3.12-5.66-4.53l-.05,.2c2.5,.24,4.98-.22,7.48,.03,.14,.01,.14-.2,0-.21h0Z"/><g><g class="cls-38"><path class="cls-31" d="M120.57,103.42c-1.56,.23-3.02-.86-3.24-2.42l-.45-3.06-5.79-20.25c-.17-.59,.22-1.19,.82-1.27l17.89-2.6c.6-.09,1.15,.38,1.15,.99l.22,21.06,.45,3.06c.23,1.56-.86,3.01-2.42,3.24l-8.64,1.26Z"/><g><polygon class="cls-22" points="129.26 96.02 129.04 75.79 122.32 76.77 119.72 77.15 113 78.13 118.56 97.57 129.26 96.02"/><path class="cls-8" d="M118.87,97.48h10.8v1.95c0,.89-.72,1.61-1.61,1.61h-7.58c-.89,0-1.61-.72-1.61-1.61v-1.95h0Z" transform="translate(-13 18.94) rotate(-8.28)"/><rect class="cls-30" x="118.56" y="96.79" width="10.8" height=".71" transform="translate(-12.7 18.87) rotate(-8.28)"/><polygon points="122.32 76.77 123.43 96.87 129.25 96.02 129.04 75.79 122.32 76.77"/><text class="cls-20" transform="translate(128.51 91.3) rotate(-90.59)"><tspan x="0" y="0">WASH</tspan></text><polygon class="cls-34" points="124.13 76.59 125.01 96.56 123.42 96.79 122.33 76.85 124.13 76.59"/><line class="cls-12" x1="121.14" y1="76.94" x2="121.35" y2="97.17"/><line class="cls-12" x1="117.95" y1="77.36" x2="122.69" y2="97.02"/></g></g><g class="cls-43"><path class="cls-31" d="M130.51,103.15c-1.11-.29-1.78-1.43-1.5-2.54l.56-2.18,1.8-15.06c.06-.54,.59-.89,1.11-.76l12.4,3.21c.52,.14,.81,.7,.6,1.2l-5.72,14.04-.56,2.18c-.29,1.11-1.43,1.78-2.54,1.5l-6.16-1.59Z"/><path class="cls-34" d="M139.29,85.74l-1.85-.48-4.79-1.24-1.75,14.64h0l-.13,.5-.46,1.78c-.1,.4,.14,.82,.54,.92l6.16,1.59c.4,.1,.82-.14,.92-.54l.46-1.78,.13-.5h0l5.56-13.65-4.79-1.24Z"/><g><polygon class="cls-16" points="138.44 100.63 144 86.98 139.21 85.74 137.35 85.26 132.56 84.02 130.81 98.66 138.44 100.63"/><path class="cls-10" d="M130.24,100.1h7.87v.98c0,.89-.72,1.61-1.61,1.61h-4.65c-.89,0-1.61-.72-1.61-1.61v-.98h0Z" transform="translate(29.64 -30.35) rotate(14.49)"/><rect class="cls-33" x="130.63" y="99.63" width="7.87" height=".52" transform="translate(29.28 -30.5) rotate(14.49)"/><polygon points="139.21 85.74 134.28 99.55 138.44 100.63 144 86.98 139.21 85.74"/><text class="cls-28" transform="translate(139.22 97.2) rotate(-67.82)"><tspan x="0" y="0">WASH</tspan></text><polygon class="cls-34" points="140.48 86.13 135.43 99.79 134.3 99.5 139.19 85.79 140.48 86.13"/><line class="cls-13" x1="138.37" y1="85.52" x2="132.8" y2="99.17"/><line class="cls-13" x1="136.11" y1="84.9" x2="133.74" y2="99.45"/></g></g></g><g class="cls-41"><g><g><text class="cls-1" transform="translate(71.27 39.88) rotate(-8.28)"><tspan x="0" y="0">ICN</tspan></text><text class="cls-1" transform="translate(92.85 36.74) rotate(-8.28)"><tspan x="0" y="0">JFK</tspan></text></g><g><g><text class="cls-7" transform="translate(75.12 49.18) rotate(-8.28)"><tspan x="0" y="0">Date</tspan></text><text class="cls-24" transform="translate(74.13 51.19) rotate(-8.28)"><tspan x="0" y="0">22/08/26</tspan></text></g><g><text class="cls-7" transform="translate(87.47 47.38) rotate(-8.28)"><tspan x="0" y="0">Flight</tspan></text><text class="cls-24" transform="translate(87.82 49.2) rotate(-8.28)"><tspan x="0" y="0">A9322</tspan></text></g><g><text class="cls-7" transform="translate(100.62 45.47) rotate(-8.28)"><tspan x="0" y="0">Gate</tspan></text><text class="cls-24" transform="translate(101.25 47.25) rotate(-8.28)"><tspan x="0" y="0">D09</tspan></text></g></g><g><g><text class="cls-7" transform="translate(76.09 55.06) rotate(-8.28)"><tspan x="0" y="0">Seat</tspan></text><text class="cls-24" transform="translate(77.04 56.79) rotate(-8.28)"><tspan x="0" y="0">C11</tspan></text></g><g><text class="cls-7" transform="translate(88.6 53.24) rotate(-8.28)"><tspan x="0" y="0">Code</tspan></text><text class="cls-24" transform="translate(90.37 54.85) rotate(-8.28)"><tspan x="0" y="0">7</tspan></text></g><g><text class="cls-7" transform="translate(101.36 51.38) rotate(-8.28)"><tspan x="0" y="0">Time</tspan></text><text class="cls-24" transform="translate(101.74 53.19) rotate(-8.28)"><tspan x="0" y="0">14:50</tspan></text></g></g></g><rect class="cls-29" x="64.23" y="14.14" width="48.37" height="58.7" rx="6.33" ry="6.33" transform="translate(-5.34 13.19) rotate(-8.28)"/><g><g><rect class="cls-25" x="66.36" y="16.27" width="44.13" height="54.46" rx="5.62" ry="5.62" transform="translate(-5.34 13.19) rotate(-8.28)"/><rect class="cls-47" x="66.65" y="35.9" width="43.91" height="17.63" transform="translate(-5.52 13.23) rotate(-8.28)"/><g><rect class="cls-9" x="64.41" y="23" width="44.13" height="14.19" transform="translate(-3.43 12.77) rotate(-8.28)"/><g><text class="cls-3" transform="translate(70.5 34.62) rotate(-8.28)"><tspan x="0" y="0">ICN</tspan></text><text class="cls-3" transform="translate(92.08 31.48) rotate(-8.28)"><tspan x="0" y="0">JFK</tspan></text></g><path d="M88.14,29.45l-1.31,.19-1.36-1.22,.52,1.34-.91,.13-.64-.48-.07,.52,.46,.37v.05l-.33,.49,.22,.48,.48-.65,.91-.13-.12,1.43,.95-1.55,1.31-.19c.17-.02,.28-.18,.26-.34l-.03-.19c-.02-.17-.18-.28-.34-.26Z"/></g></g><g><rect x="74.97" y="59.47" width=".29" height="7.91" transform="translate(-8.35 11.48) rotate(-8.28)"/><rect x="75.72" y="59.36" width=".29" height="7.91" transform="translate(-8.33 11.59) rotate(-8.28)"/><rect x="76.33" y="59.27" width=".29" height="7.91" transform="translate(-8.31 11.68) rotate(-8.28)"/><rect x="89.92" y="57.3" width=".19" height="7.91" transform="translate(-7.89 13.61) rotate(-8.28)"/><rect x="90.52" y="57.22" width=".19" height="7.91" transform="translate(-7.87 13.69) rotate(-8.28)"/><rect x="93.58" y="56.77" width=".19" height="7.91" transform="translate(-7.77 14.13) rotate(-8.28)"/><rect x="100.33" y="55.79" width=".19" height="7.91" transform="translate(-7.56 15.09) rotate(-8.28)"/><rect x="101.34" y="55.64" width=".19" height="7.91" transform="translate(-7.53 15.23) rotate(-8.28)"/><rect x="105.38" y="55.05" width=".19" height="7.91" transform="translate(-7.4 15.81) rotate(-8.28)"/><rect x="106.04" y="54.96" width=".19" height="7.91" transform="translate(-7.38 15.9) rotate(-8.28)"/><rect x="106.82" y="54.84" width=".19" height="7.91" transform="translate(-7.36 16.01) rotate(-8.28)"/><rect x="103.09" y="55.39" width=".19" height="7.91" transform="translate(-7.47 15.48) rotate(-8.28)"/><rect x="91.22" y="57.12" width=".19" height="7.91" transform="translate(-7.85 13.79) rotate(-8.28)"/><rect x="86.16" y="57.84" width=".29" height="7.91" transform="translate(-8 13.08) rotate(-8.28)"/><rect x="77.01" y="59.1" width="1.31" height="7.91" transform="translate(-8.27 11.85) rotate(-8.28)"/><rect x="79.44" y="58.75" width="1.31" height="7.91" transform="translate(-8.2 12.19) rotate(-8.28)"/><rect x="78.62" y="58.94" width=".35" height="7.91" transform="translate(-8.24 12.01) rotate(-8.28)"/><rect x="84.84" y="58.01" width=".61" height="7.91" transform="translate(-8.04 12.91) rotate(-8.28)"/><rect x="81.34" y="58.54" width=".35" height="7.91" transform="translate(-8.15 12.39) rotate(-8.28)"/><rect x="83.45" y="58.23" width=".35" height="7.91" transform="translate(-8.09 12.7) rotate(-8.28)"/><rect x="82.5" y="58.36" width=".54" height="7.91" transform="translate(-8.11 12.57) rotate(-8.28)"/><rect x="87.27" y="57.67" width=".54" height="7.91" transform="translate(-7.96 13.25) rotate(-8.28)"/><rect x="88.15" y="57.54" width=".54" height="7.91" transform="translate(-7.94 13.38) rotate(-8.28)"/><rect x="99.11" y="55.93" width=".72" height="7.91" transform="translate(-7.59 14.95) rotate(-8.28)"/><rect x="103.8" y="55.23" width=".88" height="7.91" transform="translate(-7.44 15.63) rotate(-8.28)"/><rect x="95.64" y="56.45" width=".54" height="7.91" transform="translate(-7.7 14.45) rotate(-8.28)"/><rect x="96.62" y="56.3" width=".54" height="7.91" transform="translate(-7.67 14.59) rotate(-8.28)"/><rect x="97.61" y="56.16" width=".54" height="7.91" transform="translate(-7.64 14.73) rotate(-8.28)"/><rect x="94.27" y="56.65" width=".54" height="7.91" transform="translate(-7.74 14.25) rotate(-8.28)"/><rect x="91.85" y="56.97" width=".9" height="7.91" transform="translate(-7.81 13.93) rotate(-8.28)"/></g><g><g><text class="cls-35" transform="translate(74.36 43.92) rotate(-8.28)"><tspan x="0" y="0">Date</tspan></text><text class="cls-39" transform="translate(73.37 45.93) rotate(-8.28)"><tspan x="0" y="0">22/08/26</tspan></text></g><g><text class="cls-35" transform="translate(86.7 42.12) rotate(-8.28)"><tspan x="0" y="0">Flight</tspan></text><text class="cls-39" transform="translate(87.06 43.94) rotate(-8.28)"><tspan x="0" y="0">A9322</tspan></text></g><g><text class="cls-35" transform="translate(99.86 40.21) rotate(-8.28)"><tspan x="0" y="0">Gate</tspan></text><text class="cls-39" transform="translate(100.49 41.99) rotate(-8.28)"><tspan x="0" y="0">D09</tspan></text></g></g><g><g><text class="cls-35" transform="translate(75.33 49.8) rotate(-8.28)"><tspan x="0" y="0">Seat</tspan></text><text class="cls-39" transform="translate(76.27 51.53) rotate(-8.28)"><tspan x="0" y="0">C11</tspan></text></g><g><text class="cls-35" transform="translate(87.84 47.98) rotate(-8.28)"><tspan x="0" y="0">Code</tspan></text><text class="cls-39" transform="translate(89.6 49.59) rotate(-8.28)"><tspan x="0" y="0">7</tspan></text></g><g><text class="cls-35" transform="translate(100.6 46.12) rotate(-8.28)"><tspan x="0" y="0">Time</tspan></text><text class="cls-39" transform="translate(100.98 47.93) rotate(-8.28)"><tspan x="0" y="0">14:50</tspan></text></g></g></g></g><g class="cls-50"><path class="cls-17" d="M73.6,107.56c-5.93,0-50.13-8.2-55.15-9.13l-.14-.03c-.91-.17-1.67-.78-2.03-1.62l-.06-.13c-.16-.37-3.92-9.22,.12-15.67l.07-.11c.42-.68,1.12-1.14,1.91-1.27l.95-.15c.12-.02,.23-.05,.35-.08l1.55-.46c1.21-.36,2.02-1.49,1.98-2.75l-.22-6.7c-.04-1.33,.54-2.55,1.54-3.34,.48-.51,1.14-.85,1.86-.95l31.92-4.3h.69l38.4,4.65c1.13,.14,1.98,1.09,1.99,2.23v1.71l.44,8.98v1.69c0,.85-.39,1.66-1.06,2.18l-5.82,4.55c-.88,.69-1.26,1.84-.97,2.92l.87,3.16c.31,1.13-.13,2.34-1.09,3.01l-15.3,10.59-.4,.57-1.01,.3c-.39,.11-.8,.17-1.33,.17Z"/><g><g><path class="cls-2" d="M18.91,82.58l53.94,8.61s.11,12.39,1.22,13.23c.02,.02,.03,.04,0,.05-2.51,.74-55.07-9.04-55.07-9.04,0,0-3.33-7.68-.09-12.85Z"/><polygon class="cls-27" points="20.11 82.38 35.91 77.69 76.21 88.45 72.86 91.14 20.11 82.38"/><polygon class="cls-23" points="89.15 93.05 75.17 102.45 74.18 91.53 87.32 84.22 89.15 93.05"/><polygon class="cls-23" points="96.7 78.49 80.77 90.62 79.78 77.69 96.24 69.06 96.7 78.49"/><path class="cls-21" d="M74.18,104.32l15.59-10.79-.38-1.4-14.22,10.32-.71-10.98,2.53-1.48-.26-1.36-3.86,2.51s-.05,11.31,1.32,13.18Z"/><path class="cls-4" d="M80.15,90.74l-52.96-9.35c-.49-.09-.86-.51-.87-1.01l-.37-11.04c-.02-.66,.56-1.18,1.22-1.08l53.11,8.21c.51,.08,.89,.51,.9,1.03l.21,12.18c.01,.66-.59,1.17-1.24,1.06Z"/><path class="cls-32" d="M80.84,76.76l-54.13-8.41c-.1-.02-.1-.16,0-.17l31.9-4.3h0l37.57,3.86s.02,.03,0,.04l-15.34,8.99s0,0-.01,0Z"/><polygon class="cls-18" points="81.01 77.96 96.24 69.06 96.24 67.74 80.95 76.69 81.01 77.96"/><polygon class="cls-6" points="81.16 90.34 96.7 78.49 96.7 79.97 82.57 91.01 80.15 90.74 81.16 90.34"/></g><g><g><path class="cls-48" d="M40.36,74.3c-.06,.1-.16,.24-.29,.4-.13,.16-.26,.32-.41,.48-.14,.16-.28,.29-.41,.4-.13,.11-.22,.16-.26,.15l-2.91-.42-.8,1.77,.06-1.1,3.17,.46-1.58,1.39-1.87-.27-.31,.68,3.61,.52s-.03,.05-.06,.09c-.03,.05-.06,.1-.1,.15s-.07,.1-.1,.14c-.03,.04-.05,.07-.06,.08-.07,.09-.16,.19-.28,.3-.12,.11-.23,.22-.34,.32-.11,.1-.21,.18-.29,.25-.08,.07-.13,.1-.13,.1l-4.74-.69,2.73-5.97,5.37,.78Z"/><path class="cls-48" d="M40.87,74.37l2.27,.33,.03,3.59,1.53-3.36,1.79,.26-2.72,5.98-2.28-.33-.02-3.58-1.52,3.36-1.81-.26,2.73-5.97Z"/><path class="cls-48" d="M51.5,78.32l-1.74,3.71-1.41-.21c-.38-.06-.76-.15-1.12-.29-.36-.14-.67-.34-.93-.6-.26-.26-.45-.58-.58-.98-.13-.4-.15-.88-.07-1.44,.05-.38,.18-.76,.36-1.14s.42-.72,.69-1.02c.27-.3,.57-.53,.9-.69s.66-.22,.99-.18l3.9,.57c-.22,.27-.45,.53-.67,.76-.22,.24-.46,.46-.73,.66l-2.45-.36c-.1-.01-.2,0-.3,.06-.1,.05-.2,.13-.29,.23-.09,.1-.18,.21-.27,.34-.08,.13-.15,.26-.21,.38-.04,.09-.07,.18-.1,.26-.03,.08-.05,.15-.06,.21-.02,.15-.01,.31,.02,.49,.04,.18,.09,.34,.17,.5s.16,.29,.27,.4c.1,.11,.21,.17,.32,.19l.57,.08,.32-.73-1.06-.15h0s.06-.11,.15-.22,.2-.25,.32-.4c.12-.15,.25-.29,.39-.44s.25-.25,.35-.33l2.26,.33Z"/><path class="cls-48" d="M50.33,82.11l2.73-5.97,1.8,.26-2.04,4.45,2.99,.43s-.04,.06-.14,.18c-.1,.12-.22,.26-.37,.42-.14,.16-.29,.32-.45,.48-.16,.16-.28,.27-.38,.35l-4.14-.6Z"/><path class="cls-48" d="M58.34,76.91l1.81,.26-2.72,5.98-1.81-.26,2.72-5.98Z"/><path class="cls-48" d="M62.74,81.9v-.07c.02-.06,.02-.13,.01-.2,0-.07-.04-.11-.09-.12l-1.88-.27c-.19-.03-.35-.11-.49-.24-.14-.14-.24-.3-.33-.49-.08-.19-.13-.4-.16-.62-.03-.22-.03-.43,0-.64,.03-.19,.1-.4,.22-.62,.12-.23,.27-.44,.44-.63,.17-.2,.36-.35,.55-.47,.19-.12,.38-.17,.56-.14l4.8,.7c-.19,.25-.39,.49-.61,.73-.22,.24-.46,.48-.73,.71l-3.11-.45c-.07-.01-.14,.04-.21,.15-.07,.11-.11,.2-.12,.27v.06s0,.03,.02,.06c.02,.03,.04,.06,.05,.07,.02,.03,.05,.07,.09,.1,.04,.03,.07,.05,.08,.05l1.79,.26c.21,.03,.38,.12,.51,.26,.13,.14,.22,.31,.29,.51s.1,.41,.11,.62c0,.22,0,.42-.03,.6v.07c-.04,.2-.11,.42-.22,.64-.11,.22-.24,.42-.39,.6-.15,.18-.32,.32-.49,.43-.18,.11-.35,.15-.52,.12l-4.8-.7c.04-.07,.13-.19,.25-.35,.12-.16,.25-.32,.39-.48s.26-.3,.37-.43c.11-.12,.18-.18,.2-.18l3.2,.46c.09,.01,.15-.01,.18-.08,.03-.07,.05-.14,.06-.22v-.07Z"/><path class="cls-48" d="M66.92,78.15l1.8,.26-1.59,3.49,.12-1.24,2.45,.36,1.06-2.31,1.79,.26-2.72,5.98-1.79-.26,.97-2.14-2.04-.3-.97,2.14-1.81-.26,2.73-5.97Z"/></g><polygon class="cls-48" points="49.24 77.99 48.33 77.86 48.03 79.37 49.24 77.99"/></g><g><path class="cls-36" d="M25.87,89.61l-.73-.15-.39,1.37h0l.96,.17-.31,.66-.51-.08c-.1-.02-.19-.08-.29-.18-.09-.1-.17-.22-.23-.37s-.11-.29-.14-.46c-.03-.16-.04-.31-.01-.44,0-.06,.03-.12,.05-.19,.03-.07,.06-.15,.09-.23,.06-.11,.12-.23,.2-.34,.08-.11,.16-.22,.25-.3,.09-.09,.18-.15,.27-.2,.09-.05,.18-.06,.28-.05l2.21,.36c.24-.18,.46-.37,.67-.58,.21-.21,.41-.44,.62-.68l-3.52-.58c-.3-.05-.6,0-.9,.14s-.58,.35-.83,.61c-.25,.26-.47,.57-.64,.91s-.29,.68-.35,1.02c-.08,.51-.07,.95,.04,1.31,.11,.36,.28,.66,.51,.9,.23,.24,.51,.42,.83,.56,.32,.13,.66,.23,1.01,.29l1.28,.21,1.64-3.33-2.04-.34Z"/><path class="cls-36" d="M32.08,91.92c.27-.02,.52-.08,.76-.18,.24-.1,.45-.26,.63-.47,.18-.21,.3-.5,.36-.86,.03-.16,.05-.34,.06-.54,.01-.19,0-.38-.04-.55-.04-.17-.11-.32-.22-.45-.11-.13-.26-.21-.47-.24l-3.8-.63-2.58,5.36,1.64,.27,.88-1.84,.11-.07,1.41,2.31,1.83,.3-1.32-2.41c.23,.02,.48,.02,.74,0Zm-2.06-1.61l.32-.68,1.71,.28c.07,.01,.11,.04,.12,.08,0,.04,0,.09,0,.15l-.02,.12c-.01,.07-.04,.15-.09,.24s-.12,.13-.2,.11l-1.83-.3Z"/><path class="cls-36" d="M38.94,90.36c0-.13-.02-.25-.03-.37s-.04-.22-.07-.31c-.03-.09-.08-.13-.13-.14l-1.43-.23s-.1,.01-.17,.05-.14,.09-.21,.15-.14,.12-.2,.18c-.06,.06-.1,.11-.12,.15l-3.87,4.39v.03s-.02,.02-.04,.07l3.59,.59s.12-.07,.22-.17,.21-.21,.32-.33c.11-.12,.21-.23,.3-.34,.09-.11,.14-.18,.16-.22l-.02,1.23,1.52,.25,.19-4.65c0-.09-.01-.2-.02-.33Zm-3.36,2.99l.02-.11,1.82-2.16-.11,2.55-1.72-.28Z"/><polygon class="cls-36" points="46.3 90.79 43.75 93.28 43.78 90.38 41.72 90.04 39.15 95.4 40.78 95.67 42.22 92.66 42.17 95.9 42.76 96 45.59 93.21 44.16 96.23 45.78 96.5 48.36 91.13 46.3 90.79"/><polygon class="cls-36" points="53.41 91.97 50.86 94.45 50.89 91.55 48.84 91.21 46.26 96.58 47.9 96.85 49.33 93.83 49.28 97.07 49.88 97.17 52.71 94.38 51.27 97.4 52.9 97.67 55.47 92.31 53.41 91.97"/><path class="cls-36" d="M59.58,93.77c0-.13-.02-.25-.03-.37s-.04-.22-.07-.31c-.03-.09-.08-.13-.13-.14l-1.43-.23s-.1,.01-.17,.05-.14,.09-.21,.15-.14,.12-.2,.18c-.06,.06-.1,.11-.12,.15l-3.87,4.39v.03s-.02,.02-.04,.07l3.59,.59s.12-.07,.22-.17,.21-.21,.32-.33c.11-.12,.21-.23,.3-.34,.09-.11,.14-.18,.16-.22l-.02,1.23,1.52,.25,.19-4.65c0-.09-.01-.2-.02-.33Zm-3.36,2.99l.02-.11,1.82-2.16-.11,2.55-1.72-.28Z"/><path class="cls-36" d="M66.89,95.31c.01-.19,0-.38-.04-.55-.04-.17-.11-.32-.22-.45-.11-.13-.26-.21-.47-.24l-3.8-.63-2.58,5.36,1.64,.27,.88-1.84,.11-.07,1.41,2.31,1.83,.3-1.32-2.41c.23,.02,.48,.02,.74,0s.52-.08,.76-.18c.24-.1,.45-.26,.63-.47,.18-.21,.3-.5,.36-.86,.03-.16,.05-.34,.06-.54Zm-1.73,.38c-.01,.07-.04,.15-.09,.24s-.12,.13-.2,.11l-1.83-.3,.32-.68,1.71,.28c.07,.01,.11,.04,.12,.08,0,.04,0,.09,0,.15l-.02,.12Z"/></g><line class="cls-15" x1="84.07" y1="80.18" x2="94.89" y2="72.85"/><line class="cls-15" x1="84.07" y1="82.5" x2="94.89" y2="75.18"/><line class="cls-15" x1="84.07" y1="84.83" x2="94.89" y2="77.5"/><g><line class="cls-15" x1="76.71" y1="95.96" x2="87.53" y2="88.63"/><line class="cls-15" x1="76.75" y1="97.56" x2="87.57" y2="90.23"/><line class="cls-15" x1="76.71" y1="99.16" x2="87.53" y2="91.84"/></g><line class="cls-15" x1="76.64" y1="94.05" x2="80.75" y2="91.35"/></g></g><g><rect x="190.74" y="82.4" width="11.74" height="2.76" transform="translate(48.91 -70.69) rotate(23.2)"/><rect class="cls-44" x="190.7" y="83.04" width="11.74" height="2.76" transform="translate(49.16 -70.62) rotate(23.2)"/><rect x="182.81" y="90.71" width="11.74" height="2.76" transform="translate(222.15 -115.18) rotate(73.16)"/><rect class="cls-46" x="182.43" y="91.08" width="11.74" height="2.76" transform="translate(222.23 -114.55) rotate(73.16)"/></g><g><g><polygon points="56.25 61.26 52.25 61.17 51.81 65.14 48.16 63.52 46.23 67.03 43.47 64.13 40.35 66.64 38.91 62.9 35.06 64.02 35.16 60.02 31.18 59.58 32.8 55.92 29.3 53.99 32.19 51.23 29.69 48.11 33.42 46.67 32.31 42.83 36.31 42.92 36.74 38.94 40.4 40.57 42.33 37.06 45.09 39.96 48.21 37.45 49.65 41.19 53.49 40.07 53.4 44.07 57.38 44.51 55.75 48.17 59.26 50.1 56.36 52.86 58.87 55.98 55.14 57.42 56.25 61.26"/><g><polygon points="55.36 60.57 51.65 60.48 51.25 64.16 47.87 62.66 46.08 65.91 43.53 63.23 40.64 65.55 39.31 62.09 35.75 63.12 35.84 59.42 32.16 59.02 33.66 55.63 30.42 53.85 33.1 51.29 30.78 48.4 34.23 47.07 33.2 43.52 36.9 43.6 37.31 39.92 40.69 41.43 42.48 38.18 45.03 40.86 47.92 38.54 49.25 42 52.81 40.97 52.72 44.67 56.4 45.07 54.9 48.46 58.14 50.24 55.46 52.8 57.78 55.68 54.32 57.02 55.36 60.57"/><polygon class="cls-19" points="55.36 60.57 51.65 60.48 51.25 64.16 47.87 62.66 46.08 65.91 43.53 63.23 40.64 65.55 39.31 62.09 35.75 63.12 35.84 59.42 32.16 59.02 33.66 55.63 30.42 53.85 33.1 51.29 30.78 48.4 34.23 47.07 33.2 43.52 36.9 43.6 37.31 39.92 40.69 41.43 42.48 38.18 45.03 40.86 47.92 38.54 49.25 42 52.81 40.97 52.72 44.67 56.4 45.07 54.9 48.46 58.14 50.24 55.46 52.8 57.78 55.68 54.32 57.02 55.36 60.57"/></g><g><polygon points="38.46 53.82 38.5 53.86 38.52 53.85 38.46 53.79 38.46 53.82"/><polygon points="38.5 53.79 38.5 53.81 38.53 53.81 38.53 53.79 38.5 53.79"/><polygon points="37.52 54.26 37.41 54.32 37.41 54.44 37.57 54.36 37.52 54.26"/></g></g><text class="cls-45" transform="translate(36.11 57.74) rotate(-24.29)"><tspan class="cls-42" x="0" y="0">S</tspan><tspan class="cls-40" x="3.66" y="0">tu</tspan><tspan class="cls-37" x="11.01" y="0">d</tspan><tspan x="14.43" y="0">y</tspan></text></g></svg>